<svg width="331" height="361" viewBox="0 0 331 361" fill="none" xmlns="http://www.w3.org/2000/svg">
<g clip-path="url(#clip0_190_422)">
<path d="M316.327 142.08L295.811 45.7773L295.692 45.2994C293.171 33.9908 286.282 24.1334 276.522 17.8709C266.763 11.6085 254.922 9.44738 243.576 11.8576L240.814 12.445L240.166 10.8919C239.231 8.6814 237.489 6.90906 235.293 5.93463C233.098 4.9602 230.613 4.85671 228.343 5.64516C228.154 5.71485 227.955 5.77459 227.765 5.85424C225.758 6.70109 224.104 8.21281 223.082 10.1349C222.059 12.057 221.731 14.2722 222.153 16.4075L216.291 17.6519L215.593 16.0092C214.66 13.7995 212.92 12.0273 210.726 11.0528C208.532 10.0783 206.049 9.97447 203.781 10.7625L203.192 10.9716C201.169 11.8253 199.507 13.3547 198.488 15.298C197.47 17.2413 197.159 19.4777 197.61 21.6243L191.459 22.9286L190.722 21.1863C189.789 18.9765 188.048 17.2044 185.854 16.2299C183.66 15.2553 181.177 15.1515 178.909 15.9395L178.321 16.1486C176.282 17.0091 174.61 18.5562 173.595 20.5208C172.581 22.4854 172.288 24.7431 172.768 26.901L166.627 28.2052L165.85 26.3733C164.915 24.174 163.182 22.4095 160.998 21.4344C158.814 20.4592 156.341 20.3457 154.077 21.1166C153.877 21.1793 153.681 21.2524 153.489 21.3356C151.435 22.2021 149.754 23.765 148.742 25.7486C147.73 27.7322 147.451 30.009 147.956 32.1776L141.835 33.4818L141.018 31.5503C140.084 29.329 138.336 27.5482 136.13 26.5727C133.925 25.5973 131.429 25.501 129.155 26.3036C128.955 26.3628 128.759 26.4326 128.567 26.5127C126.495 27.3857 124.803 28.9681 123.794 30.9753C122.786 32.9826 122.527 35.2834 123.064 37.4641L116.953 38.7684L116.096 36.7772C115.18 34.5534 113.448 32.7628 111.254 31.7711C109.061 30.7793 106.571 30.6612 104.293 31.4408C104.094 31.5105 103.894 31.5703 103.705 31.6499C101.617 32.5306 99.9154 34.1306 98.9092 36.1587C97.9029 38.1869 97.6592 40.5084 98.2223 42.7009L92.1314 43.9952L91.2342 41.8646C90.2973 39.658 88.5565 37.8889 86.3637 36.9149C84.1709 35.941 81.6895 35.8348 79.4213 36.6179C79.2216 36.6806 79.0253 36.7537 78.8332 36.8369V36.8369C76.7142 37.7169 74.9877 39.3361 73.9754 41.393C72.963 43.4499 72.7338 45.8042 73.3305 48.0174L70.3399 48.6645C58.9837 51.0731 49.0404 57.8652 42.6753 67.5618C36.3103 77.2584 34.0392 89.0739 36.3567 100.435C36.3567 100.594 36.3567 100.754 36.4464 100.913L56.9619 197.226C62.674 224.107 86.5988 241.739 110.384 236.691L283.61 199.854C307.395 194.797 322.039 168.931 316.327 142.08Z" fill="#C1D9DB"/>
<path d="M236.218 6.7402L62.9826 43.5769C51.6278 45.9879 41.6861 52.7806 35.3215 62.4765C28.9569 72.1724 26.6847 83.9866 28.9994 95.3475L288.345 40.2517C285.837 28.9294 278.952 19.055 269.189 12.7785C259.426 6.50199 247.576 4.33171 236.218 6.7402V6.7402Z" fill="#28A069"/>
<path d="M94.8325 231.883C73.8484 231.883 55.0375 215.087 50.113 191.96L29.6074 95.6763L287.956 40.7896L308.461 137.073C314.113 163.595 299.619 189.242 276.153 194.22L102.917 231.056C100.263 231.624 97.5566 231.911 94.8424 231.912L94.8325 231.883Z" fill="white"/>
<path d="M287.556 41.3966L307.952 137.162C313.544 163.416 299.229 188.783 276.052 193.712L102.826 230.548C100.204 231.107 97.5317 231.39 94.8511 231.395C74.1163 231.395 55.5147 214.778 50.64 191.88L30.2441 96.1042L287.556 41.3966ZM288.343 40.1721L28.998 95.2679C28.998 95.4271 29.0579 95.5865 29.0977 95.7457L49.6033 192.059C54.6674 215.814 73.9767 232.39 94.8312 232.39C97.5854 232.387 100.332 232.096 103.025 231.524L276.261 194.687C300.046 189.64 314.69 163.774 308.968 136.943L288.453 40.64C288.453 40.4708 288.383 40.3214 288.343 40.1621V40.1721Z" fill="#C1D9DB"/>
<path d="M91.5434 90.3696C92.9441 90.3827 94.2989 90.8705 95.3856 91.7533C96.4723 92.636 97.2265 93.8612 97.5247 95.2281L99.6081 105.045C99.945 106.637 99.6356 108.297 98.7478 109.662C97.86 111.026 96.4665 111.983 94.873 112.322L85.0539 114.413C84.6308 114.5 84.1999 114.544 83.7679 114.542C82.3662 114.533 81.0097 114.046 79.9222 113.163C78.8348 112.28 78.0815 111.053 77.7867 109.684L75.6933 99.8675C75.5229 99.0792 75.511 98.2649 75.6582 97.4719C75.8053 96.6789 76.1087 95.923 76.5506 95.248C76.9878 94.57 77.5559 93.9857 78.2217 93.5293C78.8875 93.0729 79.6377 92.7535 80.4284 92.5898L90.2475 90.4991C90.6706 90.4116 91.1015 90.3683 91.5335 90.3696H91.5434ZM91.5335 89.374C91.0308 89.3732 90.5294 89.4266 90.0382 89.5333L80.2091 91.6141C78.3454 92.0107 76.7158 93.1301 75.6783 94.7264C74.6409 96.3226 74.2805 98.2649 74.6765 100.126L76.7699 109.943C77.1125 111.541 77.9908 112.974 79.2596 114.006C80.5284 115.038 82.1118 115.606 83.748 115.618C84.254 115.618 84.7586 115.565 85.2532 115.458L95.0724 113.378C96.936 112.981 98.5657 111.862 99.6031 110.265C100.641 108.669 101.001 106.727 100.605 104.865L98.5116 95.0489C98.1689 93.451 97.2906 92.0177 96.0218 90.9858C94.753 89.954 93.1697 89.3854 91.5335 89.374V89.374Z" fill="#C1D9DB"/>
<path d="M121.997 83.8981C123.398 83.9094 124.754 84.3966 125.841 85.2796C126.928 86.1626 127.682 87.3888 127.978 88.7566L130.072 98.573C130.406 100.165 130.095 101.824 129.208 103.188C128.32 104.552 126.929 105.509 125.336 105.851L115.507 107.942C115.079 108.041 114.641 108.094 114.201 108.101C112.799 108.089 111.442 107.6 110.355 106.715C109.268 105.83 108.515 104.602 108.22 103.232L106.127 93.4259C105.956 92.6375 105.945 91.8232 106.092 91.0303C106.239 90.2373 106.542 89.4813 106.984 88.8063C107.422 88.1279 107.99 87.5428 108.656 87.0849C109.321 86.6269 110.071 86.3052 110.862 86.1382L120.691 84.0574C121.114 83.9662 121.545 83.9195 121.977 83.918L121.997 83.8981ZM121.977 82.9224C121.471 82.9208 120.966 82.9742 120.472 83.0817L110.643 85.1724C109.72 85.3676 108.846 85.7425 108.069 86.2756C107.292 86.8088 106.628 87.4897 106.115 88.2795C105.602 89.0692 105.25 89.9523 105.08 90.8781C104.909 91.8039 104.923 92.7543 105.12 93.6748L107.203 103.491C107.544 105.091 108.422 106.527 109.691 107.56C110.96 108.594 112.544 109.164 114.182 109.176C114.687 109.172 115.191 109.118 115.687 109.017L125.506 106.926C126.429 106.731 127.305 106.356 128.083 105.822C128.861 105.288 129.526 104.607 130.04 103.816C130.554 103.025 130.907 102.141 131.078 101.214C131.249 100.287 131.236 99.3355 131.039 98.4137L128.955 88.6072C128.614 87.0075 127.737 85.5719 126.468 84.5381C125.199 83.5043 123.615 82.9343 121.977 82.9224V82.9224Z" fill="#C1D9DB"/>
<path d="M152.441 77.4267C153.844 77.4385 155.2 77.9271 156.288 78.8121C157.375 79.6971 158.128 80.9256 158.422 82.2952L160.516 92.1017C160.686 92.89 160.698 93.7043 160.551 94.4973C160.404 95.2903 160.1 96.0462 159.659 96.7212C158.771 98.0884 157.376 99.048 155.781 99.3894L145.962 101.47C145.539 101.561 145.108 101.608 144.676 101.61C143.274 101.596 141.918 101.107 140.831 100.222C139.744 99.3373 138.991 98.1099 138.694 96.7411L136.611 86.9346C136.443 86.1469 136.431 85.3337 136.578 84.5417C136.724 83.7496 137.025 82.9941 137.464 82.3183C137.903 81.6425 138.471 81.0596 139.135 80.6029C139.799 80.1463 140.547 79.8248 141.336 79.6569L151.165 77.5661C151.588 77.4749 152.019 77.4282 152.451 77.4267H152.441ZM152.451 76.4312C151.945 76.4304 151.441 76.4838 150.946 76.5905L141.127 78.6812C140.204 78.8752 139.328 79.2493 138.55 79.7819C137.772 80.3146 137.107 80.9954 136.593 81.7853C136.079 82.5752 135.726 83.4586 135.555 84.385C135.383 85.3113 135.397 86.2623 135.594 87.1835L137.688 97C138.028 98.5997 138.906 100.035 140.175 101.069C141.444 102.103 143.028 102.673 144.666 102.685C145.168 102.686 145.67 102.632 146.161 102.525L155.99 100.435C157.852 100.038 159.48 98.9201 160.517 97.3262C161.554 95.7322 161.916 93.7925 161.523 91.9325L159.429 82.116C159.089 80.5162 158.211 79.0806 156.942 78.0468C155.673 77.013 154.089 76.443 152.451 76.4312V76.4312Z" fill="#C1D9DB"/>
<path d="M182.885 70.9555C184.287 70.9709 185.642 71.4609 186.728 72.3452C187.815 73.2296 188.569 74.4561 188.866 75.824L190.95 85.6305C191.123 86.4187 191.136 87.2335 190.989 88.0269C190.842 88.8203 190.537 89.5762 190.093 90.25C189.659 90.9304 189.094 91.517 188.429 91.9753C187.765 92.4336 187.015 92.7542 186.225 92.9182L176.396 94.999C175.974 95.0945 175.542 95.1413 175.11 95.1384C173.708 95.1289 172.351 94.6424 171.264 93.7591C170.177 92.8757 169.423 91.6485 169.128 90.2799L167.035 80.4634C166.865 79.6751 166.853 78.8608 167 78.0678C167.147 77.2748 167.45 76.5189 167.892 75.8439C168.331 75.167 168.899 74.5835 169.565 74.1273C170.231 73.671 170.98 73.351 171.77 73.1857L181.589 71.0949C182.012 71.0043 182.443 70.9576 182.875 70.9555H182.885ZM182.875 69.96C182.373 69.9642 181.872 70.0176 181.38 70.1193L171.551 72.21C169.687 72.6066 168.058 73.726 167.02 75.3222C165.983 76.9185 165.622 78.8608 166.018 80.7223L168.112 90.5288C168.452 92.1285 169.33 93.5641 170.599 94.5979C171.868 95.6317 173.452 96.2017 175.09 96.2136C175.596 96.2143 176.1 96.1609 176.595 96.0543L186.414 93.9636C187.337 93.7683 188.211 93.3935 188.989 92.8605C189.766 92.3275 190.43 91.6468 190.944 90.8572C191.458 90.0676 191.811 89.1847 191.983 88.2588C192.155 87.333 192.143 86.3824 191.947 85.4613L189.853 75.6448C189.511 74.0459 188.633 72.6113 187.364 71.5778C186.096 70.5443 184.512 69.9736 182.875 69.96Z" fill="#C1D9DB"/>
<path d="M213.341 64.4941C214.742 64.5054 216.097 64.9926 217.184 65.8756C218.272 66.7586 219.025 67.9848 219.322 69.3526L221.415 79.1691C221.754 80.7615 221.445 82.423 220.558 83.7886C220.119 84.4655 219.551 85.049 218.885 85.5053C218.22 85.9615 217.47 86.2815 216.68 86.4468L206.851 88.5376C206.428 88.6254 205.997 88.6688 205.565 88.667C204.163 88.6575 202.807 88.171 201.719 87.2877C200.632 86.4044 199.879 85.1771 199.584 83.8085L197.49 73.992C197.152 72.3996 197.46 70.7381 198.348 69.3725C198.786 68.6956 199.355 68.1121 200.02 67.6559C200.686 67.1996 201.435 66.8796 202.225 66.7143L212.055 64.6235C212.478 64.5357 212.909 64.4923 213.341 64.4941V64.4941ZM213.341 63.4985C212.835 63.4978 212.33 63.5512 211.835 63.6578L202.006 65.7386C200.144 66.1375 198.517 67.2578 197.482 68.8538C196.446 70.4497 196.087 72.3908 196.484 74.2509L198.567 84.0674C198.91 85.6653 199.788 87.0986 201.057 88.1304C202.326 89.1623 203.909 89.7309 205.545 89.7422C206.051 89.7429 206.556 89.6895 207.05 89.5829L216.879 87.5021C218.741 87.1033 220.368 85.9829 221.404 84.387C222.439 82.791 222.798 80.8499 222.402 78.9899L220.319 69.1734C219.976 67.5755 219.098 66.1422 217.829 65.1103C216.56 64.0785 214.977 63.5099 213.341 63.4985V63.4985Z" fill="#C1D9DB"/>
<path d="M243.795 58.0229C245.197 58.0324 246.553 58.5189 247.64 59.4022C248.728 60.2856 249.481 61.5128 249.776 62.8814L251.869 72.6979C252.038 73.4863 252.049 74.3001 251.901 75.0927C251.754 75.8853 251.452 76.6412 251.013 77.3172C250.573 77.9931 250.004 78.5758 249.338 79.032C248.673 79.4882 247.924 79.8088 247.134 79.9756L237.315 82.0664C236.892 82.157 236.462 82.2037 236.029 82.2058C234.628 82.1904 233.273 81.7004 232.186 80.8161C231.1 79.9317 230.346 78.7052 230.048 77.3373L227.965 67.5308C227.792 66.7426 227.779 65.9279 227.926 65.1346C228.073 64.3413 228.378 63.5853 228.822 62.9113C229.257 62.2324 229.823 61.6469 230.487 61.1888C231.151 60.7307 231.9 60.4092 232.69 60.2431L242.519 58.1623C242.942 58.0717 243.372 58.025 243.805 58.0229H243.795ZM243.805 57.0274C243.299 57.0266 242.794 57.08 242.3 57.1866L232.48 59.2774C231.558 59.4726 230.683 59.8475 229.906 60.3805C229.129 60.9135 228.464 61.5942 227.95 62.3838C227.436 63.1733 227.083 64.0562 226.911 64.9821C226.739 65.908 226.752 66.8586 226.948 67.7797L229.041 77.5962C229.382 79.1959 230.259 80.6315 231.528 81.6653C232.797 82.6991 234.382 83.2691 236.019 83.281C236.522 83.2767 237.023 83.2234 237.515 83.1217L247.344 81.031C249.207 80.6344 250.837 79.5149 251.874 77.9187C252.912 76.3225 253.272 74.3802 252.876 72.5187L250.783 62.7122C250.442 61.1124 249.565 59.6768 248.296 58.643C247.027 57.6092 245.442 57.0392 243.805 57.0274V57.0274Z" fill="#C1D9DB"/>
<path d="M274.229 51.5517C275.631 51.5671 276.985 52.0571 278.072 52.9414C279.158 53.8258 279.912 55.0523 280.21 56.4202L282.294 66.2267C282.466 67.0149 282.479 67.8296 282.332 68.6229C282.185 69.4162 281.88 70.1721 281.436 70.8462C281 71.524 280.433 72.1087 279.77 72.5666C279.106 73.0246 278.358 73.3467 277.568 73.5144L267.739 75.5952C267.317 75.6858 266.886 75.7325 266.453 75.7346C265.051 75.7228 263.694 75.2342 262.607 74.3492C261.52 73.4642 260.767 72.2357 260.472 70.8662L258.379 61.0596C258.211 60.2706 258.2 59.4562 258.346 58.6629C258.493 57.8696 258.795 57.113 259.235 56.4363C259.675 55.7595 260.244 55.1759 260.909 54.7188C261.575 54.2616 262.324 53.9399 263.114 53.7719L272.933 51.6911C273.356 51.6005 273.787 51.5538 274.219 51.5517H274.229ZM274.219 50.5562C273.716 50.5553 273.215 50.6087 272.724 50.7155L262.895 52.8062C261.033 53.2029 259.405 54.3209 258.368 55.9148C257.331 57.5087 256.969 59.4485 257.362 61.3085L259.455 71.125C259.796 72.7247 260.673 74.1603 261.942 75.1941C263.211 76.2279 264.796 76.798 266.433 76.8098C266.939 76.8105 267.444 76.7571 267.939 76.6505L277.758 74.5598C278.68 74.3645 279.555 73.9897 280.332 73.4567C281.11 72.9237 281.774 72.243 282.288 71.4534C282.802 70.6639 283.155 69.7809 283.327 68.855C283.499 67.9292 283.486 66.9785 283.29 66.0574L281.197 56.241C280.856 54.6412 279.979 53.2056 278.71 52.1718C277.441 51.138 275.857 50.568 274.219 50.5562V50.5562Z" fill="#C1D9DB"/>
<path d="M61.0984 96.831C62.5009 96.8427 63.8576 97.3314 64.9449 98.2163C66.0321 99.1013 66.7851 100.33 67.0796 101.699L69.173 111.506C69.3439 112.294 69.3561 113.109 69.2089 113.902C69.0617 114.695 68.7581 115.451 68.3157 116.125C67.879 116.805 67.3112 117.391 66.6454 117.849C65.9796 118.307 65.2292 118.628 64.4379 118.794L54.6187 120.874C54.2175 120.976 53.8063 121.032 53.3926 121.044C51.9914 121.032 50.6358 120.545 49.5487 119.662C48.4617 118.779 47.7079 117.553 47.4114 116.185L45.3279 106.369C44.9908 104.778 45.2989 103.119 46.1846 101.755C47.0703 100.39 48.4614 99.4325 50.0531 99.091L59.8822 97.0002C60.3048 96.909 60.7358 96.8623 61.1681 96.8608L61.0984 96.831ZM61.1681 95.8652C60.6627 95.8661 60.1586 95.9161 59.6629 96.0146L49.8437 98.1053C48.9203 98.3005 48.0445 98.6756 47.2665 99.2093C46.4884 99.743 45.8234 100.425 45.3095 101.215C44.7956 102.006 44.4429 102.89 44.2715 103.817C44.1002 104.744 44.1137 105.696 44.3111 106.618L46.3946 116.424C46.7369 118.023 47.6148 119.458 48.8834 120.491C50.152 121.525 51.7356 122.095 53.3726 122.109C53.8754 122.11 54.3767 122.056 54.868 121.95L64.6971 119.869C66.5593 119.47 68.1873 118.35 69.2244 116.754C70.2614 115.159 70.6229 113.218 70.2297 111.357L68.1363 101.54C67.7953 99.9413 66.9175 98.507 65.6483 97.4749C64.3791 96.4427 62.7949 95.8748 61.1582 95.8652H61.1681Z" fill="#C1D9DB"/>
<path d="M97.9122 120.257C99.3148 120.269 100.671 120.758 101.759 121.643C102.846 122.528 103.599 123.756 103.893 125.126L105.987 134.932C106.157 135.721 106.169 136.535 106.022 137.328C105.875 138.121 105.571 138.877 105.13 139.552C104.242 140.919 102.847 141.879 101.252 142.22L91.4326 144.301C91.0099 144.391 90.5789 144.438 90.1466 144.44C88.7454 144.429 87.3898 143.942 86.3027 143.059C85.2157 142.176 84.4619 140.949 84.1654 139.582L82.0819 129.765C81.9094 128.977 81.8963 128.162 82.0435 127.369C82.1907 126.576 82.4953 125.82 82.9393 125.146C83.3745 124.468 83.9408 123.884 84.605 123.427C85.2691 122.971 86.0178 122.651 86.8071 122.487L96.6362 120.397C97.0589 120.306 97.4899 120.259 97.9222 120.257H97.9122ZM97.9222 119.262C97.4164 119.266 96.9123 119.319 96.4169 119.421L86.5977 121.512C84.7341 121.908 83.1044 123.028 82.067 124.624C81.0295 126.22 80.6692 128.163 81.0651 130.024L83.1585 139.831C83.4992 141.43 84.3766 142.866 85.6456 143.9C86.9146 144.934 88.499 145.504 90.1366 145.515C90.6393 145.516 91.1407 145.463 91.6319 145.356L101.461 143.265C102.383 143.07 103.258 142.695 104.036 142.162C104.813 141.629 105.477 140.949 105.991 140.159C106.505 139.369 106.858 138.486 107.03 137.561C107.202 136.635 107.19 135.684 106.994 134.763L104.9 124.947C104.56 123.347 103.682 121.911 102.413 120.877C101.144 119.844 99.5598 119.274 97.9222 119.262V119.262Z" fill="#C1D9DB"/>
<path d="M128.356 113.796C129.757 113.809 131.111 114.297 132.198 115.18C133.285 116.062 134.039 117.287 134.337 118.654L136.421 128.471C136.593 129.259 136.605 130.074 136.458 130.867C136.311 131.66 136.007 132.416 135.563 133.09C135.128 133.768 134.562 134.352 133.898 134.809C133.233 135.265 132.485 135.585 131.695 135.749L121.866 137.839C121.443 137.927 121.012 137.97 120.58 137.969C119.179 137.959 117.822 137.473 116.735 136.589C115.647 135.706 114.894 134.479 114.599 133.11L112.506 123.294C112.335 122.505 112.324 121.691 112.471 120.898C112.618 120.105 112.921 119.349 113.363 118.674C113.802 117.997 114.37 117.414 115.036 116.958C115.701 116.501 116.451 116.181 117.241 116.016L127.06 113.925C127.483 113.838 127.914 113.795 128.346 113.796H128.356ZM128.346 112.8C127.843 112.799 127.342 112.853 126.851 112.96L117.022 115.04C115.158 115.437 113.528 116.556 112.491 118.153C111.453 119.749 111.093 121.691 111.489 123.553L113.582 133.359C113.923 134.959 114.8 136.395 116.069 137.428C117.338 138.462 118.923 139.032 120.56 139.044C121.066 139.045 121.571 138.991 122.066 138.885L131.885 136.804C133.748 136.407 135.378 135.288 136.416 133.692C137.453 132.095 137.813 130.153 137.417 128.292L135.324 118.475C134.981 116.877 134.103 115.444 132.834 114.412C131.566 113.38 129.982 112.812 128.346 112.8V112.8Z" fill="#C1D9DB"/>
<path d="M158.811 107.325C160.213 107.334 161.569 107.821 162.657 108.704C163.744 109.587 164.498 110.815 164.792 112.183L166.886 122C167.22 123.591 166.909 125.251 166.022 126.614C165.135 127.978 163.743 128.936 162.151 129.277L152.322 131.368C151.899 131.456 151.468 131.499 151.036 131.498C149.635 131.486 148.279 130.999 147.192 130.116C146.105 129.233 145.351 128.007 145.055 126.639L142.961 116.823C142.627 115.231 142.938 113.572 143.825 112.208C144.712 110.844 146.104 109.887 147.696 109.545L157.525 107.454C157.948 107.366 158.379 107.323 158.811 107.325V107.325ZM158.811 106.329C158.305 106.328 157.801 106.382 157.306 106.488L147.477 108.569C145.615 108.968 143.988 110.088 142.952 111.684C141.917 113.28 141.558 115.221 141.954 117.081L144.038 126.898C144.38 128.496 145.259 129.929 146.527 130.961C147.796 131.993 149.38 132.561 151.016 132.573C151.521 132.572 152.025 132.522 152.521 132.423L162.35 130.333C164.212 129.934 165.839 128.814 166.875 127.218C167.91 125.622 168.269 123.681 167.873 121.82L165.789 112.014C165.449 110.414 164.571 108.979 163.302 107.945C162.033 106.911 160.449 106.341 158.811 106.329V106.329Z" fill="#C1D9DB"/>
<path d="M189.256 100.853C190.657 100.862 192.014 101.349 193.101 102.232C194.189 103.116 194.942 104.343 195.237 105.711L197.33 115.528C197.501 116.316 197.513 117.131 197.365 117.924C197.218 118.717 196.915 119.472 196.473 120.148C196.035 120.824 195.466 121.408 194.8 121.864C194.135 122.32 193.385 122.64 192.595 122.806L182.776 124.896C182.353 124.987 181.922 125.034 181.49 125.036C180.089 125.02 178.734 124.531 177.647 123.646C176.561 122.762 175.807 121.535 175.509 120.167L173.425 110.361C173.253 109.573 173.24 108.758 173.387 107.965C173.534 107.171 173.839 106.415 174.283 105.741C174.719 105.064 175.286 104.479 175.95 104.021C176.613 103.563 177.361 103.241 178.151 103.073L187.98 100.992C188.402 100.902 188.833 100.855 189.266 100.853H189.256ZM189.266 99.8574C188.76 99.8567 188.255 99.9101 187.76 100.017L177.941 102.107C177.019 102.303 176.144 102.678 175.367 103.211C174.589 103.744 173.925 104.424 173.411 105.214C172.897 106.003 172.544 106.886 172.372 107.812C172.2 108.738 172.213 109.689 172.409 110.61L174.502 120.426C174.843 122.026 175.72 123.462 176.989 124.495C178.258 125.529 179.843 126.099 181.48 126.111C181.983 126.112 182.484 126.059 182.975 125.952L192.805 123.861C194.668 123.464 196.298 122.345 197.335 120.749C198.373 119.153 198.733 117.21 198.337 115.349L196.244 105.542C195.903 103.942 195.026 102.507 193.757 101.473C192.488 100.439 190.903 99.8693 189.266 99.8574V99.8574Z" fill="#C1D9DB"/>
<path d="M219.7 94.382C221.102 94.3956 222.458 94.8849 223.545 95.7696C224.632 96.6542 225.385 97.8817 225.681 99.2504L227.844 109.097C228.182 110.689 227.874 112.349 226.988 113.715C226.103 115.081 224.712 116.041 223.119 116.385L213.29 118.465C212.867 118.556 212.437 118.603 212.004 118.605C210.603 118.595 209.246 118.109 208.159 117.225C207.071 116.342 206.318 115.115 206.023 113.746L203.93 103.93C203.759 103.141 203.747 102.327 203.895 101.534C204.042 100.741 204.345 99.9852 204.787 99.3102C205.225 98.6333 205.794 98.0498 206.459 97.5935C207.125 97.1373 207.875 96.8173 208.665 96.652L218.484 94.5612C218.907 94.4706 219.338 94.4239 219.77 94.4219L219.7 94.382ZM219.77 93.4263C219.267 93.4306 218.767 93.4839 218.275 93.5856L208.445 95.6763C206.582 96.0729 204.952 97.1923 203.915 98.7886C202.877 100.385 202.517 102.327 202.913 104.189L205.006 113.995C205.347 115.595 206.224 117.03 207.493 118.064C208.762 119.098 210.347 119.668 211.984 119.68C212.49 119.681 212.995 119.627 213.49 119.521L223.309 117.43C224.231 117.235 225.106 116.86 225.883 116.327C226.661 115.794 227.325 115.113 227.839 114.324C228.353 113.534 228.706 112.651 228.878 111.725C229.05 110.799 229.037 109.849 228.841 108.928L226.748 99.1111C226.407 97.5113 225.53 96.0757 224.261 95.0419C222.992 94.0081 221.407 93.4381 219.77 93.4263V93.4263Z" fill="#C1D9DB"/>
<path d="M248.649 87.0444L238.83 89.1251C237.907 89.3203 237.031 89.6955 236.253 90.2291C235.475 90.7628 234.81 91.4444 234.296 92.2351C233.782 93.0258 233.429 93.91 233.258 94.837C233.087 95.764 233.1 96.7156 233.297 97.6374L235.381 107.444C235.641 108.652 236.207 109.773 237.026 110.7L249.925 86.895C249.496 86.901 249.068 86.9511 248.649 87.0444V87.0444Z" fill="#4F647B"/>
<path d="M250.543 87.9303C251.878 88.0228 253.147 88.5454 254.159 89.4198C255.171 90.2941 255.871 91.4728 256.155 92.7788L258.249 102.595C258.583 104.187 258.272 105.846 257.385 107.21C256.498 108.574 255.106 109.531 253.514 109.873L243.684 111.964C243.265 112.052 242.837 112.095 242.408 112.093C240.892 112.092 239.43 111.531 238.301 110.52L250.543 87.9303V87.9303ZM250.154 86.885H249.925L237.025 110.689C237.7 111.451 238.528 112.061 239.456 112.48C240.384 112.899 241.39 113.117 242.408 113.119C242.911 113.12 243.413 113.066 243.904 112.959L253.733 110.879C255.595 110.48 257.222 109.359 258.257 107.763C259.293 106.167 259.652 104.226 259.256 102.366L257.172 92.5499C256.829 90.952 255.951 89.5186 254.682 88.4868C253.414 87.4549 251.83 86.8864 250.194 86.875L250.154 86.885Z" fill="#C1D9DB"/>
<path d="M280.598 81.4493C282 81.4587 283.356 81.9453 284.444 82.8286C285.531 83.7119 286.284 84.9391 286.579 86.3077L288.653 96.1541C288.823 96.9424 288.835 97.7567 288.688 98.5497C288.54 99.3427 288.237 100.099 287.795 100.774C287.358 101.452 286.79 102.036 286.124 102.492C285.458 102.949 284.708 103.268 283.917 103.432L274.098 105.523C273.675 105.61 273.244 105.653 272.812 105.652C271.412 105.639 270.057 105.151 268.97 104.268C267.884 103.386 267.129 102.16 266.831 100.794L264.748 90.977C264.576 90.1888 264.563 89.3742 264.71 88.581C264.857 87.7877 265.162 87.0318 265.605 86.3575C266.041 85.6787 266.609 85.0939 267.275 84.6374C267.941 84.1809 268.692 83.862 269.483 83.6993L279.302 81.6086C279.725 81.5212 280.156 81.4778 280.588 81.4791L280.598 81.4493ZM280.588 80.4836C280.082 80.4828 279.577 80.5362 279.083 80.6429L269.264 82.7236C267.413 83.1208 265.793 84.2313 264.757 85.814C263.721 87.3966 263.353 89.3235 263.731 91.1762L265.824 100.993C266.167 102.591 267.045 104.024 268.314 105.056C269.583 106.088 271.166 106.656 272.802 106.668C273.305 106.667 273.805 106.617 274.298 106.518L284.127 104.427C285.99 104.031 287.62 102.911 288.658 101.315C289.695 99.719 290.055 97.7766 289.659 95.9152L287.566 86.1086C287.225 84.5089 286.348 83.0733 285.079 82.0395C283.81 81.0057 282.225 80.4357 280.588 80.4238V80.4836Z" fill="#C1D9DB"/>
<path d="M67.4674 126.729C68.8694 126.742 70.2252 127.231 71.3121 128.116C72.399 129.001 73.1524 130.228 73.4486 131.597L75.542 141.403C75.8788 142.996 75.5694 144.656 74.6817 146.021C73.7939 147.385 72.4004 148.342 70.8069 148.681L60.9777 150.772C60.5551 150.863 60.1241 150.91 59.6918 150.911C58.2892 150.9 56.9325 150.411 55.8453 149.526C54.758 148.641 54.0051 147.412 53.7106 146.043L51.6172 136.236C51.2828 134.643 51.5931 132.983 52.4802 131.618C53.3674 130.252 54.7594 129.293 56.3523 128.949L66.1814 126.868C66.604 126.777 67.035 126.73 67.4674 126.729ZM67.4674 125.733C66.9613 125.732 66.4567 125.786 65.9621 125.892L56.133 127.983C54.272 128.379 52.6448 129.498 51.6092 131.092C50.5736 132.687 50.2143 134.626 50.6103 136.485L52.6938 146.302C53.0344 147.901 53.9119 149.337 55.1809 150.371C56.4498 151.405 58.0343 151.975 59.6718 151.987C60.1779 151.987 60.6825 151.934 61.1771 151.827L71.0063 149.737C71.9288 149.54 72.8035 149.164 73.5804 148.63C74.3573 148.096 75.0212 147.414 75.5341 146.624C76.047 145.833 76.3989 144.949 76.5696 144.023C76.7403 143.096 76.7264 142.145 76.5289 141.224L74.4454 131.418C74.1048 129.818 73.2273 128.382 71.9583 127.349C70.6894 126.315 69.1049 125.745 67.4674 125.733V125.733Z" fill="#C1D9DB"/>
<path d="M103.165 150.393C104.567 150.403 105.923 150.889 107.011 151.773C108.098 152.656 108.852 153.883 109.146 155.252L111.24 165.068C111.577 166.66 111.267 168.321 110.379 169.685C109.492 171.05 108.098 172.007 106.505 172.346L96.6855 174.437C96.2625 174.524 95.8316 174.568 95.3996 174.566C93.9989 174.553 92.6442 174.065 91.5575 173.183C90.4708 172.3 89.7165 171.075 89.4184 169.708L87.2851 159.871C86.9479 158.281 87.256 156.622 88.1417 155.257C89.0274 153.893 90.4186 152.935 92.0102 152.594L101.839 150.503C102.262 150.416 102.693 150.372 103.125 150.374L103.165 150.393ZM103.125 149.378C102.619 149.377 102.115 149.431 101.62 149.537L91.8009 151.618C89.9372 152.015 88.3076 153.134 87.2701 154.73C86.2326 156.327 85.8723 158.269 86.2683 160.13L88.3617 169.947C88.7043 171.545 89.5826 172.978 90.8514 174.01C92.1202 175.042 93.7035 175.61 95.3397 175.622C95.8425 175.623 96.3438 175.569 96.835 175.462L106.664 173.382C108.528 172.985 110.157 171.866 111.195 170.269C112.232 168.673 112.593 166.731 112.197 164.869L110.103 155.063C109.763 153.463 108.885 152.027 107.616 150.994C106.347 149.96 104.763 149.39 103.125 149.378V149.378Z" fill="#C1D9DB"/>
<path d="M133.61 143.942C135.011 143.954 136.366 144.441 137.454 145.324C138.541 146.207 139.294 147.433 139.591 148.801L141.674 158.617C141.847 159.406 141.86 160.22 141.713 161.014C141.566 161.807 141.261 162.563 140.817 163.237C140.382 163.915 139.815 164.499 139.151 164.955C138.487 165.412 137.739 165.731 136.949 165.895L127.12 167.986C126.697 168.076 126.266 168.123 125.834 168.125C124.432 168.113 123.075 167.625 121.988 166.74C120.9 165.855 120.147 164.626 119.853 163.257L117.759 153.45C117.589 152.662 117.577 151.848 117.724 151.055C117.872 150.262 118.175 149.506 118.617 148.831C119.505 147.464 120.899 146.504 122.495 146.163L132.314 144.082C132.736 143.991 133.167 143.944 133.6 143.942H133.61ZM133.6 142.947C133.097 142.946 132.596 142.999 132.104 143.106L122.275 145.197C121.353 145.392 120.478 145.767 119.701 146.3C118.923 146.833 118.259 147.514 117.745 148.303C117.231 149.093 116.878 149.976 116.706 150.902C116.534 151.827 116.547 152.778 116.743 153.699L118.836 163.516C119.177 165.115 120.054 166.551 121.323 167.585C122.592 168.619 124.177 169.189 125.814 169.2C126.32 169.196 126.824 169.143 127.319 169.041L137.139 166.95C139.002 166.554 140.632 165.434 141.669 163.838C142.707 162.242 143.067 160.3 142.671 158.438L140.578 148.632C140.237 147.032 139.36 145.596 138.091 144.562C136.822 143.529 135.237 142.959 133.6 142.947V142.947Z" fill="#C1D9DB"/>
<path d="M164.045 137.451C165.448 137.463 166.804 137.952 167.892 138.837C168.979 139.722 169.732 140.95 170.026 142.32L172.12 152.126C172.458 153.719 172.15 155.38 171.262 156.746C170.375 158.113 168.98 159.072 167.385 159.414L157.555 161.495C157.133 161.586 156.702 161.632 156.27 161.634C154.867 161.622 153.51 161.134 152.423 160.249C151.336 159.364 150.583 158.135 150.288 156.766L148.195 146.959C147.856 145.367 148.165 143.705 149.052 142.339C149.491 141.663 150.059 141.079 150.725 140.623C151.39 140.167 152.14 139.847 152.93 139.681L162.759 137.591C163.182 137.499 163.613 137.453 164.045 137.451V137.451ZM164.045 136.456C163.539 136.455 163.034 136.508 162.54 136.615L152.721 138.706C151.797 138.901 150.921 139.276 150.143 139.81C149.365 140.343 148.7 141.025 148.186 141.816C147.673 142.606 147.32 143.49 147.149 144.417C146.977 145.344 146.991 146.296 147.188 147.218L149.272 157.024C149.612 158.624 150.49 160.06 151.759 161.094C153.028 162.127 154.612 162.697 156.25 162.709C156.756 162.71 157.26 162.657 157.755 162.55L167.584 160.459C169.445 160.063 171.072 158.944 172.108 157.35C173.143 155.756 173.503 153.816 173.107 151.957L171.023 142.14C170.683 140.541 169.805 139.105 168.536 138.071C167.267 137.037 165.683 136.467 164.045 136.456Z" fill="#C1D9DB"/>
<path d="M194.51 130.999C195.912 131.011 197.269 131.5 198.356 132.385C199.444 133.27 200.197 134.498 200.491 135.868L202.584 145.684C202.755 146.471 202.766 147.284 202.619 148.075C202.472 148.866 202.169 149.621 201.727 150.294C201.292 150.975 200.724 151.561 200.058 152.02C199.392 152.478 198.641 152.798 197.849 152.962L188.03 155.053C187.607 155.14 187.176 155.184 186.744 155.182C185.344 155.169 183.989 154.681 182.902 153.799C181.815 152.916 181.061 151.691 180.763 150.324L178.68 140.507C178.342 138.917 178.651 137.257 179.536 135.893C180.422 134.529 181.813 133.571 183.405 133.23L193.234 131.139C193.657 131.048 194.087 131.002 194.52 130.999H194.51ZM194.52 130.004C194.014 130.005 193.51 130.055 193.015 130.153L183.195 132.244C181.332 132.641 179.702 133.76 178.665 135.356C177.627 136.952 177.267 138.895 177.663 140.756L179.756 150.563C180.097 152.163 180.974 153.598 182.243 154.632C183.512 155.666 185.097 156.236 186.734 156.248C187.237 156.248 187.738 156.195 188.23 156.088L198.059 154.008C199.922 153.611 201.552 152.491 202.589 150.895C203.627 149.299 203.987 147.357 203.591 145.495L201.498 135.679C201.155 134.081 200.277 132.648 199.008 131.616C197.739 130.584 196.156 130.015 194.52 130.004V130.004Z" fill="#C1D9DB"/>
<path d="M223.456 123.639L213.638 125.726C209.755 126.551 207.277 130.363 208.103 134.24L210.192 144.046C211.018 147.924 214.835 150.399 218.717 149.574L228.536 147.488C232.419 146.663 234.897 142.851 234.071 138.973L231.982 129.167C231.156 125.289 227.339 122.815 223.456 123.639Z" fill="url(#paint0_linear_190_422)"/>
<path d="M255.408 118.057C256.81 118.067 258.166 118.553 259.254 119.436C260.341 120.32 261.095 121.547 261.389 122.916L263.483 132.732C263.653 133.52 263.665 134.335 263.518 135.128C263.371 135.921 263.067 136.677 262.626 137.352C261.73 138.7 260.335 139.638 258.748 139.96L248.919 142.051C248.496 142.142 248.065 142.189 247.633 142.19C246.231 142.177 244.875 141.687 243.788 140.803C242.701 139.918 241.948 138.69 241.651 137.322L239.558 127.515C239.22 125.923 239.528 124.261 240.415 122.896C240.853 122.217 241.421 121.632 242.087 121.174C242.753 120.716 243.502 120.394 244.293 120.227L254.122 118.147C254.545 118.055 254.976 118.009 255.408 118.007V118.057ZM255.408 117.012C254.902 117.011 254.398 117.064 253.903 117.171L244.084 119.262C243.161 119.456 242.285 119.83 241.507 120.363C240.729 120.895 240.064 121.576 239.55 122.366C239.036 123.156 238.683 124.039 238.512 124.966C238.341 125.892 238.354 126.843 238.551 127.764L240.635 137.581C240.975 139.18 241.853 140.616 243.122 141.65C244.391 142.683 245.975 143.253 247.613 143.265C248.118 143.262 248.623 143.208 249.118 143.106L258.947 141.015C259.87 140.819 260.744 140.443 261.521 139.909C262.298 139.375 262.962 138.693 263.475 137.902C263.988 137.112 264.34 136.228 264.51 135.302C264.681 134.375 264.667 133.424 264.47 132.503L262.386 122.697C262.046 121.097 261.168 119.661 259.899 118.627C258.63 117.594 257.046 117.024 255.408 117.012Z" fill="#C1D9DB"/>
<path d="M285.852 111.575C287.254 111.587 288.611 112.076 289.698 112.961C290.786 113.846 291.539 115.074 291.833 116.444L293.926 126.25C294.097 127.039 294.109 127.853 293.962 128.646C293.814 129.439 293.511 130.195 293.069 130.87C292.631 131.548 292.063 132.133 291.397 132.591C290.732 133.049 289.982 133.371 289.191 133.538L279.372 135.619C278.95 135.71 278.519 135.756 278.086 135.758C276.685 135.743 275.33 135.253 274.243 134.369C273.157 133.484 272.403 132.258 272.105 130.89L270.012 121.043C269.843 120.255 269.833 119.441 269.98 118.649C270.127 117.856 270.429 117.1 270.868 116.424C271.308 115.748 271.877 115.166 272.543 114.709C273.208 114.253 273.957 113.933 274.747 113.766L284.566 111.675C284.989 111.584 285.42 111.538 285.852 111.536V111.575ZM285.852 110.54C285.349 110.539 284.848 110.593 284.357 110.699L274.527 112.79C272.664 113.187 271.034 114.306 269.997 115.902C268.959 117.499 268.599 119.441 268.995 121.302L271.088 131.109C271.429 132.709 272.306 134.144 273.575 135.178C274.844 136.212 276.429 136.782 278.066 136.794C278.569 136.795 279.07 136.741 279.562 136.634L289.391 134.544C290.313 134.348 291.188 133.974 291.965 133.441C292.743 132.908 293.407 132.227 293.921 131.437C294.435 130.648 294.788 129.765 294.96 128.839C295.132 127.913 295.119 126.962 294.923 126.041L292.83 116.225C292.489 114.625 291.612 113.189 290.343 112.156C289.074 111.122 287.489 110.552 285.852 110.54Z" fill="#C1D9DB"/>
<path d="M72.7214 156.885C74.1231 156.894 75.4796 157.381 76.567 158.264C77.6545 159.147 78.4078 160.375 78.7026 161.743L80.796 171.56C81.1334 173.152 80.8251 174.813 79.9387 176.179C79.5002 176.856 78.9318 177.44 78.2662 177.896C77.6006 178.352 76.8511 178.672 76.0609 178.837L66.2318 180.928C65.8089 181.016 65.3779 181.059 64.9459 181.058C63.5447 181.046 62.1891 180.559 61.102 179.676C60.0149 178.793 59.2611 177.567 58.9646 176.199L56.8712 166.383C56.5328 164.79 56.8411 163.129 57.7285 161.763C58.1671 161.086 58.7355 160.503 59.4011 160.046C60.0667 159.59 60.8162 159.27 61.6063 159.105L71.4355 157.014C71.8584 156.926 72.2894 156.883 72.7214 156.885ZM72.7214 155.889C72.216 155.89 71.7119 155.94 71.2162 156.038L61.387 158.129C59.5252 158.528 57.898 159.648 56.8626 161.244C55.8271 162.84 55.4682 164.781 55.8644 166.642L57.9479 176.448C58.2885 178.048 59.166 179.483 60.4349 180.517C61.7039 181.551 63.2883 182.121 64.9259 182.133C65.4319 182.134 65.9365 182.08 66.4312 181.974L76.2603 179.893C78.1221 179.494 79.7493 178.374 80.7847 176.778C81.8202 175.182 82.1792 173.241 81.783 171.381L79.6995 161.564C79.3569 159.966 78.4785 158.533 77.2097 157.501C75.9409 156.469 74.3576 155.901 72.7214 155.889V155.889Z" fill="#C1D9DB"/>
<path d="M109.535 180.281C110.938 180.293 112.295 180.782 113.382 181.667C114.469 182.552 115.222 183.78 115.517 185.15L117.61 194.956C117.778 195.745 117.789 196.56 117.642 197.353C117.495 198.146 117.193 198.903 116.754 199.58C116.314 200.256 115.745 200.84 115.08 201.297C114.414 201.754 113.665 202.076 112.875 202.244L103.046 204.325C102.623 204.416 102.192 204.463 101.76 204.464C100.359 204.453 99.003 203.966 97.9159 203.083C96.8288 202.2 96.075 200.973 95.7785 199.606L93.6851 189.789C93.3467 188.197 93.655 186.535 94.5424 185.17C94.981 184.493 95.5494 183.909 96.215 183.453C96.8806 182.997 97.6301 182.677 98.4203 182.511L108.249 180.421C108.672 180.329 109.103 180.283 109.535 180.281V180.281ZM109.535 179.286C109.03 179.29 108.525 179.343 108.03 179.445L98.2109 181.536C97.2875 181.731 96.4117 182.106 95.6336 182.64C94.8556 183.173 94.1906 183.855 93.6767 184.646C93.1628 185.436 92.8101 186.321 92.6387 187.248C92.4674 188.175 92.4809 189.126 92.6783 190.048L94.7617 199.854C95.1024 201.454 95.9799 202.89 97.2488 203.924C98.5178 204.957 100.102 205.527 101.74 205.539C102.246 205.541 102.751 205.487 103.245 205.38L113.074 203.289C113.996 203.094 114.871 202.719 115.648 202.186C116.425 201.653 117.088 200.972 117.601 200.182C118.114 199.392 118.466 198.509 118.637 197.584C118.808 196.658 118.794 195.707 118.597 194.787L116.513 184.97C116.173 183.371 115.295 181.935 114.026 180.901C112.757 179.868 111.173 179.298 109.535 179.286V179.286Z" fill="#C1D9DB"/>
<path d="M139.981 173.81C141.382 173.819 142.739 174.306 143.826 175.189C144.914 176.072 145.667 177.299 145.962 178.668L148.055 188.485C148.225 189.273 148.237 190.087 148.09 190.88C147.943 191.673 147.64 192.429 147.198 193.104C146.761 193.782 146.192 194.366 145.527 194.823C144.861 195.279 144.111 195.599 143.32 195.762L133.501 197.853C133.078 197.94 132.647 197.984 132.215 197.982C130.814 197.969 129.46 197.482 128.373 196.599C127.286 195.716 126.532 194.491 126.234 193.124L124.15 183.307C123.98 182.519 123.968 181.705 124.115 180.912C124.262 180.119 124.566 179.363 125.008 178.688C125.444 178.009 126.012 177.424 126.678 176.968C127.344 176.511 128.094 176.192 128.885 176.03L138.705 173.939C139.128 173.852 139.559 173.808 139.991 173.81H139.981ZM139.991 172.814C139.488 172.813 138.986 172.867 138.495 172.973L128.666 175.054C126.802 175.451 125.173 176.57 124.135 178.166C123.098 179.763 122.738 181.705 123.133 183.566L125.227 193.383C125.57 194.981 126.448 196.414 127.717 197.446C128.985 198.478 130.569 199.046 132.205 199.058C132.708 199.059 133.209 199.005 133.7 198.898L143.529 196.818C145.393 196.421 147.023 195.302 148.06 193.705C149.098 192.109 149.458 190.167 149.062 188.305L146.969 178.489C146.626 176.891 145.748 175.458 144.479 174.426C143.21 173.394 141.627 172.825 139.991 172.814V172.814Z" fill="#C1D9DB"/>
<path d="M170.434 167.349C171.835 167.36 173.191 167.847 174.278 168.73C175.365 169.613 176.119 170.839 176.415 172.207L178.509 182.024C178.847 183.616 178.539 185.278 177.651 186.643C177.213 187.32 176.644 187.904 175.979 188.36C175.313 188.816 174.564 189.136 173.773 189.301L163.944 191.392C163.522 191.483 163.091 191.53 162.658 191.531C161.256 191.52 159.899 191.031 158.812 190.146C157.725 189.261 156.972 188.033 156.677 186.663L154.584 176.856C154.413 176.068 154.401 175.254 154.548 174.461C154.695 173.668 154.999 172.912 155.441 172.237C155.878 171.557 156.446 170.972 157.111 170.513C157.777 170.055 158.527 169.734 159.319 169.569L169.138 167.488C169.563 167.392 169.998 167.345 170.434 167.349V167.349ZM170.434 166.353C169.928 166.351 169.423 166.405 168.929 166.512L159.1 168.603C158.177 168.798 157.302 169.173 156.525 169.706C155.748 170.239 155.083 170.92 154.569 171.709C154.056 172.499 153.703 173.382 153.531 174.308C153.359 175.234 153.371 176.184 153.567 177.105L155.66 186.922C156.003 188.521 156.881 189.955 158.149 190.989C159.418 192.022 161.001 192.593 162.638 192.607C163.144 192.602 163.648 192.549 164.144 192.447L173.963 190.357C174.886 190.161 175.762 189.786 176.54 189.253C177.318 188.719 177.983 188.037 178.497 187.247C179.011 186.456 179.364 185.572 179.535 184.645C179.706 183.718 179.693 182.766 179.495 181.844L177.412 172.038C177.07 170.439 176.192 169.004 174.923 167.971C173.654 166.937 172.071 166.367 170.434 166.353V166.353Z" fill="#C1D9DB"/>
<path d="M189.532 162.096L199.361 160.008C201.225 159.612 203.171 159.972 204.77 161.008C206.369 162.045 207.49 163.673 207.886 165.535L209.977 175.351C210.374 177.213 210.014 179.157 208.976 180.753C207.938 182.35 206.307 183.47 204.443 183.866L194.614 185.954C192.752 186.35 190.809 185.991 189.213 184.955C187.616 183.92 186.496 182.294 186.1 180.435L184.007 170.609C183.611 168.747 183.971 166.804 185.009 165.207C186.047 163.61 187.677 162.49 189.542 162.094L189.532 162.096Z" fill="url(#paint1_linear_190_422)"/>
<path d="M220.005 155.616L229.833 153.528C231.698 153.132 233.643 153.492 235.242 154.528C236.841 155.565 237.962 157.193 238.359 159.056L240.45 168.871C240.846 170.733 240.486 172.677 239.448 174.274C238.41 175.87 236.78 176.99 234.915 177.386L225.087 179.474C223.225 179.87 221.282 179.511 219.685 178.475C218.089 177.44 216.969 175.814 216.573 173.955L214.48 164.129C214.083 162.267 214.444 160.324 215.481 158.727C216.519 157.13 218.15 156.01 220.014 155.614L220.005 155.616Z" fill="url(#paint2_linear_190_422)"/>
<path d="M250.45 149.152L260.279 147.064C262.143 146.668 264.089 147.027 265.688 148.064C267.286 149.101 268.408 150.729 268.804 152.591L270.893 162.397C271.289 164.257 270.929 166.197 269.893 167.792C268.856 169.386 267.228 170.505 265.366 170.9L255.538 172.988C253.673 173.385 251.727 173.025 250.129 171.988C248.53 170.952 247.409 169.323 247.012 167.461L244.923 157.655C244.53 155.796 244.891 153.856 245.927 152.262C246.963 150.669 248.589 149.55 250.45 149.152V149.152Z" fill="url(#paint3_linear_190_422)"/>
<path d="M292.223 141.473C293.624 141.483 294.981 141.969 296.068 142.852C297.156 143.736 297.909 144.963 298.204 146.332L300.297 156.148C300.468 156.936 300.48 157.751 300.332 158.544C300.185 159.337 299.882 160.093 299.44 160.768C299.001 161.445 298.433 162.028 297.767 162.484C297.102 162.941 296.352 163.261 295.562 163.426L285.743 165.517C285.32 165.607 284.889 165.654 284.457 165.656C283.055 165.642 281.699 165.153 280.612 164.268C279.525 163.384 278.772 162.156 278.476 160.788L276.392 150.981C276.22 150.193 276.206 149.379 276.352 148.586C276.497 147.793 276.799 147.037 277.24 146.361C277.676 145.682 278.244 145.096 278.91 144.638C279.576 144.18 280.326 143.859 281.118 143.693L290.947 141.613C291.368 141.516 291.8 141.47 292.233 141.473H292.223ZM292.233 140.478C291.727 140.477 291.222 140.53 290.727 140.637L280.908 142.718C279.985 142.913 279.109 143.288 278.331 143.822C277.553 144.355 276.888 145.037 276.374 145.828C275.86 146.618 275.507 147.502 275.336 148.429C275.165 149.356 275.178 150.308 275.376 151.23L277.469 161.046C277.812 162.644 278.69 164.078 279.959 165.109C281.228 166.141 282.811 166.71 284.447 166.721C284.949 166.72 285.45 166.67 285.942 166.572L295.771 164.481C297.634 164.082 299.262 162.962 300.299 161.367C301.336 159.771 301.697 157.83 301.304 155.969L299.211 146.162C298.87 144.563 297.993 143.127 296.724 142.093C295.455 141.059 293.87 140.489 292.233 140.478Z" fill="#C1D9DB"/>
<path d="M79.0824 186.752C80.4845 186.766 81.8403 187.255 82.9272 188.14C84.0141 189.025 84.7674 190.252 85.0636 191.621L87.1471 201.427C87.3189 202.215 87.3324 203.029 87.187 203.822C87.0415 204.615 86.74 205.371 86.2998 206.047C85.8613 206.724 85.2928 207.307 84.6272 207.764C83.9616 208.22 83.2121 208.54 82.4219 208.705L72.5929 210.796C72.1702 210.887 71.7392 210.934 71.3069 210.935C69.9043 210.923 68.5476 210.435 67.4604 209.55C66.3731 208.665 65.6202 207.436 65.3257 206.067L63.2323 196.26C63.064 195.471 63.053 194.657 63.1999 193.864C63.3468 193.07 63.6487 192.314 64.0885 191.637C64.5282 190.96 65.097 190.377 65.7626 189.919C66.4281 189.462 67.1773 189.141 67.9674 188.973L77.7865 186.892C78.2092 186.801 78.6402 186.754 79.0725 186.752H79.0824ZM79.0725 185.757C78.5698 185.756 78.0684 185.809 77.5772 185.916L67.7481 188.007C65.8866 188.404 64.2586 189.522 63.2214 191.115C62.1842 192.709 61.8224 194.649 62.2155 196.509L64.3089 206.326C64.6495 207.925 65.527 209.361 66.7959 210.395C68.0649 211.429 69.6494 211.999 71.287 212.01C71.793 212.011 72.2976 211.958 72.7922 211.851L82.6114 209.76C83.5344 209.566 84.41 209.192 85.1879 208.66C85.9659 208.127 86.6309 207.446 87.1449 206.656C87.6589 205.866 88.0118 204.983 88.1832 204.057C88.3546 203.13 88.3413 202.179 88.1439 201.258L86.0506 191.442C85.7099 189.842 84.8324 188.406 83.5635 187.373C82.2945 186.339 80.7101 185.769 79.0725 185.757V185.757Z" fill="#C1D9DB"/>
<path d="M330.999 42.8799L259.514 81.9467L259.314 82.2753L269.443 100.385L269.831 100.395L330.999 67.0826" fill="#9FDA85"/>
<path d="M255.019 100.216L269.443 100.385L259.315 82.2754L251.898 94.6406L255.019 100.216Z" fill="#F8D0C6"/>
<path d="M248.59 100.146L255.02 100.216L251.899 94.6406L248.59 100.146Z" fill="#4F647B"/>
<path d="M83.8773 36.797C82.9442 34.587 81.2044 32.8141 79.0107 31.8379C76.817 30.8618 74.3338 30.7554 72.0645 31.5403C73.4394 31.9195 74.7106 32.6046 75.7827 33.5443C76.8549 34.484 77.7001 35.6539 78.255 36.9662L84.7645 52.3879C85.2498 53.5316 85.5042 54.7597 85.5132 56.0019C85.5222 57.244 85.2856 58.4757 84.817 59.6263C84.3484 60.7769 83.657 61.8238 82.7824 62.707C81.9078 63.5902 80.8672 64.2923 79.7204 64.773C79.531 64.8626 79.3316 64.9223 79.1422 64.992C81.1971 65.5642 83.3852 65.4273 85.3527 64.6037C87.6654 63.6286 89.4958 61.7763 90.4417 59.4539C91.3875 57.1315 91.3714 54.5291 90.3968 52.2186L83.8773 36.797Z" fill="#88A9AA"/>
<path d="M108.758 31.6102C107.823 29.3997 106.081 27.6273 103.885 26.6529C101.69 25.6785 99.2049 25.575 96.9355 26.3634C98.3115 26.7406 99.5837 27.425 100.656 28.3649C101.728 29.3049 102.573 30.4758 103.126 31.7894L109.636 47.211C110.12 48.3543 110.374 49.5817 110.383 50.823C110.392 52.0643 110.156 53.2952 109.688 54.4454C109.221 55.5956 108.531 56.6425 107.658 57.5263C106.785 58.4101 105.747 59.1134 104.601 59.5961L104.013 59.8152C106.069 60.3889 108.259 60.2485 110.224 59.4169V59.4169C112.537 58.4418 114.367 56.5895 115.313 54.2671C116.259 51.9447 116.243 49.3423 115.268 47.0318L108.758 31.6102Z" fill="#88A9AA"/>
<path d="M133.629 26.4627C132.694 24.2522 130.952 22.4799 128.756 21.5054C126.561 20.531 124.076 20.4275 121.807 21.216C123.183 21.5931 124.455 22.2775 125.527 23.2174C126.6 24.1574 127.444 25.3283 127.997 26.6419L134.507 42.0636C134.991 43.2068 135.245 44.4342 135.254 45.6755C135.263 46.9168 135.027 48.1478 134.559 49.2979C134.092 50.4481 133.402 51.495 132.529 52.3788C131.656 53.2626 130.618 53.966 129.473 54.4487L128.884 54.6577C130.938 55.2394 133.13 55.1024 135.095 54.2695C136.242 53.7849 137.282 53.0791 138.155 52.1925C139.029 51.306 139.719 50.256 140.186 49.1028C140.652 47.9496 140.887 46.7158 140.875 45.472C140.864 44.2283 140.607 42.999 140.119 41.8545L133.629 26.4627Z" fill="#88A9AA"/>
<path d="M158.502 21.2559C157.567 19.0475 155.827 17.2761 153.634 16.3002C151.441 15.3243 148.959 15.2168 146.689 15.9992C148.062 16.3817 149.33 17.0681 150.4 18.0075C151.47 18.9469 152.314 20.1151 152.87 21.4252L159.38 36.8568C159.864 38.0001 160.118 39.2274 160.127 40.4687C160.136 41.71 159.9 42.941 159.432 44.0912C158.965 45.2413 158.275 46.2882 157.402 47.172C156.529 48.0558 155.49 48.7592 154.345 49.2419V49.2419L153.757 49.4509C155.812 50.0278 158.001 49.8909 159.968 49.0627C161.116 48.5837 162.159 47.8831 163.036 47.0009C163.913 46.1188 164.607 45.0724 165.079 43.9219C165.55 42.7713 165.789 41.5392 165.783 40.2961C165.777 39.0529 165.525 37.8233 165.042 36.6776L158.502 21.2559Z" fill="#88A9AA"/>
<path d="M183.373 16.0691C182.438 13.8609 180.698 12.0902 178.504 11.116C176.311 10.1418 173.829 10.0368 171.561 10.8223C172.934 11.2015 174.204 11.8867 175.275 12.8265C176.345 13.7663 177.188 14.9362 177.741 16.2483L184.251 31.6699C185.232 33.9727 185.258 36.57 184.323 38.8919C183.389 41.2139 181.57 43.0707 179.266 44.055L178.678 44.2741C180.734 44.8478 182.923 44.7074 184.889 43.8758C186.036 43.3951 187.076 42.693 187.951 41.8098C188.825 40.9267 189.517 39.8797 189.985 38.7291C190.454 37.5785 190.691 36.3468 190.682 35.1047C190.673 33.8626 190.418 32.6344 189.933 31.4907L183.373 16.0691Z" fill="#88A9AA"/>
<path d="M208.246 10.8919C207.313 8.68213 205.573 6.90998 203.379 5.93546C201.185 4.96094 198.702 4.85713 196.434 5.64514C197.807 6.0243 199.077 6.70953 200.148 7.64932C201.218 8.58911 202.062 9.75901 202.614 11.0711L209.134 26.4927C210.106 28.8035 210.12 31.4049 209.175 33.7265C208.229 36.0481 206.4 37.9006 204.09 38.8779C203.89 38.9575 203.701 39.0272 203.501 39.0869C205.555 39.6686 207.747 39.5316 209.712 38.6986C210.858 38.2169 211.898 37.5142 212.771 36.6308C213.645 35.7474 214.336 34.7007 214.805 33.5504C215.273 32.4001 215.51 31.1689 215.502 29.9271C215.493 28.6854 215.24 27.4574 214.756 26.3135L208.246 10.8919Z" fill="#88A9AA"/>
<path d="M239.328 21.1962L232.829 5.77454C231.887 3.56922 230.139 1.80477 227.941 0.839535C225.744 -0.125701 223.26 -0.219358 220.996 0.577573C222.37 0.956736 223.64 1.64196 224.71 2.58175C225.781 3.52154 226.624 4.69144 227.177 6.00352L233.696 21.4252C234.671 23.7357 234.687 26.3381 233.741 28.6605C232.795 30.9829 230.965 32.8352 228.652 33.8103C228.46 33.8903 228.264 33.9601 228.064 34.0194C230.121 34.601 232.316 34.464 234.284 33.6311C235.436 33.1485 236.48 32.4433 237.357 31.5561C238.234 30.6689 238.927 29.6172 239.396 28.4615C239.865 27.3058 240.1 26.0689 240.089 24.8221C240.077 23.5752 239.819 22.343 239.328 21.1962V21.1962Z" fill="#88A9AA"/>
<path d="M84.7636 52.3481L78.254 36.9264C77.6991 35.6141 76.8539 34.4442 75.7818 33.5045C74.7097 32.5648 73.4385 31.8797 72.0635 31.5005C71.8741 31.5702 71.6747 31.6299 71.4853 31.7195C70.3393 32.2013 69.2996 32.904 68.4258 33.7873C67.5519 34.6707 66.861 35.7175 66.3925 36.8678C65.924 38.018 65.6872 39.2493 65.6955 40.491C65.7039 41.7328 65.9572 42.9607 66.4411 44.1046L72.9507 59.5263C73.5056 60.8386 74.3508 62.0085 75.4229 62.9482C76.495 63.8879 77.7662 64.5731 79.1412 64.9522C79.3306 64.8825 79.53 64.8228 79.7194 64.7332C80.8663 64.2525 81.9068 63.5504 82.7814 62.6672C83.656 61.784 84.3474 60.7371 84.8161 59.5865C85.2847 58.4359 85.5213 57.2042 85.5123 55.9621C85.5033 54.72 85.2488 53.4918 84.7636 52.3481V52.3481Z" fill="#C1D9DB"/>
<path d="M104.601 59.596C105.746 59.1133 106.785 58.4099 107.658 57.5261C108.531 56.6424 109.22 55.5955 109.688 54.4453C110.156 53.2951 110.392 52.0642 110.382 50.8228C110.373 49.5815 110.12 48.3542 109.635 47.2109L103.126 31.7892C102.573 30.4757 101.728 29.3047 100.656 28.3648C99.5834 27.4248 98.3112 26.7404 96.9353 26.3633C96.7459 26.433 96.5465 26.4927 96.3571 26.5724C95.2076 27.0504 94.1639 27.7503 93.2858 28.6321C92.4077 29.5138 91.7126 30.56 91.2402 31.7107C90.7679 32.8613 90.5277 34.0938 90.5333 35.3373C90.5389 36.5809 90.7903 37.8111 91.2731 38.9575L97.7826 54.3791C98.337 55.6929 99.1818 56.8645 100.254 57.8059C101.326 58.7473 102.598 59.4341 103.973 59.815L104.561 59.596H104.601Z" fill="#C1D9DB"/>
<path d="M134.507 42.0336L127.998 26.612C127.444 25.2984 126.6 24.1275 125.527 23.1875C124.455 22.2476 123.183 21.5632 121.807 21.186C121.618 21.2557 121.418 21.3155 121.229 21.3951C120.084 21.8778 119.045 22.5812 118.172 23.465C117.299 24.3488 116.61 25.3957 116.142 26.5458C115.674 27.696 115.438 28.9269 115.448 30.1683C115.457 31.4096 115.71 32.6369 116.195 33.7802L122.704 49.2019C123.257 50.5155 124.102 51.6864 125.174 52.6263C126.247 53.5663 127.519 54.2507 128.895 54.6278L129.483 54.4188C130.627 53.9351 131.665 53.2311 132.537 52.3469C133.408 51.4627 134.097 50.4157 134.564 49.2656C135.03 48.1155 135.265 46.8848 135.256 45.644C135.246 44.4031 134.992 43.1763 134.507 42.0336V42.0336Z" fill="#C1D9DB"/>
<path d="M154.345 49.2417C155.49 48.759 156.528 48.0556 157.401 47.1718C158.274 46.2881 158.964 45.2412 159.431 44.091C159.899 42.9408 160.135 41.7099 160.126 40.4685C160.117 39.2272 159.863 37.9999 159.379 36.8566L152.869 21.425C152.313 20.1149 151.469 18.9467 150.399 18.0073C149.329 17.068 148.061 16.3815 146.689 15.999L146.101 16.2181C144.955 16.6998 143.915 17.4025 143.041 18.2859C142.167 19.1693 141.476 20.216 141.008 21.3663C140.539 22.5166 140.302 23.7478 140.311 24.9896C140.319 26.2313 140.572 27.4593 141.056 28.6031L147.566 44.0248C148.119 45.3384 148.964 46.5093 150.036 47.4493C151.108 48.3892 152.381 49.0736 153.756 49.4508L154.345 49.2417Z" fill="#C1D9DB"/>
<path d="M184.252 31.6699L177.742 16.2482C177.19 14.9361 176.346 13.7662 175.276 12.8265C174.205 11.8867 172.936 11.2014 171.562 10.8223C171.362 10.892 171.163 10.9517 170.974 11.0313C169.828 11.5131 168.788 12.2158 167.914 13.0992C167.04 13.9826 166.349 15.0293 165.881 16.1796C165.412 17.3299 165.175 18.5611 165.184 19.8029C165.192 21.0446 165.446 22.2726 165.929 23.4165L172.439 38.8481C172.996 40.1589 173.842 41.3273 174.914 42.2667C175.986 43.2061 177.256 43.8922 178.63 44.274L179.218 44.055C180.363 43.5723 181.401 42.8689 182.274 41.9851C183.147 41.1013 183.837 40.0544 184.304 38.9043C184.772 37.7541 185.008 36.5231 184.999 35.2818C184.99 34.0405 184.736 32.8132 184.252 31.6699V31.6699Z" fill="#C1D9DB"/>
<path d="M209.134 26.4628L202.614 11.0412C202.062 9.7291 201.218 8.5592 200.148 7.61941C199.077 6.67962 197.807 5.9944 196.434 5.61523C196.234 5.68493 196.035 5.74467 195.845 5.82431C193.533 6.79944 191.702 8.65174 190.757 10.9741C189.811 13.2965 189.827 15.8989 190.801 18.2094L197.311 33.6311C197.865 34.9438 198.71 36.1141 199.782 37.0539C200.855 37.9936 202.126 38.6785 203.501 39.057C203.701 38.9973 203.89 38.9276 204.09 38.8479C206.401 37.8707 208.229 36.0182 209.175 33.6966C210.12 31.375 210.106 28.7736 209.134 26.4628Z" fill="#C1D9DB"/>
<path d="M233.695 21.3754L227.176 5.95378C226.623 4.6417 225.78 3.4718 224.709 2.53201C223.639 1.59222 222.369 0.906995 220.995 0.527832L220.407 0.736912C218.096 1.71415 216.267 3.56663 215.322 5.88826C214.376 8.20989 214.391 10.8112 215.363 13.122L221.882 28.5437C222.435 29.8558 223.278 31.0257 224.349 31.9654C225.419 32.9052 226.689 33.5905 228.063 33.9696C228.262 33.9104 228.459 33.8406 228.651 33.7606C230.964 32.7854 232.794 30.9331 233.74 28.6108C234.686 26.2884 234.67 23.686 233.695 21.3754Z" fill="#C1D9DB"/>
<path d="M241.78 245.064C274.208 245.064 300.495 218.81 300.495 186.424C300.495 154.038 274.208 127.784 241.78 127.784C209.352 127.784 183.064 154.038 183.064 186.424C183.064 218.81 209.352 245.064 241.78 245.064Z" fill="white"/>
<path d="M305.784 212.955C322.735 180.043 309.762 139.64 276.808 122.711C243.854 105.782 203.398 118.739 186.448 151.65C169.497 184.562 182.47 224.966 215.424 241.894C248.378 258.823 288.834 245.867 305.784 212.955Z" fill="#28A069"/>
<path d="M280.553 224.461C303.864 205.453 307.332 171.172 288.3 147.891C269.268 124.61 234.942 121.146 211.632 140.154C188.321 159.162 184.852 193.443 203.884 216.724C222.917 240.005 257.242 243.469 280.553 224.461Z" fill="white"/>
<path d="M245.717 181.267C245.466 181.246 245.221 181.175 244.997 181.058C244.772 180.942 244.574 180.783 244.411 180.589C244.249 180.396 244.127 180.172 244.052 179.931C243.976 179.691 243.95 179.437 243.973 179.186L246.704 147.646C246.757 147.146 247.004 146.688 247.392 146.367C247.779 146.047 248.277 145.892 248.778 145.933C249.03 145.955 249.275 146.026 249.499 146.142C249.723 146.258 249.922 146.418 250.084 146.611C250.246 146.804 250.368 147.028 250.444 147.269C250.519 147.51 250.546 147.763 250.522 148.014L247.781 179.525C247.738 180.029 247.496 180.495 247.11 180.821C246.723 181.148 246.222 181.308 245.717 181.267V181.267Z" fill="#9FDA85"/>
<path d="M269.175 199.874C268.866 199.851 268.568 199.752 268.308 199.585L248.649 187.051C248.22 186.777 247.918 186.344 247.807 185.848C247.697 185.352 247.788 184.832 248.061 184.403C248.197 184.189 248.374 184.005 248.581 183.859C248.788 183.714 249.023 183.612 249.27 183.557C249.517 183.502 249.773 183.497 250.022 183.541C250.271 183.586 250.51 183.679 250.723 183.815L270.381 196.34C270.811 196.615 271.114 197.05 271.224 197.548C271.334 198.046 271.242 198.567 270.969 198.998C270.78 199.295 270.512 199.534 270.195 199.688C269.879 199.843 269.526 199.907 269.175 199.874V199.874Z" fill="#9FDA85"/>
<path d="M252.765 182.89C252.6 184.769 251.695 186.507 250.248 187.72C248.802 188.934 246.932 189.524 245.049 189.361C244.117 189.281 243.209 189.018 242.378 188.587C241.547 188.156 240.809 187.566 240.206 186.851C239.603 186.135 239.148 185.308 238.865 184.417C238.583 183.525 238.479 182.587 238.56 181.655C238.724 179.775 239.63 178.038 241.076 176.824C242.523 175.611 244.393 175.021 246.275 175.184C247.208 175.264 248.116 175.527 248.947 175.958C249.778 176.388 250.516 176.978 251.119 177.694C251.721 178.41 252.177 179.237 252.459 180.128C252.742 181.02 252.846 181.958 252.765 182.89V182.89Z" fill="#4F647B"/>
<path d="M249.825 140.458C249.654 140.444 249.487 140.396 249.334 140.317C249.181 140.239 249.046 140.13 248.936 139.999C248.825 139.867 248.742 139.715 248.691 139.551C248.64 139.387 248.622 139.215 248.639 139.044L248.968 135.161C249.001 134.817 249.167 134.499 249.432 134.276C249.696 134.052 250.038 133.941 250.383 133.966C250.728 133.999 251.046 134.166 251.27 134.43C251.493 134.694 251.605 135.035 251.579 135.38L251.241 139.273C251.226 139.443 251.177 139.609 251.098 139.761C251.018 139.913 250.91 140.048 250.778 140.158C250.647 140.268 250.495 140.351 250.332 140.403C250.168 140.454 249.996 140.473 249.825 140.458Z" fill="#D1E0E0"/>
<path d="M242.26 227.741C242.089 227.726 241.923 227.677 241.771 227.598C241.618 227.519 241.484 227.411 241.373 227.279C241.263 227.148 241.18 226.996 241.129 226.833C241.077 226.67 241.058 226.498 241.073 226.327L241.392 222.673C241.406 222.502 241.454 222.335 241.533 222.182C241.611 222.029 241.72 221.893 241.851 221.782C241.983 221.671 242.135 221.587 242.299 221.535C242.463 221.483 242.636 221.464 242.808 221.479C242.979 221.494 243.145 221.542 243.297 221.621C243.449 221.7 243.584 221.809 243.694 221.94C243.804 222.071 243.888 222.223 243.939 222.386C243.991 222.55 244.009 222.722 243.994 222.892L243.675 226.556C243.66 226.727 243.612 226.893 243.532 227.045C243.453 227.196 243.345 227.331 243.213 227.441C243.082 227.551 242.93 227.634 242.766 227.686C242.603 227.737 242.43 227.756 242.26 227.741V227.741Z" fill="#D1E0E0"/>
<path d="M291.854 186.105L288.295 185.797C288.124 185.782 287.958 185.733 287.806 185.654C287.654 185.575 287.519 185.467 287.409 185.335C287.298 185.204 287.215 185.052 287.164 184.889C287.112 184.726 287.093 184.554 287.109 184.383C287.122 184.212 287.17 184.045 287.249 183.893C287.328 183.74 287.436 183.605 287.568 183.495C287.7 183.384 287.852 183.301 288.016 183.251C288.18 183.2 288.353 183.182 288.524 183.198L292.083 183.497C292.427 183.53 292.744 183.697 292.966 183.961C293.188 184.226 293.297 184.567 293.269 184.911C293.255 185.082 293.208 185.249 293.129 185.402C293.05 185.555 292.942 185.691 292.81 185.802C292.679 185.913 292.527 185.997 292.362 186.049C292.198 186.101 292.025 186.12 291.854 186.105V186.105Z" fill="#D1E0E0"/>
<path d="M205.455 178.638L200.57 178.21C200.399 178.196 200.231 178.149 200.078 178.07C199.925 177.991 199.789 177.883 199.678 177.752C199.566 177.621 199.482 177.468 199.43 177.304C199.378 177.14 199.359 176.968 199.374 176.796C199.407 176.453 199.574 176.136 199.839 175.914C200.104 175.693 200.445 175.584 200.79 175.612L205.674 176.03C206.02 176.06 206.34 176.226 206.564 176.491C206.788 176.755 206.898 177.098 206.871 177.444C206.857 177.615 206.809 177.782 206.73 177.935C206.652 178.088 206.543 178.224 206.412 178.335C206.28 178.446 206.128 178.53 205.964 178.582C205.8 178.634 205.627 178.653 205.455 178.638V178.638Z" fill="#D1E0E0"/>
<path d="M265.845 223.499C265.617 223.48 265.398 223.401 265.211 223.27C265.024 223.138 264.874 222.96 264.778 222.753L263.104 219.238C262.956 218.925 262.938 218.566 263.054 218.24C263.17 217.914 263.41 217.647 263.722 217.496C264.035 217.349 264.394 217.331 264.721 217.447C265.048 217.562 265.315 217.802 265.466 218.113L267.141 221.638C267.215 221.793 267.257 221.962 267.266 222.134C267.274 222.305 267.249 222.477 267.19 222.639C267.132 222.801 267.042 222.95 266.926 223.077C266.809 223.204 266.669 223.307 266.513 223.38C266.305 223.478 266.074 223.519 265.845 223.499V223.499Z" fill="#D1E0E0"/>
<path d="M228.114 144.042C227.885 144.021 227.665 143.941 227.476 143.811C227.288 143.68 227.136 143.502 227.037 143.295L225.512 140.079C225.364 139.766 225.347 139.408 225.462 139.081C225.578 138.755 225.818 138.488 226.13 138.337C226.441 138.2 226.794 138.188 227.114 138.305C227.434 138.422 227.695 138.658 227.844 138.964L229.37 142.19C229.517 142.503 229.535 142.862 229.419 143.188C229.303 143.514 229.064 143.782 228.752 143.932C228.551 144.021 228.332 144.058 228.114 144.042V144.042Z" fill="#D1E0E0"/>
<path d="M219.759 219.517C219.528 219.498 219.307 219.415 219.121 219.279C218.979 219.181 218.857 219.056 218.764 218.911C218.671 218.766 218.608 218.604 218.578 218.435C218.548 218.265 218.553 218.091 218.591 217.923C218.63 217.755 218.701 217.596 218.802 217.457L221.254 214.002C221.353 213.862 221.478 213.743 221.622 213.652C221.767 213.561 221.928 213.499 222.097 213.47C222.266 213.441 222.438 213.446 222.605 213.485C222.772 213.523 222.929 213.594 223.069 213.693C223.351 213.894 223.544 214.197 223.603 214.539C223.663 214.88 223.585 215.231 223.388 215.515L220.935 218.97C220.804 219.156 220.626 219.304 220.42 219.4C220.214 219.496 219.986 219.536 219.759 219.517V219.517Z" fill="#D1E0E0"/>
<path d="M270.601 147.715C270.371 147.692 270.151 147.61 269.963 147.476C269.68 147.276 269.488 146.972 269.428 146.631C269.368 146.29 269.446 145.939 269.644 145.654L271.707 142.747C271.806 142.607 271.932 142.488 272.078 142.397C272.223 142.305 272.386 142.243 272.555 142.215C272.725 142.186 272.898 142.191 273.066 142.229C273.233 142.268 273.391 142.339 273.531 142.439C273.671 142.537 273.791 142.662 273.882 142.806C273.973 142.951 274.035 143.112 274.064 143.28C274.093 143.449 274.088 143.621 274.049 143.788C274.011 143.954 273.94 144.112 273.84 144.251L271.787 147.168C271.653 147.353 271.474 147.502 271.266 147.598C271.058 147.694 270.829 147.734 270.601 147.715V147.715Z" fill="#D1E0E0"/>
<path d="M205.843 203.797C205.634 203.771 205.434 203.694 205.26 203.575C205.087 203.455 204.945 203.296 204.846 203.11C204.764 202.96 204.712 202.795 204.695 202.625C204.677 202.455 204.693 202.283 204.742 202.119C204.791 201.955 204.872 201.802 204.981 201.67C205.089 201.538 205.223 201.428 205.374 201.348L209.232 199.277C209.539 199.115 209.898 199.08 210.23 199.181C210.563 199.281 210.842 199.509 211.006 199.815C211.169 200.12 211.203 200.477 211.102 200.807C211.001 201.137 210.773 201.414 210.468 201.577L206.61 203.648C206.375 203.773 206.108 203.825 205.843 203.797V203.797Z" fill="#D1E0E0"/>
<path d="M283.718 162.052C283.509 162.025 283.309 161.949 283.136 161.83C282.962 161.71 282.82 161.551 282.721 161.365C282.558 161.061 282.522 160.705 282.621 160.375C282.72 160.045 282.946 159.767 283.25 159.602L286.111 158.069C286.416 157.906 286.774 157.87 287.106 157.969C287.439 158.068 287.718 158.293 287.885 158.597C288.048 158.903 288.082 159.262 287.981 159.594C287.881 159.926 287.652 160.204 287.347 160.369L284.496 161.902C284.256 162.027 283.986 162.078 283.718 162.052V162.052Z" fill="#D1E0E0"/>
<path d="M282.254 210.397C282.003 210.377 281.764 210.284 281.566 210.129L278.755 207.928C278.483 207.714 278.307 207.402 278.264 207.059C278.221 206.717 278.315 206.371 278.526 206.097C278.742 205.825 279.056 205.648 279.401 205.605C279.746 205.563 280.094 205.657 280.37 205.868L283.171 208.068C283.443 208.284 283.62 208.597 283.663 208.942C283.706 209.286 283.612 209.634 283.4 209.91C283.265 210.08 283.089 210.214 282.889 210.299C282.689 210.384 282.471 210.418 282.254 210.397V210.397Z" fill="#D1E0E0"/>
<path d="M213.499 156.526C213.245 156.506 213.003 156.413 212.801 156.258L209.472 153.639C209.337 153.533 209.224 153.402 209.14 153.253C209.056 153.103 209.002 152.939 208.982 152.769C208.962 152.599 208.975 152.426 209.021 152.261C209.068 152.096 209.146 151.942 209.252 151.807C209.358 151.673 209.49 151.56 209.639 151.476C209.789 151.392 209.954 151.339 210.124 151.318C210.294 151.298 210.467 151.311 210.632 151.358C210.797 151.404 210.952 151.482 211.086 151.588L214.416 154.197C214.688 154.411 214.864 154.723 214.907 155.066C214.95 155.409 214.856 155.755 214.645 156.029C214.512 156.202 214.337 156.339 214.137 156.426C213.936 156.513 213.717 156.548 213.499 156.526V156.526Z" fill="#D1E0E0"/>
<path d="M106.515 240.594C103.674 249.036 105.469 258.803 112.806 264.398C115.637 266.559 119.714 268.53 123.382 268.012C126.253 267.604 128.506 265.135 127.37 262.188C126.233 259.241 122.844 258.833 120.192 260.008C118.443 260.883 116.929 262.164 115.777 263.744C114.625 265.323 113.87 267.156 113.573 269.088C113.247 270.748 113.34 272.463 113.842 274.079C114.344 275.695 115.24 277.161 116.45 278.345C117.66 279.53 119.145 280.396 120.773 280.865C122.4 281.334 124.119 281.393 125.775 281.035C128.486 280.467 132.424 278.048 131.078 274.762C129.653 271.238 125.167 272.373 122.675 273.866C116.693 277.431 113.125 285.893 116.075 292.454C119.026 299.015 128.257 301.773 134.308 297.731C136.401 296.327 138.465 293.141 136.053 291C133.82 289.009 130.57 290.224 128.905 292.265C123.612 298.706 127.29 309.767 133.78 313.839C137.254 315.959 141.391 316.718 145.393 315.97C148.623 315.372 152.371 313.272 152.371 309.518C152.371 306.621 149.59 305.357 147.048 306.133C143.679 307.129 142.293 311.022 142.353 314.247C142.369 316.161 142.826 318.046 143.69 319.755C144.553 321.463 145.799 322.95 147.332 324.1C148.864 325.25 150.641 326.032 152.524 326.385C154.408 326.737 156.348 326.652 158.193 326.135C161.493 325.298 165.42 322.979 166.028 319.315C166.517 316.328 163.965 314.626 161.253 315.333C157.714 316.209 156.339 320.042 156.349 323.297C156.392 327.327 158.013 331.179 160.865 334.03C162.324 335.411 164.047 336.485 165.931 337.186C167.815 337.888 169.821 338.203 171.83 338.112C175.588 337.962 180.423 336.529 182.287 332.915C183.593 330.366 182.895 326.851 179.675 326.423C176.137 325.955 173.545 329.191 172.398 332.138C169.876 338.619 172.638 346.923 179.187 349.81C182.128 351.104 186.394 351.353 188.577 348.535C189.376 347.459 189.726 346.116 189.555 344.787C189.384 343.458 188.705 342.247 187.66 341.407C184.67 339.117 180.423 340.73 177.891 342.92C174.9 345.519 172.229 349.561 171.91 353.563C171.631 356.659 173.126 360.393 176.535 360.93C179.137 361.339 182.287 359.596 182.676 356.849C182.779 356.232 182.727 355.599 182.525 355.007C182.323 354.415 181.978 353.881 181.52 353.455C181.063 353.028 180.506 352.721 179.901 352.561C179.295 352.401 178.66 352.393 178.051 352.538C177.433 352.687 177.692 353.633 178.31 353.533C181.579 352.707 182.527 356.809 180.682 358.67C180.229 359.116 179.691 359.468 179.101 359.706C178.511 359.943 177.879 360.062 177.243 360.054C173.116 359.975 172.368 354.927 173.256 351.841C174.571 347.142 180.822 338.689 186.644 341.935C190.342 343.996 188.458 348.904 184.859 349.68C183.474 349.885 182.06 349.786 180.717 349.389C179.374 348.991 178.134 348.306 177.084 347.381C175.309 345.841 173.972 343.862 173.208 341.642C172.443 339.422 172.277 337.041 172.727 334.737C173.256 332.068 174.721 328.932 177.343 327.827C179.745 326.832 182.457 328.325 181.928 331.182C181.693 332.078 181.269 332.914 180.685 333.633C180.1 334.353 179.369 334.939 178.539 335.354C175.863 336.843 172.786 337.452 169.743 337.094C166.701 336.737 163.849 335.431 161.592 333.363C157.954 329.808 155.113 321.694 159.339 317.493C160.575 316.268 162.569 315.631 164.055 316.706C165.988 318.12 164.912 320.48 163.616 321.973C162.497 323.124 161.158 324.037 159.679 324.66C158.199 325.282 156.609 325.601 155.003 325.597C152.195 325.661 149.465 324.675 147.346 322.834C145.228 320.992 143.874 318.427 143.549 315.641C143.17 312.844 143.708 309.359 146.221 307.676C147.586 306.761 150.009 306.313 151.105 308.035C152.321 309.956 150.627 312.475 149.111 313.55C144.346 316.856 136.76 315.313 132.623 311.709C130.489 309.739 128.946 307.215 128.168 304.419C127.39 301.623 127.407 298.666 128.217 295.879C129.035 293.26 131.945 289.417 135.106 291.468C137.338 292.912 135.634 295.57 134.109 296.695C132.847 297.594 131.393 298.188 129.862 298.427C127.465 298.869 124.99 298.569 122.768 297.568C120.547 296.566 118.684 294.91 117.431 292.822C115.009 288.472 116.125 282.926 118.817 278.964C120.225 276.83 122.204 275.133 124.529 274.065C126.473 273.219 132.085 273.07 130.061 277.331C129.304 278.914 127.18 279.77 125.585 280.089C124.096 280.397 122.554 280.334 121.095 279.905C119.636 279.476 118.305 278.694 117.221 277.629C116.137 276.563 115.332 275.248 114.878 273.798C114.425 272.348 114.336 270.809 114.62 269.316C114.861 267.759 115.416 266.266 116.253 264.93C117.089 263.593 118.188 262.44 119.485 261.541C120.87 260.645 122.844 259.878 124.469 260.466C125.067 260.682 125.591 261.064 125.979 261.567C126.368 262.07 126.604 262.673 126.661 263.306C126.717 263.939 126.592 264.574 126.299 265.138C126.006 265.702 125.558 266.171 125.007 266.489C122.236 268.022 118.288 266.489 115.766 265.095C113.229 263.715 111.059 261.749 109.436 259.361C105.718 253.895 105.449 246.946 107.502 240.823C107.712 240.215 106.755 239.957 106.555 240.564L106.515 240.594Z" fill="#C1D9DB"/>
<path d="M95.9088 259.182C85.3321 261.541 74.2469 261.491 72.4625 257.788C64.8464 242.018 64.3181 225.222 64.4876 218.353C64.5285 217.312 64.822 216.297 65.343 215.395C65.864 214.494 66.5968 213.732 67.4782 213.176C75.413 208.367 84.4949 205.775 93.7756 205.669C92.689 202.682 91.2136 199.237 89.6186 195.842C83.0827 181.996 74.6295 169.137 64.5075 157.642C62.0253 154.824 59.5232 152.126 57.1407 149.926C53.3628 158.382 47.3789 165.668 39.8151 171.022C38.9528 171.621 37.9561 171.999 36.913 172.122C35.8698 172.246 34.8124 172.111 33.8339 171.729C27.4639 169.151 12.2417 161.982 0.7777 148.741C-1.91384 145.625 2.45246 135.45 8.83241 126.689C15.2124 117.928 25.201 107.066 40.7322 112.412C56.2634 117.758 82.3415 153.47 91.4429 167.319C100.544 181.167 122.974 219.308 121.708 235.626C120.442 251.944 106.496 256.812 95.9088 259.182Z" fill="#28A069"/>
<path d="M3.62867 145.545C15.6903 150.904 26.4192 158.856 35.0499 168.832C35.4686 169.32 36.1664 168.613 35.7577 168.125C27.0723 158.071 16.2719 150.055 4.1271 144.649C3.54892 144.39 3.04052 145.247 3.62867 145.505V145.545Z" fill="#107746"/>
<path d="M67.9559 216.351C73.9668 228.992 76.7381 242.926 76.0206 256.901C76.0206 257.549 77.0175 257.549 77.0175 256.901C77.7322 242.752 74.9165 228.647 68.8232 215.853C68.5441 215.276 67.6868 215.774 67.9559 216.351V216.351Z" fill="#107746"/>
<path d="M57.9971 150.194C58.6751 148.893 59.1523 147.496 59.4127 146.053C59.5223 145.425 58.5653 145.157 58.4158 145.784C58.1764 147.145 57.7293 148.461 57.0899 149.686C56.8008 150.254 57.6581 150.762 57.9572 150.194H57.9971Z" fill="#107746"/>
<path d="M94.0453 205.808C95.8696 205.774 97.6928 205.921 99.4882 206.246C100.116 206.356 100.385 205.4 99.7574 205.251C97.8729 204.911 95.96 204.754 94.0453 204.783C93.9131 204.783 93.7863 204.835 93.6929 204.928C93.5994 205.022 93.5469 205.148 93.5469 205.28C93.5469 205.412 93.5994 205.539 93.6929 205.632C93.7863 205.726 93.9131 205.778 94.0453 205.778V205.808Z" fill="#107746"/>
<path d="M36.445 89.2845L59.5922 84.3066C60.2202 84.1672 59.9611 83.2114 59.333 83.311L36.1758 88.2391C35.5478 88.3785 35.8169 89.3343 36.445 89.2347V89.2845Z" fill="#107746"/>
<path d="M53.1928 82.7634L64.1583 80.7723C64.7963 80.6528 64.5272 79.697 63.8992 79.7767L52.9336 81.7678C52.3056 81.8873 52.5747 82.8431 53.2028 82.7634H53.1928Z" fill="#107746"/>
<path d="M250.882 22.8885L258.528 21.0765C259.146 20.9371 258.887 19.9714 258.259 20.0809L250.613 21.8929C249.985 22.0323 250.254 22.998 250.882 22.8885Z" fill="#107746"/>
<path d="M247.782 27.4584L255.159 25.6365C255.291 25.6008 255.404 25.5142 255.472 25.3956C255.541 25.2771 255.559 25.1363 255.523 25.0043C255.487 24.8722 255.401 24.7598 255.282 24.6916C255.163 24.6235 255.022 24.6052 254.89 24.6409L247.513 26.4727C246.895 26.6221 247.154 27.5778 247.782 27.4683V27.4584Z" fill="#107746"/>
<path d="M253.185 42.9201L277.858 37.6634C278.486 37.534 278.217 36.5683 277.598 36.6678L252.916 41.9146C252.288 42.054 252.557 43.0097 253.185 42.9102V42.9201Z" fill="#107746"/>
</g>
<defs>
<linearGradient id="paint0_linear_190_422" x1="271.801" y1="72.663" x2="125.891" y2="257.089" gradientUnits="userSpaceOnUse">
<stop stop-color="white"/>
<stop offset="1" stop-color="#9FDA85"/>
</linearGradient>
<linearGradient id="paint1_linear_190_422" x1="274.719" y1="74.9839" x2="128.818" y2="259.41" gradientUnits="userSpaceOnUse">
<stop stop-color="white"/>
<stop offset="1" stop-color="#9FDA85"/>
</linearGradient>
<linearGradient id="paint2_linear_190_422" x1="290.284" y1="87.293" x2="144.374" y2="271.719" gradientUnits="userSpaceOnUse">
<stop stop-color="white"/>
<stop offset="1" stop-color="#9FDA85"/>
</linearGradient>
<linearGradient id="paint3_linear_190_422" x1="305.828" y1="99.5942" x2="159.928" y2="284.02" gradientUnits="userSpaceOnUse">
<stop stop-color="white"/>
<stop offset="1" stop-color="#9FDA85"/>
</linearGradient>
<clipPath id="clip0_190_422">
<rect width="331" height="361" fill="white"/>
</clipPath>
</defs>
</svg>
