<svg width="142" height="122" viewBox="0 0 142 122" fill="none" xmlns="http://www.w3.org/2000/svg">
<rect y="97.1865" width="5.37626" height="5.37626" rx="2.68813" fill="#6F8B5D"/>
<rect y="19.4375" width="5.37626" height="5.37626" rx="2.68813" fill="#6F8B5D"/>
<rect y="58.3115" width="5.37626" height="5.37626" rx="2.68813" fill="#6F8B5D"/>
<rect y="116.624" width="5.37626" height="5.37626" rx="2.68813" fill="#6F8B5D"/>
<rect y="38.875" width="5.37626" height="5.37626" rx="2.68813" fill="#6F8B5D"/>
<rect y="77.749" width="5.37626" height="5.37626" rx="2.68813" fill="#6F8B5D"/>
<rect width="5.37626" height="5.37626" rx="2.68813" fill="#6F8B5D"/>
<rect x="77.75" y="97.1865" width="5.37626" height="5.37626" rx="2.68813" fill="#6F8B5D"/>
<rect x="77.75" y="19.4375" width="5.37626" height="5.37626" rx="2.68813" fill="#6F8B5D"/>
<rect x="77.75" y="58.3115" width="5.37626" height="5.37626" rx="2.68813" fill="#6F8B5D"/>
<rect x="77.75" y="116.624" width="5.37626" height="5.37626" rx="2.68813" fill="#6F8B5D"/>
<rect x="77.75" y="38.875" width="5.37626" height="5.37626" rx="2.68813" fill="#6F8B5D"/>
<rect x="77.75" y="77.749" width="5.37626" height="5.37626" rx="2.68813" fill="#6F8B5D"/>
<rect x="77.75" width="5.37626" height="5.37626" rx="2.68813" fill="#6F8B5D"/>
<rect x="38.875" y="97.1865" width="5.37626" height="5.37626" rx="2.68813" fill="#6F8B5D"/>
<rect x="38.875" y="19.4375" width="5.37626" height="5.37626" rx="2.68813" fill="#6F8B5D"/>
<rect x="38.875" y="58.3125" width="5.37626" height="5.37626" rx="2.68813" fill="#6F8B5D"/>
<rect x="38.875" y="116.624" width="5.37626" height="5.37626" rx="2.68813" fill="#6F8B5D"/>
<rect x="38.875" y="38.875" width="5.37626" height="5.37626" rx="2.68813" fill="#6F8B5D"/>
<rect x="38.875" y="77.749" width="5.37626" height="5.37626" rx="2.68813" fill="#6F8B5D"/>
<rect x="38.875" width="5.37626" height="5.37626" rx="2.68813" fill="#6F8B5D"/>
<rect x="116.623" y="97.1865" width="5.37626" height="5.37626" rx="2.68813" fill="#6F8B5D"/>
<rect x="116.623" y="19.4375" width="5.37626" height="5.37626" rx="2.68813" fill="#6F8B5D"/>
<rect x="116.623" y="58.3115" width="5.37626" height="5.37626" rx="2.68813" fill="#6F8B5D"/>
<rect x="116.623" y="116.624" width="5.37626" height="5.37626" rx="2.68813" fill="#6F8B5D"/>
<rect x="116.623" y="38.875" width="5.37626" height="5.37626" rx="2.68813" fill="#6F8B5D"/>
<rect x="116.623" y="77.749" width="5.37626" height="5.37626" rx="2.68813" fill="#6F8B5D"/>
<rect x="116.623" width="5.37626" height="5.37626" rx="2.68813" fill="#6F8B5D"/>
<rect x="19.4375" y="97.1865" width="5.37626" height="5.37626" rx="2.68813" fill="#6F8B5D"/>
<rect x="19.4375" y="19.4375" width="5.37626" height="5.37626" rx="2.68813" fill="#6F8B5D"/>
<rect x="19.4375" y="58.3115" width="5.37626" height="5.37626" rx="2.68813" fill="#6F8B5D"/>
<rect x="19.4375" y="116.624" width="5.37626" height="5.37626" rx="2.68813" fill="#6F8B5D"/>
<rect x="19.4375" y="38.875" width="5.37626" height="5.37626" rx="2.68813" fill="#6F8B5D"/>
<rect x="19.4375" y="77.749" width="5.37626" height="5.37626" rx="2.68813" fill="#6F8B5D"/>
<rect x="19.4375" width="5.37626" height="5.37626" rx="2.68813" fill="#6F8B5D"/>
<rect x="97.1855" y="97.1865" width="5.37626" height="5.37626" rx="2.68813" fill="#6F8B5D"/>
<rect x="97.1855" y="19.4375" width="5.37626" height="5.37626" rx="2.68813" fill="#6F8B5D"/>
<rect x="97.1855" y="58.3115" width="5.37626" height="5.37626" rx="2.68813" fill="#6F8B5D"/>
<rect x="97.1855" y="116.624" width="5.37626" height="5.37626" rx="2.68813" fill="#6F8B5D"/>
<rect x="97.1855" y="38.875" width="5.37626" height="5.37626" rx="2.68813" fill="#6F8B5D"/>
<rect x="97.1855" y="77.749" width="5.37626" height="5.37626" rx="2.68813" fill="#6F8B5D"/>
<rect x="97.1855" width="5.37626" height="5.37626" rx="2.68813" fill="#6F8B5D"/>
<rect x="58.3125" y="97.1865" width="5.37626" height="5.37626" rx="2.68813" fill="#6F8B5D"/>
<rect x="58.3125" y="19.4375" width="5.37626" height="5.37626" rx="2.68813" fill="#6F8B5D"/>
<rect x="58.3125" y="58.3115" width="5.37626" height="5.37626" rx="2.68813" fill="#6F8B5D"/>
<rect x="58.3125" y="116.624" width="5.37626" height="5.37626" rx="2.68813" fill="#6F8B5D"/>
<rect x="58.3125" y="38.875" width="5.37626" height="5.37626" rx="2.68813" fill="#6F8B5D"/>
<rect x="58.3125" y="77.749" width="5.37626" height="5.37626" rx="2.68813" fill="#6F8B5D"/>
<rect x="58.3125" width="5.37626" height="5.37626" rx="2.68813" fill="#6F8B5D"/>
<rect x="136.061" y="97.1865" width="5.37626" height="5.37626" rx="2.68813" fill="#6F8B5D"/>
<rect x="136.061" y="19.4375" width="5.37626" height="5.37626" rx="2.68813" fill="#6F8B5D"/>
<rect x="136.061" y="58.3125" width="5.37626" height="5.37626" rx="2.68813" fill="#6F8B5D"/>
<rect x="136.061" y="116.624" width="5.37626" height="5.37626" rx="2.68813" fill="#6F8B5D"/>
<rect x="136.061" y="38.875" width="5.37626" height="5.37626" rx="2.68813" fill="#6F8B5D"/>
<rect x="136.061" y="77.749" width="5.37626" height="5.37626" rx="2.68813" fill="#6F8B5D"/>
<rect x="136.061" width="5.37626" height="5.37626" rx="2.68813" fill="#6F8B5D"/>
</svg>
