<svg width="48" height="48" viewBox="0 0 48 48" fill="none" xmlns="http://www.w3.org/2000/svg">
<path d="M24.3586 5.77701C22.4783 5.65647 20.6381 5.55826 18.9 5.95558C19.0556 6.40201 17.0776 5.95558 12.0013 9.42879C9.42334 11.3515 7.42373 13.9514 6.22266 16.9422C9.44979 15.835 14.1127 15.5716 20.6603 17.835C30.1239 21.1386 36.3959 19.0449 39.752 15.8306C38.2897 12.946 36.0975 10.4985 33.3956 8.73382C30.6937 6.96916 27.577 5.94942 24.3586 5.77701Z" fill="#9DDCF9"/>
<path d="M21.079 19.0762C14.2691 16.844 9.10393 17.4155 5.81901 18.7146C5.38952 20.0543 5.17641 21.4545 5.1878 22.8619C5.094 25.7394 5.65691 28.6004 6.83342 31.2259C8.00994 33.8513 9.76889 36.1717 11.9757 38.0094C14.1825 39.8471 16.7786 41.1534 19.5654 41.8284C22.3522 42.5034 25.2559 42.5292 28.0541 41.9037C30.8524 41.2783 33.4711 40.0183 35.7099 38.2201C37.9487 36.4218 39.7482 34.1331 40.9707 31.5289C42.1932 28.9247 42.8064 26.0742 42.7633 23.1954C42.7201 20.3167 42.0218 17.486 40.7218 14.9199C37.3613 18.4869 30.9204 22.3039 21.079 19.0762Z" fill="#B2D235"/>
<path d="M11.366 27.9999L11.1082 26.8391L7.84554 27.549L7.64551 26.6293L10.9082 25.9195L10.6593 24.7543L11.4416 24.54L12.1617 27.8749L11.366 27.9999Z" fill="#00614D"/>
<path d="M8.49902 29.6116L12.3218 28L12.6863 28.8661L8.85907 30.4777L8.49902 29.6116Z" fill="#00614D"/>
<path d="M10.5706 33.5353C9.81495 32.4683 9.88162 31.2496 10.9662 30.4773C11.1966 30.2925 11.4635 30.159 11.7492 30.0856C12.0349 30.0123 12.3328 30.0007 12.6233 30.0518C12.9137 30.1029 13.19 30.2154 13.4339 30.3819C13.6778 30.5484 13.8836 30.765 14.0378 31.0174C14.3524 31.4449 14.5681 31.9376 14.669 32.4594L13.8244 32.7719C13.7791 32.3363 13.6263 31.919 13.3799 31.5576C12.9843 30.9996 12.4064 30.7407 11.6019 31.321C10.8551 31.8567 10.9129 32.4951 11.3263 33.1067C11.4401 33.2721 11.5745 33.4222 11.7263 33.5532L12.5265 32.9817L13.0643 33.7496L11.7086 34.7183C11.2663 34.3904 10.8817 33.9906 10.5706 33.5353Z" fill="#00614D"/>
<path d="M14.6639 37.5227L14.815 35.5629L14.4283 35.2638L13.4681 36.5183L12.748 35.9647L15.2729 32.6611L15.7174 33.0004C15.7174 33.0004 16.3886 33.4692 16.5308 33.5808C17.1798 34.0763 17.3843 34.7549 16.9042 35.3665C16.7668 35.5552 16.5751 35.697 16.3549 35.7728C16.1347 35.8487 15.8967 35.8548 15.6729 35.7906L15.6462 35.8263L15.5307 38.0852L14.6639 37.5227ZM15.9085 34.0093L15.5707 33.7683L14.8461 34.7147L15.1795 34.9736C15.2415 35.0305 15.3146 35.0739 15.3942 35.1008C15.4737 35.1278 15.558 35.1378 15.6417 35.1303C15.7253 35.1227 15.8065 35.0977 15.88 35.0569C15.9534 35.0161 16.0177 34.9604 16.0685 34.8933C16.3175 34.5718 16.2374 34.2727 15.8996 34.0093H15.9085Z" fill="#00614D"/>
<path d="M16.2959 38.4104L18.1317 34.6738L18.9718 35.0935L17.1316 38.8256L16.2959 38.4104Z" fill="#00614D"/>
<path d="M19.2563 39.6916C18.8188 39.585 18.419 39.3595 18.1006 39.0398L18.514 38.3434C18.7505 38.6164 19.0585 38.8175 19.403 38.9238C19.7319 39.0175 20.0298 39.013 20.1231 38.6961C20.3098 38.0622 18.5984 37.6023 18.9452 36.4193C19.1585 35.6916 19.8697 35.3925 20.7232 35.6425C21.0769 35.7422 21.4172 35.8846 21.7367 36.0666L21.3766 36.8077C21.1208 36.6486 20.8497 36.5155 20.5676 36.4104C20.1631 36.2898 19.932 36.3702 19.8564 36.6202C19.7008 37.147 21.4433 37.705 21.0877 38.9193C20.8521 39.6693 20.0653 39.9327 19.2563 39.6916Z" fill="#00614D"/>
<path d="M25.6347 40.2899L24.559 40.3569L22.8477 36.3078L23.8656 36.1872L24.9546 38.9506C25.0003 39.0657 25.0331 39.1854 25.0524 39.3078H25.1146C25.1177 39.1825 25.1356 39.0582 25.168 38.9372L25.9281 36.1024L26.8438 36.0488L25.6347 40.2899Z" fill="#00614D"/>
<path d="M30.7107 39.0579L30.0217 38.2052L28.6526 38.6918V39.7633L27.8125 40.0668L27.8925 35.6025L28.7593 35.29L31.6308 38.6561L30.7107 39.0579ZM28.8482 36.7811C28.7651 36.6745 28.6935 36.5593 28.6348 36.4374H28.5904C28.6255 36.5685 28.6449 36.7034 28.6482 36.8391V37.9061L29.5372 37.5936L28.8482 36.7811Z" fill="#00614D"/>
<path d="M34.8935 36.4913L32.7198 38.0003L30.3506 34.5806L31.1151 34.0449L33.0221 36.7905L34.4845 35.7681L34.8935 36.4913Z" fill="#00614D"/>
<path d="M37.5791 33.6429L35.801 35.6339L32.6895 32.8616L33.3118 32.1562L35.801 34.3884L36.9879 33.0491L37.5791 33.6429Z" fill="#00614D"/>
<path d="M39.5564 30.2321L38.3028 32.5848L34.6445 30.6161L35.858 28.3438L36.5381 28.7902L35.7914 30.1875L36.547 30.5938L37.2405 29.2946L37.9383 29.6696L37.2449 30.9688L38.0228 31.3884L38.8718 29.7946L39.5564 30.2321Z" fill="#00614D"/>
<path d="M39.0236 26.4728L40.5483 26.8299L40.3349 27.7228L38.8103 27.3656L36.001 28.2585L36.1699 27.1826L37.8057 26.763C37.9055 26.7352 38.0088 26.7217 38.1124 26.7228V26.6648C38.018 26.618 37.9299 26.5596 37.8501 26.4907L36.5966 25.4103L36.81 24.4951L39.0236 26.4728Z" fill="#00614D"/>
<path d="M15.1311 9.68262C15.9315 9.7043 16.7079 9.4071 17.2908 8.85591C17.8738 8.30473 18.216 7.54432 18.2427 6.74066C18.2549 6.33649 18.1853 5.93403 18.0382 5.55762C16.1224 6.19566 14.3213 7.13928 12.7041 8.35226C12.9741 8.75192 13.3352 9.08111 13.7573 9.31249C14.1794 9.54387 14.6504 9.67076 15.1311 9.68262Z" fill="white"/>
<path d="M15.5527 9.13798C15.9027 9.15418 16.2524 9.10098 16.5819 8.9814C16.9114 8.86183 17.2142 8.67823 17.473 8.44109C17.7318 8.20396 17.9416 7.91793 18.0903 7.59935C18.239 7.28078 18.3238 6.9359 18.3398 6.58441C18.3514 6.23351 18.2909 5.88396 18.162 5.55762C16.4597 6.10668 14.8556 6.92501 13.4102 7.98173C13.6537 8.32796 13.974 8.61262 14.3458 8.81327C14.7176 9.01392 15.1308 9.12508 15.5527 9.13798Z" fill="#FBB040"/>
<path d="M42.9486 20.4772C42.6998 18.8724 42.2518 17.3051 41.6151 15.812C41.504 15.5576 41.3884 15.3076 41.2639 15.0576L41.1128 14.7495C41.0061 14.5397 40.8994 14.3299 40.7883 14.129C39.0035 10.8882 36.3283 8.23124 33.0817 6.47501C29.8351 4.71877 26.1541 3.93735 22.4775 4.22391C18.801 4.51048 15.2841 5.85294 12.3462 8.09122C9.40823 10.3295 7.17325 13.3692 5.90771 16.8478C5.75658 17.2585 5.61878 17.6737 5.49432 18.0978L5.44098 18.3076C5.34318 18.6469 5.25873 18.9951 5.18316 19.3433C4.6634 21.6892 4.58949 24.1127 4.96535 26.4861C5.35762 28.9915 6.2374 31.3948 7.55445 33.5587C8.87151 35.7226 10.6 37.6047 12.6414 39.0977C14.6827 40.5907 16.9968 41.6653 19.4517 42.2601C21.9065 42.8549 24.4539 42.9582 26.9485 42.5643C29.4431 42.1703 31.836 41.2867 33.9906 39.964C36.1452 38.6412 38.0193 36.9052 39.5059 34.8551C40.9925 32.805 42.0624 30.4808 42.6546 28.0154C43.2469 25.55 43.3498 22.9915 42.9575 20.4861L42.9486 20.4772ZM18.1895 6.01739C18.2409 6.25485 18.2633 6.49772 18.2562 6.74062C18.2378 7.34129 18.0424 7.92297 17.6946 8.412C17.3468 8.90103 16.8624 9.2754 16.3026 9.48766C15.7428 9.69993 15.1328 9.74055 14.55 9.60438C13.9672 9.46821 13.4378 9.16139 13.0287 8.72276C14.5931 7.54843 16.3357 6.63492 18.1895 6.01739ZM12.2597 9.32543C12.7936 9.92024 13.4922 10.3413 14.266 10.5345C15.0397 10.7278 15.8533 10.6844 16.6024 10.41C17.3514 10.1355 18.0017 9.64257 18.4699 8.99434C18.938 8.34611 19.2026 7.57217 19.2296 6.77186C19.2416 6.42334 19.2057 6.07484 19.123 5.73615C23.0944 4.62363 27.3242 4.89849 31.1198 6.51573C34.9153 8.13296 38.0516 10.9967 40.0149 14.6379C28.3821 9.59776 20.0653 11.6558 20.0653 11.6558C28.5376 11.1603 36.8544 14.2719 39.5304 15.3879C39.2109 15.6686 38.877 15.9323 38.5302 16.1781C35.5476 18.2763 30.1334 20.1692 21.2744 17.2629C17.2738 15.9549 11.8864 14.9147 7.02788 16.437C8.17722 13.6786 9.97189 11.2391 12.2597 9.32543ZM6.58781 17.629C10.455 16.1736 15.3713 16.3522 20.9721 18.1915C30.2134 21.2183 35.9254 19.2004 39.0858 16.9772C39.5129 16.6718 39.9225 16.3424 40.3127 15.9906C38.5178 18.5989 36.1241 20.7349 33.3339 22.2183C30.329 23.7674 25.5506 25.0531 19.8208 22.3745C13.9355 19.6201 9.89495 18.0486 6.66782 18.1826H6.41889C6.4589 18.0085 6.52558 17.821 6.58781 17.629ZM26.7996 41.6558C23.8258 42.1284 20.7819 41.8573 17.9373 40.8663C15.0928 39.8753 12.5355 38.1951 10.4919 35.9745C8.44833 33.7539 6.98156 31.0614 6.22148 28.1355C5.46141 25.2097 5.4315 22.1407 6.13441 19.2004C6.31666 19.1781 6.49891 19.1647 6.69004 19.1558C9.70381 19.0353 13.8022 20.6379 19.3941 23.2585C22.3185 24.6982 25.6108 25.2075 28.831 24.7183C30.5567 24.4435 32.2272 23.8919 33.7784 23.0844C36.3923 21.7001 38.681 19.77 40.4905 17.4236C40.6683 17.1915 40.8417 16.9772 41.0106 16.7228C42.0193 19.2874 42.441 22.047 42.2446 24.7974C42.0483 27.5478 41.2388 30.2187 39.8761 32.6126C38.5134 35.0064 36.6323 37.062 34.3719 38.6274C32.1115 40.1927 29.5297 41.2277 26.8174 41.6558H26.7996Z" fill="#00614D"/>
<path d="M47.5935 23.7451C47.5965 20.3267 46.861 16.9484 45.4377 13.8433C45.2554 13.446 45.0643 13.0576 44.8598 12.6736C42.6616 8.48915 39.2687 5.05971 35.1164 2.82528C30.964 0.590864 26.2417 -0.346613 21.5552 0.13313C16.8686 0.612873 12.4317 2.48796 8.81365 5.51781C5.19559 8.54766 2.56139 12.5941 1.24904 17.1379C1.06679 17.7719 0.906758 18.4147 0.777851 19.071C0.473885 20.6176 0.324971 22.1909 0.333342 23.7674C0.333342 24.1558 0.333348 24.5531 0.360018 24.9415L1.29348 24.7674C1.29348 24.437 1.26681 24.0977 1.26681 23.7674C1.26653 21.7297 1.53862 19.7011 2.07582 17.7361C2.22695 17.1781 2.40031 16.6335 2.59145 16.0977C4.09428 11.8651 6.80904 8.17283 10.3947 5.48482C13.9803 2.79682 18.277 1.23295 22.7448 0.98968C27.2126 0.74641 31.6524 1.83459 35.5064 4.11751C39.3604 6.40043 42.4567 9.77627 44.4064 13.821C44.5798 14.1781 44.7442 14.5442 44.8998 14.9147C46.0775 17.716 46.6822 20.7266 46.6778 23.7674C46.6778 24.0977 46.6778 24.4326 46.6512 24.7629L47.5802 24.937C47.5802 24.5263 47.5935 24.1335 47.5935 23.7451Z" fill="#00614D"/>
<path d="M2.56415 28.9641C2.49823 28.9767 2.42998 28.964 2.37301 28.9284C2.3455 28.91 2.32191 28.8864 2.30359 28.8588C2.28528 28.8312 2.27261 28.8002 2.26633 28.7676L2.15964 28.2453L0.350495 28.6159C0.312799 28.6237 0.273877 28.6233 0.236322 28.6149C0.198768 28.6064 0.163438 28.59 0.132683 28.5667C0.100396 28.5445 0.072783 28.5161 0.0514268 28.4832C0.0300707 28.4503 0.0153906 28.4134 0.00822124 28.3748C-0.0101851 28.2971 0.00259093 28.2154 0.0437828 28.1471C0.0641867 28.1136 0.0913398 28.0848 0.123493 28.0625C0.155646 28.0402 0.192086 28.025 0.230476 28.0176L2.03963 27.6471L1.93295 27.1248C1.92033 27.0586 1.93303 26.99 1.96851 26.9328C1.98684 26.9049 2.01058 26.8809 2.03831 26.8623C2.06605 26.8437 2.09722 26.8309 2.12997 26.8247C2.16273 26.8185 2.1964 26.8189 2.22898 26.826C2.26157 26.833 2.2924 26.8466 2.31967 26.8659C2.34757 26.8827 2.37155 26.9054 2.38996 26.9323C2.40837 26.9593 2.42078 26.9899 2.42635 27.0221L2.75973 28.665C2.7728 28.7312 2.76007 28.7999 2.72417 28.8569C2.70591 28.8845 2.68235 28.9083 2.65488 28.9266C2.62741 28.945 2.59656 28.9578 2.56415 28.9641Z" fill="#00614D"/>
<path d="M1.3601 32.0979C1.32531 32.1143 1.28737 32.1227 1.24897 32.1227C1.21057 32.1227 1.17263 32.1143 1.13784 32.0979C1.06769 32.0598 1.01507 31.9958 0.991154 31.9194C0.97575 31.8826 0.967815 31.8431 0.967815 31.8033C0.967815 31.7634 0.97575 31.7239 0.991154 31.6872C1.00677 31.6524 1.02948 31.6214 1.05781 31.596C1.08615 31.5706 1.11947 31.5515 1.15562 31.5399L1.97796 31.2631L1.70681 30.4461L0.88447 30.7229C0.847881 30.7347 0.809266 30.7388 0.77103 30.735C0.732793 30.7311 0.695754 30.7194 0.662215 30.7006C0.592061 30.6625 0.539445 30.5984 0.515527 30.522C0.500123 30.4853 0.492187 30.4458 0.492188 30.406C0.492187 30.3661 0.500123 30.3266 0.515527 30.2899C0.531145 30.2551 0.553855 30.2241 0.582187 30.1987C0.610518 30.1733 0.643837 30.1542 0.679993 30.1426L2.66695 29.4819C2.70173 29.4655 2.73967 29.457 2.77807 29.457C2.81648 29.457 2.85442 29.4655 2.8892 29.4819C2.95682 29.5228 3.00751 29.5869 3.03199 29.6623C3.05647 29.7377 3.05312 29.8194 3.02256 29.8926C3.00649 29.927 2.98363 29.9578 2.95536 29.9832C2.92709 30.0085 2.894 30.0278 2.85809 30.0399L2.17354 30.2676L2.44469 31.0845L3.12924 30.8568C3.16564 30.8439 3.20443 30.8392 3.24285 30.8431C3.28127 30.8469 3.31837 30.8592 3.3515 30.8792C3.3865 30.897 3.4173 30.9222 3.44183 30.953C3.46637 30.9838 3.48406 31.0195 3.49373 31.0577C3.50927 31.0937 3.51729 31.1324 3.51729 31.1716C3.51729 31.2107 3.50927 31.2495 3.49373 31.2854C3.47839 31.3208 3.45583 31.3527 3.4275 31.3788C3.39918 31.4049 3.36571 31.4248 3.32927 31.4372L1.3601 32.0979Z" fill="#00614D"/>
<path d="M2.49306 34.6433C2.46215 34.6566 2.42888 34.6634 2.39527 34.6634C2.36165 34.6634 2.32839 34.6566 2.29748 34.6433C2.26617 34.6327 2.23739 34.6157 2.21291 34.5935C2.18843 34.5712 2.1688 34.5441 2.15524 34.5138L1.66183 33.4603C1.62215 33.3814 1.61419 33.2903 1.63961 33.2058C1.65278 33.166 1.67427 33.1295 1.70264 33.0987C1.731 33.0679 1.76559 33.0435 1.80408 33.0272L3.60433 32.179C3.64193 32.1614 3.68289 32.1523 3.72435 32.1523C3.76582 32.1523 3.80678 32.1614 3.84437 32.179C3.88517 32.1949 3.92234 32.2189 3.95366 32.2496C3.98498 32.2803 4.0098 32.317 4.02662 32.3576L4.50224 33.3754C4.51533 33.4057 4.52209 33.4384 4.52209 33.4714C4.52209 33.5044 4.51533 33.5371 4.50224 33.5674C4.4917 33.5988 4.47481 33.6278 4.45263 33.6523C4.43045 33.6769 4.40346 33.6966 4.37334 33.7103C4.34349 33.7245 4.31083 33.732 4.27776 33.732C4.2447 33.732 4.21205 33.7245 4.1822 33.7103C4.15032 33.6997 4.12089 33.6828 4.09568 33.6606C4.07048 33.6383 4.05001 33.6112 4.03551 33.5808L3.6799 32.8174L3.23539 33.0228L3.56877 33.7371C3.58186 33.7673 3.58862 33.8 3.58862 33.833C3.58862 33.8661 3.58186 33.8987 3.56877 33.929C3.55823 33.9605 3.54134 33.9894 3.51916 34.0139C3.49698 34.0385 3.46999 34.0583 3.43987 34.0719C3.40971 34.085 3.37718 34.0918 3.3443 34.0918C3.31142 34.0918 3.27889 34.085 3.24873 34.0719C3.18507 34.0493 3.13252 34.0029 3.10204 33.9424L2.76866 33.2281L2.21303 33.4915L2.59085 34.2951C2.61534 34.3567 2.61534 34.4254 2.59085 34.4871C2.58557 34.5183 2.57422 34.5481 2.55744 34.5749C2.54066 34.6017 2.51878 34.625 2.49306 34.6433Z" fill="#00614D"/>
<path d="M4.77342 38.2453C4.74245 38.268 4.70696 38.2838 4.66937 38.2915C4.63178 38.2992 4.59298 38.2987 4.55561 38.2899C4.47843 38.2713 4.41055 38.2254 4.36448 38.1605C4.34094 38.1289 4.32407 38.0928 4.3149 38.0544C4.30572 38.016 4.30445 37.9761 4.31114 37.9372C4.31484 37.8986 4.32714 37.8613 4.34715 37.828C4.36715 37.7948 4.39434 37.7665 4.42671 37.7453L5.13792 37.2453L4.64452 36.5399L3.9333 37.0399C3.9022 37.0624 3.86671 37.078 3.82916 37.0857C3.79162 37.0934 3.75288 37.093 3.71549 37.0846C3.6378 37.0672 3.56953 37.0209 3.52436 36.9551C3.50082 36.9235 3.48395 36.8874 3.47477 36.849C3.4656 36.8106 3.46432 36.7708 3.47102 36.7319C3.47472 36.6932 3.48702 36.6559 3.50703 36.6227C3.52703 36.5895 3.55422 36.5612 3.58659 36.5399L5.29794 35.3346C5.32863 35.3113 5.36412 35.2952 5.40181 35.2875C5.4395 35.2797 5.47843 35.2806 5.51575 35.2899C5.55476 35.2972 5.59185 35.3124 5.62474 35.3347C5.65762 35.357 5.68559 35.3858 5.7069 35.4194C5.75421 35.4835 5.77492 35.5635 5.76468 35.6426C5.75956 35.6809 5.74666 35.7176 5.72678 35.7507C5.70689 35.7837 5.68045 35.8122 5.64911 35.8346L5.05791 36.2497L5.55132 36.9551L6.14251 36.5399C6.17305 36.5164 6.20854 36.5001 6.24628 36.4923C6.28402 36.4846 6.32303 36.4856 6.36032 36.4953C6.43819 36.5123 6.5066 36.5586 6.55146 36.6248C6.59721 36.6895 6.61632 36.7694 6.6048 36.848C6.6005 36.8865 6.58794 36.9235 6.56799 36.9567C6.54804 36.9898 6.52117 37.0182 6.48923 37.0399L4.77342 38.2453Z" fill="#00614D"/>
<path d="M6.58387 40.3569C6.55943 40.3794 6.53062 40.3966 6.49926 40.4073C6.46789 40.4181 6.43465 40.4222 6.40162 40.4194C6.36835 40.4187 6.33563 40.4107 6.30571 40.396C6.27579 40.3814 6.24937 40.3605 6.22826 40.3346L5.45481 39.4685C5.42404 39.4376 5.39988 39.4006 5.38383 39.3599C5.36778 39.3192 5.36017 39.2757 5.36147 39.2319C5.36377 39.1902 5.37439 39.1493 5.39271 39.1117C5.41104 39.0741 5.43669 39.0406 5.46815 39.0132L6.95281 37.6739C6.98209 37.6442 7.01771 37.6215 7.05697 37.6076C7.09624 37.5937 7.13813 37.5889 7.17951 37.5935C7.22237 37.5971 7.26408 37.6092 7.30224 37.6292C7.34039 37.6491 7.37423 37.6764 7.40177 37.7096L8.14854 38.5534C8.17093 38.5779 8.18803 38.6068 8.19874 38.6383C8.20945 38.6698 8.21354 38.7032 8.21077 38.7364C8.20683 38.8025 8.17826 38.8646 8.13076 38.9105C8.10604 38.9326 8.07719 38.9494 8.04589 38.9602C8.0146 38.9709 7.9815 38.9753 7.94851 38.973C7.91524 38.9722 7.88252 38.9643 7.8526 38.9496C7.82268 38.935 7.79626 38.914 7.77515 38.8882L7.21062 38.2587L6.85057 38.5801L7.37065 39.1694C7.39376 39.1935 7.41132 39.2223 7.42208 39.254C7.43283 39.2856 7.43652 39.3192 7.43288 39.3525C7.43266 39.3855 7.42541 39.4182 7.41161 39.4482C7.39781 39.4782 7.37778 39.505 7.35287 39.5266C7.32815 39.5486 7.2993 39.5655 7.268 39.5762C7.23671 39.587 7.20361 39.5913 7.17062 39.5891C7.13735 39.5883 7.10463 39.5803 7.07471 39.5657C7.04479 39.551 7.01837 39.5301 6.99726 39.5042L6.47274 38.9194L6.02823 39.3301L6.61942 39.9909C6.66253 40.0417 6.68477 40.1072 6.68166 40.1739C6.67937 40.2097 6.66946 40.2445 6.65259 40.2761C6.63571 40.3077 6.61228 40.3352 6.58387 40.3569Z" fill="#00614D"/>
<path d="M8.71697 42.3612C8.69314 42.3884 8.6637 42.4101 8.6307 42.4248C8.59769 42.4394 8.56191 42.4467 8.52584 42.4461C8.45109 42.4432 8.37996 42.4131 8.32581 42.3612C8.26975 42.3178 8.23092 42.2558 8.21625 42.1863C8.20159 42.1168 8.21206 42.0443 8.24579 41.9818L8.40582 41.6291L7.72572 41.0175L7.39678 41.2184C7.33672 41.2582 7.26463 41.2756 7.19312 41.2674C7.12161 41.2592 7.05524 41.2261 7.00562 41.1737C6.97602 41.1498 6.95166 41.1201 6.93406 41.0863C6.91647 41.0524 6.90602 41.0154 6.90337 40.9773C6.902 40.9079 6.9275 40.8407 6.9745 40.7898C7.00283 40.7534 7.0394 40.7243 7.08118 40.705L8.85922 39.7541C8.95392 39.7003 9.05806 39.6655 9.16593 39.6514C9.22107 39.6505 9.27582 39.6608 9.32696 39.6815C9.37811 39.7022 9.42462 39.7329 9.46375 39.7719C9.54958 39.8441 9.60513 39.9461 9.61932 40.0577C9.61874 40.1682 9.59607 40.2775 9.55265 40.3791L8.82366 42.2094C8.79625 42.2654 8.76024 42.3166 8.71697 42.3612ZM9.05035 40.2139L8.13911 40.7675L8.61029 41.1871L9.05035 40.2139Z" fill="#00614D"/>
<path d="M10.7126 43.8038C10.6938 43.8314 10.6695 43.8548 10.6412 43.8725C10.6128 43.8902 10.5812 43.9017 10.5482 43.9064C10.4825 43.9162 10.4157 43.9003 10.3615 43.8618L9.43244 43.1922C9.39561 43.1689 9.36397 43.1383 9.33949 43.1022C9.31501 43.0661 9.29823 43.0253 9.2902 42.9823C9.28247 42.941 9.28364 42.8986 9.2936 42.8577C9.30357 42.8169 9.32211 42.7788 9.34798 42.7457L10.5348 41.0806C10.557 41.0491 10.5855 41.0225 10.6184 41.0026C10.6512 40.9826 10.6879 40.9696 10.726 40.9645C10.8047 40.9542 10.8844 40.975 10.9482 41.0225C10.9808 41.0454 11.0086 41.0746 11.0299 41.1083C11.0513 41.142 11.0658 41.1796 11.0727 41.2189C11.0808 41.2565 11.081 41.2954 11.0734 41.333C11.0657 41.3707 11.0504 41.4063 11.0282 41.4377L9.95251 42.9466L10.6548 43.4511C10.6824 43.47 10.7057 43.4944 10.7233 43.5229C10.7409 43.5513 10.7524 43.5831 10.7571 43.6163C10.7624 43.6489 10.7612 43.6823 10.7536 43.7145C10.7459 43.7467 10.732 43.777 10.7126 43.8038Z" fill="#00614D"/>
<path d="M14.0333 43.2862C14.0175 43.315 13.9959 43.3402 13.9699 43.3602C13.9439 43.3802 13.914 43.3945 13.8821 43.4023C13.8506 43.4132 13.8171 43.4168 13.784 43.4129C13.7509 43.4091 13.7191 43.3978 13.691 43.3799L13.2465 43.1165L12.3352 44.7326C12.3174 44.7668 12.2922 44.7966 12.2614 44.8198C12.2307 44.843 12.1951 44.8589 12.1574 44.8665C12.1195 44.8771 12.0799 44.8798 12.0409 44.8744C12.0019 44.869 11.9644 44.8557 11.9307 44.8353C11.8603 44.7976 11.8075 44.7334 11.784 44.6567C11.7708 44.6202 11.766 44.5812 11.7698 44.5426C11.7737 44.5039 11.7861 44.4667 11.8063 44.4335L12.7175 42.8174L12.273 42.554C12.2443 42.5382 12.2192 42.5165 12.1993 42.4904C12.1794 42.4642 12.1651 42.4342 12.1574 42.4022C12.1466 42.3706 12.1429 42.337 12.1468 42.3037C12.1506 42.2705 12.1619 42.2386 12.1797 42.2103C12.1954 42.1814 12.217 42.1562 12.243 42.1362C12.2691 42.1163 12.2989 42.102 12.3308 42.0942C12.3623 42.0833 12.3958 42.0797 12.4289 42.0835C12.462 42.0874 12.4938 42.0987 12.5219 42.1165L13.9755 42.9424C14.0042 42.9583 14.0293 42.9799 14.0492 43.0061C14.0691 43.0322 14.0833 43.0622 14.091 43.0942C14.0957 43.1285 14.0929 43.1634 14.083 43.1965C14.073 43.2296 14.056 43.2602 14.0333 43.2862Z" fill="#00614D"/>
<path d="M15.5976 46.2541C15.5831 46.2905 15.5608 46.3233 15.5324 46.3503C15.504 46.3773 15.4702 46.3977 15.4332 46.4103C15.3973 46.4257 15.3588 46.4336 15.3198 46.4336C15.2809 46.4336 15.2423 46.4257 15.2065 46.4103C15.1321 46.3822 15.0716 46.3262 15.0376 46.2541C15.0223 46.2181 15.0144 46.1794 15.0144 46.1402C15.0144 46.1011 15.0223 46.0624 15.0376 46.0264L15.3709 45.2228L14.5753 44.8925L14.2419 45.696C14.2283 45.7323 14.2069 45.7651 14.1792 45.7921C14.1516 45.8191 14.1183 45.8397 14.0819 45.8523C14.046 45.8677 14.0075 45.8756 13.9685 45.8756C13.9296 45.8756 13.891 45.8677 13.8552 45.8523C13.7808 45.8242 13.7203 45.7681 13.6862 45.696C13.671 45.6601 13.6631 45.6213 13.6631 45.5822C13.6631 45.5431 13.671 45.5044 13.6862 45.4684L14.4908 43.5309C14.5057 43.4912 14.5289 43.4551 14.5588 43.4251C14.5887 43.3951 14.6246 43.3718 14.6642 43.3568C14.737 43.3277 14.8181 43.3277 14.8909 43.3568C14.9283 43.3708 14.9626 43.3923 14.9916 43.4199C15.0206 43.4475 15.0438 43.4807 15.0598 43.5175C15.0752 43.5526 15.0832 43.5907 15.0832 43.6291C15.0832 43.6675 15.0752 43.7055 15.0598 43.7407L14.7842 44.4059L15.5754 44.7407L15.8554 44.0711C15.8698 44.0352 15.8914 44.0028 15.919 43.9759C15.9466 43.949 15.9794 43.9282 16.0155 43.9148C16.0901 43.8894 16.1715 43.8921 16.2443 43.9225C16.3171 43.9529 16.3764 44.0089 16.4111 44.08C16.4264 44.116 16.4342 44.1547 16.4342 44.1938C16.4342 44.2329 16.4264 44.2717 16.4111 44.3077L15.5976 46.2541Z" fill="#00614D"/>
<path d="M18.9178 45.0225C18.8914 45.0973 18.8434 45.1625 18.78 45.21L17.891 45.9153L17.6199 46.8751C17.6104 46.9117 17.5931 46.9457 17.5694 46.975C17.5456 47.0043 17.5158 47.0281 17.4821 47.0448C17.447 47.0639 17.4085 47.0757 17.3688 47.0795C17.3291 47.0833 17.289 47.0791 17.2509 47.0671C17.2128 47.0577 17.1769 47.0406 17.1456 47.0168C17.1143 46.993 17.0881 46.963 17.0687 46.9287C17.0474 46.8961 17.0335 46.8592 17.0282 46.8206C17.0228 46.782 17.026 46.7427 17.0376 46.7055L17.3087 45.7501L16.922 44.6698C16.8932 44.6039 16.884 44.531 16.8953 44.46C16.9049 44.4252 16.9212 44.3928 16.9433 44.3644C16.9654 44.336 16.9929 44.3124 17.0242 44.2948C17.0917 44.2702 17.1657 44.2702 17.2332 44.2948C17.2912 44.3136 17.3435 44.3468 17.3855 44.3913C17.4274 44.4357 17.4576 44.4901 17.4732 44.5493L17.7443 45.3483L18.4067 44.8171C18.4495 44.7753 18.5019 44.7449 18.5593 44.7285C18.6168 44.7121 18.6773 44.7104 18.7356 44.7234C18.8095 44.7413 18.8734 44.7878 18.9134 44.8528C18.9361 44.9068 18.9377 44.9674 18.9178 45.0225Z" fill="#00614D"/>
<path d="M23.216 47.2944C23.2127 47.3992 23.1877 47.5021 23.1425 47.5967C23.0973 47.6912 23.0331 47.7753 22.9538 47.8435C22.8696 47.9074 22.7735 47.9538 22.6712 47.9798C22.5689 48.0059 22.4625 48.0112 22.3581 47.9953C22.2343 47.9951 22.1128 47.9614 22.0064 47.8978C21.9 47.8342 21.8127 47.7429 21.7536 47.6337C21.6763 47.7304 21.5742 47.804 21.4582 47.8465C21.3422 47.889 21.2168 47.8987 21.0957 47.8747C20.883 47.8672 20.6817 47.7758 20.5356 47.6203C20.4705 47.5382 20.4231 47.4434 20.3963 47.342C20.3696 47.2406 20.364 47.1347 20.3801 47.031L20.5267 45.4015C20.5302 45.3632 20.5414 45.326 20.5598 45.2922C20.5781 45.2584 20.6032 45.2288 20.6334 45.2051C20.6966 45.156 20.7763 45.1336 20.8557 45.1426C20.9354 45.1468 21.0103 45.182 21.0646 45.2408C21.0902 45.2697 21.1094 45.3038 21.1209 45.3407C21.1324 45.3777 21.136 45.4167 21.1313 45.4551L20.9846 47.0667C20.9846 47.2631 21.0424 47.3658 21.2202 47.3837C21.398 47.4015 21.478 47.3078 21.4958 47.1158L21.6469 45.5042C21.6483 45.4654 21.6586 45.4274 21.6771 45.3933C21.6957 45.3592 21.7218 45.3299 21.7536 45.3078C21.7846 45.283 21.8203 45.2647 21.8584 45.254C21.8966 45.2433 21.9365 45.2403 21.9758 45.2453C22.0548 45.2513 22.1282 45.2881 22.1803 45.3479C22.2063 45.3768 22.226 45.4107 22.2382 45.4476C22.2505 45.4845 22.255 45.5235 22.2514 45.5622L22.1003 47.1738C22.1003 47.3658 22.1625 47.4729 22.3359 47.4863C22.5092 47.4997 22.5982 47.4149 22.6159 47.2185L22.7626 45.6069C22.7661 45.5685 22.7773 45.5313 22.7957 45.4975C22.814 45.4638 22.8391 45.4341 22.8693 45.4104C22.9325 45.3613 23.0122 45.3389 23.0916 45.3479C23.1702 45.3549 23.2433 45.3916 23.296 45.4506C23.3232 45.4786 23.3438 45.5124 23.3561 45.5496C23.3684 45.5867 23.3722 45.6261 23.3672 45.6649L23.216 47.2944Z" fill="#00614D"/>
<path d="M25.9598 47.6746C25.9605 47.7404 25.9368 47.8041 25.8931 47.8531C25.8708 47.8787 25.8435 47.8993 25.8129 47.9139C25.7823 47.9285 25.7491 47.9367 25.7153 47.9379L24.5551 47.987C24.4684 47.9937 24.3824 47.9666 24.3151 47.9112C24.2845 47.8826 24.2601 47.8481 24.2433 47.8097C24.2264 47.7713 24.2176 47.7299 24.2173 47.6879L24.1328 45.6924C24.1294 45.6509 24.1348 45.6092 24.1486 45.57C24.1623 45.5307 24.1843 45.4949 24.2129 45.4647C24.2426 45.4334 24.2785 45.4084 24.3183 45.3916C24.358 45.3747 24.4008 45.3661 24.444 45.3665L25.5642 45.3174C25.6311 45.3164 25.696 45.3402 25.7464 45.3844C25.7706 45.4073 25.7899 45.435 25.8031 45.4657C25.8163 45.4964 25.8231 45.5295 25.8231 45.5629C25.8231 45.5964 25.8163 45.6295 25.8031 45.6602C25.7899 45.6909 25.7706 45.7186 25.7464 45.7415C25.7253 45.7674 25.6989 45.7883 25.669 45.8029C25.639 45.8176 25.6063 45.8256 25.573 45.8263L24.7329 45.862V46.3487L25.5153 46.3129C25.548 46.3102 25.5809 46.3148 25.6116 46.3264C25.6424 46.338 25.6702 46.3562 25.6931 46.3799C25.7167 46.4032 25.7355 46.431 25.7483 46.4616C25.7612 46.4923 25.7678 46.5252 25.7678 46.5585C25.7678 46.5917 25.7612 46.6247 25.7483 46.6553C25.7355 46.686 25.7167 46.7138 25.6931 46.7371C25.6717 46.7623 25.6452 46.7826 25.6152 46.7965C25.5853 46.8103 25.5527 46.8175 25.5197 46.8174L24.7329 46.8531L24.7596 47.4692L25.6486 47.4335C25.6813 47.4314 25.714 47.4362 25.7447 47.4478C25.7753 47.4593 25.8032 47.4773 25.8264 47.5004C25.8612 47.5161 25.8916 47.5403 25.9149 47.5707C25.9382 47.601 25.9536 47.6367 25.9598 47.6746Z" fill="#00614D"/>
<path d="M28.5198 47.3213C28.525 47.3542 28.5233 47.3879 28.5149 47.4201C28.5065 47.4524 28.4915 47.4826 28.4709 47.5087C28.4517 47.536 28.4272 47.5592 28.399 47.5768C28.3707 47.5944 28.3392 47.6062 28.3064 47.6114L27.1729 47.7811C27.1306 47.7888 27.0873 47.7881 27.0453 47.7789C27.0033 47.7697 26.9636 47.7522 26.9284 47.7275C26.8936 47.7049 26.8644 47.6747 26.8428 47.6391C26.8213 47.6035 26.808 47.5636 26.804 47.5221L26.5017 45.4954C26.4965 45.4569 26.4989 45.4177 26.5088 45.3802C26.5187 45.3426 26.536 45.3074 26.5595 45.2766C26.5833 45.2451 26.6134 45.2189 26.6478 45.1997C26.6823 45.1805 26.7203 45.1687 26.7595 45.165C26.7986 45.157 26.839 45.1573 26.878 45.1657C26.917 45.1742 26.9538 45.1906 26.9862 45.2141C27.0185 45.2344 27.0456 45.2619 27.0657 45.2944C27.0857 45.3269 27.0981 45.3636 27.1018 45.4016L27.3774 47.2364L28.2308 47.1114C28.2633 47.105 28.2968 47.1057 28.329 47.1134C28.3612 47.1211 28.3914 47.1356 28.4175 47.1561C28.4449 47.1752 28.468 47.1997 28.4856 47.2281C28.5032 47.2565 28.5148 47.2882 28.5198 47.3213Z" fill="#00614D"/>
<path d="M30.911 46.7318C30.9254 46.7974 30.9142 46.8661 30.8799 46.9237C30.8468 46.981 30.7924 47.0227 30.7287 47.0398L29.6175 47.3255C29.5341 47.3489 29.445 47.3393 29.3685 47.2987C29.3319 47.2785 29.3002 47.2504 29.2756 47.2165C29.251 47.1825 29.2342 47.1435 29.2263 47.1023L28.7151 45.1425C28.7053 45.1048 28.7034 45.0655 28.7096 45.0271C28.7157 44.9887 28.7297 44.952 28.7507 44.9193C28.7945 44.8523 28.8616 44.8042 28.9389 44.7844C29.0162 44.7646 29.0981 44.7745 29.1685 44.8121C29.2025 44.8307 29.2323 44.8562 29.256 44.8869C29.2798 44.9176 29.2969 44.953 29.3063 44.9907L29.7508 46.7764L30.5909 46.5621C30.6222 46.5532 30.655 46.5509 30.6871 46.5555C30.7193 46.5601 30.7501 46.5715 30.7776 46.5889C30.8083 46.6025 30.8359 46.6221 30.8588 46.6467C30.8817 46.6712 30.8995 46.7002 30.911 46.7318Z" fill="#00614D"/>
<path d="M33.5161 45.7593C33.5325 45.7957 33.541 45.8353 33.541 45.8753C33.541 45.9154 33.5325 45.9549 33.5161 45.9914C33.4968 46.0286 33.4703 46.0615 33.4383 46.0883C33.4063 46.1151 33.3692 46.1353 33.3294 46.1477C33.2526 46.1719 33.1706 46.1747 33.0924 46.1559C33.0141 46.137 32.9424 46.0971 32.8849 46.0405L32.3648 45.5941C32.0936 45.362 31.8581 45.1477 31.6625 44.9423C31.7514 45.1566 31.8092 45.3039 31.8403 45.3887L32.1825 46.2816C32.2117 46.3531 32.2117 46.4333 32.1825 46.5048C32.1672 46.5402 32.1446 46.572 32.1163 46.5982C32.088 46.6243 32.0545 46.6442 32.0181 46.6566C31.9838 46.672 31.9467 46.6799 31.9092 46.6799C31.8716 46.6799 31.8345 46.672 31.8003 46.6566C31.766 46.6405 31.7353 46.6175 31.7101 46.5891C31.6848 46.5607 31.6656 46.5275 31.6536 46.4914L30.9068 44.5405C30.8903 44.5041 30.8818 44.4645 30.8818 44.4245C30.8818 44.3844 30.8903 44.3448 30.9068 44.3084C30.9467 44.2332 31.0134 44.1758 31.0935 44.1477C31.1785 44.1203 31.2694 44.1176 31.3558 44.1397C31.4423 44.1618 31.5208 44.2079 31.5825 44.2727L32.027 44.6655L32.4315 45.0227C32.5515 45.1343 32.6671 45.2459 32.7693 45.353C32.6804 45.1387 32.6226 44.9914 32.5915 44.9066L32.2492 44.0137C32.2339 43.9793 32.226 43.9421 32.226 43.9044C32.226 43.8667 32.2339 43.8294 32.2492 43.795C32.2645 43.759 32.287 43.7266 32.3153 43.6997C32.3436 43.6728 32.3771 43.6521 32.4137 43.6387C32.4487 43.6232 32.4865 43.6152 32.5248 43.6152C32.5631 43.6152 32.6009 43.6232 32.6359 43.6387C32.6694 43.6542 32.6993 43.6765 32.7238 43.7041C32.7483 43.7318 32.7668 43.7642 32.7782 43.7994L33.5161 45.7593Z" fill="#00614D"/>
<path d="M36.0012 44.522C36.0143 44.5523 36.021 44.585 36.021 44.618C36.021 44.651 36.0143 44.6837 36.0012 44.714C35.9807 44.7788 35.9361 44.8332 35.8767 44.8658L34.8499 45.4059C34.8128 45.4282 34.7716 45.4425 34.7287 45.4479C34.6858 45.4533 34.6423 45.4496 34.601 45.4372C34.5605 45.4261 34.523 45.4064 34.4907 45.3794C34.4585 45.3525 34.4325 45.3189 34.4143 45.281L33.4897 43.4952C33.4733 43.4572 33.4648 43.4162 33.4648 43.3747C33.4648 43.3332 33.4733 43.2922 33.4897 43.2542C33.5042 43.2133 33.5266 43.1757 33.5556 43.1435C33.5846 43.1114 33.6196 43.0853 33.6586 43.0667L34.6543 42.5399C34.6844 42.5265 34.717 42.5195 34.7499 42.5195C34.7828 42.5195 34.8154 42.5265 34.8454 42.5399C34.9083 42.5591 34.961 42.6024 34.9921 42.6604C35.0166 42.722 35.0166 42.7908 34.9921 42.8524C34.9834 42.8852 34.9678 42.9157 34.9463 42.9419C34.9249 42.9681 34.898 42.9893 34.8677 43.0042L34.1209 43.397L34.3476 43.8434L35.041 43.4774C35.0709 43.4631 35.1035 43.4557 35.1366 43.4557C35.1697 43.4557 35.2023 43.4631 35.2322 43.4774C35.2962 43.4964 35.3504 43.5396 35.3833 43.5979C35.3965 43.629 35.4033 43.6624 35.4033 43.6961C35.4033 43.7299 35.3965 43.7633 35.3833 43.7943C35.3745 43.8259 35.3594 43.8553 35.3387 43.8807C35.318 43.906 35.2924 43.9268 35.2633 43.9417L34.5698 44.3077L34.8543 44.8524L35.6367 44.4417C35.6668 44.4282 35.6993 44.4213 35.7322 44.4213C35.7652 44.4213 35.7977 44.4282 35.8278 44.4417C35.8608 44.4413 35.8935 44.4483 35.9235 44.4622C35.9535 44.4761 35.98 44.4965 36.0012 44.522Z" fill="#00614D"/>
<path d="M37.8633 42.6877C37.929 42.7794 37.9735 42.8847 37.9935 42.996C38.0135 43.1072 38.0085 43.2215 37.9789 43.3305C37.9045 43.5688 37.7466 43.7718 37.5344 43.902C37.3558 44.0279 37.1575 44.1229 36.9476 44.1832C36.7432 44.2412 36.6098 44.2145 36.5387 44.1118C36.5164 44.0813 36.5006 44.0466 36.4922 44.0097C36.4837 43.9729 36.4829 43.9347 36.4898 43.8975C36.4967 43.8617 36.511 43.8278 36.5316 43.7978C36.5523 43.7678 36.5789 43.7425 36.6098 43.7234C36.7089 43.6754 36.8134 43.6394 36.921 43.6162C37.0264 43.5935 37.1271 43.5527 37.2188 43.4957C37.4292 43.3588 37.4825 43.21 37.3788 43.0493C37.3565 43.0159 37.3269 42.988 37.2922 42.9679C37.2575 42.9478 37.2187 42.9359 37.1788 42.9332C37.0962 42.9358 37.0142 42.9477 36.9343 42.9689L36.6676 43.0359C36.499 43.0858 36.3224 43.1025 36.1475 43.085C36.0558 43.0671 35.9688 43.03 35.8922 42.9762C35.8156 42.9224 35.7512 42.853 35.703 42.7725C35.636 42.6775 35.5949 42.5664 35.584 42.4505C35.5731 42.3345 35.5927 42.2177 35.6408 42.1118C35.7328 41.8953 35.8877 41.7117 36.0853 41.585C36.2412 41.4768 36.4162 41.3996 36.6009 41.3573C36.6642 41.335 36.7327 41.3329 36.7972 41.3513C36.8617 41.3696 36.9189 41.4076 36.961 41.46C36.9803 41.4884 36.9938 41.5204 37.0007 41.5542C37.0076 41.5879 37.0077 41.6227 37.001 41.6564C36.9819 41.7205 36.941 41.7758 36.8854 41.8127C36.8069 41.8581 36.7212 41.8898 36.632 41.9064C36.5187 41.9329 36.4105 41.9782 36.312 42.0403C36.2471 42.0787 36.1958 42.1364 36.1653 42.2055C36.1469 42.2366 36.1372 42.2721 36.1372 42.3082C36.1372 42.3443 36.1469 42.3798 36.1653 42.4109C36.2231 42.5002 36.3431 42.527 36.5165 42.4823L36.8099 42.4064C36.9899 42.3527 37.1783 42.333 37.3655 42.3484C37.4688 42.3628 37.5675 42.4009 37.6538 42.4597C37.7401 42.5186 37.8118 42.5966 37.8633 42.6877Z" fill="#00614D"/>
<path d="M39.8065 41.1253C39.8814 41.2091 39.9364 41.3089 39.9672 41.4172C39.9981 41.5255 40.0039 41.6394 39.9843 41.7503C39.937 41.996 39.8008 42.2155 39.602 42.3664C39.4371 42.51 39.2492 42.6247 39.0464 42.7057C38.8508 42.786 38.713 42.7771 38.633 42.6789C38.607 42.6519 38.5872 42.6195 38.5749 42.5841C38.5626 42.5486 38.5582 42.5109 38.5618 42.4735C38.5652 42.4369 38.5759 42.4013 38.5935 42.3691C38.6111 42.3368 38.6351 42.3085 38.6641 42.286C38.7553 42.227 38.854 42.1804 38.9575 42.1476C39.0607 42.1149 39.1571 42.0634 39.2419 41.9958C39.4375 41.8351 39.4731 41.6833 39.3575 41.5494C39.3323 41.5175 39.2996 41.4923 39.2624 41.4759C39.2252 41.4596 39.1846 41.4526 39.1442 41.4557C39.0638 41.4666 38.9848 41.4861 38.9086 41.5137L38.6685 41.5717C38.5063 41.6385 38.3327 41.6734 38.1573 41.6744C38.0651 41.6648 37.9758 41.6365 37.8948 41.5913C37.8138 41.546 37.7428 41.4847 37.6862 41.411C37.6093 41.3235 37.5566 41.2173 37.5332 41.1029C37.5098 40.9886 37.5166 40.8701 37.5528 40.7592C37.6259 40.5327 37.7653 40.3335 37.9529 40.1878C38.0975 40.0626 38.2651 39.9671 38.4463 39.9065C38.506 39.8778 38.5731 39.8684 38.6384 39.8796C38.7037 39.8908 38.7639 39.922 38.8108 39.9691C38.8341 39.9947 38.8514 40.0252 38.8614 40.0584C38.8714 40.0917 38.8738 40.1267 38.8686 40.161C38.8592 40.2271 38.826 40.2875 38.7752 40.3307C38.6999 40.3824 38.6175 40.4229 38.5307 40.4512C38.4187 40.4877 38.3146 40.5453 38.224 40.6208C38.1651 40.6669 38.1204 40.7289 38.0951 40.7994C38.0841 40.8335 38.082 40.8699 38.089 40.9051C38.096 40.9403 38.1119 40.973 38.1351 41.0003C38.2062 41.0851 38.3263 41.094 38.4907 41.036L38.7797 40.9289C38.9521 40.8525 39.138 40.8115 39.3264 40.8083C39.4241 40.8242 39.5174 40.8606 39.6002 40.9153C39.6829 40.9699 39.7532 41.0415 39.8065 41.1253Z" fill="#00614D"/>
<path d="M43.1574 37.4779C43.2413 37.54 43.3114 37.6189 43.3634 37.7096C43.4154 37.8002 43.4482 37.9007 43.4597 38.0047C43.4647 38.1105 43.4488 38.2162 43.4129 38.3158C43.3771 38.4154 43.322 38.5069 43.2508 38.585C43.1287 38.5823 43.0076 38.6074 42.8966 38.6584C42.7855 38.7094 42.6874 38.785 42.6096 38.8794C42.5317 38.9739 42.4762 39.0849 42.4471 39.204C42.4181 39.3231 42.4163 39.4473 42.4418 39.5672C42.3798 39.6528 42.3015 39.7253 42.2115 39.7805C42.1215 39.8357 42.0215 39.8724 41.9173 39.8886C41.8131 39.8963 41.7085 39.8824 41.6098 39.8478C41.5112 39.8133 41.4207 39.7588 41.3438 39.6877L40.0859 38.6476C40.059 38.6216 40.0376 38.5903 40.0231 38.5558C40.0086 38.5213 40.0012 38.4841 40.0014 38.4467C39.9972 38.367 40.0226 38.2886 40.0727 38.2267C40.1228 38.1649 40.1941 38.1239 40.2726 38.1118C40.3112 38.1064 40.3505 38.1092 40.3881 38.12C40.4256 38.1307 40.4604 38.1493 40.4904 38.1743L41.7306 39.2056C41.7538 39.2361 41.7837 39.2609 41.818 39.2779C41.8524 39.295 41.8901 39.3038 41.9284 39.3038C41.9666 39.3038 42.0044 39.295 42.0387 39.2779C42.073 39.2609 42.1029 39.2361 42.1262 39.2056C42.2329 39.0761 42.2106 38.9467 42.0595 38.8217L40.8149 37.7949C40.7855 37.7698 40.7614 37.7391 40.7439 37.7046C40.7263 37.6702 40.7157 37.6326 40.7126 37.594C40.709 37.514 40.7361 37.4357 40.7882 37.3752C40.8377 37.3131 40.9096 37.2731 40.9882 37.2636C41.0262 37.2571 41.0651 37.2593 41.1021 37.2701C41.1391 37.281 41.1731 37.3001 41.2016 37.3261L42.4462 38.3529C42.469 38.3834 42.4985 38.4082 42.5325 38.4252C42.5664 38.4422 42.6039 38.4511 42.6418 38.4511C42.6798 38.4511 42.7172 38.4422 42.7511 38.4252C42.7851 38.4082 42.8146 38.3834 42.8374 38.3529C42.9441 38.2234 42.9219 38.094 42.7752 37.969L41.5305 36.9422C41.4997 36.9184 41.4746 36.888 41.4569 36.8533C41.4392 36.8186 41.4295 36.7803 41.4283 36.7413C41.423 36.6619 41.4485 36.5835 41.4994 36.5226C41.549 36.4605 41.6208 36.4204 41.6995 36.4109C41.7381 36.4044 41.7777 36.4065 41.8154 36.4174C41.8531 36.4282 41.8879 36.4473 41.9173 36.4734L43.1574 37.4779Z" fill="#00614D"/>
<path d="M44.3438 34.4512C44.6563 34.6224 44.8963 34.9015 45.0195 35.2369C45.0638 35.3913 45.0755 35.5532 45.054 35.7124C45.0324 35.8716 44.9781 36.0245 44.8945 36.1614C44.8108 36.2984 44.6997 36.4163 44.5682 36.5077C44.4366 36.5991 44.2876 36.6619 44.1305 36.6923C43.779 36.7243 43.4265 36.6428 43.1243 36.4598C42.8221 36.2767 42.586 36.0016 42.4502 35.6744C42.4031 35.52 42.3892 35.3573 42.4094 35.1971C42.4297 35.0369 42.4836 34.8829 42.5677 34.7452C42.6518 34.6076 42.7641 34.4895 42.8971 34.3988C43.0301 34.308 43.1808 34.2468 43.3393 34.219C43.6911 34.1718 44.048 34.2543 44.3438 34.4512ZM44.0238 34.9869C43.8398 34.8555 43.6182 34.7881 43.3926 34.7949C43.3158 34.7962 43.2406 34.8174 43.1744 34.8565C43.1082 34.8956 43.0532 34.9513 43.0148 35.0182C42.9723 35.084 42.9479 35.16 42.944 35.2384C42.9401 35.3167 42.9568 35.3948 42.9925 35.4646C43.0983 35.665 43.2607 35.8297 43.4593 35.9378C43.6429 36.0624 43.86 36.1278 44.0816 36.1253C44.1602 36.1275 44.2381 36.1088 44.3072 36.0709C44.3762 36.0331 44.4341 35.9775 44.4747 35.9099C44.5154 35.8422 44.5375 35.7649 44.5387 35.6859C44.5399 35.6069 44.5202 35.529 44.4816 35.4601C44.3817 35.2585 44.2216 35.0931 44.0238 34.9869Z" fill="#00614D"/>
<path d="M46.4155 32.4734C46.449 32.4864 46.4791 32.5068 46.5038 32.5331C46.5284 32.5594 46.5468 32.5908 46.5577 32.6252C46.5729 32.6605 46.5807 32.6984 46.5807 32.7368C46.5807 32.7752 46.5729 32.8132 46.5577 32.8484C46.5283 32.9212 46.4728 32.9801 46.4021 33.0136C46.3697 33.0301 46.334 33.0387 46.2977 33.0387C46.2614 33.0387 46.2256 33.0301 46.1932 33.0136L45.8865 32.8797C45.8347 32.8459 45.7757 32.8248 45.7143 32.8183C45.6529 32.8118 45.5908 32.82 45.5331 32.8422C45.4754 32.8644 45.4238 32.9 45.3825 32.9461C45.3411 32.9922 45.3113 33.0474 45.2953 33.1074L45.1975 33.3261L45.8954 33.6386C45.9646 33.6705 46.0188 33.7281 46.0465 33.7993C46.0755 33.8724 46.0755 33.9539 46.0465 34.027C46.0326 34.0632 46.0113 34.096 45.9841 34.1235C45.9569 34.151 45.9243 34.1726 45.8884 34.1868C45.8525 34.2011 45.8141 34.2077 45.7755 34.2063C45.7369 34.205 45.699 34.1956 45.6642 34.1788L43.8017 33.344C43.7626 33.3292 43.7271 33.306 43.6979 33.2759C43.6687 33.2458 43.6465 33.2096 43.6328 33.1699C43.6154 33.1305 43.6064 33.0879 43.6064 33.0449C43.6064 33.0018 43.6154 32.9592 43.6328 32.9199L43.8906 32.3306C43.9685 32.1123 44.128 31.9329 44.3352 31.8306C44.4201 31.791 44.5127 31.7705 44.6063 31.7705C44.7 31.7705 44.7925 31.791 44.8775 31.8306C45.0103 31.8845 45.1235 31.978 45.202 32.0984C45.2633 32.1854 45.2917 32.2915 45.282 32.3975C45.3926 32.3012 45.5302 32.2417 45.6759 32.2273C45.8217 32.2129 45.9682 32.2443 46.0954 32.3172L46.4155 32.4734ZM44.7174 32.4333C44.5263 32.3484 44.3929 32.3931 44.3174 32.5627L44.1796 32.8797L44.7441 33.1297L44.8819 32.8127C44.9014 32.778 44.9116 32.7388 44.9116 32.6989C44.9116 32.659 44.9014 32.6198 44.8819 32.585C44.8467 32.5165 44.7884 32.4627 44.7174 32.4333Z" fill="#00614D"/>
<path d="M47.2558 29.9238C47.2879 29.9325 47.3176 29.9483 47.343 29.9699C47.3683 29.9915 47.3886 30.0184 47.4025 30.0488C47.4156 30.079 47.4223 30.1117 47.4223 30.1447C47.4223 30.1778 47.4156 30.2104 47.4025 30.2407L47.0558 31.3345C47.0443 31.3766 47.0247 31.4161 46.998 31.4506C46.9713 31.485 46.938 31.5139 46.9002 31.5354C46.8626 31.5529 46.8216 31.562 46.7802 31.562C46.7387 31.562 46.6977 31.5529 46.6602 31.5354L44.7132 30.9148C44.677 30.9032 44.6437 30.8841 44.6154 30.8587C44.5871 30.8333 44.5643 30.8022 44.5487 30.7675C44.5333 30.7308 44.5254 30.6913 44.5254 30.6514C44.5254 30.6116 44.5333 30.5721 44.5487 30.5354C44.5589 30.4974 44.5768 30.4619 44.6013 30.4312C44.6258 30.4004 44.6563 30.3751 44.691 30.3568C44.724 30.3366 44.7611 30.3241 44.7996 30.3202C44.838 30.3163 44.8769 30.3212 44.9132 30.3345L46.6913 30.897L46.9535 30.0666C46.9753 30.0037 47.0197 29.9511 47.078 29.9193C47.1356 29.8979 47.1993 29.8995 47.2558 29.9238Z" fill="#00614D"/>
<path d="M46.8335 26.875C47.1767 26.9236 47.4876 27.1045 47.7003 27.3794C47.792 27.5067 47.8554 27.6523 47.8861 27.8064C47.9168 27.9605 47.914 28.1194 47.8781 28.2723L47.7536 28.9107C47.7476 28.9539 47.7331 28.9955 47.7109 29.033C47.6888 29.0706 47.6595 29.1033 47.6247 29.1294C47.59 29.1532 47.5507 29.1695 47.5094 29.1772C47.468 29.1849 47.4256 29.1838 47.3847 29.1741L45.4333 28.7857C45.3924 28.7788 45.3534 28.7633 45.319 28.7402C45.2845 28.7172 45.2553 28.687 45.2332 28.6518C45.1878 28.5769 45.1735 28.4871 45.1932 28.4018L45.3088 27.8036C45.3336 27.6413 45.3924 27.4862 45.4813 27.3484C45.5702 27.2107 45.6871 27.0934 45.8244 27.0044C46.1313 26.8314 46.4931 26.785 46.8335 26.875ZM46.7135 27.4821C46.1845 27.375 45.8778 27.5491 45.7889 28L45.74 28.25L47.3091 28.5625L47.358 28.3169C47.3811 28.2268 47.3847 28.1328 47.3686 28.0412C47.3525 27.9495 47.3171 27.8624 47.2646 27.7857C47.1239 27.6205 46.9279 27.5125 46.7135 27.4821Z" fill="#00614D"/>
</svg>
