<svg width="215" height="48" viewBox="0 0 215 48" fill="none" xmlns="http://www.w3.org/2000/svg">
<g clip-path="url(#clip0_2_4)">
<path d="M68.8163 14.0714H64.4734V26.3929H61.0285V14.0714H56.6678L56.5078 11.0804H68.9941L68.8163 14.0714Z" fill="#00614D"/>
<path d="M71.1641 26.3929V11.0804H74.609V26.3929H71.1641Z" fill="#00614D"/>
<path d="M91.5247 25.7098C91.1555 25.8482 90.7785 25.9645 90.3957 26.0581C89.9512 26.1697 89.48 26.2679 88.9644 26.3482C88.4487 26.4286 87.9153 26.5 87.3641 26.5536C86.8129 26.6072 86.2751 26.6295 85.755 26.6295C84.6233 26.6423 83.4971 26.4689 82.4212 26.1161C81.4532 25.7996 80.5583 25.291 79.7897 24.6206C79.0422 23.9562 78.4541 23.1305 78.0695 22.2054C77.6414 21.1658 77.431 20.0489 77.4516 18.9241C77.4227 17.6785 77.6591 16.4411 78.145 15.2947C78.5643 14.327 79.1912 13.4642 79.9808 12.7679C80.7419 12.1062 81.6277 11.6052 82.5857 11.2947C83.5569 10.9744 84.5727 10.8117 85.595 10.8125C86.617 10.8072 87.6371 10.9044 88.6399 11.1027C89.5479 11.2835 90.4281 11.5837 91.258 11.9956L90.369 15.2098C89.6719 14.8124 88.9242 14.512 88.1465 14.317C87.3761 14.1121 86.583 14.0056 85.7861 14C85.1845 13.9958 84.5854 14.08 84.0081 14.25C83.4734 14.4049 82.9829 14.6849 82.5768 15.067C82.1472 15.4914 81.8177 16.007 81.6122 16.5759C81.3556 17.3235 81.2351 18.1114 81.2566 18.9018C81.2371 19.6368 81.3578 20.3687 81.6122 21.058C81.8234 21.6024 82.1618 22.0878 82.599 22.4732C83.0301 22.8425 83.5394 23.1082 84.0881 23.25C84.6898 23.4108 85.3102 23.4904 85.9328 23.4866C86.0795 23.4866 86.2573 23.4866 86.4573 23.4643C86.6574 23.442 86.8618 23.4241 87.0619 23.3973L87.6353 23.3036C87.7877 23.2864 87.9372 23.2488 88.0798 23.192V19.5759H91.5247V25.7098Z" fill="#00614D"/>
<path d="M103.944 26.6518L100.01 20.5893H98.2323V26.3928H94.8984V11.0803H96.9387C97.5018 11.0803 98.0307 11.058 98.5256 11.0134L99.7569 10.9687L100.606 10.9464C101.302 10.9395 101.995 11.0342 102.664 11.2277C103.251 11.3947 103.8 11.6769 104.278 12.058C104.729 12.4316 105.088 12.9054 105.327 13.4419C105.59 14.0419 105.721 14.6924 105.709 15.3482C105.729 16.2241 105.479 17.0848 104.993 17.8125C104.514 18.5075 103.846 19.0498 103.069 19.375V19.5312L107.749 26.3928L103.944 26.6518ZM102.233 15.7768C102.258 15.4694 102.213 15.1604 102.099 14.8738C101.986 14.5872 101.808 14.3309 101.579 14.125C101.043 13.7426 100.392 13.5566 99.7347 13.5982H99.0457L98.2011 13.6339V18.0357H99.7569C100.418 18.0743 101.068 17.8497 101.566 17.4107C101.786 17.2012 101.959 16.9472 102.074 16.6656C102.189 16.3839 102.243 16.081 102.233 15.7768Z" fill="#00614D"/>
<path d="M109.379 26.3929V11.0804H112.828V26.3929H109.379Z" fill="#00614D"/>
<path d="M125.826 22C125.834 22.6709 125.682 23.3339 125.381 23.933C125.093 24.5023 124.685 25.0018 124.186 25.3973C123.654 25.8112 123.052 26.123 122.408 26.317C121.697 26.5296 120.958 26.6349 120.216 26.6295C119.332 26.6322 118.45 26.5424 117.585 26.3616C116.834 26.219 116.117 25.9375 115.469 25.5313L116.211 22.6295C116.809 23.0428 117.476 23.3452 118.18 23.5223C118.762 23.6702 119.358 23.7496 119.958 23.7589C120.256 23.7606 120.553 23.7382 120.847 23.692C121.106 23.6543 121.356 23.5712 121.585 23.4464C121.795 23.3351 121.969 23.1664 122.087 22.9598C122.215 22.7312 122.278 22.4718 122.27 22.2098C122.27 22.012 122.227 21.8165 122.143 21.6374C122.059 21.4583 121.937 21.3001 121.785 21.1741C121.419 20.8582 121.014 20.5898 120.581 20.375C120.096 20.1295 119.572 19.8706 119.011 19.6027C118.46 19.3361 117.936 19.0161 117.447 18.6473C116.963 18.2823 116.552 17.8278 116.238 17.308C115.902 16.729 115.736 16.0668 115.758 15.3973C115.749 14.7481 115.882 14.1049 116.149 13.5134C116.404 12.952 116.782 12.456 117.256 12.0625C117.762 11.6485 118.343 11.3363 118.967 11.1429C119.686 10.9156 120.436 10.8055 121.19 10.817C121.904 10.8177 122.617 10.8549 123.328 10.9286C123.966 10.9863 124.598 11.0983 125.217 11.2634L124.701 14.2545C124.434 14.1786 124.141 14.1071 123.812 14.0402C123.483 13.9732 123.185 13.9107 122.888 13.8616C122.59 13.8125 122.31 13.7679 122.047 13.7366C121.843 13.71 121.636 13.6951 121.43 13.692C119.909 13.692 119.149 14.186 119.149 15.1741C119.152 15.3522 119.199 15.5268 119.285 15.6825C119.371 15.8382 119.494 15.9703 119.643 16.067C120.032 16.352 120.448 16.6 120.883 16.808L122.505 17.6072C123.079 17.8875 123.622 18.2255 124.128 18.6161C124.624 19.0042 125.044 19.481 125.368 20.0223C125.697 20.6273 125.856 21.3112 125.826 22Z" fill="#00614D"/>
<path d="M141.795 26.3928H137.835L132.43 11.1696L136.19 10.9464L139.573 21.3259C139.723 21.7589 139.82 22.2086 139.862 22.6652H140.089C140.115 22.4419 140.151 22.2187 140.186 21.9687C140.221 21.7464 140.278 21.528 140.355 21.317L143.756 11.0714H147.134L141.795 26.3928Z" fill="#00614D"/>
<path d="M158.521 26.5179L157.187 22.7009H151.853L150.52 26.4063H147.23L152.982 11.0804H156.361L162.179 26.2947L158.521 26.5179ZM154.849 16.317C154.774 16.0759 154.712 15.8304 154.658 15.5759C154.605 15.3214 154.565 15.0804 154.538 14.8572H154.356C154.325 15.0804 154.294 15.3036 154.258 15.5848C154.222 15.8354 154.158 16.0811 154.067 16.317L152.733 20H156.156L154.849 16.317Z" fill="#00614D"/>
<path d="M174.182 26.3929H164.402V11.0804H167.852V23.3973H174.408L174.182 26.3929Z" fill="#00614D"/>
<path d="M186.645 26.3929H176.91V11.0804H180.355V23.3973H186.912L186.645 26.3929Z" fill="#00614D"/>
<path d="M199.135 26.3929H189.355V11.0804H198.797L198.552 14.0714H192.729V17.2366H198.121V20.1429H192.729V23.4018H199.352L199.135 26.3929Z" fill="#00614D"/>
<path d="M209.827 20.6295V26.3929H206.382V20.6295L200.875 11.2545L204.876 10.9643L207.743 16.4911C207.845 16.6829 207.931 16.883 208 17.0893C208.067 17.2902 208.116 17.4509 208.143 17.5714H208.369C208.396 17.4509 208.445 17.2857 208.512 17.0759C208.579 16.8731 208.665 16.6772 208.769 16.4911L211.57 11.0759H215.015L209.827 20.6295Z" fill="#00614D"/>
<path d="M61.4063 31.75C61.404 31.9008 61.3433 32.0448 61.2371 32.1515C61.1309 32.2582 60.9875 32.3191 60.8374 32.3214H59.6416V36.5C59.6407 36.5842 59.6224 36.6673 59.588 36.7442C59.5536 36.821 59.5038 36.8898 59.4416 36.9464C59.3094 37.0676 59.136 37.1331 58.9571 37.1294C58.7783 37.1322 58.6052 37.0668 58.4726 36.9464C58.411 36.8896 58.3618 36.8206 58.3282 36.7438C58.2945 36.6669 58.2771 36.5839 58.277 36.5V32.3214H57.0768C57.0022 32.3216 56.9283 32.3066 56.8596 32.2775C56.7909 32.2483 56.7287 32.2056 56.6767 32.1518C56.6228 32.0999 56.5799 32.0375 56.5509 31.9684C56.5218 31.8993 56.5072 31.825 56.5078 31.75C56.5082 31.6751 56.5233 31.6011 56.5523 31.5321C56.5813 31.4632 56.6236 31.4007 56.6767 31.3482C56.7287 31.2944 56.7909 31.2516 56.8596 31.2225C56.9283 31.1933 57.0022 31.1784 57.0768 31.1785H60.8374C60.912 31.1779 60.9861 31.1926 61.0549 31.2218C61.1237 31.2509 61.1858 31.294 61.2374 31.3482C61.2906 31.4007 61.3329 31.4632 61.3619 31.5321C61.3909 31.6011 61.406 31.6751 61.4063 31.75Z" fill="#00614D"/>
<path d="M67.9173 36.4866C67.9164 36.5708 67.8982 36.654 67.8637 36.7308C67.8293 36.8076 67.7795 36.8765 67.7173 36.933C67.5847 37.0534 67.4115 37.1188 67.2328 37.1161C67.0539 37.1197 66.8805 37.0542 66.7483 36.933C66.6861 36.8765 66.6363 36.8076 66.6019 36.7308C66.5674 36.654 66.5492 36.5708 66.5483 36.4866V34.5268H64.6146V36.4866C64.6137 36.5708 64.5955 36.654 64.561 36.7308C64.5266 36.8076 64.4768 36.8765 64.4146 36.933C64.2814 37.051 64.1099 37.1162 63.9323 37.1162C63.7547 37.1162 63.5832 37.051 63.45 36.933C63.3879 36.8765 63.338 36.8076 63.3036 36.7308C63.2692 36.654 63.2509 36.5708 63.25 36.4866V31.75C63.2509 31.6658 63.2692 31.5826 63.3036 31.5058C63.338 31.429 63.3879 31.3601 63.45 31.3036C63.5819 31.1828 63.7539 31.1158 63.9323 31.1158C64.1108 31.1158 64.2828 31.1828 64.4146 31.3036C64.4768 31.3601 64.5266 31.429 64.561 31.5058C64.5955 31.5826 64.6137 31.6658 64.6146 31.75V33.3795H66.5483V31.75C66.5492 31.6658 66.5674 31.5826 66.6019 31.5058C66.6363 31.429 66.6861 31.3601 66.7483 31.3036C66.8788 31.1792 67.053 31.1117 67.2328 31.1161C67.4125 31.1127 67.5863 31.18 67.7173 31.3036C67.7795 31.3601 67.8293 31.429 67.8637 31.5058C67.8982 31.5826 67.9164 31.6658 67.9173 31.75V36.4866Z" fill="#00614D"/>
<path d="M74.2997 36.5045C74.2985 36.6545 74.2387 36.798 74.133 36.9041C74.0274 37.0101 73.8845 37.0703 73.7351 37.0714H71.117C70.921 37.0803 70.7294 37.0113 70.5836 36.8795C70.5167 36.8131 70.4641 36.7338 70.429 36.6462C70.3938 36.5587 70.3768 36.4649 70.3791 36.3705V31.8705C70.3768 31.7762 70.3938 31.6824 70.429 31.5948C70.4641 31.5073 70.5167 31.4279 70.5836 31.3616C70.7289 31.2285 70.9204 31.158 71.117 31.1652H73.6462C73.7229 31.1646 73.7989 31.1793 73.8698 31.2085C73.9407 31.2377 74.0051 31.2807 74.0593 31.3351C74.1135 31.3896 74.1564 31.4543 74.1854 31.5255C74.2145 31.5967 74.2291 31.673 74.2285 31.75C74.2303 31.8252 74.2162 31.8998 74.187 31.9691C74.1579 32.0384 74.1145 32.1006 74.0596 32.1518C74.0085 32.2054 73.9471 32.2482 73.8791 32.2773C73.8111 32.3065 73.738 32.3215 73.664 32.3214H71.766V33.4152H73.544C73.6185 33.4155 73.6923 33.4307 73.7609 33.4598C73.8296 33.4889 73.8918 33.5314 73.9441 33.5848C73.997 33.6372 74.0389 33.6998 74.0672 33.7688C74.0954 33.8379 74.1095 33.912 74.1085 33.9866C74.11 34.0613 74.0962 34.1355 74.0679 34.2047C74.0396 34.2738 73.9974 34.3363 73.9441 34.3884C73.8918 34.4418 73.8296 34.4843 73.7609 34.5134C73.6923 34.5425 73.6185 34.5577 73.544 34.558H71.766V35.9464H73.7529C73.8269 35.9464 73.9 35.9614 73.968 35.9905C74.036 36.0197 74.0974 36.0624 74.1485 36.1161C74.1985 36.1672 74.2377 36.228 74.2636 36.2947C74.2896 36.3615 74.3019 36.4328 74.2997 36.5045Z" fill="#00614D"/>
<path d="M84.366 36.4866C84.3651 36.5708 84.3468 36.654 84.3124 36.7308C84.278 36.8076 84.2281 36.8765 84.166 36.933C84.0328 37.051 83.8613 37.1162 83.6837 37.1162C83.5061 37.1162 83.3346 37.051 83.2014 36.933C83.1392 36.8765 83.0894 36.8076 83.055 36.7308C83.0206 36.654 83.0023 36.5708 83.0014 36.4866V34.5268H81.0678V36.4866C81.0668 36.5708 81.0486 36.654 81.0142 36.7308C80.9797 36.8076 80.9299 36.8765 80.8677 36.933C80.7356 37.0542 80.5621 37.1197 80.3832 37.1161C80.2045 37.1188 80.0314 37.0534 79.8987 36.933C79.8371 36.8762 79.788 36.8072 79.7543 36.7304C79.7207 36.6536 79.7032 36.5705 79.7031 36.4866V31.75C79.7032 31.666 79.7207 31.583 79.7543 31.5062C79.788 31.4294 79.8371 31.3604 79.8987 31.3036C80.0297 31.18 80.2036 31.1127 80.3832 31.1161C80.5631 31.1117 80.7373 31.1792 80.8677 31.3036C80.9299 31.3601 80.9797 31.429 81.0142 31.5058C81.0486 31.5826 81.0668 31.6658 81.0678 31.75V33.3795H83.0014V31.75C83.0023 31.6658 83.0206 31.5826 83.055 31.5058C83.0894 31.429 83.1392 31.3601 83.2014 31.3036C83.3332 31.1828 83.5052 31.1158 83.6837 31.1158C83.8621 31.1158 84.0341 31.1828 84.166 31.3036C84.2281 31.3601 84.278 31.429 84.3124 31.5058C84.3468 31.5826 84.3651 31.6658 84.366 31.75V36.4866Z" fill="#00614D"/>
<path d="M90.7541 36.5045C90.7537 36.5793 90.7386 36.6534 90.7096 36.7223C90.6807 36.7913 90.6384 36.8538 90.5852 36.9063C90.5334 36.9599 90.4711 37.0022 90.4023 37.0306C90.3334 37.0591 90.2595 37.073 90.1851 37.0715H87.5625C87.4654 37.0766 87.3682 37.0622 87.2766 37.0293C87.1851 36.9963 87.1009 36.9454 87.0291 36.8795C86.9614 36.8138 86.9082 36.7345 86.873 36.6469C86.8378 36.5592 86.8213 36.465 86.8246 36.3706V31.8705C86.8213 31.7761 86.8378 31.6819 86.873 31.5942C86.9082 31.5066 86.9614 31.4273 87.0291 31.3616C87.1007 31.2951 87.1847 31.2435 87.2762 31.2098C87.3678 31.1761 87.4651 31.1609 87.5625 31.1652H90.0873C90.162 31.1645 90.236 31.1792 90.3049 31.2084C90.3737 31.2376 90.4358 31.2806 90.4874 31.3348C90.5406 31.3873 90.5829 31.4498 90.6119 31.5188C90.6409 31.5877 90.656 31.6618 90.6563 31.7366C90.654 31.8875 90.5933 32.0315 90.4871 32.1381C90.3809 32.2448 90.2375 32.3058 90.0873 32.3081H88.1893V33.4018H89.9673C90.042 33.4011 90.116 33.4158 90.1848 33.445C90.2536 33.4742 90.3158 33.5172 90.3674 33.5714C90.4209 33.6236 90.4635 33.686 90.4925 33.7551C90.5216 33.8241 90.5364 33.8983 90.5363 33.9732C90.534 34.1241 90.4733 34.2681 90.3671 34.3747C90.2609 34.4814 90.1175 34.5424 89.9673 34.5447H88.1893V35.9331H90.1762C90.3264 35.9354 90.4698 35.9963 90.576 36.103C90.6822 36.2096 90.7429 36.3536 90.7452 36.5045H90.7541Z" fill="#00614D"/>
<path d="M97.4974 36.5491C97.4984 36.6295 97.4818 36.7092 97.4488 36.7825C97.4157 36.8558 97.3671 36.9209 97.3062 36.9732C97.1749 37.0813 97.0092 37.1384 96.8395 37.1339C96.6808 37.1458 96.5231 37.1007 96.3945 37.0067C96.2659 36.9127 96.1747 36.7758 96.1372 36.6205L95.8793 35.7812H93.8213L93.5679 36.6205C93.5283 36.7782 93.4341 36.9165 93.3021 37.0106C93.1701 37.1047 93.009 37.1484 92.8478 37.1339C92.7659 37.1362 92.6843 37.1219 92.608 37.092C92.5317 37.0621 92.4621 37.0172 92.4033 36.9598C92.2944 36.8475 92.2338 36.6969 92.2344 36.5402C92.2345 36.4366 92.2525 36.3339 92.2877 36.2366L93.8213 31.9866C93.8968 31.7491 94.0209 31.5301 94.1858 31.3437C94.2769 31.2606 94.3835 31.1965 94.4995 31.1551C94.6155 31.1137 94.7385 31.0959 94.8614 31.1027C95.1109 31.0898 95.3554 31.1764 95.5415 31.3437C95.7132 31.5266 95.8409 31.7465 95.9149 31.9866L97.4351 36.1562C97.4778 36.2827 97.4989 36.4155 97.4974 36.5491ZM94.8303 32.4419L94.128 34.7411H95.5638L94.8303 32.4419Z" fill="#00614D"/>
<path d="M103.194 36.5045C103.193 36.6553 103.132 36.7995 103.026 36.9057C102.919 37.0119 102.775 37.0715 102.625 37.0715H100.042C99.8464 37.0803 99.6548 37.0114 99.509 36.8795C99.4427 36.8129 99.3908 36.7334 99.3564 36.6459C99.322 36.5583 99.3059 36.4646 99.309 36.3706V31.75C99.3091 31.6661 99.3265 31.5831 99.3602 31.5062C99.3938 31.4294 99.443 31.3604 99.5045 31.3036C99.6355 31.18 99.8094 31.1127 99.9891 31.1161C100.163 31.1164 100.33 31.1835 100.456 31.3036C100.518 31.3602 100.568 31.429 100.602 31.5058C100.637 31.5826 100.655 31.6658 100.656 31.75V35.9286H102.607C102.682 35.9289 102.755 35.9441 102.824 35.9732C102.893 36.0024 102.955 36.0448 103.007 36.0982C103.065 36.149 103.112 36.2114 103.144 36.2814C103.176 36.3514 103.193 36.4274 103.194 36.5045Z" fill="#00614D"/>
<path d="M109.309 31.75C109.311 31.8247 109.297 31.8989 109.269 31.9681C109.24 32.0372 109.198 32.0997 109.145 32.1518C109.093 32.2052 109.03 32.2476 108.962 32.2768C108.893 32.3059 108.819 32.3211 108.745 32.3214H107.567V36.5C107.566 36.5842 107.548 36.6673 107.513 36.7442C107.479 36.821 107.429 36.8898 107.367 36.9464C107.236 37.0673 107.064 37.1328 106.887 37.1294C106.708 37.1331 106.534 37.0676 106.402 36.9464C106.34 36.8898 106.29 36.821 106.256 36.7442C106.221 36.6673 106.203 36.5842 106.202 36.5V32.3214H105.006C104.856 32.3191 104.713 32.2582 104.607 32.1515C104.5 32.0448 104.44 31.9008 104.438 31.75C104.438 31.6751 104.453 31.6011 104.482 31.5321C104.511 31.4632 104.553 31.4007 104.606 31.3482C104.658 31.294 104.72 31.2509 104.789 31.2218C104.858 31.1926 104.932 31.1779 105.006 31.1785H108.767C108.917 31.1797 109.061 31.2404 109.166 31.3475C109.272 31.4545 109.332 31.5992 109.332 31.75H109.309Z" fill="#00614D"/>
<path d="M115.823 36.4866C115.822 36.5708 115.804 36.654 115.769 36.7308C115.735 36.8076 115.685 36.8765 115.623 36.933C115.49 37.051 115.318 37.1162 115.141 37.1162C114.963 37.1162 114.792 37.051 114.658 36.933C114.596 36.8765 114.546 36.8076 114.512 36.7308C114.478 36.654 114.459 36.5708 114.458 36.4866V34.5268H112.525V36.4866C112.524 36.5708 112.506 36.654 112.471 36.7308C112.437 36.8076 112.387 36.8765 112.325 36.933C112.193 37.0542 112.019 37.1197 111.84 37.1161C111.662 37.1188 111.488 37.0534 111.356 36.933C111.294 36.8762 111.245 36.8072 111.211 36.7304C111.178 36.6536 111.16 36.5705 111.16 36.4866V31.75C111.16 31.666 111.178 31.583 111.211 31.5062C111.245 31.4294 111.294 31.3604 111.356 31.3036C111.487 31.18 111.661 31.1127 111.84 31.1161C112.02 31.1117 112.194 31.1792 112.325 31.3036C112.387 31.3601 112.437 31.429 112.471 31.5058C112.506 31.5826 112.524 31.6658 112.525 31.75V33.3795H114.458V31.75C114.459 31.6658 114.478 31.5826 114.512 31.5058C114.546 31.429 114.596 31.3601 114.658 31.3036C114.79 31.1828 114.962 31.1158 115.141 31.1158C115.319 31.1158 115.491 31.1828 115.623 31.3036C115.685 31.3601 115.735 31.429 115.769 31.5058C115.804 31.5826 115.822 31.6658 115.823 31.75V36.4866Z" fill="#00614D"/>
<path d="M122.404 31.6562C122.395 31.8357 122.329 32.0076 122.217 32.1473L120.683 34.241V36.4732C120.682 36.5574 120.664 36.6406 120.63 36.7174C120.595 36.7942 120.546 36.8631 120.483 36.9196C120.349 37.038 120.177 37.1032 119.999 37.1032C119.82 37.1032 119.648 37.038 119.514 36.9196C119.452 36.8631 119.402 36.7942 119.368 36.7174C119.333 36.6406 119.315 36.5574 119.314 36.4732V34.241L117.816 32.1473C117.71 32.0213 117.645 31.8654 117.63 31.7009C117.625 31.618 117.639 31.5352 117.67 31.4581C117.701 31.3811 117.748 31.3116 117.807 31.2545C117.928 31.1415 118.087 31.0805 118.252 31.0848C118.389 31.0887 118.523 31.1276 118.642 31.1978C118.76 31.2681 118.858 31.3675 118.928 31.4866L120.012 33.0893L121.119 31.5178C121.187 31.4012 121.282 31.3035 121.397 31.2333C121.512 31.1632 121.643 31.1228 121.777 31.116C121.947 31.1072 122.114 31.1648 122.244 31.2768C122.295 31.3257 122.335 31.3845 122.363 31.4498C122.39 31.5151 122.404 31.5854 122.404 31.6562Z" fill="#00614D"/>
<path d="M133.871 35.442C133.884 35.6776 133.848 35.9133 133.766 36.1345C133.685 36.3557 133.558 36.5576 133.395 36.7277C133.218 36.8858 133.011 37.0068 132.787 37.0835C132.562 37.1601 132.325 37.191 132.089 37.1741C131.811 37.2021 131.532 37.1532 131.28 37.0328C131.029 36.9124 130.815 36.725 130.662 36.4911C130.507 36.7247 130.292 36.9117 130.04 37.032C129.788 37.1523 129.508 37.2014 129.23 37.1741C128.994 37.191 128.756 37.1601 128.532 37.0835C128.308 37.0068 128.101 36.8858 127.923 36.7277C127.761 36.5576 127.634 36.3557 127.552 36.1345C127.471 35.9133 127.435 35.6776 127.448 35.442V31.75C127.449 31.6658 127.467 31.5826 127.501 31.5058C127.536 31.429 127.586 31.3601 127.648 31.3036C127.778 31.1792 127.953 31.1118 128.132 31.1161C128.311 31.1134 128.484 31.1788 128.617 31.2991C128.682 31.3584 128.733 31.4309 128.768 31.5117C128.802 31.5926 128.819 31.6799 128.817 31.7679V35.4107C128.817 35.8572 129.013 36.0714 129.408 36.0714C129.804 36.0714 129.977 35.8527 129.977 35.4107V31.75C129.978 31.6658 129.996 31.5826 130.031 31.5058C130.065 31.429 130.115 31.3601 130.177 31.3036C130.309 31.1828 130.481 31.1159 130.659 31.1159C130.838 31.1159 131.01 31.1828 131.142 31.3036C131.204 31.3601 131.254 31.429 131.288 31.5058C131.323 31.5826 131.341 31.6658 131.342 31.75V35.3929C131.342 35.8393 131.542 36.0536 131.937 36.0536C132.333 36.0536 132.506 35.8348 132.506 35.3929V31.75C132.504 31.6621 132.521 31.5747 132.556 31.4939C132.59 31.413 132.642 31.3405 132.706 31.2813C132.839 31.1623 133.011 31.0966 133.189 31.0966C133.367 31.0966 133.538 31.1623 133.671 31.2813C133.733 31.3378 133.783 31.4067 133.817 31.4835C133.852 31.5603 133.87 31.6435 133.871 31.7277V35.442Z" fill="#00614D"/>
<path d="M140.214 36.5044C140.214 36.5793 140.198 36.6533 140.169 36.7223C140.14 36.7913 140.098 36.8538 140.045 36.9062C139.993 36.9598 139.931 37.0022 139.862 37.0306C139.793 37.059 139.719 37.0729 139.645 37.0714H137.027C136.93 37.0762 136.834 37.0617 136.743 37.0287C136.652 36.9958 136.569 36.945 136.498 36.8794C136.43 36.8137 136.377 36.7345 136.342 36.6468C136.307 36.5591 136.29 36.465 136.293 36.3705V31.8705C136.29 31.776 136.307 31.6819 136.342 31.5942C136.377 31.5065 136.43 31.4273 136.498 31.3616C136.569 31.2954 136.652 31.244 136.743 31.2103C136.834 31.1765 136.93 31.1612 137.027 31.1652H139.569C139.644 31.1645 139.718 31.1792 139.787 31.2084C139.856 31.2375 139.918 31.2806 139.969 31.3348C140.023 31.3873 140.065 31.4498 140.094 31.5187C140.123 31.5877 140.138 31.6617 140.138 31.7366C140.136 31.8874 140.075 32.0314 139.969 32.1381C139.863 32.2448 139.72 32.3057 139.569 32.308H137.658V33.4018H139.436C139.511 33.4011 139.585 33.4158 139.654 33.445C139.722 33.4742 139.785 33.5172 139.836 33.5714C139.89 33.6235 139.932 33.686 139.961 33.755C139.99 33.8241 140.005 33.8983 140.005 33.9732C140.003 34.124 139.942 34.268 139.836 34.3747C139.73 34.4814 139.586 34.5423 139.436 34.5446H137.658V35.933H139.645C139.795 35.9353 139.939 35.9963 140.045 36.1029C140.151 36.2096 140.212 36.3536 140.214 36.5044Z" fill="#00614D"/>
<path d="M146.237 36.5045C146.237 36.5793 146.222 36.6534 146.193 36.7223C146.164 36.7913 146.121 36.8538 146.068 36.9062C146.016 36.9594 145.954 37.0015 145.885 37.0299C145.816 37.0583 145.742 37.0724 145.668 37.0714H143.085C142.989 37.0762 142.893 37.0617 142.802 37.0287C142.711 36.9958 142.628 36.945 142.556 36.8795C142.489 36.8138 142.436 36.7345 142.4 36.6468C142.365 36.5592 142.349 36.465 142.352 36.3705V31.75C142.353 31.6658 142.371 31.5826 142.406 31.5058C142.44 31.429 142.49 31.3601 142.552 31.3036C142.684 31.1828 142.856 31.1158 143.034 31.1158C143.213 31.1158 143.385 31.1828 143.517 31.3036C143.579 31.3601 143.629 31.429 143.663 31.5058C143.697 31.5826 143.716 31.6658 143.717 31.75V35.9286H145.668C145.743 35.9284 145.817 35.9434 145.885 35.9725C145.954 36.0017 146.016 36.0444 146.068 36.0982C146.123 36.1506 146.166 36.2137 146.195 36.2836C146.224 36.3535 146.238 36.4287 146.237 36.5045Z" fill="#00614D"/>
<path d="M151.952 36.5045C151.951 36.5793 151.936 36.6534 151.907 36.7223C151.878 36.7913 151.836 36.8538 151.783 36.9062C151.731 36.9599 151.669 37.0022 151.6 37.0306C151.531 37.059 151.457 37.0729 151.383 37.0714H148.8C148.704 37.0762 148.607 37.0617 148.517 37.0287C148.426 36.9958 148.342 36.945 148.271 36.8795C148.204 36.8138 148.15 36.7345 148.115 36.6468C148.08 36.5592 148.063 36.465 148.067 36.3705V31.75C148.068 31.6658 148.086 31.5826 148.12 31.5058C148.155 31.429 148.205 31.3601 148.267 31.3036C148.399 31.1828 148.571 31.1158 148.749 31.1158C148.928 31.1158 149.1 31.1828 149.231 31.3036C149.294 31.3601 149.343 31.429 149.378 31.5058C149.412 31.5826 149.431 31.6658 149.431 31.75V35.9286H151.383C151.533 35.9309 151.676 35.9918 151.783 36.0985C151.889 36.2051 151.95 36.3492 151.952 36.5V36.5045Z" fill="#00614D"/>
<path d="M158.355 36.4688C158.358 36.5588 158.342 36.6485 158.307 36.7317C158.273 36.8148 158.221 36.8896 158.155 36.9509C158.011 37.0759 157.825 37.1413 157.635 37.1339C157.446 37.131 157.261 37.0735 157.104 36.9682C156.946 36.863 156.822 36.7144 156.746 36.5402L156.012 35.2009C155.624 34.4956 155.304 33.8482 155.052 33.2589C155.052 33.7857 155.052 34.1518 155.052 34.3304V36.4955C155.055 36.5814 155.041 36.667 155.01 36.7469C154.978 36.8269 154.931 36.8995 154.87 36.9602C154.81 37.021 154.738 37.0685 154.658 37.1C154.578 37.1314 154.493 37.146 154.408 37.1429C154.325 37.1439 154.243 37.1278 154.166 37.0955C154.09 37.0633 154.021 37.0156 153.963 36.9554C153.849 36.835 153.785 36.6752 153.785 36.5089V31.7723C153.783 31.6823 153.799 31.5926 153.833 31.5094C153.868 31.4263 153.92 31.3515 153.986 31.2902C154.128 31.162 154.315 31.0947 154.506 31.1027C154.706 31.113 154.899 31.1807 155.062 31.2978C155.225 31.4149 155.351 31.5765 155.426 31.7634L156.066 32.9598C156.341 33.4732 156.533 33.8527 156.63 34.0357C156.799 34.3705 156.946 34.692 157.075 35.0089C157.075 34.4866 157.075 34.1161 157.075 33.9375V31.75C157.076 31.5832 157.141 31.4232 157.257 31.3036C157.382 31.1822 157.548 31.1143 157.722 31.1143C157.895 31.1143 158.062 31.1822 158.186 31.3036C158.298 31.4252 158.362 31.5842 158.364 31.75L158.355 36.4688Z" fill="#00614D"/>
<path d="M164.741 36.5045C164.74 36.6545 164.68 36.798 164.574 36.9041C164.469 37.0101 164.326 37.0703 164.177 37.0714H161.558C161.362 37.0803 161.171 37.0113 161.025 36.8795C160.958 36.8131 160.906 36.7338 160.87 36.6462C160.835 36.5587 160.818 36.4649 160.821 36.3705V31.8705C160.818 31.7762 160.835 31.6824 160.87 31.5948C160.906 31.5073 160.958 31.4279 161.025 31.3616C161.17 31.2285 161.362 31.158 161.558 31.1652H164.088C164.237 31.1686 164.379 31.2301 164.485 31.3366C164.59 31.4432 164.65 31.5865 164.652 31.7366C164.654 31.8118 164.64 31.8864 164.611 31.9557C164.582 32.025 164.538 32.0872 164.483 32.1384C164.432 32.1921 164.371 32.2348 164.303 32.2639C164.235 32.2931 164.162 32.3081 164.088 32.308H162.19V33.4018H163.968C164.042 33.4021 164.116 33.4173 164.185 33.4464C164.253 33.4755 164.315 33.518 164.368 33.5714C164.421 33.6238 164.463 33.6864 164.491 33.7554C164.519 33.8245 164.533 33.8986 164.532 33.9732C164.534 34.0479 164.52 34.1222 164.492 34.1913C164.463 34.2604 164.421 34.3229 164.368 34.375C164.315 34.4284 164.253 34.4709 164.185 34.5C164.116 34.5291 164.042 34.5443 163.968 34.5446H162.19V35.933H164.177C164.25 35.933 164.324 35.948 164.392 35.9771C164.46 36.0063 164.521 36.049 164.572 36.1027C164.627 36.1538 164.67 36.2161 164.7 36.2854C164.729 36.3546 164.743 36.4293 164.741 36.5045Z" fill="#00614D"/>
<path d="M170.685 35.3214C170.693 35.574 170.645 35.8251 170.544 36.0567C170.443 36.2883 170.293 36.4945 170.103 36.6607C169.664 37.0163 169.111 37.1974 168.547 37.1696C168.058 37.175 167.571 37.1042 167.103 36.9598C166.658 36.808 166.418 36.5937 166.418 36.308C166.416 36.2258 166.43 36.144 166.46 36.0673C166.49 35.9907 166.535 35.9207 166.591 35.8616C166.65 35.804 166.72 35.7589 166.796 35.729C166.872 35.6991 166.954 35.685 167.036 35.6875C167.281 35.7139 167.521 35.7771 167.747 35.875C167.972 35.9661 168.211 36.0174 168.454 36.0268C169.023 36.0268 169.307 35.8169 169.307 35.3928C169.307 35.3053 169.286 35.2191 169.246 35.1415C169.206 35.0638 169.147 34.9969 169.076 34.9464C168.922 34.844 168.754 34.7629 168.578 34.7053L167.996 34.4911C167.617 34.3714 167.264 34.1805 166.956 33.9286C166.797 33.7565 166.677 33.5522 166.604 33.3294C166.53 33.1067 166.506 32.8708 166.531 32.6375C166.556 32.4043 166.631 32.1793 166.75 31.9776C166.87 31.776 167.031 31.6024 167.223 31.4687C167.677 31.186 168.204 31.0447 168.738 31.0625C169.167 31.0523 169.593 31.1282 169.992 31.2857C170.352 31.4375 170.53 31.6518 170.53 31.9241C170.535 32.0022 170.522 32.0805 170.493 32.1531C170.463 32.2256 170.418 32.2908 170.361 32.3437C170.25 32.4437 170.105 32.498 169.956 32.4955C169.751 32.4822 169.55 32.4338 169.361 32.3527C169.114 32.2547 168.852 32.2032 168.587 32.2009C168.42 32.1929 168.254 32.2365 168.112 32.3259C168.042 32.3663 167.984 32.4251 167.945 32.4958C167.906 32.5666 167.887 32.6467 167.889 32.7277C167.889 32.9777 168.076 33.1741 168.454 33.3036L169.103 33.5357C169.516 33.6541 169.902 33.8511 170.241 34.116C170.395 34.2745 170.514 34.4636 170.591 34.6713C170.667 34.8789 170.7 35.1004 170.685 35.3214Z" fill="#00614D"/>
<path d="M176.627 35.3214C176.634 35.574 176.586 35.8251 176.485 36.0567C176.385 36.2883 176.234 36.4945 176.045 36.6607C175.606 37.0163 175.052 37.1974 174.489 37.1696C173.999 37.175 173.512 37.1042 173.044 36.9598C172.6 36.808 172.36 36.5937 172.36 36.308C172.358 36.2258 172.372 36.144 172.402 36.0673C172.431 35.9907 172.476 35.9207 172.533 35.8616C172.592 35.804 172.661 35.7589 172.737 35.729C172.814 35.6991 172.895 35.685 172.977 35.6875C173.222 35.7139 173.462 35.7771 173.689 35.875C173.914 35.9661 174.153 36.0174 174.395 36.0268C174.964 36.0268 175.249 35.8169 175.249 35.3928C175.249 35.3053 175.227 35.2191 175.187 35.1415C175.147 35.0638 175.089 34.9969 175.018 34.9464C174.863 34.844 174.696 34.7629 174.52 34.7053L173.938 34.4911C173.559 34.3714 173.206 34.1805 172.897 33.9286C172.739 33.7565 172.619 33.5522 172.545 33.3294C172.472 33.1067 172.447 32.8708 172.472 32.6375C172.497 32.4043 172.572 32.1793 172.692 31.9776C172.811 31.776 172.972 31.6024 173.164 31.4687C173.618 31.186 174.146 31.0447 174.68 31.0625C175.108 31.0528 175.534 31.1287 175.933 31.2857C176.293 31.4375 176.471 31.6518 176.471 31.9241C176.476 32.0022 176.463 32.0805 176.434 32.1531C176.405 32.2256 176.36 32.2908 176.302 32.3437C176.191 32.4437 176.047 32.498 175.898 32.4955C175.693 32.4822 175.491 32.4338 175.302 32.3527C175.056 32.2547 174.794 32.2032 174.529 32.2009C174.361 32.1929 174.195 32.2365 174.053 32.3259C173.983 32.3663 173.926 32.4251 173.887 32.4958C173.847 32.5666 173.828 32.6467 173.831 32.7277C173.831 32.9777 174.018 33.1741 174.395 33.3036L175.044 33.5357C175.451 33.6576 175.83 33.8578 176.16 34.125C176.318 34.2799 176.441 34.4667 176.521 34.6729C176.602 34.8792 176.638 35.1002 176.627 35.3214Z" fill="#00614D"/>
<path d="M188.389 35.4419C188.403 35.6773 188.368 35.9129 188.287 36.1341C188.206 36.3553 188.08 36.5574 187.918 36.7277C187.736 36.8874 187.525 37.0092 187.296 37.0859C187.067 37.1626 186.825 37.1925 186.584 37.1741C186.307 37.2021 186.028 37.1532 185.776 37.0328C185.524 36.9124 185.311 36.725 185.158 36.491C185.005 36.725 184.791 36.9124 184.539 37.0328C184.288 37.1532 184.008 37.2021 183.731 37.1741C183.252 37.2053 182.781 37.0448 182.419 36.7277C182.257 36.5574 182.131 36.3553 182.05 36.1341C181.969 35.9129 181.935 35.6773 181.948 35.4419V31.75C181.949 31.6657 181.967 31.5826 182.002 31.5058C182.036 31.429 182.086 31.3601 182.148 31.3036C182.212 31.2421 182.287 31.1939 182.37 31.1617C182.452 31.1295 182.54 31.114 182.628 31.116C182.721 31.1119 182.813 31.1264 182.9 31.1586C182.987 31.1908 183.067 31.2401 183.135 31.3036C183.2 31.3628 183.251 31.4353 183.286 31.5162C183.32 31.597 183.337 31.6844 183.335 31.7723V35.4152C183.335 35.8616 183.531 36.0759 183.931 36.0759C184.331 36.0759 184.495 35.8571 184.495 35.4152V31.75C184.496 31.6657 184.514 31.5826 184.549 31.5058C184.583 31.429 184.633 31.3601 184.695 31.3036C184.828 31.1825 185.001 31.1154 185.18 31.1154C185.359 31.1154 185.532 31.1825 185.664 31.3036C185.726 31.3601 185.776 31.429 185.811 31.5058C185.845 31.5826 185.863 31.6657 185.864 31.75V35.3928C185.864 35.8393 186.06 36.0536 186.456 36.0536C186.851 36.0536 187.025 35.8348 187.025 35.3928V31.75C187.023 31.662 187.039 31.5747 187.074 31.4938C187.108 31.413 187.16 31.3405 187.225 31.2812C187.357 31.1601 187.53 31.0946 187.709 31.0982C187.797 31.0962 187.885 31.1117 187.968 31.1439C188.05 31.176 188.125 31.2242 188.189 31.2857C188.251 31.3423 188.301 31.4111 188.336 31.4879C188.37 31.5648 188.388 31.6479 188.389 31.7321V35.4419Z" fill="#00614D"/>
<path d="M195.769 34.125C195.809 34.9325 195.553 35.7269 195.049 36.3571C194.806 36.622 194.511 36.8335 194.183 36.9781C193.855 37.1227 193.5 37.1974 193.142 37.1974C192.783 37.1974 192.429 37.1227 192.101 36.9781C191.772 36.8335 191.478 36.622 191.235 36.3571C190.762 35.7096 190.508 34.9277 190.508 34.125C190.508 33.3223 190.762 32.5404 191.235 31.8929C191.476 31.6255 191.77 31.4119 192.099 31.2657C192.427 31.1195 192.783 31.0439 193.142 31.0439C193.501 31.0439 193.856 31.1195 194.185 31.2657C194.513 31.4119 194.807 31.6255 195.049 31.8929C195.552 32.5237 195.808 33.3176 195.769 34.125ZM194.373 34.125C194.405 33.6179 194.278 33.1134 194.009 32.683C193.914 32.5332 193.783 32.4108 193.627 32.3278C193.471 32.2448 193.296 32.2041 193.12 32.2098C192.943 32.2054 192.769 32.2467 192.613 32.3296C192.458 32.4124 192.326 32.5342 192.231 32.683C191.994 33.125 191.871 33.6189 191.871 34.1205C191.871 34.6222 191.994 35.116 192.231 35.558C192.326 35.7069 192.458 35.8286 192.613 35.9115C192.769 35.9944 192.943 36.0356 193.12 36.0312C193.296 36.0369 193.471 35.9963 193.627 35.9133C193.783 35.8303 193.914 35.7078 194.009 35.558C194.275 35.1299 194.403 34.6291 194.373 34.125Z" fill="#00614D"/>
<path d="M202.146 36.5223C202.149 36.6059 202.134 36.6891 202.102 36.7662C202.07 36.8433 202.021 36.9124 201.96 36.9687C201.832 37.0843 201.665 37.1452 201.493 37.1384C201.32 37.1434 201.15 37.0846 201.017 36.9732C200.952 36.9194 200.9 36.8511 200.865 36.7736C200.83 36.6961 200.814 36.6117 200.817 36.5268V35.7678C200.837 35.6301 200.825 35.4895 200.782 35.3573C200.738 35.225 200.664 35.1049 200.566 35.0064C200.468 34.908 200.349 34.8339 200.217 34.7901C200.085 34.7464 199.945 34.7342 199.808 34.7544H199.266V36.4821C199.263 36.6504 199.195 36.8109 199.075 36.9286C198.947 37.0504 198.776 37.1162 198.599 37.1116C198.512 37.1138 198.426 37.0987 198.345 37.0673C198.264 37.0359 198.191 36.9887 198.128 36.9286C198.07 36.8698 198.024 36.8002 197.993 36.7236C197.961 36.647 197.945 36.5649 197.946 36.4821V31.8705C197.943 31.7764 197.959 31.6828 197.993 31.5952C198.028 31.5077 198.079 31.4282 198.146 31.3616C198.291 31.2285 198.483 31.158 198.679 31.1652H200.124C200.648 31.1334 201.164 31.3061 201.564 31.6473C201.714 31.7937 201.831 31.9706 201.908 32.1661C201.985 32.3616 202.019 32.5713 202.009 32.7812C202.019 33.1051 201.931 33.4244 201.755 33.6964C201.632 33.9006 201.444 34.0576 201.222 34.1428C201.516 34.2854 201.76 34.516 201.919 34.8028C202.078 35.0897 202.145 35.4189 202.111 35.7455L202.146 36.5223ZM200.666 32.9777C200.666 32.5044 200.462 32.2723 200.044 32.2723H199.266V33.6696H200.026C200.116 33.6746 200.206 33.6577 200.288 33.6204C200.37 33.5831 200.442 33.5265 200.497 33.4553C200.609 33.3216 200.669 33.1521 200.666 32.9777Z" fill="#00614D"/>
<path d="M208.319 36.5044C208.318 36.6544 208.258 36.798 208.152 36.9041C208.047 37.0101 207.904 37.0702 207.754 37.0714H205.172C204.976 37.0803 204.784 37.0113 204.638 36.8794C204.571 36.8131 204.519 36.7337 204.484 36.6462C204.448 36.5587 204.432 36.4649 204.434 36.3705V31.75C204.435 31.6657 204.453 31.5826 204.487 31.5058C204.522 31.429 204.572 31.3601 204.634 31.3035C204.764 31.1791 204.939 31.1117 205.118 31.116C205.298 31.1127 205.472 31.18 205.603 31.3035C205.664 31.3603 205.714 31.4293 205.747 31.5062C205.781 31.583 205.798 31.666 205.798 31.75V35.9285H207.754C207.828 35.9285 207.901 35.9435 207.969 35.9727C208.037 36.0018 208.099 36.0445 208.15 36.0982C208.205 36.1498 208.249 36.2128 208.278 36.2829C208.307 36.353 208.321 36.4285 208.319 36.5044Z" fill="#00614D"/>
<path d="M215.001 34.1339C215.043 34.9196 214.78 35.6912 214.267 36.2857C214.025 36.546 213.729 36.7508 213.401 36.8864C213.073 37.022 212.719 37.0851 212.365 37.0714H210.902C210.706 37.0803 210.515 37.0113 210.369 36.8795C210.302 36.8131 210.249 36.7338 210.214 36.6462C210.179 36.5587 210.162 36.4649 210.164 36.3705V31.8705C210.162 31.7762 210.179 31.6824 210.214 31.5948C210.249 31.5073 210.302 31.4279 210.369 31.3616C210.514 31.2285 210.706 31.158 210.902 31.1652H212.276C212.643 31.1489 213.01 31.2114 213.352 31.3484C213.694 31.4854 214.003 31.6938 214.258 31.9598C214.778 32.5598 215.044 33.3398 215.001 34.1339ZM213.614 34.1339C213.614 32.9167 213.097 32.308 212.062 32.308H211.498V35.933H212.062C212.27 35.9446 212.478 35.9106 212.671 35.8336C212.865 35.7565 213.039 35.6381 213.182 35.4866C213.491 35.1064 213.645 34.6233 213.614 34.1339Z" fill="#00614D"/>
<path d="M24.3586 5.77676C22.4783 5.65623 20.6381 5.55801 18.9 5.95533C19.0556 6.40176 17.0776 5.95533 12.0013 9.42855C9.42334 11.3512 7.42373 13.9511 6.22266 16.9419C9.44979 15.8348 14.1127 15.5714 20.6603 17.8348C30.1239 21.1384 36.3959 19.0446 39.752 15.8303C38.2897 12.9457 36.0975 10.4982 33.3956 8.73358C30.6937 6.96891 27.577 5.94918 24.3586 5.77676Z" fill="#9DDCF9"/>
<path d="M21.077 19.0759C14.2672 16.8437 9.10197 17.4152 5.81705 18.7143C5.38756 20.054 5.17446 21.4542 5.18584 22.8616C5.09205 25.7391 5.65495 28.6001 6.83147 31.2256C8.00798 33.851 9.76693 36.1714 11.9737 38.0091C14.1805 39.8468 16.7766 41.1531 19.5635 41.8281C22.3503 42.5031 25.2539 42.5289 28.0522 41.9034C30.8504 41.278 33.4691 40.018 35.7079 38.2198C37.9467 36.4215 39.7462 34.1328 40.9688 31.5286C42.1913 28.9244 42.8045 26.0739 42.7613 23.1951C42.7182 20.3164 42.0199 17.4857 40.7199 14.9196C37.3594 18.4866 30.9185 22.3035 21.077 19.0759Z" fill="#B2D235"/>
<path d="M11.3651 28L11.1073 26.8393L7.84456 27.5491L7.64453 26.6294L10.9072 25.9196L10.6583 24.7544L11.4406 24.5402L12.1607 27.875L11.3651 28Z" fill="#00614D"/>
<path d="M8.5 29.6116L12.3228 28L12.6873 28.8661L8.86005 30.4777L8.5 29.6116Z" fill="#00614D"/>
<path d="M10.5696 33.5357C9.81397 32.4688 9.88065 31.25 10.9652 30.4777C11.1957 30.2929 11.4625 30.1594 11.7482 30.086C12.0339 30.0127 12.3319 30.0012 12.6223 30.0522C12.9127 30.1033 13.1891 30.2158 13.4329 30.3823C13.6768 30.5488 13.8826 30.7654 14.0368 31.0179C14.3514 31.4454 14.5671 31.938 14.668 32.4598L13.8234 32.7723C13.7781 32.3368 13.6253 31.9194 13.3789 31.5581C12.9833 31 12.4055 30.7411 11.6009 31.3215C10.8541 31.8572 10.9119 32.4956 11.3253 33.1072C11.4391 33.2726 11.5735 33.4226 11.7254 33.5536L12.5255 32.9822L13.0633 33.75L11.7076 34.7188C11.2653 34.3908 10.8807 33.991 10.5696 33.5357Z" fill="#00614D"/>
<path d="M14.6658 37.5223L14.817 35.5625L14.4302 35.2634L13.4701 36.5178L12.75 35.9643L15.2748 32.6607L15.7193 33C15.7193 33 16.3905 33.4687 16.5328 33.5803C17.1818 34.0759 17.3862 34.7545 16.9062 35.3661C16.7687 35.5547 16.577 35.6966 16.3569 35.7724C16.1367 35.8482 15.8987 35.8544 15.6749 35.7902L15.6482 35.8259L15.5326 38.0848L14.6658 37.5223ZM15.9105 34.0089L15.5726 33.7678L14.8481 34.7143L15.1815 34.9732C15.2434 35.0301 15.3165 35.0734 15.3961 35.1004C15.4757 35.1274 15.56 35.1374 15.6436 35.1298C15.7272 35.1223 15.8084 35.0973 15.8819 35.0565C15.9554 35.0157 16.0196 34.96 16.0705 34.8928C16.3194 34.5714 16.2394 34.2723 15.9016 34.0089H15.9105Z" fill="#00614D"/>
<path d="M16.2969 38.4107L18.1327 34.6741L18.9728 35.0937L17.1326 38.8259L16.2969 38.4107Z" fill="#00614D"/>
<path d="M19.2573 39.692C18.8198 39.5853 18.42 39.3598 18.1016 39.0402L18.515 38.3438C18.7515 38.6168 19.0595 38.8179 19.404 38.9241C19.7329 39.0179 20.0307 39.0134 20.1241 38.6964C20.3108 38.0625 18.5994 37.6027 18.9461 36.4197C19.1595 35.692 19.8707 35.3929 20.7242 35.6429C21.0778 35.7426 21.4181 35.885 21.7376 36.067L21.3776 36.808C21.1217 36.649 20.8507 36.5159 20.5686 36.4107C20.1641 36.2902 19.9329 36.3706 19.8574 36.6206C19.7018 37.1473 21.4443 37.7054 21.0887 38.9197C20.8531 39.6697 20.0663 39.9331 19.2573 39.692Z" fill="#00614D"/>
<path d="M25.6347 40.2902L24.559 40.3572L22.8477 36.3081L23.8656 36.1875L24.9546 38.9509C25.0003 39.066 25.0331 39.1857 25.0524 39.3081H25.1146C25.1177 39.1829 25.1356 39.0585 25.168 38.9375L25.9281 36.1027L26.8438 36.0491L25.6347 40.2902Z" fill="#00614D"/>
<path d="M30.7107 39.058L30.0217 38.2053L28.6526 38.6919V39.7634L27.8125 40.067L27.8925 35.6027L28.7593 35.2902L31.6308 38.6562L30.7107 39.058ZM28.8482 36.7812C28.7651 36.6746 28.6935 36.5594 28.6348 36.4375H28.5904C28.6255 36.5686 28.6449 36.7035 28.6482 36.8393V37.9062L29.5372 37.5937L28.8482 36.7812Z" fill="#00614D"/>
<path d="M34.8944 36.4911L32.7208 38L30.3516 34.5804L31.1161 34.0447L33.0231 36.7902L34.4855 35.7679L34.8944 36.4911Z" fill="#00614D"/>
<path d="M37.5771 33.6429L35.7991 35.6339L32.6875 32.8616L33.3098 32.1562L35.7991 34.3884L36.9859 33.0491L37.5771 33.6429Z" fill="#00614D"/>
<path d="M39.5564 30.2321L38.3028 32.5848L34.6445 30.6161L35.858 28.3438L36.5381 28.7902L35.7914 30.1875L36.547 30.5938L37.2405 29.2946L37.9383 29.6696L37.2449 30.9688L38.0228 31.3884L38.8718 29.7946L39.5564 30.2321Z" fill="#00614D"/>
<path d="M39.0227 26.4732L40.5473 26.8304L40.334 27.7232L38.8093 27.3661L36 28.2589L36.1689 27.183L37.8047 26.7634C37.9046 26.7357 38.0078 26.7221 38.1114 26.7232V26.6652C38.017 26.6185 37.9289 26.56 37.8492 26.4911L36.5956 25.4107L36.809 24.4955L39.0227 26.4732Z" fill="#00614D"/>
<path d="M15.1301 9.68305C15.9305 9.70472 16.7069 9.40752 17.2899 8.85634C17.8728 8.30516 18.215 7.54475 18.2417 6.74109C18.2539 6.33692 18.1843 5.93445 18.0372 5.55804C16.1214 6.19609 14.3203 7.13971 12.7031 8.35269C12.9731 8.75235 13.3342 9.08154 13.7563 9.31292C14.1784 9.5443 14.6494 9.67119 15.1301 9.68305Z" fill="white"/>
<path d="M15.5527 9.13841C15.9027 9.15461 16.2524 9.1014 16.5819 8.98183C16.9114 8.86225 17.2142 8.67865 17.473 8.44152C17.7318 8.20438 17.9416 7.91835 18.0903 7.59978C18.239 7.2812 18.3238 6.93632 18.3398 6.58484C18.3514 6.23394 18.2909 5.88439 18.162 5.55804C16.4597 6.1071 14.8556 6.92544 13.4102 7.98216C13.6537 8.32838 13.974 8.61304 14.3458 8.8137C14.7176 9.01435 15.1308 9.12551 15.5527 9.13841Z" fill="#FBB040"/>
<path d="M42.9496 20.4777C42.7007 18.8728 42.2527 17.3056 41.6161 15.8125C41.5049 15.5581 41.3894 15.3081 41.2649 15.0581L41.1138 14.75C41.0071 14.5402 40.9004 14.3304 40.7893 14.1295C39.0045 10.8887 36.3293 8.23173 33.0827 6.47549C29.8361 4.71926 26.1551 3.93783 22.4785 4.2244C18.802 4.51097 15.2851 5.85343 12.3471 8.09171C9.40921 10.33 7.17423 13.3696 5.90869 16.8482C5.75756 17.259 5.61975 17.6741 5.49529 18.0982L5.44195 18.3081C5.34416 18.6474 5.2597 18.9956 5.18414 19.3438C4.66437 21.6897 4.59047 24.1131 4.96633 26.4866C5.3586 28.992 6.23838 31.3953 7.55543 33.5592C8.87249 35.7231 10.601 37.6052 12.6423 39.0982C14.6837 40.5912 16.9978 41.6658 19.4526 42.2606C21.9075 42.8554 24.4549 42.9587 26.9495 42.5648C29.4441 42.1708 31.837 41.2872 33.9916 39.9645C36.1462 38.6417 38.0203 36.9057 39.5069 34.8556C40.9934 32.8054 42.0634 30.4813 42.6556 28.0159C43.2478 25.5504 43.3508 22.992 42.9585 20.4866L42.9496 20.4777ZM18.1905 6.01788C18.2419 6.25534 18.2642 6.49821 18.2571 6.74111C18.2388 7.34178 18.0434 7.92346 17.6956 8.41249C17.3478 8.90152 16.8633 9.27588 16.3036 9.48815C15.7438 9.70042 15.1338 9.74103 14.551 9.60487C13.9682 9.4687 13.4388 9.16187 13.0297 8.72325C14.5941 7.54892 16.3367 6.63541 18.1905 6.01788ZM12.2607 9.32592C12.7945 9.92073 13.4932 10.3418 14.2669 10.535C15.0407 10.7283 15.8543 10.6849 16.6034 10.4105C17.3524 10.136 18.0027 9.64306 18.4708 8.99483C18.939 8.34659 19.2035 7.57266 19.2306 6.77234C19.2426 6.42383 19.2067 6.07533 19.1239 5.73664C23.0953 4.62412 27.3252 4.89898 31.1208 6.51622C34.9163 8.13345 38.0526 10.9972 40.0158 14.6384C28.383 9.59825 20.0663 11.6563 20.0663 11.6563C28.5386 11.1607 36.8554 14.2724 39.5313 15.3884C39.2118 15.6691 38.878 15.9328 38.5312 16.1786C35.5485 18.2768 30.1344 20.1697 21.2754 17.2634C17.2748 15.9554 11.8873 14.9152 7.02885 16.4375C8.1782 13.6791 9.97287 11.2396 12.2607 9.32592ZM6.58879 17.6295C10.456 16.1741 15.3723 16.3527 20.9731 18.192C30.2144 21.2188 35.9264 19.2009 39.0868 16.9777C39.5139 16.6722 39.9235 16.3429 40.3137 15.9911C38.5187 18.5994 36.1251 20.7354 33.3349 22.2188C30.33 23.7679 25.5515 25.0536 19.8218 22.375C13.9365 19.6206 9.89593 18.0491 6.66879 18.1831H6.41987C6.45988 18.009 6.52656 17.8215 6.58879 17.6295ZM26.8006 41.6563C23.8268 42.1289 20.7828 41.8577 17.9383 40.8668C15.0938 39.8758 12.5365 38.1956 10.4929 35.975C8.44931 33.7544 6.98253 31.0619 6.22246 28.136C5.46239 25.2101 5.43248 22.1412 6.13539 19.2009C6.31763 19.1786 6.49988 19.1652 6.69102 19.1563C9.70479 19.0357 13.8032 20.6384 19.3951 23.259C22.3195 24.6987 25.6117 25.208 28.832 24.7188C30.5577 24.444 32.2281 23.8923 33.7794 23.0848C36.3933 21.7006 38.682 19.7705 40.4915 17.4241C40.6693 17.192 40.8426 16.9777 41.0115 16.7232C42.0202 19.2879 42.442 22.0475 42.2456 24.7979C42.0492 27.5483 41.2398 30.2192 39.877 32.6131C38.5143 35.0069 36.6332 37.0625 34.3729 38.6278C32.1125 40.1932 29.5307 41.2282 26.8184 41.6563H26.8006Z" fill="#00614D"/>
<path d="M47.5925 23.7456C47.5955 20.3272 46.86 16.9489 45.4367 13.8438C45.2544 13.4465 45.0633 13.0581 44.8588 12.6741C42.6606 8.48964 39.2677 5.06019 35.1154 2.82577C30.9631 0.591353 26.2407 -0.346125 21.5542 0.133618C16.8677 0.613361 12.4307 2.48845 8.81268 5.5183C5.19461 8.54815 2.56042 12.5946 1.24806 17.1384C1.06581 17.7723 0.905782 18.4152 0.776874 19.0715C0.472908 20.6181 0.323995 22.1914 0.332365 23.7679C0.332365 24.1563 0.332371 24.5536 0.359042 24.942L1.29251 24.7679C1.29251 24.4375 1.26584 24.0982 1.26584 23.7679C1.26555 21.7302 1.53765 19.7016 2.07484 17.7366C2.22597 17.1786 2.39933 16.634 2.59047 16.0982C4.0933 11.8656 6.80806 8.17331 10.3937 5.48531C13.9794 2.79731 18.276 1.23344 22.7438 0.990168C27.2117 0.746898 31.6515 1.83508 35.5055 4.118C39.3594 6.40092 42.4558 9.77676 44.4054 13.8214C44.5788 14.1786 44.7432 14.5447 44.8988 14.9152C46.0765 17.7165 46.6812 20.7271 46.6768 23.7679C46.6768 24.0982 46.6768 24.4331 46.6502 24.7634L47.5792 24.9375C47.5792 24.5268 47.5925 24.134 47.5925 23.7456Z" fill="#00614D"/>
<path d="M2.56415 28.9643C2.49823 28.977 2.42998 28.9642 2.37301 28.9286C2.3455 28.9103 2.32191 28.8866 2.30359 28.859C2.28528 28.8314 2.27261 28.8004 2.26633 28.7679L2.15964 28.2456L0.350495 28.6161C0.312799 28.6239 0.273877 28.6236 0.236322 28.6151C0.198768 28.6066 0.163438 28.5902 0.132683 28.567C0.100396 28.5448 0.072783 28.5164 0.0514268 28.4834C0.0300707 28.4505 0.0153906 28.4137 0.00822124 28.375C-0.0101851 28.2974 0.00259093 28.2156 0.0437828 28.1473C0.0641867 28.1139 0.0913398 28.0851 0.123493 28.0628C0.155646 28.0405 0.192086 28.0252 0.230476 28.0179L2.03963 27.6473L1.93295 27.125C1.92033 27.0588 1.93303 26.9903 1.96851 26.9331C1.98684 26.9051 2.01058 26.8811 2.03831 26.8625C2.06605 26.844 2.09722 26.8312 2.12997 26.8249C2.16273 26.8187 2.1964 26.8191 2.22898 26.8262C2.26157 26.8333 2.2924 26.8468 2.31967 26.8661C2.34757 26.8829 2.37155 26.9056 2.38996 26.9326C2.40837 26.9595 2.42078 26.9901 2.42635 27.0224L2.75973 28.6652C2.7728 28.7314 2.76007 28.8001 2.72417 28.8572C2.70591 28.8848 2.68235 28.9085 2.65488 28.9269C2.62741 28.9453 2.59656 28.958 2.56415 28.9643Z" fill="#00614D"/>
<path d="M1.3601 32.0982C1.32531 32.1146 1.28737 32.123 1.24897 32.123C1.21057 32.123 1.17263 32.1146 1.13784 32.0982C1.06769 32.0601 1.01507 31.9961 0.991154 31.9197C0.97575 31.8829 0.967815 31.8434 0.967815 31.8036C0.967815 31.7637 0.97575 31.7242 0.991154 31.6875C1.00677 31.6528 1.02948 31.6217 1.05781 31.5963C1.08615 31.5709 1.11947 31.5518 1.15562 31.5402L1.97796 31.2634L1.70681 30.4464L0.88447 30.7232C0.847881 30.735 0.809266 30.7391 0.77103 30.7353C0.732793 30.7314 0.695754 30.7197 0.662215 30.7009C0.592061 30.6628 0.539445 30.5987 0.515527 30.5223C0.500123 30.4856 0.492187 30.4461 0.492188 30.4063C0.492187 30.3664 0.500123 30.3269 0.515527 30.2902C0.531145 30.2554 0.553855 30.2244 0.582187 30.199C0.610518 30.1736 0.643837 30.1545 0.679993 30.1429L2.66695 29.4822C2.70173 29.4658 2.73967 29.4573 2.77807 29.4573C2.81648 29.4573 2.85442 29.4658 2.8892 29.4822C2.95682 29.5231 3.00751 29.5872 3.03199 29.6626C3.05647 29.738 3.05312 29.8197 3.02256 29.8929C3.00649 29.9273 2.98363 29.9581 2.95536 29.9835C2.92709 30.0088 2.894 30.0281 2.85809 30.0402L2.17354 30.2679L2.44469 31.0848L3.12924 30.8572C3.16564 30.8442 3.20443 30.8395 3.24285 30.8434C3.28127 30.8472 3.31837 30.8595 3.3515 30.8795C3.3865 30.8973 3.4173 30.9225 3.44183 30.9533C3.46637 30.9841 3.48406 31.0198 3.49373 31.0581C3.50927 31.094 3.51729 31.1327 3.51729 31.1719C3.51729 31.211 3.50927 31.2498 3.49373 31.2857C3.47839 31.3211 3.45583 31.353 3.4275 31.3791C3.39918 31.4052 3.36571 31.4251 3.32927 31.4375L1.3601 32.0982Z" fill="#00614D"/>
<path d="M2.49306 34.6429C2.46215 34.6561 2.42888 34.663 2.39527 34.663C2.36165 34.663 2.32839 34.6561 2.29748 34.6429C2.26617 34.6323 2.23739 34.6153 2.21291 34.593C2.18843 34.5708 2.1688 34.5437 2.15524 34.5134L1.66183 33.4598C1.62215 33.381 1.61419 33.2899 1.63961 33.2054C1.65278 33.1656 1.67427 33.129 1.70264 33.0982C1.731 33.0675 1.76559 33.0431 1.80408 33.0268L3.60433 32.1786C3.64193 32.161 3.68289 32.1519 3.72435 32.1519C3.76582 32.1519 3.80678 32.161 3.84437 32.1786C3.88517 32.1945 3.92234 32.2185 3.95366 32.2492C3.98498 32.2799 4.0098 32.3166 4.02662 32.3571L4.50224 33.375C4.51533 33.4053 4.52209 33.438 4.52209 33.471C4.52209 33.504 4.51533 33.5367 4.50224 33.567C4.4917 33.5984 4.47481 33.6273 4.45263 33.6519C4.43045 33.6765 4.40346 33.6962 4.37334 33.7098C4.34349 33.7241 4.31083 33.7315 4.27776 33.7315C4.2447 33.7315 4.21205 33.7241 4.1822 33.7098C4.15032 33.6993 4.12089 33.6824 4.09568 33.6602C4.07048 33.6379 4.05001 33.6108 4.03551 33.5804L3.6799 32.817L3.23539 33.0223L3.56877 33.7366C3.58186 33.7669 3.58862 33.7996 3.58862 33.8326C3.58862 33.8656 3.58186 33.8983 3.56877 33.9286C3.55823 33.96 3.54134 33.9889 3.51916 34.0135C3.49698 34.0381 3.46999 34.0578 3.43987 34.0714C3.40971 34.0846 3.37718 34.0914 3.3443 34.0914C3.31142 34.0914 3.27889 34.0846 3.24873 34.0714C3.18507 34.0489 3.13252 34.0025 3.10204 33.942L2.76866 33.2277L2.21303 33.4911L2.59085 34.2947C2.61534 34.3563 2.61534 34.425 2.59085 34.4866C2.58557 34.5178 2.57422 34.5477 2.55744 34.5745C2.54066 34.6013 2.51878 34.6246 2.49306 34.6429Z" fill="#00614D"/>
<path d="M4.77538 38.2455C4.74441 38.2683 4.70891 38.284 4.67132 38.2917C4.63374 38.2994 4.59493 38.2989 4.55757 38.2902C4.48039 38.2716 4.41251 38.2256 4.36643 38.1607C4.34289 38.1291 4.32602 38.093 4.31685 38.0546C4.30768 38.0162 4.3064 37.9764 4.31309 37.9375C4.31679 37.8988 4.32909 37.8615 4.3491 37.8283C4.36911 37.7951 4.3963 37.7668 4.42866 37.7455L5.13988 37.2455L4.64647 36.5402L3.93526 37.0402C3.90415 37.0626 3.86866 37.0782 3.83111 37.0859C3.79357 37.0936 3.75483 37.0933 3.71744 37.0848C3.63976 37.0674 3.57149 37.0212 3.52631 36.9554C3.50277 36.9237 3.4859 36.8876 3.47673 36.8493C3.46756 36.8109 3.46628 36.771 3.47297 36.7321C3.47667 36.6935 3.48897 36.6562 3.50898 36.6229C3.52898 36.5897 3.55618 36.5614 3.58854 36.5402L5.29989 35.3348C5.33058 35.3115 5.36608 35.2954 5.40376 35.2877C5.44145 35.28 5.48038 35.2808 5.51771 35.2902C5.55671 35.2974 5.59381 35.3126 5.62669 35.3349C5.65957 35.3572 5.68754 35.386 5.70885 35.4196C5.75617 35.4837 5.77688 35.5637 5.76663 35.6428C5.76151 35.6811 5.74861 35.7179 5.72873 35.7509C5.70885 35.7839 5.68241 35.8125 5.65106 35.8348L5.05986 36.25L5.55327 36.9554L6.14447 36.5402C6.175 36.5166 6.21049 36.5003 6.24823 36.4926C6.28598 36.4848 6.32498 36.4859 6.36228 36.4955C6.44015 36.5125 6.50856 36.5589 6.55341 36.625C6.59916 36.6897 6.61827 36.7697 6.60675 36.8482C6.60245 36.8867 6.58989 36.9238 6.56994 36.9569C6.54999 36.9901 6.52312 37.0185 6.49118 37.0402L4.77538 38.2455Z" fill="#00614D"/>
<path d="M6.58192 40.3572C6.55748 40.3797 6.52867 40.3968 6.4973 40.4076C6.46594 40.4183 6.43269 40.4225 6.39967 40.4197C6.36639 40.4189 6.33368 40.4109 6.30376 40.3963C6.27384 40.3816 6.24742 40.3607 6.22631 40.3349L5.45286 39.4688C5.42208 39.4378 5.39793 39.4008 5.38188 39.3601C5.36583 39.3195 5.35822 39.2759 5.35952 39.2322C5.36181 39.1904 5.37243 39.1495 5.39076 39.1119C5.40908 39.0744 5.43474 39.0408 5.46619 39.0134L6.95085 37.6741C6.98014 37.6444 7.01576 37.6217 7.05502 37.6078C7.09429 37.5939 7.13618 37.5891 7.17756 37.5938C7.22041 37.5974 7.26213 37.6095 7.30028 37.6294C7.33844 37.6493 7.37227 37.6767 7.39981 37.7099L8.14658 38.5536C8.16898 38.5781 8.18607 38.6071 8.19678 38.6386C8.20749 38.6701 8.21159 38.7035 8.20881 38.7366C8.20487 38.8027 8.17631 38.8649 8.12881 38.9107C8.10408 38.9328 8.07523 38.9497 8.04394 38.9604C8.01265 38.9711 7.97954 38.9755 7.94656 38.9732C7.91328 38.9725 7.88057 38.9645 7.85065 38.9499C7.82073 38.9352 7.79431 38.9143 7.7732 38.8884L7.20867 38.259L6.84862 38.5804L7.36869 39.1697C7.39181 39.1937 7.40937 39.2226 7.42013 39.2542C7.43088 39.2859 7.43457 39.3195 7.43092 39.3527C7.43071 39.3858 7.42345 39.4184 7.40965 39.4484C7.39585 39.4785 7.37583 39.5052 7.35092 39.5268C7.32619 39.5489 7.29734 39.5657 7.26605 39.5765C7.23476 39.5872 7.20165 39.5916 7.16867 39.5893C7.13539 39.5885 7.10268 39.5806 7.07276 39.5659C7.04284 39.5513 7.01642 39.5303 6.99531 39.5045L6.47079 38.9197L6.02628 39.3304L6.61747 39.9911C6.66058 40.042 6.68282 40.1074 6.6797 40.1741C6.67742 40.2099 6.6675 40.2448 6.65063 40.2763C6.63376 40.3079 6.61033 40.3355 6.58192 40.3572Z" fill="#00614D"/>
<path d="M8.71599 42.3616C8.69216 42.3888 8.66272 42.4105 8.62972 42.4251C8.59671 42.4398 8.56094 42.447 8.52486 42.4464C8.45011 42.4436 8.37898 42.4134 8.32483 42.3616C8.26878 42.3182 8.22994 42.2562 8.21528 42.1867C8.20062 42.1171 8.21109 42.0446 8.24482 41.9821L8.40484 41.6295L7.72474 41.0179L7.3958 41.2187C7.33575 41.2586 7.26366 41.2759 7.19215 41.2678C7.12064 41.2596 7.05426 41.2264 7.00464 41.1741C6.97504 41.1502 6.95068 41.1204 6.93309 41.0866C6.91549 41.0528 6.90504 41.0157 6.9024 40.9777C6.90102 40.9083 6.92652 40.8411 6.97352 40.7902C7.00185 40.7538 7.03843 40.7247 7.0802 40.7054L8.85824 39.7545C8.95294 39.7007 9.05709 39.6659 9.16495 39.6518C9.22009 39.6509 9.27484 39.6611 9.32599 39.6818C9.37713 39.7025 9.42364 39.7333 9.46277 39.7723C9.5486 39.8445 9.60416 39.9465 9.61835 40.058C9.61776 40.1686 9.59509 40.2779 9.55167 40.3795L8.82268 42.2098C8.79527 42.2657 8.75927 42.3169 8.71599 42.3616ZM9.04938 40.2143L8.13814 40.7679L8.60932 41.1875L9.04938 40.2143Z" fill="#00614D"/>
<path d="M10.7126 43.8036C10.6938 43.8312 10.6695 43.8546 10.6412 43.8723C10.6128 43.89 10.5812 43.9016 10.5482 43.9063C10.4825 43.9161 10.4157 43.9001 10.3615 43.8616L9.43244 43.192C9.39561 43.1687 9.36397 43.1381 9.33949 43.102C9.31501 43.0659 9.29823 43.0251 9.2902 42.9822C9.28247 42.9409 9.28364 42.8984 9.2936 42.8576C9.30357 42.8168 9.32211 42.7786 9.34798 42.7455L10.5348 41.0804C10.557 41.0489 10.5855 41.0223 10.6184 41.0024C10.6512 40.9824 10.6879 40.9694 10.726 40.9643C10.8047 40.954 10.8844 40.9748 10.9482 41.0223C10.9808 41.0452 11.0086 41.0744 11.0299 41.1081C11.0513 41.1418 11.0658 41.1794 11.0727 41.2188C11.0808 41.2563 11.081 41.2952 11.0734 41.3328C11.0657 41.3705 11.0504 41.4062 11.0282 41.4375L9.95251 42.9464L10.6548 43.4509C10.6824 43.4698 10.7057 43.4942 10.7233 43.5227C10.7409 43.5511 10.7524 43.5829 10.7571 43.6161C10.7624 43.6487 10.7612 43.6821 10.7536 43.7143C10.7459 43.7465 10.732 43.7768 10.7126 43.8036Z" fill="#00614D"/>
<path d="M14.0342 43.2857C14.0185 43.3145 13.9969 43.3397 13.9709 43.3597C13.9448 43.3797 13.9149 43.394 13.8831 43.4018C13.8516 43.4127 13.8181 43.4163 13.785 43.4125C13.7519 43.4086 13.7201 43.3973 13.692 43.3794L13.2475 43.116L12.3362 44.7321C12.3184 44.7663 12.2932 44.7961 12.2624 44.8193C12.2317 44.8425 12.1961 44.8585 12.1584 44.866C12.1205 44.8766 12.0808 44.8793 12.0418 44.8739C12.0029 44.8685 11.9654 44.8552 11.9317 44.8348C11.8612 44.7971 11.8085 44.7329 11.785 44.6562C11.7718 44.6197 11.767 44.5807 11.7708 44.5421C11.7747 44.5034 11.7871 44.4662 11.8072 44.433L12.7185 42.8169L12.274 42.5536C12.2453 42.5377 12.2202 42.516 12.2003 42.4899C12.1804 42.4638 12.1661 42.4337 12.1584 42.4018C12.1476 42.3701 12.1439 42.3365 12.1478 42.3032C12.1516 42.27 12.1628 42.2381 12.1806 42.2098C12.1964 42.181 12.218 42.1557 12.244 42.1358C12.27 42.1158 12.2999 42.1015 12.3318 42.0937C12.3633 42.0828 12.3968 42.0792 12.4299 42.083C12.4629 42.0869 12.4947 42.0982 12.5229 42.116L13.9764 42.9419C14.0052 42.9578 14.0303 42.9795 14.0502 43.0056C14.0701 43.0317 14.0843 43.0617 14.092 43.0937C14.0967 43.128 14.0939 43.1629 14.0839 43.196C14.074 43.2292 14.057 43.2597 14.0342 43.2857Z" fill="#00614D"/>
<path d="M15.5986 46.2544C15.584 46.2909 15.5618 46.3237 15.5334 46.3506C15.505 46.3776 15.4711 46.3981 15.4341 46.4107C15.3983 46.4261 15.3598 46.434 15.3208 46.434C15.2818 46.434 15.2433 46.4261 15.2074 46.4107C15.1331 46.3826 15.0726 46.3265 15.0385 46.2544C15.0232 46.2185 15.0154 46.1797 15.0154 46.1406C15.0154 46.1015 15.0232 46.0628 15.0385 46.0268L15.3719 45.2232L14.5762 44.8928L14.2429 45.6964C14.2293 45.7327 14.2079 45.7655 14.1802 45.7925C14.1526 45.8195 14.1193 45.84 14.0828 45.8527C14.047 45.868 14.0084 45.8759 13.9695 45.8759C13.9305 45.8759 13.892 45.868 13.8561 45.8527C13.7818 45.8245 13.7213 45.7685 13.6872 45.6964C13.6719 45.6604 13.6641 45.6217 13.6641 45.5826C13.6641 45.5434 13.6719 45.5047 13.6872 45.4687L14.4918 43.5312C14.5067 43.4915 14.5299 43.4555 14.5598 43.4254C14.5897 43.3954 14.6256 43.3721 14.6651 43.3571C14.7379 43.3281 14.819 43.3281 14.8918 43.3571C14.9293 43.3712 14.9636 43.3926 14.9926 43.4202C15.0216 43.4479 15.0448 43.481 15.0608 43.5178C15.0762 43.553 15.0842 43.591 15.0842 43.6294C15.0842 43.6679 15.0762 43.7059 15.0608 43.7411L14.7852 44.4062L15.5764 44.7411L15.8564 44.0714C15.8708 44.0356 15.8924 44.0032 15.92 43.9763C15.9475 43.9494 15.9804 43.9286 16.0164 43.9152C16.0911 43.8897 16.1725 43.8925 16.2453 43.9229C16.3181 43.9533 16.3774 44.0092 16.4121 44.0803C16.4273 44.1163 16.4352 44.1551 16.4352 44.1942C16.4352 44.2333 16.4273 44.272 16.4121 44.308L15.5986 46.2544Z" fill="#00614D"/>
<path d="M18.9178 45.0223C18.8914 45.0971 18.8434 45.1624 18.78 45.2098L17.891 45.9152L17.6199 46.875C17.6104 46.9116 17.5931 46.9456 17.5694 46.9749C17.5456 47.0042 17.5158 47.028 17.4821 47.0447C17.447 47.0637 17.4085 47.0755 17.3688 47.0794C17.3291 47.0832 17.289 47.079 17.2509 47.067C17.2128 47.0576 17.1769 47.0404 17.1456 47.0166C17.1143 46.9928 17.0881 46.9629 17.0687 46.9286C17.0474 46.896 17.0335 46.8591 17.0282 46.8205C17.0228 46.7819 17.026 46.7426 17.0376 46.7054L17.3087 45.75L16.922 44.6697C16.8932 44.6037 16.884 44.5309 16.8953 44.4598C16.9049 44.4251 16.9212 44.3926 16.9433 44.3643C16.9654 44.3359 16.9929 44.3123 17.0242 44.2947C17.0917 44.2701 17.1657 44.2701 17.2332 44.2947C17.2912 44.3135 17.3435 44.3467 17.3855 44.3912C17.4274 44.4356 17.4576 44.4899 17.4732 44.5491L17.7443 45.3482L18.4067 44.817C18.4495 44.7752 18.5019 44.7448 18.5593 44.7284C18.6168 44.712 18.6773 44.7102 18.7356 44.7232C18.8095 44.7412 18.8734 44.7877 18.9134 44.8527C18.9361 44.9067 18.9377 44.9673 18.9178 45.0223Z" fill="#00614D"/>
<path d="M23.216 47.2946C23.2127 47.3994 23.1877 47.5024 23.1425 47.5969C23.0973 47.6915 23.0331 47.7755 22.9538 47.8437C22.8696 47.9076 22.7735 47.954 22.6712 47.9801C22.5689 48.0061 22.4625 48.0114 22.3581 47.9955C22.2343 47.9954 22.1128 47.9617 22.0064 47.8981C21.9 47.8344 21.8127 47.7432 21.7536 47.6339C21.6763 47.7306 21.5742 47.8042 21.4582 47.8467C21.3422 47.8892 21.2168 47.899 21.0957 47.875C20.883 47.8675 20.6817 47.776 20.5356 47.6205C20.4705 47.5384 20.4231 47.4437 20.3963 47.3423C20.3696 47.2408 20.364 47.1349 20.3801 47.0312L20.5267 45.4017C20.5302 45.3634 20.5414 45.3262 20.5598 45.2924C20.5781 45.2586 20.6032 45.229 20.6334 45.2053C20.6966 45.1562 20.7763 45.1338 20.8557 45.1428C20.9354 45.147 21.0103 45.1822 21.0646 45.241C21.0902 45.2699 21.1094 45.304 21.1209 45.341C21.1324 45.3779 21.136 45.4169 21.1313 45.4553L20.9846 47.0669C20.9846 47.2634 21.0424 47.366 21.2202 47.3839C21.398 47.4018 21.478 47.308 21.4958 47.1161L21.6469 45.5044C21.6483 45.4656 21.6586 45.4277 21.6771 45.3936C21.6957 45.3595 21.7218 45.3302 21.7536 45.308C21.7846 45.2833 21.8203 45.265 21.8584 45.2543C21.8966 45.2435 21.9365 45.2406 21.9758 45.2455C22.0548 45.2515 22.1282 45.2884 22.1803 45.3482C22.2063 45.377 22.226 45.411 22.2382 45.4478C22.2505 45.4847 22.255 45.5238 22.2514 45.5625L22.1003 47.1741C22.1003 47.366 22.1625 47.4732 22.3359 47.4866C22.5092 47.5 22.5982 47.4152 22.6159 47.2187L22.7626 45.6071C22.7661 45.5688 22.7773 45.5316 22.7957 45.4978C22.814 45.464 22.8391 45.4344 22.8693 45.4107C22.9325 45.3616 23.0122 45.3392 23.0916 45.3482C23.1702 45.3551 23.2433 45.3918 23.296 45.4509C23.3232 45.4789 23.3438 45.5127 23.3561 45.5498C23.3684 45.5869 23.3722 45.6264 23.3672 45.6652L23.216 47.2946Z" fill="#00614D"/>
<path d="M25.9608 47.6741C25.9615 47.7399 25.9377 47.8036 25.8941 47.8527C25.8717 47.8782 25.8444 47.8989 25.8139 47.9135C25.7833 47.9281 25.7501 47.9363 25.7163 47.9375L24.5561 47.9866C24.4693 47.9933 24.3834 47.9661 24.3161 47.9107C24.2855 47.8822 24.2611 47.8476 24.2442 47.8092C24.2274 47.7709 24.2186 47.7294 24.2183 47.6875L24.1338 45.692C24.1304 45.6505 24.1357 45.6088 24.1495 45.5695C24.1633 45.5303 24.1852 45.4944 24.2138 45.4643C24.2436 45.4329 24.2795 45.408 24.3193 45.3911C24.359 45.3742 24.4018 45.3657 24.445 45.3661L25.5651 45.317C25.632 45.316 25.6969 45.3398 25.7474 45.3839C25.7716 45.4069 25.7909 45.4346 25.8041 45.4653C25.8173 45.496 25.8241 45.5291 25.8241 45.5625C25.8241 45.596 25.8173 45.629 25.8041 45.6598C25.7909 45.6905 25.7716 45.7181 25.7474 45.7411C25.7263 45.7669 25.6999 45.7879 25.6699 45.8025C25.64 45.8172 25.6073 45.8251 25.574 45.8259L24.7339 45.8616V46.3482L25.5162 46.3125C25.549 46.3098 25.5819 46.3144 25.6126 46.326C25.6434 46.3375 25.6712 46.3558 25.694 46.3795C25.7177 46.4028 25.7365 46.4305 25.7493 46.4612C25.7622 46.4919 25.7688 46.5248 25.7688 46.5581C25.7688 46.5913 25.7622 46.6242 25.7493 46.6549C25.7365 46.6856 25.7177 46.7133 25.694 46.7366C25.6727 46.7619 25.6461 46.7821 25.6162 46.796C25.5863 46.8099 25.5537 46.8171 25.5207 46.817L24.7339 46.8527L24.7606 47.4688L25.6496 47.4331C25.6823 47.4309 25.715 47.4358 25.7457 47.4473C25.7763 47.4589 25.8042 47.4768 25.8274 47.5C25.8622 47.5157 25.8926 47.5398 25.9159 47.5702C25.9391 47.6006 25.9546 47.6363 25.9608 47.6741Z" fill="#00614D"/>
<path d="M28.5207 47.3214C28.5259 47.3544 28.5243 47.3881 28.5159 47.4203C28.5075 47.4526 28.4925 47.4828 28.4718 47.5089C28.4526 47.5362 28.4282 47.5594 28.4 47.577C28.3717 47.5946 28.3402 47.6064 28.3074 47.6116L27.1739 47.7813C27.1316 47.789 27.0882 47.7883 27.0463 47.7791C27.0043 47.7699 26.9646 47.7524 26.9294 47.7277C26.8946 47.7051 26.8653 47.6748 26.8438 47.6393C26.8223 47.6037 26.809 47.5637 26.8049 47.5223L26.5027 45.4955C26.4975 45.4571 26.4999 45.4179 26.5098 45.3804C26.5197 45.3428 26.5369 45.3076 26.5604 45.2768C26.5843 45.2453 26.6144 45.2191 26.6488 45.1999C26.6832 45.1807 26.7213 45.1689 26.7605 45.1652C26.7996 45.1572 26.8399 45.1574 26.8789 45.1659C26.918 45.1743 26.9548 45.1908 26.9872 45.2143C27.0194 45.2346 27.0466 45.262 27.0667 45.2946C27.0867 45.3271 27.099 45.3637 27.1027 45.4018L27.3783 47.2366L28.2318 47.1116C28.2643 47.1052 28.2978 47.1058 28.33 47.1135C28.3622 47.1212 28.3924 47.1358 28.4185 47.1563C28.4458 47.1753 28.469 47.1998 28.4866 47.2282C28.5042 47.2567 28.5158 47.2884 28.5207 47.3214Z" fill="#00614D"/>
<path d="M30.912 46.7321C30.9264 46.7978 30.9152 46.8664 30.8808 46.9241C30.8478 46.9814 30.7934 47.0231 30.7297 47.0402L29.6184 47.3259C29.5351 47.3493 29.446 47.3397 29.3695 47.2991C29.3329 47.2789 29.3012 47.2508 29.2766 47.2168C29.252 47.1829 29.2352 47.1439 29.2273 47.1027L28.7161 45.1428C28.7063 45.1052 28.7044 45.0659 28.7105 45.0275C28.7167 44.9891 28.7307 44.9523 28.7516 44.9196C28.7955 44.8527 28.8626 44.8046 28.9399 44.7848C29.0172 44.7649 29.0991 44.7748 29.1695 44.8125C29.2035 44.8311 29.2333 44.8565 29.257 44.8873C29.2807 44.918 29.2979 44.9533 29.3073 44.9911L29.7518 46.7768L30.5919 46.5625C30.6232 46.5535 30.6559 46.5513 30.6881 46.5559C30.7203 46.5605 30.7511 46.5719 30.7786 46.5893C30.8093 46.6028 30.8369 46.6225 30.8598 46.6471C30.8827 46.6716 30.9004 46.7005 30.912 46.7321Z" fill="#00614D"/>
<path d="M33.517 45.7589C33.5335 45.7954 33.542 45.8349 33.542 45.875C33.542 45.915 33.5335 45.9546 33.517 45.991C33.4978 46.0282 33.4713 46.0611 33.4393 46.0879C33.4072 46.1148 33.3702 46.1349 33.3304 46.1473C33.2535 46.1715 33.1716 46.1744 33.0933 46.1555C33.015 46.1366 32.9433 46.0968 32.8858 46.0402L32.3658 45.5937C32.0946 45.3616 31.859 45.1473 31.6634 44.9419C31.7523 45.1562 31.8101 45.3035 31.8412 45.3884L32.1835 46.2812C32.2127 46.3527 32.2127 46.4329 32.1835 46.5044C32.1682 46.5399 32.1456 46.5717 32.1173 46.5978C32.089 46.624 32.0555 46.6439 32.019 46.6562C31.9848 46.6716 31.9477 46.6796 31.9101 46.6796C31.8726 46.6796 31.8355 46.6716 31.8012 46.6562C31.7669 46.6401 31.7363 46.6171 31.711 46.5887C31.6858 46.5603 31.6666 46.5271 31.6546 46.491L30.9078 44.5402C30.8913 44.5037 30.8828 44.4641 30.8828 44.4241C30.8828 44.3841 30.8913 44.3445 30.9078 44.308C30.9477 44.2328 31.0143 44.1754 31.0945 44.1473C31.1794 44.12 31.2703 44.1172 31.3568 44.1393C31.4433 44.1614 31.5218 44.2075 31.5834 44.2723L32.0279 44.6651L32.4324 45.0223C32.5525 45.1339 32.668 45.2455 32.7703 45.3527C32.6814 45.1384 32.6236 44.991 32.5925 44.9062L32.2502 44.0134C32.2349 43.979 32.2269 43.9417 32.2269 43.904C32.2269 43.8663 32.2349 43.829 32.2502 43.7946C32.2655 43.7587 32.288 43.7262 32.3163 43.6994C32.3446 43.6725 32.3781 43.6517 32.4147 43.6384C32.4497 43.6229 32.4875 43.6149 32.5258 43.6149C32.5641 43.6149 32.6019 43.6229 32.6369 43.6384C32.6704 43.6538 32.7003 43.6761 32.7248 43.7038C32.7493 43.7314 32.7678 43.7639 32.7792 43.7991L33.517 45.7589Z" fill="#00614D"/>
<path d="M36.0012 44.5223C36.0143 44.5526 36.021 44.5853 36.021 44.6183C36.021 44.6513 36.0143 44.684 36.0012 44.7143C35.9807 44.7791 35.9361 44.8335 35.8767 44.8661L34.8499 45.4063C34.8128 45.4285 34.7716 45.4428 34.7287 45.4482C34.6858 45.4536 34.6423 45.4499 34.601 45.4375C34.5605 45.4264 34.523 45.4067 34.4907 45.3797C34.4585 45.3528 34.4325 45.3192 34.4143 45.2813L33.4897 43.4955C33.4733 43.4575 33.4648 43.4165 33.4648 43.375C33.4648 43.3335 33.4733 43.2925 33.4897 43.2545C33.5042 43.2136 33.5266 43.176 33.5556 43.1439C33.5846 43.1117 33.6196 43.0856 33.6586 43.067L34.6543 42.5402C34.6844 42.5268 34.717 42.5198 34.7499 42.5198C34.7828 42.5198 34.8154 42.5268 34.8454 42.5402C34.9083 42.5594 34.961 42.6027 34.9921 42.6607C35.0166 42.7223 35.0166 42.7911 34.9921 42.8527C34.9834 42.8855 34.9678 42.916 34.9463 42.9422C34.9249 42.9684 34.898 42.9896 34.8677 43.0045L34.1209 43.3973L34.3476 43.8438L35.041 43.4777C35.0709 43.4634 35.1035 43.456 35.1366 43.456C35.1697 43.456 35.2023 43.4634 35.2322 43.4777C35.2962 43.4967 35.3504 43.5399 35.3833 43.5982C35.3965 43.6293 35.4033 43.6627 35.4033 43.6964C35.4033 43.7302 35.3965 43.7636 35.3833 43.7947C35.3745 43.8262 35.3594 43.8556 35.3387 43.881C35.318 43.9063 35.2924 43.9271 35.2633 43.942L34.5698 44.308L34.8543 44.8527L35.6367 44.442C35.6668 44.4286 35.6993 44.4216 35.7322 44.4216C35.7652 44.4216 35.7977 44.4286 35.8278 44.442C35.8608 44.4416 35.8935 44.4486 35.9235 44.4625C35.9535 44.4764 35.98 44.4968 36.0012 44.5223Z" fill="#00614D"/>
<path d="M37.8643 42.6875C37.93 42.7792 37.9745 42.8846 37.9945 42.9958C38.0145 43.107 38.0095 43.2213 37.9799 43.3303C37.9055 43.5686 37.7475 43.7716 37.5354 43.9018C37.3567 44.0277 37.1584 44.1227 36.9486 44.183C36.7442 44.2411 36.6108 44.2143 36.5397 44.1116C36.5174 44.0811 36.5015 44.0464 36.4931 44.0095C36.4847 43.9727 36.4839 43.9345 36.4908 43.8973C36.4977 43.8615 36.5119 43.8276 36.5326 43.7976C36.5533 43.7676 36.5799 43.7423 36.6108 43.7232C36.7099 43.6752 36.8144 43.6392 36.922 43.6161C37.0274 43.5933 37.1281 43.5525 37.2198 43.4955C37.4302 43.3586 37.4835 43.2098 37.3798 43.0491C37.3575 43.0157 37.3279 42.9879 37.2932 42.9677C37.2585 42.9476 37.2197 42.9357 37.1798 42.933C37.0972 42.9356 37.0152 42.9476 36.9353 42.9687L36.6686 43.0357C36.5 43.0857 36.3234 43.1023 36.1485 43.0848C36.0567 43.0669 35.9697 43.0299 35.8932 42.976C35.8166 42.9222 35.7521 42.8528 35.704 42.7723C35.6369 42.6773 35.5959 42.5663 35.585 42.4503C35.5741 42.3344 35.5936 42.2176 35.6418 42.1116C35.7338 41.8951 35.8887 41.7115 36.0863 41.5848C36.2422 41.4767 36.4172 41.3994 36.6019 41.3571C36.6651 41.3348 36.7337 41.3327 36.7982 41.3511C36.8626 41.3695 36.9198 41.4074 36.962 41.4598C36.9813 41.4882 36.9948 41.5203 37.0017 41.554C37.0085 41.5877 37.0086 41.6225 37.002 41.6562C36.9828 41.7203 36.9419 41.7756 36.8864 41.8125C36.8078 41.8579 36.7222 41.8896 36.633 41.9062C36.5197 41.9327 36.4115 41.978 36.313 42.0402C36.2481 42.0785 36.1968 42.1362 36.1663 42.2054C36.1479 42.2364 36.1382 42.2719 36.1382 42.308C36.1382 42.3442 36.1479 42.3796 36.1663 42.4107C36.2241 42.5 36.3441 42.5268 36.5174 42.4821L36.8108 42.4062C36.9909 42.3525 37.1793 42.3328 37.3665 42.3482C37.4698 42.3626 37.5684 42.4007 37.6548 42.4595C37.7411 42.5184 37.8128 42.5964 37.8643 42.6875Z" fill="#00614D"/>
<path d="M39.8065 41.125C39.8814 41.2088 39.9364 41.3086 39.9672 41.4169C39.9981 41.5252 40.0039 41.6391 39.9843 41.75C39.937 41.9957 39.8008 42.2152 39.602 42.3661C39.4371 42.5097 39.2492 42.6244 39.0464 42.7054C38.8508 42.7857 38.713 42.7768 38.633 42.6786C38.607 42.6516 38.5872 42.6192 38.5749 42.5837C38.5626 42.5483 38.5582 42.5106 38.5618 42.4732C38.5652 42.4366 38.5759 42.401 38.5935 42.3688C38.6111 42.3365 38.6351 42.3082 38.6641 42.2857C38.7553 42.2267 38.854 42.1801 38.9575 42.1473C39.0607 42.1145 39.1571 42.0631 39.2419 41.9955C39.4375 41.8348 39.4731 41.683 39.3575 41.5491C39.3323 41.5172 39.2996 41.492 39.2624 41.4756C39.2252 41.4593 39.1846 41.4523 39.1442 41.4553C39.0638 41.4663 38.9848 41.4858 38.9086 41.5134L38.6685 41.5714C38.5063 41.6382 38.3327 41.6731 38.1573 41.6741C38.0651 41.6645 37.9758 41.6362 37.8948 41.591C37.8138 41.5457 37.7428 41.4844 37.6862 41.4107C37.6093 41.3232 37.5566 41.217 37.5332 41.1026C37.5098 40.9883 37.5166 40.8698 37.5528 40.7589C37.6259 40.5323 37.7653 40.3332 37.9529 40.1875C38.0975 40.0623 38.2651 39.9667 38.4463 39.9062C38.506 39.8775 38.5731 39.8681 38.6384 39.8793C38.7037 39.8905 38.7639 39.9217 38.8108 39.9687C38.8341 39.9944 38.8514 40.0249 38.8614 40.0581C38.8714 40.0914 38.8738 40.1264 38.8686 40.1607C38.8592 40.2268 38.826 40.2872 38.7752 40.3304C38.6999 40.382 38.6175 40.4226 38.5307 40.4509C38.4187 40.4874 38.3146 40.545 38.224 40.6205C38.1651 40.6666 38.1204 40.7285 38.0951 40.7991C38.0841 40.8332 38.082 40.8696 38.089 40.9048C38.096 40.94 38.1119 40.9727 38.1351 41C38.2062 41.0848 38.3263 41.0937 38.4907 41.0357L38.7797 40.9286C38.9521 40.8522 39.138 40.8112 39.3264 40.808C39.4241 40.8239 39.5174 40.8603 39.6002 40.915C39.6829 40.9696 39.7532 41.0412 39.8065 41.125Z" fill="#00614D"/>
<path d="M43.1565 37.4777C43.2403 37.5398 43.3104 37.6187 43.3624 37.7093C43.4144 37.8 43.4472 37.9005 43.4587 38.0045C43.4637 38.1102 43.4478 38.216 43.412 38.3156C43.3761 38.4152 43.321 38.5067 43.2498 38.5848C43.1277 38.5821 43.0066 38.6072 42.8956 38.6582C42.7845 38.7091 42.6864 38.7847 42.6086 38.8792C42.5308 38.9737 42.4752 39.0846 42.4462 39.2038C42.4171 39.3229 42.4153 39.447 42.4408 39.567C42.3788 39.6526 42.3005 39.7251 42.2105 39.7802C42.1205 39.8354 42.0205 39.8722 41.9163 39.8884C41.8121 39.896 41.7075 39.8821 41.6089 39.8476C41.5102 39.813 41.4197 39.7585 41.3429 39.6875L40.0849 38.6473C40.058 38.6213 40.0367 38.5901 40.0222 38.5556C40.0076 38.521 40.0003 38.4839 40.0005 38.4464C39.9962 38.3668 40.0216 38.2884 40.0718 38.2265C40.1219 38.1646 40.1931 38.1237 40.2716 38.1116C40.3102 38.1062 40.3496 38.109 40.3871 38.1197C40.4246 38.1305 40.4594 38.149 40.4894 38.1741L41.7296 39.2053C41.7528 39.2359 41.7828 39.2606 41.8171 39.2777C41.8514 39.2947 41.8891 39.3036 41.9274 39.3036C41.9657 39.3036 42.0034 39.2947 42.0377 39.2777C42.072 39.2606 42.102 39.2359 42.1252 39.2053C42.2319 39.0759 42.2097 38.9464 42.0585 38.8214L40.8139 37.7946C40.7846 37.7695 40.7604 37.7389 40.7429 37.7044C40.7253 37.6699 40.7147 37.6323 40.7117 37.5937C40.708 37.5138 40.7351 37.4355 40.7872 37.375C40.8368 37.3129 40.9086 37.2728 40.9873 37.2634C41.0252 37.2568 41.0642 37.2591 41.1011 37.2699C41.1381 37.2807 41.1721 37.2999 41.2006 37.3259L42.4453 38.3527C42.468 38.3832 42.4976 38.4079 42.5315 38.425C42.5654 38.442 42.6029 38.4509 42.6408 38.4509C42.6788 38.4509 42.7162 38.442 42.7502 38.425C42.7841 38.4079 42.8136 38.3832 42.8364 38.3527C42.9431 38.2232 42.9209 38.0937 42.7742 37.9687L41.5296 36.942C41.4988 36.9182 41.4736 36.8878 41.4559 36.8531C41.4383 36.8183 41.4285 36.7801 41.4273 36.7411C41.422 36.6616 41.4475 36.5833 41.4984 36.5223C41.548 36.4602 41.6198 36.4201 41.6985 36.4107C41.7371 36.4041 41.7768 36.4063 41.8144 36.4171C41.8521 36.4279 41.8869 36.4471 41.9163 36.4732L43.1565 37.4777Z" fill="#00614D"/>
<path d="M44.3458 34.4509C44.6582 34.6221 44.8983 34.9012 45.0215 35.2366C45.0657 35.391 45.0774 35.5529 45.0559 35.7121C45.0344 35.8713 44.9801 36.0242 44.8964 36.1611C44.8128 36.2981 44.7016 36.416 44.5701 36.5074C44.4386 36.5988 44.2895 36.6616 44.1324 36.692C43.781 36.724 43.4285 36.6425 43.1263 36.4595C42.8241 36.2764 42.5879 36.0013 42.4522 35.6741C42.405 35.5197 42.3911 35.357 42.4114 35.1968C42.4316 35.0366 42.4856 34.8826 42.5697 34.7449C42.6538 34.6073 42.766 34.4892 42.8991 34.3985C43.0321 34.3077 43.1828 34.2465 43.3412 34.2187C43.693 34.1715 44.0499 34.254 44.3458 34.4509ZM44.0258 34.9866C43.8418 34.8552 43.6202 34.7878 43.3945 34.7946C43.3177 34.7959 43.2425 34.8171 43.1763 34.8562C43.1101 34.8953 43.0551 34.951 43.0167 35.0179C42.9743 35.0837 42.9499 35.1597 42.946 35.2381C42.9421 35.3164 42.9588 35.3945 42.9945 35.4643C43.1003 35.6647 43.2626 35.8294 43.4612 35.9375C43.6448 36.0621 43.8619 36.1275 44.0835 36.125C44.1622 36.1272 44.24 36.1085 44.3091 36.0706C44.3782 36.0328 44.436 35.9772 44.4767 35.9096C44.5174 35.8419 44.5395 35.7646 44.5407 35.6856C44.5419 35.6066 44.5222 35.5287 44.4836 35.4598C44.3836 35.2582 44.2236 35.0928 44.0258 34.9866Z" fill="#00614D"/>
<path d="M46.4145 32.4732C46.448 32.4862 46.4782 32.5066 46.5028 32.5328C46.5274 32.5591 46.5458 32.5906 46.5567 32.625C46.5719 32.6602 46.5797 32.6982 46.5797 32.7366C46.5797 32.775 46.5719 32.813 46.5567 32.8482C46.5274 32.9209 46.4718 32.9799 46.4011 33.0134C46.3688 33.0298 46.333 33.0384 46.2967 33.0384C46.2604 33.0384 46.2246 33.0298 46.1922 33.0134L45.8855 32.8794C45.8337 32.8456 45.7747 32.8246 45.7133 32.8181C45.6519 32.8115 45.5898 32.8197 45.5321 32.8419C45.4745 32.8641 45.4228 32.8997 45.3815 32.9458C45.3402 32.9919 45.3103 33.0472 45.2943 33.1071L45.1965 33.3259L45.8944 33.6384C45.9636 33.6702 46.0178 33.7278 46.0455 33.7991C46.0745 33.8722 46.0745 33.9537 46.0455 34.0268C46.0316 34.0629 46.0103 34.0958 45.9831 34.1233C45.9559 34.1508 45.9233 34.1723 45.8874 34.1866C45.8515 34.2008 45.8131 34.2075 45.7745 34.2061C45.7359 34.2047 45.6981 34.1953 45.6633 34.1786L43.8008 33.3437C43.7616 33.329 43.7262 33.3057 43.697 33.2756C43.6678 33.2455 43.6455 33.2093 43.6319 33.1696C43.6145 33.1303 43.6055 33.0877 43.6055 33.0446C43.6055 33.0016 43.6145 32.959 43.6319 32.9196L43.8897 32.3303C43.9676 32.112 44.127 31.9327 44.3342 31.8303C44.4191 31.7908 44.5117 31.7703 44.6053 31.7703C44.699 31.7703 44.7915 31.7908 44.8765 31.8303C45.0093 31.8843 45.1226 31.9778 45.201 32.0982C45.2623 32.1851 45.2907 32.2912 45.281 32.3973C45.3916 32.3009 45.5292 32.2414 45.675 32.227C45.8207 32.2127 45.9673 32.2441 46.0944 32.3169L46.4145 32.4732ZM44.7165 32.433C44.5253 32.3482 44.392 32.3928 44.3164 32.5625L44.1786 32.8794L44.7431 33.1294L44.8809 32.8125C44.9004 32.7777 44.9106 32.7385 44.9106 32.6986C44.9106 32.6588 44.9004 32.6196 44.8809 32.5848C44.8457 32.5162 44.7874 32.4625 44.7165 32.433Z" fill="#00614D"/>
<path d="M47.2538 29.9241C47.2859 29.9329 47.3157 29.9486 47.341 29.9702C47.3664 29.9918 47.3867 30.0188 47.4005 30.0491C47.4136 30.0794 47.4204 30.1121 47.4204 30.1451C47.4204 30.1781 47.4136 30.2108 47.4005 30.2411L47.0538 31.3348C47.0424 31.377 47.0228 31.4164 46.9961 31.4509C46.9694 31.4854 46.9361 31.5142 46.8982 31.5357C46.8606 31.5533 46.8197 31.5624 46.7782 31.5624C46.7367 31.5624 46.6958 31.5533 46.6582 31.5357L44.7112 30.9152C44.6751 30.9036 44.6418 30.8844 44.6134 30.8591C44.5851 30.8337 44.5624 30.8026 44.5468 30.7679C44.5314 30.7311 44.5234 30.6917 44.5234 30.6518C44.5234 30.6119 44.5314 30.5725 44.5468 30.5357C44.557 30.4977 44.5749 30.4623 44.5993 30.4315C44.6238 30.4008 44.6543 30.3755 44.689 30.3572C44.722 30.3369 44.7591 30.3244 44.7976 30.3206C44.8361 30.3167 44.8749 30.3216 44.9113 30.3348L46.6893 30.8973L46.9516 30.067C46.9734 30.004 47.0177 29.9515 47.076 29.9197C47.1337 29.8982 47.1973 29.8998 47.2538 29.9241Z" fill="#00614D"/>
<path d="M46.8325 26.875C47.1757 26.9236 47.4866 27.1045 47.6993 27.3794C47.791 27.5067 47.8544 27.6523 47.8851 27.8064C47.9158 27.9605 47.913 28.1194 47.8771 28.2723L47.7526 28.9107C47.7466 28.9539 47.7321 28.9955 47.71 29.033C47.6878 29.0706 47.6585 29.1033 47.6237 29.1294C47.589 29.1532 47.5497 29.1695 47.5084 29.1772C47.4671 29.1849 47.4246 29.1838 47.3837 29.1741L45.4323 28.7857C45.3914 28.7788 45.3525 28.7633 45.318 28.7402C45.2835 28.7172 45.2543 28.687 45.2323 28.6518C45.1869 28.5769 45.1725 28.4871 45.1923 28.4018L45.3078 27.8036C45.3326 27.6413 45.3914 27.4862 45.4803 27.3484C45.5692 27.2107 45.6861 27.0934 45.8235 27.0044C46.1303 26.8314 46.4922 26.785 46.8325 26.875ZM46.7125 27.4821C46.1835 27.375 45.8768 27.5491 45.7879 28L45.739 28.25L47.3081 28.5625L47.357 28.3169C47.3801 28.2268 47.3837 28.1328 47.3676 28.0412C47.3515 27.9495 47.3161 27.8624 47.2637 27.7857C47.1229 27.6205 46.9269 27.5125 46.7125 27.4821Z" fill="#00614D"/>
</g>
<defs>
<clipPath id="clip0_2_4">
<rect width="215" height="48" fill="white"/>
</clipPath>
</defs>
</svg>
