<svg width="55" height="55" viewBox="0 0 55 55" fill="none" xmlns="http://www.w3.org/2000/svg">
<path d="M26.1035 0H28.3594C28.5313 0.0358073 28.7003 0.0830729 28.8736 0.107422C31.4517 0.448307 33.8078 1.29193 35.7844 3.02643C38.8036 5.67331 39.0643 9.82122 36.4218 12.8362C36.3358 12.9336 36.2699 13.0467 36.1954 13.1499C36.9116 13.359 37.5934 13.5194 38.2479 13.7529C44.0731 15.8225 45.935 22.603 41.9905 27.3668C40.3319 29.372 38.182 30.6997 35.8675 31.7983C35.5352 31.9559 35.2014 32.1077 34.7689 32.3068L35.412 32.4242C37.0849 32.7107 38.7707 32.9413 40.425 33.3137C43.1277 33.9238 45.7245 34.8563 47.9517 36.5578C50.8908 38.7979 52.0695 41.7499 51.3319 45.3893C50.8535 47.7497 49.3854 49.447 47.4447 50.7747C46.9663 51.1027 46.4621 51.3921 45.8434 51.7773H46.4994C48.612 51.7773 50.7246 51.8117 52.8358 51.7616C53.8384 51.7387 54.5732 52.0266 55 52.959V53.8184C54.7548 54.3372 54.3372 54.7548 53.8184 55H1.18164C0.66226 54.7556 0.24438 54.3377 0 53.8184V52.959C0.429688 52.0294 1.16302 51.7387 2.16276 51.7616C4.25534 51.8132 6.35077 51.7773 8.44335 51.7773H9.08645C8.33163 51.2746 7.64415 50.865 7.00821 50.3852C2.3547 46.8818 2.20859 40.5682 6.68736 36.85C8.0953 35.6827 9.71236 34.8892 11.4139 34.2719C12.3091 33.9482 13.2229 33.6775 14.1539 33.3738C14.1093 33.323 14.0615 33.2752 14.0107 33.2306C10.2036 30.7155 8.7112 24.7801 12.6944 20.413C14.3258 18.6227 16.3152 17.3493 18.4852 16.331C19.3445 15.9271 20.2326 15.5747 21.1149 15.1966C20.5076 14.8128 19.8988 14.4719 19.3374 14.0651C15.1522 11.0301 15.1121 5.62318 19.2457 2.5194C20.6018 1.51766 22.1506 0.807616 23.7947 0.433984C24.5552 0.254948 25.3329 0.143229 26.1035 0ZM27.5 35.21C23.1229 35.21 18.7716 35.4836 14.5206 36.6352C12.385 37.2152 10.3354 37.9987 8.63243 39.4811C6.03282 41.7427 6.00704 45.1329 8.56511 47.4375C9.67084 48.4401 10.9685 49.109 12.3478 49.6318C15.9371 50.991 19.6954 51.4451 23.491 51.6685C26.7094 51.8576 29.9372 51.8203 33.1504 51.5568C35.9534 51.3262 38.7363 50.9237 41.4204 50.0643C43.291 49.4671 45.0771 48.6993 46.5366 47.3344C48.9156 45.11 48.9299 41.9074 46.5595 39.673C46.0994 39.2487 45.6002 38.8689 45.0685 38.5387C43.5274 37.5604 41.8229 36.9632 40.0655 36.5234C35.9505 35.475 31.7382 35.2143 27.5 35.21ZM22.3438 31.9917C26.8827 31.625 31.552 30.4634 35.9018 28.156C37.2447 27.4696 38.4421 26.53 39.4281 25.3888C42.0163 22.3165 40.8977 18.1299 37.1207 16.7607C35.7308 16.273 34.259 16.0613 32.788 16.1376C27.8369 16.3168 22.988 17.5973 18.594 19.8859C17.1875 20.615 15.9113 21.5417 14.9059 22.7892C12.438 25.85 13.4879 29.8074 17.146 31.2698C18.7172 31.8928 20.3514 32.0117 22.3552 31.9917H22.3438ZM27.5458 3.22409C24.9677 3.21693 22.8193 3.85716 21.2724 5.04024C20.1266 5.91393 19.3059 6.98529 19.4219 8.52787C19.5221 9.84701 20.2813 10.798 21.3082 11.5128C24.1184 13.465 27.2035 13.7257 30.4305 12.829C31.7954 12.4495 33.0172 11.7878 33.9783 10.7164C35.3533 9.18386 35.3533 7.29036 33.9439 5.79505C33.512 5.34262 33.0239 4.94743 32.4915 4.61914C30.896 3.61797 29.1042 3.25417 27.5573 3.22409H27.5458Z" fill="#00614D"/>
</svg>
