<svg width="46" height="46" viewBox="0 0 46 46" fill="none" xmlns="http://www.w3.org/2000/svg">
<g clip-path="url(#clip0_217_228)">
<path d="M45.9992 20.161V25.7167C45.9246 26.1101 45.8524 26.5047 45.7741 26.8981C44.5357 33.1351 41.2825 38.1066 36.0867 41.7469C30.3385 45.7757 23.9909 47.0243 17.1788 45.1352C10.8613 43.3793 6.12049 39.5076 2.89495 33.8391C0.380718 29.4229 -0.50751 24.66 0.276007 19.6344C1.04267 14.7168 3.27527 10.5093 6.77522 6.9794C10.2451 3.47471 14.4034 1.21261 19.2922 0.343031C20.0998 0.199101 20.917 0.112745 21.7306 0H24.3303C24.4438 0.031822 24.5591 0.0562599 24.6758 0.0731626C26.9621 0.239851 29.208 0.763172 31.3314 1.62401C32.819 2.23451 34.2525 2.97335 35.8075 3.7002C36.0012 3.4903 36.2636 3.18445 36.5501 2.90259C37.537 1.92986 38.5335 0.966729 39.5253 0H40.0657C40.5603 0.22549 40.7685 0.606905 40.7252 1.14784C40.7011 1.45969 40.7252 1.77394 40.7252 2.08698V4.096C40.9154 3.92089 41.0237 3.82734 41.126 3.72659C41.6881 3.17006 42.2429 2.60393 42.811 2.0558C42.9499 1.91748 43.1311 1.82917 43.3259 1.80478C43.5208 1.78039 43.7182 1.82131 43.8872 1.92109C44.0561 2.02087 44.187 2.17384 44.259 2.35589C44.3311 2.53793 44.3404 2.73871 44.2853 2.92657C44.2039 3.13275 44.0787 3.31893 43.9183 3.47231C43.3165 4.08641 42.699 4.68492 41.9926 5.38298C43.0505 5.38298 43.9712 5.39857 44.8907 5.37578C45.0907 5.35997 45.2919 5.3836 45.4827 5.44535C45.6735 5.50709 45.8503 5.60573 46.0028 5.73561V6.81508L42.4619 10.4133C42.486 10.4589 42.5281 10.5537 42.5823 10.64C43.9548 12.8167 44.9473 15.2094 45.5178 17.7166C45.7031 18.5238 45.8391 19.3454 45.9992 20.161ZM31.9934 15.3993C32.0079 15.4336 32.0248 15.4669 32.0439 15.4989C32.0897 15.5588 32.1378 15.6188 32.1848 15.674C34.3078 18.3439 35.1407 21.3808 34.6448 24.738C33.6399 31.5446 26.8337 36.0209 20.1444 34.2841C17.9018 33.709 15.8808 32.4838 14.3374 30.7635C12.7939 29.0431 11.7974 26.9051 11.4739 24.6201C11.1505 22.335 11.5146 20.0057 12.5203 17.927C13.526 15.8483 15.128 14.1138 17.1234 12.9429C17.7895 12.5732 18.4818 12.2525 19.1947 11.9834C19.3023 11.9376 19.418 11.9139 19.5349 11.9137C19.6518 11.9136 19.7676 11.9369 19.8752 11.9824C19.9829 12.0279 20.0802 12.0945 20.1614 12.1783C20.2426 12.2622 20.306 12.3615 20.3478 12.4703C20.5343 12.9417 20.3225 13.4203 19.8218 13.6446C19.7014 13.6997 19.5715 13.7441 19.4463 13.7933C14.886 15.5828 12.2935 20.462 13.4068 25.1601C14.5562 30.0094 18.9769 33.2646 23.9019 32.8028C27.7424 32.443 30.5467 30.4616 32.1077 26.9665C33.6543 23.5026 33.2066 20.155 30.9872 17.0593C30.8945 16.931 30.7874 16.8194 30.708 16.7187L28.1661 19.2374C30.3963 22.4135 29.2998 26.1545 26.9168 27.9584C25.7215 28.8731 24.2368 29.3306 22.7321 29.2481C21.2273 29.1655 19.8021 28.5482 18.7148 27.5082C17.6275 26.4682 16.9503 25.0744 16.8058 23.5794C16.6614 22.0845 17.0593 20.5874 17.9274 19.3598C18.7879 18.1157 20.0816 17.2346 21.5573 16.8878C22.4388 16.6618 23.3595 16.6319 24.2539 16.8002C25.1483 16.9685 25.9945 17.3309 26.7326 17.8617L29.295 15.3177C29.2255 15.2494 29.1489 15.1886 29.0663 15.1366C28.1649 14.6425 27.2682 14.1399 26.3535 13.6721C25.8396 13.4107 25.5989 12.9525 25.7915 12.4727C25.972 12.0181 26.4606 11.8202 26.989 11.993C27.2049 12.0539 27.4147 12.1342 27.616 12.2328C28.6559 12.811 29.6898 13.4023 30.8368 14.0524C30.9752 13.8125 31.3038 13.5018 31.335 13.1588C31.4277 12.1501 31.3952 11.1306 31.4277 10.1159C31.4433 10.0072 31.4232 9.89646 31.3705 9.80008C31.3178 9.7037 31.2353 9.62684 31.1353 9.58093C27.858 7.75542 24.3604 7.05496 20.6523 7.66187C16.837 8.27957 13.6788 10.1291 11.1959 13.0688C8.44577 16.324 7.15916 20.0998 7.55994 24.3505C7.986 28.8687 10.1055 32.5198 13.6981 35.2784C17.1475 37.9279 21.0723 38.9966 25.3943 38.3285C29.2132 37.7372 32.3749 35.8949 34.8855 32.9779C39.4591 27.6669 39.6914 20.594 36.5525 15.0047C36.5057 14.8979 36.4249 14.8094 36.3227 14.7529C36.2205 14.6963 36.1025 14.6748 35.9868 14.6916C35.0745 14.7384 34.1586 14.7984 33.2463 14.772C32.6878 14.7528 32.2991 14.9339 31.9934 15.3993ZM41.0959 11.6667C40.2318 12.5303 39.4266 13.3531 38.5985 14.1519C38.3578 14.3774 38.3458 14.5393 38.4926 14.8332C40.2305 18.3007 40.8769 21.9613 40.2053 25.785C39.3628 30.5575 36.8871 34.3501 32.9298 37.1363C29.088 39.8422 24.8069 40.8473 20.148 40.0425C16.9788 39.5191 14.0319 38.0851 11.6689 35.9165C6.95576 31.6106 4.87962 26.2984 5.99171 19.9643C7.72964 10.0547 17.8263 3.67021 27.5787 6.25376C28.9701 6.62318 30.3072 7.20009 31.6215 7.66427L34.3211 4.97638C33.2908 4.48461 32.2618 3.93288 31.1918 3.4927C26.7904 1.69357 22.2771 1.21381 17.665 2.57155C11.8579 4.28191 7.45764 7.82019 4.49809 13.0532C1.53854 18.2863 0.93676 23.8408 2.96837 29.5404C5.10107 35.5243 9.17753 39.8062 14.963 42.4317C18.1657 43.9045 21.7143 44.4669 25.2174 44.0569C29.0001 43.624 32.4146 42.2194 35.4596 39.9405C42.4559 34.7099 46.2917 25.8282 43.3092 16.4596C42.7812 14.7738 42.0373 13.1629 41.0959 11.6667ZM25.5363 19.2614C23.6732 17.9421 20.9628 18.393 19.5305 20.221C18.8227 21.1304 18.4929 22.2762 18.6094 23.4213C18.726 24.5663 19.2799 25.6229 20.1566 26.3721C21.0332 27.1214 22.1655 27.5059 23.3188 27.4462C24.4722 27.3865 25.5583 26.8871 26.3523 26.0513C28.0674 24.2246 27.7376 21.6135 26.7687 20.5496C26.4955 20.8267 26.2247 21.1049 25.9503 21.3796C25.2101 22.1184 24.4736 22.8645 23.7225 23.5925C23.3302 23.9727 22.7862 23.9655 22.4335 23.6129C22.0809 23.2603 22.0833 22.7409 22.4576 22.3295C22.5671 22.2096 22.6887 22.0956 22.8042 21.9793L25.5363 19.2614ZM42.9795 7.29604L42.9265 7.1761C42.1514 7.1761 41.3775 7.1893 40.6024 7.16891C40.4705 7.16292 40.3389 7.18666 40.2174 7.23837C40.0959 7.29008 39.9877 7.36842 39.9008 7.46756C38.2158 9.16354 36.5228 10.8543 34.8218 12.5399C34.7207 12.6394 34.6292 12.7486 34.5064 12.8817C35.2286 12.8817 35.8989 12.8613 36.5645 12.8889C36.8225 12.9083 37.0814 12.8655 37.3193 12.7643C37.5573 12.663 37.7673 12.5063 37.9318 12.3072C38.7863 11.3693 39.6829 10.4685 40.5796 9.57493C41.3679 8.80131 42.1803 8.05527 42.9795 7.29604ZM38.9151 3.10529C38.7321 3.27561 38.6238 3.36916 38.5215 3.46511C37.2738 4.71251 36.0257 5.9563 34.7772 7.1965C34.2705 7.70265 33.5737 8.13324 33.3185 8.74494C33.0634 9.35664 33.2318 10.1495 33.2174 10.8643C33.2174 11.0742 33.2174 11.2841 33.2174 11.6139C35.1347 9.69488 36.9484 7.88616 38.7646 6.06905C38.8415 6.00106 38.8925 5.9087 38.909 5.80757C38.9199 4.9416 38.9151 4.07082 38.9151 3.10529Z" fill="#00614D"/>
<path d="M23.0667 13.095C22.8332 13.0979 22.6081 13.0086 22.4405 12.8465C22.273 12.6845 22.1766 12.4629 22.1725 12.2303C22.1681 12.1101 22.188 11.9902 22.2311 11.8779C22.2742 11.7656 22.3396 11.6631 22.4233 11.5765C22.5071 11.4899 22.6075 11.4211 22.7186 11.374C22.8296 11.327 22.9491 11.3027 23.0697 11.3027C23.1904 11.3027 23.3098 11.327 23.4209 11.374C23.532 11.4211 23.6324 11.4899 23.7161 11.5765C23.7999 11.6631 23.8653 11.7656 23.9084 11.8779C23.9515 11.9902 23.9714 12.1101 23.967 12.2303C23.9626 12.4639 23.8652 12.6862 23.6964 12.8483C23.5276 13.0105 23.3011 13.0992 23.0667 13.095Z" fill="#00614D"/>
</g>
<defs>
<clipPath id="clip0_217_228">
<rect width="46" height="46" fill="white"/>
</clipPath>
</defs>
</svg>
