<svg width="52" height="58" viewBox="0 0 52 58" fill="none" xmlns="http://www.w3.org/2000/svg">
<g clip-path="url(#clip0_217_237)">
<path d="M26.341 0C26.9434 0.332292 27.1543 0.839794 27.1438 1.5361C27.1106 3.83344 27.1347 6.13229 27.1302 8.43115C27.1302 9.16823 26.7522 9.65005 26.1422 9.73161C25.9876 9.75294 25.8302 9.74125 25.6804 9.6973C25.5306 9.65334 25.3918 9.57812 25.273 9.47656C25.1543 9.37501 25.0583 9.24942 24.9913 9.10804C24.9244 8.96666 24.888 8.81267 24.8846 8.6562C24.865 6.13229 24.874 3.60838 24.8846 1.08448C24.8846 0.543749 25.2701 0.261302 25.6693 0H26.341Z" fill="#00614D"/>
<path d="M25.6625 58.0004C25.0601 57.6681 24.8492 57.1606 24.8597 56.4643C24.8929 54.167 24.8688 51.8681 24.8733 49.5693C24.8733 48.8518 25.2197 48.3866 25.8041 48.2763C25.9621 48.2462 26.1247 48.251 26.2807 48.2904C26.4367 48.3297 26.5823 48.4027 26.7073 48.5042C26.8323 48.6057 26.9337 48.7333 27.0045 48.8781C27.0754 49.0229 27.1139 49.1814 27.1174 49.3427C27.14 51.8666 27.1295 54.392 27.1174 56.9159C27.1174 57.4551 26.7334 57.7391 26.3342 58.0004H25.6625Z" fill="#00614D"/>
<path d="M26.5563 13.1407C31.2162 13.1785 35.9168 14.781 40.2619 17.4877C44.711 20.2563 48.4401 23.8194 51.5472 28.041C52.1497 28.8521 52.1497 29.1511 51.5472 29.9622C47.5078 35.365 42.619 39.7633 36.4214 42.541C28.808 45.953 21.2804 45.5618 13.9231 41.7435C8.47696 38.916 4.07761 34.8469 0.434325 29.932C-0.144022 29.1511 -0.145528 28.843 0.434325 28.0591C4.60475 22.4811 9.67884 18.0103 16.116 15.2205C19.1312 13.9065 22.8046 13.1316 26.5563 13.1407ZM26.5428 15.4063C22.8468 15.4063 19.8014 16.0936 16.8856 17.3563C11.1624 19.8364 6.64402 23.8178 2.79591 28.6542C2.56095 28.9472 2.62873 29.1285 2.82904 29.3822C6.41208 33.8999 10.6141 37.6744 15.8494 40.1772C22.276 43.2493 28.7794 43.4351 35.3219 40.5548C40.9533 38.0747 45.4128 34.1204 49.2082 29.3475C49.4417 29.0529 49.3709 28.8717 49.1736 28.621C46.3014 24.9778 42.9835 21.8241 39.0269 19.3848C35.0448 16.9288 30.7599 15.4335 26.5428 15.4063Z" fill="#00614D"/>
<path d="M10.5817 14.6691C10.3784 14.9455 10.2142 15.3639 9.916 15.5165C9.61779 15.669 9.178 15.589 8.81051 15.5391C8.6599 15.518 8.50929 15.3262 8.37826 15.1932C6.90227 13.7176 5.41273 12.254 3.96987 10.7466C3.70028 10.4656 3.46683 9.99137 3.50147 9.62585C3.5331 9.30262 3.9021 8.92048 4.2214 8.73621C4.67323 8.47188 5.12506 8.7211 5.47899 9.08058C6.99314 10.5991 8.50728 12.117 10.0214 13.6345C10.1212 13.7215 10.2071 13.8234 10.276 13.9366C10.3784 14.1314 10.4492 14.3489 10.5817 14.6691Z" fill="#00614D"/>
<path d="M48.7105 9.68635C48.471 10.0987 48.3566 10.431 48.1337 10.6591C46.6085 12.2188 45.0697 13.765 43.5174 15.2975C42.9828 15.8292 42.3381 15.8504 41.8607 15.3927C41.3833 14.935 41.3803 14.2508 41.93 13.6935C43.4632 12.1408 45.0085 10.6001 46.5492 9.0565C46.9273 8.67739 47.4002 8.47499 47.8701 8.76348C48.2014 8.96587 48.4183 9.35405 48.7105 9.68635Z" fill="#00614D"/>
<path d="M4.76415 50.4899C3.7415 50.5005 3.18274 49.5836 3.55926 48.842C3.62153 48.7256 3.70015 48.6188 3.79271 48.5248C5.37111 46.9389 6.94048 45.3424 8.5475 43.7851C8.81325 43.5559 9.15679 43.438 9.50689 43.4559C10.4015 43.539 10.7781 44.5887 10.1816 45.2941C9.78251 45.7653 9.32164 46.1867 8.88337 46.6262C7.75529 47.7591 6.63474 48.8919 5.48859 50.0141C5.26646 50.2005 5.02333 50.3602 4.76415 50.4899Z" fill="#00614D"/>
<path d="M48.5624 49.2198C48.5489 50.2348 47.597 50.7664 46.853 50.3148C46.7114 50.2232 46.5814 50.1147 46.4659 49.9916C44.9764 48.5023 43.4748 47.0236 42.0154 45.5042C41.7563 45.2353 41.5214 44.7731 41.5635 44.4333C41.6047 44.2408 41.6892 44.0603 41.8106 43.9056C41.932 43.7509 42.087 43.626 42.2639 43.5406C42.5756 43.4213 43.1434 43.5134 43.3829 43.7415C45.0396 45.3259 46.6481 46.9632 48.2522 48.6035C48.4329 48.7863 48.4992 49.0884 48.5624 49.2198Z" fill="#00614D"/>
<path d="M26.0194 18.8047C24.8146 18.8047 23.2226 19.0947 22.3792 19.4768C21.7767 19.7502 21.5117 20.3242 21.715 20.9132C21.9063 21.463 22.468 21.75 23.0885 21.608C23.2392 21.5748 23.3747 21.5159 23.5178 21.4706C24.6834 21.0926 25.9195 20.9857 27.1325 21.1579C30.4866 21.6518 33.2412 24.3102 33.7819 27.5983C34.3588 31.1055 32.6885 34.4753 29.5829 36.0657C28.089 36.8335 26.3891 37.1011 24.7324 36.8293C23.0758 36.5575 21.5496 35.7605 20.3776 34.5553C18.5808 32.6945 17.8322 30.4621 18.1831 27.8762C18.3142 26.9005 17.9919 26.3341 17.2599 26.2299C16.5791 26.1332 16.0731 26.5848 15.9526 27.3974C14.9269 34.3167 20.8158 40.1786 27.6656 39.0579C32.8225 38.2135 36.5788 33.4119 36.139 28.2221C35.938 25.6654 34.7859 23.278 32.9113 21.5335C31.0368 19.789 28.5767 18.8149 26.0194 18.8047ZM21.483 28.9713C21.4774 29.8669 21.7366 30.7441 22.2278 31.492C22.7189 32.24 23.4201 32.8252 24.2428 33.1738C25.0654 33.5224 25.9726 33.6186 26.8498 33.4504C27.7269 33.2823 28.5347 32.8572 29.1711 32.2288C29.8075 31.6005 30.244 30.7972 30.4254 29.9202C30.6068 29.0433 30.525 28.1321 30.1904 27.3018C29.8557 26.4714 29.2832 25.7592 28.5451 25.2549C27.8071 24.7507 26.9366 24.4771 26.0435 24.4687C24.8438 24.4607 23.6899 24.9302 22.8349 25.7743C21.98 26.6184 21.4938 27.7682 21.483 28.9713ZM20.3474 23.3374C20.3468 23.1157 20.2809 22.899 20.1582 22.7145C20.0354 22.53 19.8612 22.3859 19.6572 22.3002C19.4532 22.2145 19.2286 22.191 19.0113 22.2326C18.7941 22.2742 18.5939 22.3791 18.4358 22.5341C18.2777 22.6892 18.1686 22.8875 18.1223 23.1044C18.0759 23.3213 18.0944 23.547 18.1752 23.7534C18.2561 23.9599 18.3958 24.1378 18.577 24.265C18.7581 24.3922 18.9727 24.4631 19.1937 24.4687C19.3437 24.4707 19.4926 24.443 19.6319 24.3872C19.7712 24.3314 19.8981 24.2486 20.0054 24.1435C20.1127 24.0384 20.1983 23.9131 20.2573 23.7748C20.3162 23.6365 20.3474 23.4879 20.3489 23.3374H20.3474Z" fill="white"/>
<path d="M26.0188 18.8047C28.5776 18.8139 31.0394 19.788 32.915 21.5336C34.7906 23.2792 35.9429 25.6684 36.1429 28.2267C36.5827 33.4165 32.8295 38.2181 27.6695 39.0624C20.8197 40.1831 14.9308 34.3212 15.9565 27.402C16.077 26.5894 16.583 26.1378 17.2638 26.2344C17.9958 26.3387 18.3181 26.9051 18.1871 27.8808C17.8361 30.4666 18.5847 32.699 20.3815 34.5598C21.5535 35.7651 23.0797 36.562 24.7363 36.8339C26.393 37.1057 28.0929 36.8381 29.5868 36.0703C32.6924 34.4798 34.3627 31.1101 33.7858 27.6029C33.2452 24.3147 30.4905 21.6564 27.1364 21.1625C25.9234 20.9902 24.6873 21.0971 23.5217 21.4751C23.3711 21.5204 23.2386 21.5793 23.0925 21.6126C22.4704 21.7545 21.9102 21.4615 21.7189 20.9178C21.5156 20.3287 21.7806 19.7547 22.3831 19.4814C23.222 19.0947 24.8064 18.8032 26.0188 18.8047Z" fill="#00614D"/>
<path d="M21.4844 28.9713C21.4901 28.0757 21.7602 27.202 22.2607 26.4603C22.7612 25.7187 23.4697 25.1424 24.2965 24.8042C25.1234 24.466 26.0317 24.3812 26.9066 24.5604C27.7816 24.7395 28.584 25.1747 29.2125 25.8109C29.8409 26.4471 30.2674 27.2558 30.4379 28.1348C30.6084 29.0139 30.5153 29.9239 30.1704 30.75C29.8255 31.5761 29.2443 32.2811 28.5001 32.7761C27.7559 33.2711 26.8822 33.5339 25.9892 33.5312C24.7891 33.5248 23.6406 33.041 22.796 32.186C21.9513 31.331 21.4796 30.1748 21.4844 28.9713ZM28.2619 28.9849C28.2589 28.5369 28.1235 28.0998 27.8729 27.7289C27.6223 27.358 27.2676 27.07 26.8537 26.9013C26.4399 26.7325 25.9854 26.6906 25.5478 26.7808C25.1102 26.871 24.7091 27.0894 24.3952 27.4082C24.0813 27.727 23.8687 28.1319 23.7843 28.5719C23.6999 29.0119 23.7475 29.467 23.921 29.8799C24.0945 30.2928 24.3861 30.6448 24.7591 30.8914C25.1321 31.1381 25.5696 31.2683 26.0163 31.2656C26.3131 31.2638 26.6067 31.2034 26.8802 31.0878C27.1537 30.9722 27.4018 30.8037 27.6104 30.5919C27.8189 30.3801 27.9838 30.1291 28.0956 29.8534C28.2074 29.5777 28.2639 29.2825 28.2619 28.9849Z" fill="#00614D"/>
<path d="M20.3478 23.3379C20.3465 23.562 20.2787 23.7807 20.1529 23.9661C20.0272 24.1514 19.8493 24.295 19.6418 24.3785C19.4344 24.462 19.2069 24.4816 18.9882 24.4349C18.7696 24.3882 18.5698 24.2772 18.4144 24.1162C18.2589 23.9551 18.1548 23.7512 18.1153 23.5306C18.0759 23.31 18.1028 23.0825 18.1928 22.8773C18.2828 22.6721 18.4316 22.4984 18.6204 22.3784C18.8092 22.2584 19.0294 22.1975 19.2528 22.2035C19.5459 22.2148 19.8233 22.339 20.0273 22.5504C20.2312 22.7617 20.346 23.0438 20.3478 23.3379Z" fill="#00614D"/>
</g>
<defs>
<clipPath id="clip0_217_237">
<rect width="52" height="58" fill="white"/>
</clipPath>
</defs>
</svg>
