<svg width="75" height="51" viewBox="0 0 75 51" fill="none" xmlns="http://www.w3.org/2000/svg">
<path d="M56.4778 50.3182C56.2853 50.3163 56.0952 50.276 55.9187 50.1997C55.7422 50.1234 55.583 50.0126 55.4505 49.874C55.318 49.7353 55.215 49.5716 55.1476 49.3927C55.0801 49.2137 55.0497 49.0231 55.058 48.8322C55.0914 48.4687 55.2625 48.1313 55.5368 47.8881C55.811 47.6449 56.168 47.514 56.5357 47.5218C56.9033 47.5296 57.2543 47.6755 57.5179 47.9301C57.7814 48.1847 57.9379 48.529 57.9557 48.8936C57.9555 49.0842 57.9168 49.2728 57.842 49.4483C57.7671 49.6239 57.6576 49.7827 57.5198 49.9155C57.382 50.0483 57.2189 50.1524 57.0399 50.2216C56.8609 50.2907 56.6698 50.3236 56.4778 50.3182Z" fill="#00614D"/>
<path d="M74.185 40.3069C73.843 40.6636 73.5513 41.0893 73.1534 41.3654C69.3684 44.0193 65.2734 46.2083 60.9579 47.8845C59.992 48.2507 59.4125 48.128 58.9662 47.4799C58.35 46.5692 58.6804 45.6297 59.8047 45.2021C62.8413 44.0368 65.762 42.5932 68.5287 40.8898C69.0213 40.5907 69.5081 40.2801 70.0934 39.9139C65.376 36.8595 60.4634 34.4627 55.0119 33.1531C54.6487 33.8338 54.3183 34.4953 53.9494 35.1338C52.1953 38.242 49.6823 40.8629 46.6414 42.7555C44.8236 43.8848 43.0482 45.0851 41.2555 46.2566C41.1397 46.3446 41.0288 46.4387 40.9232 46.5385C42.8937 47.0946 44.9245 47.4126 46.9717 47.4857C47.2595 47.4991 47.5512 47.4857 47.8391 47.4991C48.9808 47.5279 49.7091 48.1184 49.684 48.9928C49.6589 49.8671 48.946 50.3963 47.8391 50.3982C44.3815 50.4014 40.9513 49.7903 37.7107 48.594C37.3656 48.4571 36.9847 48.4368 36.6269 48.5364C30.5244 50.8124 24.3291 50.9159 18.0585 49.3801C11.6835 47.8212 6.02142 44.8033 0.672262 41.1353C0.392152 40.9435 0.222157 40.5946 0 40.3185V39.4556C0.372837 39.0971 0.703188 38.6772 1.12432 38.3876C6.24552 34.8922 11.6932 32.0602 17.7494 30.5109C17.8346 30.4771 17.9167 30.4361 17.9947 30.3882C17.7842 29.4487 17.5427 28.5054 17.3669 27.5486C16.4744 22.6515 16.8202 17.8197 18.2111 13.053C18.6361 11.5939 19.5189 11.2161 20.8325 12.0061C23.1816 13.4154 25.492 14.8918 27.872 16.3759C27.9222 16.2378 28.015 16.0058 28.0884 15.7681C29.7787 10.3111 32.5103 5.37575 35.7769 0.714544C36.4685 -0.274834 37.6431 -0.226901 38.3559 0.796991C41.6399 5.52914 44.3928 10.5393 46.0831 16.0748C46.129 16.2022 46.1819 16.3271 46.2415 16.4487C47.8642 15.3731 49.456 14.2993 51.071 13.2582C51.7973 12.7903 52.5604 12.3743 53.3196 11.9563C54.554 11.2756 55.4639 11.6341 55.8541 13.0032C57.4691 18.6461 57.7396 24.3158 56.1323 30.0143C56.1072 30.1064 56.0937 30.2061 56.0627 30.3499C56.2319 30.4225 56.4047 30.4865 56.5805 30.5416C62.7429 32.1733 68.2814 35.0782 73.4837 38.6733C73.7658 38.8651 73.9551 39.1929 74.1888 39.4575L74.185 40.3069ZM37.1485 4.00289C37.0553 4.09611 36.967 4.19403 36.8839 4.29625C34.2585 8.3132 32.0833 12.5411 30.733 17.1582C28.7297 24.0052 28.9268 30.7372 31.9442 37.2909C33.1459 39.9125 34.8688 42.2662 37.0094 44.2108C37.0847 44.1715 37.1564 44.126 37.2239 44.0746C37.4499 43.858 37.6778 43.6432 37.8923 43.417C42.3354 38.7577 44.3561 33.1205 44.6149 26.8008C44.8487 21.0582 43.28 15.7105 40.7513 10.616C39.6618 8.38031 38.381 6.24049 37.1485 4.00289ZM33.3158 46.4599C27.3272 43.3173 21.9414 39.5572 19.1267 33.1646C13.6404 34.4857 8.78004 36.8882 4.08769 39.912C10.5689 43.9749 17.2935 47.0063 24.9511 47.4704C27.7788 47.6684 30.6185 47.3254 33.3158 46.4599ZM53.3621 15.1276C51.4013 16.512 49.5526 17.8408 47.6768 19.1293C47.1224 19.5127 47.0123 19.9346 47.1205 20.5731C48.011 25.8172 47.7 30.9807 45.801 35.9755C45.0689 37.9064 44.0875 39.7432 43.2897 41.4804C51.4689 37.3101 56.1709 26.7759 53.3621 15.1276ZM30.8451 41.536C30.0414 39.8525 29.1064 38.1671 28.4168 36.3935C26.3671 31.1782 26.0329 25.7846 26.9873 20.2874C27.0723 19.8004 26.9506 19.5319 26.5777 19.2731C24.899 18.1092 23.228 16.9338 21.555 15.7681C21.2904 15.5763 20.9987 15.4363 20.6954 15.258C18.016 26.1201 22.0785 36.8901 30.8451 41.536Z" fill="#00614D"/>
</svg>
