<svg width="44" height="44" viewBox="0 0 44 44" fill="none" xmlns="http://www.w3.org/2000/svg">
<path d="M23.2895 0C24.1535 0.114583 25.022 0.199374 25.8791 0.349478C28.9195 0.884644 31.8104 2.06328 34.3583 3.80646C34.8372 4.13073 34.9633 4.65438 34.6803 5.06688C34.3972 5.47938 33.8851 5.55958 33.3901 5.22614C31.1587 3.71089 28.6478 2.65529 26.004 2.12094C15.208 -0.0710405 4.59641 6.80854 2.25318 17.5897C0.98474 23.4254 2.06526 28.8452 5.49359 33.762C5.81099 34.2203 5.8889 34.6328 5.73536 35.1622C5.36755 36.4226 5.04786 37.7002 4.70411 38.9721C4.67203 39.0867 4.65255 39.2127 4.6136 39.4041C5.40307 39.1978 6.13068 39.0099 6.85713 38.8163C7.51943 38.6398 8.18859 38.4794 8.84057 38.2674C9.36765 38.0955 9.79391 38.1838 10.2408 38.5103C12.083 39.8543 14.1527 40.8546 16.3504 41.4631C27.8259 44.6875 39.5134 37.6773 41.8623 26.0104C42.9555 20.5757 41.9311 15.5215 38.9359 10.8625C38.882 10.7777 38.8213 10.6952 38.7709 10.6104C38.4546 10.1051 38.5199 9.60667 38.9393 9.32135C39.3587 9.03604 39.8823 9.15406 40.1906 9.65365C40.7085 10.4924 41.2367 11.33 41.6802 12.2077C42.9674 14.7414 43.7323 17.508 43.9294 20.3431C43.945 20.4685 43.968 20.5928 43.9982 20.7155V23.2936C43.973 23.4185 43.9432 23.5423 43.9237 23.6672C43.7472 24.813 43.6475 25.9703 43.3829 27.0932C42.3935 31.2732 40.1989 35.0708 37.0713 38.0151C33.9437 40.9594 30.0206 42.9209 25.7886 43.6562C24.9865 43.7938 24.1844 43.8854 23.3755 44H20.7114C20.6164 43.972 20.5195 43.9505 20.4215 43.9358C16.5197 43.6623 12.7618 42.3518 9.53609 40.1397C9.36371 40.0375 9.15932 40.0036 8.96318 40.0446C7.27422 40.4766 5.59213 40.9349 3.90661 41.3806C3.70423 41.4485 3.49215 41.4829 3.2787 41.4826C2.72984 41.4379 2.4136 40.928 2.56599 40.3482C3.01745 38.6348 3.47578 36.9237 3.94099 35.2149C3.99123 35.0702 4.00528 34.9154 3.98191 34.764C3.95854 34.6126 3.89847 34.4692 3.80693 34.3464C2.02523 31.7576 0.838066 28.807 0.330469 25.7056C0.202136 24.9322 0.111615 24.1519 0.00390625 23.375V20.7109C0.0356541 20.5737 0.0601342 20.4348 0.0772413 20.295C0.262866 17.7742 0.840366 15.3439 1.91057 13.0614C5.20255 6.06604 10.6567 1.80698 18.2524 0.335728C19.0637 0.178749 19.891 0.106563 20.7114 0H23.2895Z" fill="#00614D"/>
<path d="M30.4576 16.9137C30.3315 19.7966 28.9153 22.3483 26.0335 24.0018C25.1237 24.5243 24.5989 25.1591 24.5267 26.2511C24.4248 27.8037 23.1518 28.8235 21.6289 28.7203C20.1852 28.6218 19.1081 27.4209 19.1597 25.8958C19.2536 23.0611 20.5622 20.9275 23.0108 19.5239C23.892 19.0186 24.6081 18.4193 24.9106 17.4224C25.3941 15.8286 24.4866 14.0995 22.8481 13.483C21.3471 12.9181 19.5836 13.6893 18.9156 15.2018C18.8583 15.3324 18.8102 15.4676 18.7552 15.5994C18.1582 17.0214 16.6514 17.6882 15.2581 17.1474C13.8648 16.6066 13.2082 15.1342 13.6986 13.6927C15.8093 7.50523 23.7189 5.88044 28.159 10.7376C29.6509 12.3647 30.4473 14.2771 30.4576 16.9137ZM28.7388 16.9217C28.7285 11.3747 23.1391 8.00023 18.6383 10.4008C17.0911 11.1981 15.9117 12.5622 15.3463 14.2084C15.1309 14.8145 15.3601 15.3542 15.8952 15.5513C16.4303 15.7484 16.9448 15.4871 17.1934 14.889C17.2209 14.8237 17.245 14.7561 17.2713 14.6896C18.2132 12.3258 20.8234 11.0493 23.2056 11.7826C25.6737 12.54 27.192 15.0792 26.6431 17.5611C26.2879 19.1652 25.2819 20.2343 23.8633 21.0192C21.9486 22.0791 20.9449 23.7463 20.8773 25.9463C20.8578 26.5673 21.2497 26.989 21.8111 27.0062C22.3726 27.0233 22.8137 26.6464 22.8366 26.0253C22.8985 24.3822 23.7464 23.3097 25.1489 22.5294C27.499 21.2231 28.638 19.1549 28.7342 16.9217H28.7388Z" fill="#00614D"/>
<path d="M21.8483 36.1134C21.132 36.1126 20.4453 35.8273 19.9394 35.3203C19.4334 34.8133 19.1496 34.1261 19.1504 33.4098C19.1512 32.6935 19.4364 32.0069 19.9434 31.5009C20.4505 30.995 21.1377 30.7112 21.854 30.7119C22.5703 30.7127 23.2569 30.9979 23.7629 31.505C24.2688 32.012 24.5526 32.6992 24.5519 33.4155C24.5511 34.1318 24.2658 34.8184 23.7588 35.3244C23.2518 35.8303 22.5645 36.1141 21.8483 36.1134ZM21.87 34.3946C21.999 34.3934 22.1264 34.3667 22.245 34.3161C22.3636 34.2654 22.4709 34.1918 22.5609 34.0995C22.6509 34.0071 22.7218 33.8979 22.7694 33.778C22.817 33.6582 22.8404 33.5301 22.8383 33.4012C22.8296 33.1412 22.7197 32.8949 22.5319 32.7149C22.3442 32.5348 22.0935 32.4353 21.8334 32.4375C21.7046 32.4399 21.5775 32.4678 21.4595 32.5195C21.3415 32.5712 21.2349 32.6457 21.1459 32.7388C21.0568 32.8319 20.9871 32.9417 20.9407 33.0619C20.8943 33.182 20.8721 33.3102 20.8754 33.439C20.8761 33.5675 20.9026 33.6946 20.9534 33.8126C21.0041 33.9307 21.0781 34.0374 21.1709 34.1263C21.2636 34.2152 21.3733 34.2846 21.4934 34.3303C21.6135 34.376 21.7416 34.3971 21.87 34.3923V34.3946Z" fill="#00614D"/>
<path d="M37.8 7.05974C37.7964 7.28401 37.7057 7.49809 37.5469 7.65659C37.3882 7.81509 37.174 7.90555 36.9497 7.9088C36.835 7.9109 36.7211 7.8896 36.6149 7.84622C36.5087 7.80283 36.4125 7.73826 36.3321 7.65645C36.2517 7.57464 36.1888 7.4773 36.1472 7.37037C36.1056 7.26345 36.0863 7.14918 36.0904 7.03453C36.0981 6.81069 36.1923 6.59856 36.3532 6.44277C36.5141 6.28699 36.7292 6.19968 36.9532 6.19922C37.1773 6.20791 37.3898 6.30178 37.5471 6.46168C37.7044 6.62157 37.7949 6.83546 37.8 7.05974Z" fill="#00614D"/>
</svg>
