<svg width="20" height="18" viewBox="0 0 20 18" fill="none" xmlns="http://www.w3.org/2000/svg">
<path fill-rule="evenodd" clip-rule="evenodd" d="M1.12054e-06 9C1.09074e-06 8.65907 0.131681 8.3321 0.366075 8.09103C0.600471 7.84995 0.918378 7.71452 1.24986 7.71452L15.7307 7.71452L10.3638 2.19723C10.2476 2.07771 10.1555 1.93582 10.0926 1.77966C10.0297 1.6235 9.9973 1.45613 9.9973 1.2871C9.9973 1.11808 10.0297 0.950709 10.0926 0.794551C10.1555 0.638392 10.2476 0.496503 10.3638 0.376983C10.48 0.257464 10.618 0.162658 10.7698 0.0979737C10.9217 0.0332897 11.0844 -1.12792e-06 11.2487 -1.14229e-06C11.4131 -1.15666e-06 11.5758 0.0332897 11.7276 0.0979736C11.8795 0.162657 12.0174 0.257464 12.1336 0.376982L19.6328 8.08988C19.7492 8.20929 19.8415 8.35114 19.9046 8.50732C19.9676 8.66349 20 8.83091 20 9C20 9.16908 19.9676 9.33651 19.9046 9.49268C19.8415 9.64886 19.7492 9.79071 19.6328 9.91012L12.1336 17.623C11.899 17.8644 11.5806 18 11.2487 18C10.9168 18 10.5985 17.8644 10.3638 17.623C10.1292 17.3816 9.99731 17.0543 9.99731 16.7129C9.99731 16.3715 10.1292 16.0442 10.3638 15.8028L15.7307 10.2855L1.24986 10.2855C0.918378 10.2855 0.600471 10.15 0.366075 9.90897C0.131681 9.6679 1.15035e-06 9.34093 1.12054e-06 9Z" fill="white"/>
</svg>
