<svg width="11" height="19" viewBox="0 0 11 19" fill="none" xmlns="http://www.w3.org/2000/svg">
<path opacity="0.7" d="M0.420639 18.5818C0.151304 18.3139 -4.58682e-08 17.9507 -6.24245e-08 17.5719C-7.89807e-08 17.1931 0.151304 16.8299 0.420639 16.562L7.53218 9.49138L0.420638 2.42074C0.158936 2.15134 0.0141271 1.79052 0.0174004 1.416C0.0206738 1.04147 0.171768 0.683208 0.438139 0.418371C0.70451 0.153532 1.06485 0.0033073 1.44154 5.33428e-05C1.81823 -0.00320061 2.18113 0.140774 2.45209 0.40097L10.5794 8.48149C10.8487 8.74936 11 9.11261 11 9.49138C11 9.87014 10.8487 10.2334 10.5794 10.5013L2.4521 18.5818C2.18268 18.8496 1.81732 19 1.43637 19C1.05541 19 0.690055 18.8496 0.420639 18.5818Z" fill="white"/>
</svg>
