<svg width="11" height="10" viewBox="0 0 11 10" fill="none" xmlns="http://www.w3.org/2000/svg">
<path fill-rule="evenodd" clip-rule="evenodd" d="M5.1656e-07 5C5.00002e-07 4.81059 0.0724244 4.62894 0.201341 4.49501C0.330258 4.36108 0.505107 4.28584 0.687423 4.28584L8.65191 4.28584L5.70011 1.22068C5.6362 1.15428 5.5855 1.07545 5.55091 0.988699C5.51632 0.901945 5.49852 0.80896 5.49852 0.715058C5.49852 0.621155 5.51632 0.528171 5.55091 0.441416C5.5855 0.354661 5.6362 0.275835 5.70011 0.209435C5.76403 0.143035 5.8399 0.090364 5.92341 0.0544295C6.00692 0.0184941 6.09642 -5.2499e-07 6.18681 -5.32892e-07C6.2772 -5.40794e-07 6.3667 0.0184941 6.45021 0.0544295C6.53371 0.0903639 6.60959 0.143035 6.6735 0.209435L10.798 4.49438C10.8621 4.56071 10.9129 4.63952 10.9475 4.72629C10.9822 4.81305 11 4.90606 11 5C11 5.09394 10.9822 5.18695 10.9475 5.27371C10.9129 5.36048 10.8621 5.43928 10.798 5.50562L6.6735 9.79056C6.54443 9.92466 6.36936 10 6.18681 10C6.00426 10 5.82919 9.92466 5.70011 9.79056C5.57103 9.65646 5.49852 9.47459 5.49852 9.28494C5.49852 9.0953 5.57103 8.91342 5.70011 8.77932L8.65191 5.71416L0.687423 5.71416C0.505108 5.71416 0.330258 5.63892 0.201341 5.50499C0.0724245 5.37105 5.33119e-07 5.18941 5.1656e-07 5Z" fill="#00614D"/>
</svg>
