<svg width="20" height="20" viewBox="0 0 20 20" fill="none" xmlns="http://www.w3.org/2000/svg">
<circle cx="10" cy="10" r="10" fill="#00614D"/>
<path d="M7.81149 15.3987C7.65808 15.3354 7.48991 15.2936 7.35469 15.2039C7.07608 15.0181 6.95061 14.7353 6.94982 14.4047C6.94719 12.9919 6.94455 11.5792 6.94982 10.1662C6.95272 9.46917 7.58428 8.99607 8.26618 9.17506C8.67342 9.28177 9.0833 9.37402 9.50319 9.40767C9.5654 9.41266 9.62787 9.41555 9.69693 9.42002V8.97557C9.49028 8.87937 9.27677 8.81025 9.09701 8.69092C8.56614 8.33793 8.30809 7.83224 8.33998 7.19277C8.35342 6.91916 8.47019 6.67209 8.59593 6.43344C8.91592 5.82682 9.33212 5.28617 9.77469 4.76524C9.90464 4.61227 10.1287 4.60464 10.2573 4.75656C10.7695 5.36108 11.2529 5.98452 11.5784 6.71572C11.9762 7.60936 11.4055 8.66069 10.4642 8.91249C10.4242 8.92326 10.3852 8.93351 10.3403 8.94482V9.42659C10.532 9.4053 10.7204 9.39531 10.9042 9.36141C11.193 9.30884 11.4802 9.24646 11.7656 9.17427C12.4709 8.99738 13.093 9.47075 13.094 10.197C13.0964 11.5818 13.0901 12.9667 13.0972 14.3516C13.0998 14.8954 12.7461 15.3172 12.2485 15.3861C12.2427 15.3861 12.2374 15.394 12.2318 15.3979L7.81149 15.3987ZM12.4638 12.303V10.8551C12.4638 10.6312 12.4667 10.4083 12.4638 10.1836C12.4591 9.89128 12.2297 9.71545 11.9437 9.78037C11.9097 9.78799 11.876 9.79824 11.8423 9.80665C11.2172 9.9826 10.5699 10.0672 9.92045 10.0579C9.32055 10.0451 8.72471 9.95626 8.1473 9.79351C7.80464 9.69968 7.58111 9.87735 7.58111 10.2301C7.58111 11.608 7.58111 12.9861 7.58111 14.3644C7.58111 14.6367 7.71291 14.7679 7.98915 14.7679H12.0518C12.3341 14.7679 12.4646 14.6386 12.4646 14.3587C12.4644 13.6748 12.4642 12.9896 12.4638 12.303ZM9.70484 8.29299C9.70484 8.13687 9.70299 8.00046 9.70484 7.86457C9.70285 7.80093 9.72129 7.73831 9.75746 7.68584C9.79363 7.63337 9.84565 7.59378 9.90595 7.57282C10.1147 7.49003 10.3277 7.63958 10.3343 7.87561C10.3388 8.00992 10.3343 8.14475 10.3343 8.28642C10.352 8.28346 10.3696 8.2796 10.387 8.27485C10.8752 8.1048 11.2547 7.49003 10.974 6.90654C10.7249 6.38823 10.3883 5.9309 10.0388 5.47988C10.0338 5.47331 10.0211 5.47252 10.0101 5.46805C9.69377 5.87098 9.38695 6.27916 9.14946 6.73386C9.00739 7.00563 8.90248 7.28292 9.0087 7.59595C9.126 7.93501 9.3482 8.16551 9.70484 8.29299Z" fill="white"/>
</svg>
