<svg width="16" height="12" viewBox="0 0 16 12" fill="none" xmlns="http://www.w3.org/2000/svg">
<path d="M2.5 11.5C2.5 11.3674 2.55268 11.2402 2.64645 11.1464C2.74021 11.0527 2.86739 11 3 11H13C13.1326 11 13.2598 11.0527 13.3536 11.1464C13.4473 11.2402 13.5 11.3674 13.5 11.5C13.5 11.6326 13.4473 11.7598 13.3536 11.8536C13.2598 11.9473 13.1326 12 13 12H3C2.86739 12 2.74021 11.9473 2.64645 11.8536C2.55268 11.7598 2.5 11.6326 2.5 11.5ZM13.991 1L14.015 1.001C14.2018 1.01372 14.3845 1.06227 14.553 1.144C14.6744 1.20048 14.7786 1.28812 14.855 1.398C14.922 1.498 15 1.675 15 2V7.991L14.999 8.015C14.9862 8.20183 14.9376 8.38446 14.856 8.553C14.7995 8.67433 14.7118 8.77852 14.602 8.855C14.502 8.922 14.325 9 14 9H2.009L1.985 8.999C1.79817 8.98618 1.61554 8.93764 1.447 8.856C1.32567 8.79948 1.22148 8.71185 1.145 8.602C1.078 8.502 1 8.325 1 8V2.009L1.001 1.985C1.01372 1.79815 1.06227 1.6155 1.144 1.447C1.20052 1.32567 1.28816 1.22148 1.398 1.145C1.498 1.078 1.675 1 2 1H13.991ZM14 0H2C0 0 0 2 0 2V8C0 10 2 10 2 10H14C16 10 16 8 16 8V2C16 0 14 0 14 0Z" fill="#373737" fill-opacity="0.8"/>
</svg>
