<svg width="15" height="15" viewBox="0 0 15 15" fill="none" xmlns="http://www.w3.org/2000/svg">
<path d="M6.89213 8.93371L4.48003 6.92393L4.28798 6.76391L4.12794 6.95595L3.48794 7.72395L3.32791 7.916L3.51994 8.07605L6.91194 10.903L7.322 11.2448V10.7977L11.5852 5.46816L11.7414 5.27295L11.5462 5.11678L10.7662 4.49278L10.571 4.33663L10.4148 4.5318L6.89213 8.93371ZM0.25 7.5C0.25 5.57718 1.01384 3.73311 2.37348 2.37348C3.73311 1.01384 5.57718 0.25 7.5 0.25C9.42282 0.25 11.2669 1.01384 12.6265 2.37348C13.9862 3.73311 14.75 5.57718 14.75 7.5C14.75 9.42282 13.9862 11.2669 12.6265 12.6265C11.2669 13.9862 9.42282 14.75 7.5 14.75C5.57718 14.75 3.73311 13.9862 2.37348 12.6265C1.01384 11.2669 0.25 9.42282 0.25 7.5Z" stroke="#373737" stroke-opacity="0.8" stroke-width="0.5"/>
</svg>
