<svg width="39" height="39" viewBox="0 0 39 39" fill="none" xmlns="http://www.w3.org/2000/svg">
<path fill-rule="evenodd" clip-rule="evenodd" d="M2.4375 34.125C2.4375 34.7715 2.69431 35.3915 3.15142 35.8486C3.60854 36.3057 4.22853 36.5625 4.875 36.5625L34.125 36.5625C34.7715 36.5625 35.3915 36.3057 35.8486 35.8486C36.3057 35.3915 36.5625 34.7715 36.5625 34.125L36.5625 4.875C36.5625 4.22854 36.3057 3.60855 35.8486 3.15143C35.3915 2.69431 34.7715 2.4375 34.125 2.4375L4.875 2.4375C4.22853 2.4375 3.60855 2.69431 3.15143 3.15143C2.69431 3.60855 2.4375 4.22854 2.4375 4.875L2.4375 34.125ZM39 34.125C39 35.4179 38.4864 36.6579 37.5721 37.5721C36.6579 38.4864 35.4179 39 34.125 39L4.875 39C3.58207 39 2.34209 38.4864 1.42785 37.5721C0.513611 36.6579 -3.50154e-06 35.4179 -3.38851e-06 34.125L-8.31395e-07 4.875C-7.18364e-07 3.58207 0.513614 2.34209 1.42786 1.42786C2.34209 0.513615 3.58207 7.18363e-07 4.875 8.31395e-07L34.125 3.38851e-06C35.4179 3.50154e-06 36.6579 0.513618 37.5721 1.42786C38.4864 2.3421 39 3.58207 39 4.875L39 34.125ZM10.9687 20.7187C10.6455 20.7187 10.3355 20.5903 10.107 20.3618C9.8784 20.1332 9.75 19.8232 9.75 19.5C9.75 19.1768 9.8784 18.8668 10.107 18.6382C10.3355 18.4097 10.6455 18.2812 10.9687 18.2812L25.0892 18.2813L19.8559 13.0504C19.7426 12.9371 19.6527 12.8025 19.5913 12.6545C19.53 12.5064 19.4985 12.3478 19.4985 12.1875C19.4985 12.0273 19.53 11.8686 19.5913 11.7205C19.6527 11.5725 19.7426 11.4379 19.8559 11.3246C19.9692 11.2113 20.1037 11.1214 20.2518 11.0601C20.3998 10.9988 20.5585 10.9672 20.7188 10.9672C20.879 10.9672 21.0377 10.9988 21.1857 11.0601C21.3338 11.1214 21.4683 11.2113 21.5816 11.3246L28.8941 18.6371C29.0076 18.7503 29.0977 18.8848 29.1591 19.0329C29.2206 19.181 29.2522 19.3397 29.2522 19.5C29.2522 19.6603 29.2206 19.819 29.1591 19.9671C29.0977 20.1152 29.0076 20.2497 28.8941 20.3629L21.5816 27.6754C21.3528 27.9042 21.0424 28.0328 20.7187 28.0328C20.3951 28.0328 20.0847 27.9042 19.8559 27.6754C19.627 27.4465 19.4985 27.1361 19.4985 26.8125C19.4985 26.4889 19.627 26.1785 19.8559 25.9496L25.0892 20.7188L10.9687 20.7187Z" fill="#373737" fill-opacity="0.8"/>
</svg>
