<svg width="30" height="30" viewBox="0 0 30 30" fill="none" xmlns="http://www.w3.org/2000/svg">
<circle cx="15" cy="15" r="14.5" stroke="#00614D"/>
<path d="M14.9981 11.4083C13.0106 11.4083 11.4065 13.0124 11.4065 15C11.4065 16.9876 13.0106 18.5917 14.9981 18.5917C16.9857 18.5917 18.5897 16.9876 18.5897 15C18.5897 13.0124 16.9857 11.4083 14.9981 11.4083ZM14.9981 17.3343C13.7128 17.3343 12.6638 16.2854 12.6638 15C12.6638 13.7146 13.7128 12.6657 14.9981 12.6657C16.2835 12.6657 17.3324 13.7146 17.3324 15C17.3324 16.2854 16.2835 17.3343 14.9981 17.3343ZM18.7368 10.4242C18.2728 10.4242 17.898 10.7989 17.898 11.263C17.898 11.727 18.2728 12.1018 18.7368 12.1018C19.2009 12.1018 19.5756 11.7288 19.5756 11.263C19.5758 11.1528 19.5542 11.0436 19.5121 10.9418C19.47 10.84 19.4082 10.7475 19.3303 10.6695C19.2523 10.5916 19.1598 10.5298 19.058 10.4877C18.9562 10.4456 18.847 10.424 18.7368 10.4242ZM21.9992 15C21.9992 14.0333 22.008 13.0754 21.9537 12.1105C21.8994 10.9898 21.6437 9.99512 20.8242 9.17556C20.0029 8.35426 19.01 8.10034 17.8893 8.04605C16.9226 7.99176 15.9648 8.00052 14.9999 8.00052C14.0332 8.00052 13.0754 7.99176 12.1105 8.04605C10.9897 8.10034 9.99508 8.35601 9.17554 9.17556C8.35425 9.99687 8.10034 10.9898 8.04605 12.1105C7.99177 13.0772 8.00052 14.0351 8.00052 15C8.00052 15.9649 7.99177 16.9246 8.04605 17.8895C8.10034 19.0102 8.356 20.0049 9.17554 20.8244C9.99683 21.6457 10.9897 21.8997 12.1105 21.9539C13.0771 22.0082 14.035 21.9995 14.9999 21.9995C15.9665 21.9995 16.9244 22.0082 17.8893 21.9539C19.01 21.8997 20.0047 21.644 20.8242 20.8244C21.6455 20.0031 21.8994 19.0102 21.9537 17.8895C22.0097 16.9246 21.9992 15.9667 21.9992 15ZM20.4582 19.1293C20.3304 19.448 20.1763 19.6862 19.9294 19.9313C19.6824 20.1782 19.446 20.3324 19.1273 20.4602C18.2062 20.8262 16.019 20.7439 14.9981 20.7439C13.9772 20.7439 11.7883 20.8262 10.8672 20.4619C10.5484 20.3341 10.3103 20.18 10.0651 19.9331C9.81822 19.6862 9.66411 19.4498 9.53628 19.131C9.17204 18.2082 9.25434 16.0209 9.25434 15C9.25434 13.9791 9.17204 11.7901 9.53628 10.869C9.66411 10.5502 9.81822 10.3121 10.0651 10.0669C10.312 9.82175 10.5484 9.6659 10.8672 9.53806C11.7883 9.17381 13.9772 9.25612 14.9981 9.25612C16.019 9.25612 18.208 9.17381 19.1291 9.53806C19.4478 9.6659 19.6859 9.82 19.9311 10.0669C20.178 10.3138 20.3321 10.5502 20.46 10.869C20.8242 11.7901 20.7419 13.9791 20.7419 15C20.7419 16.0209 20.8242 18.2082 20.4582 19.1293Z" fill="#00614D"/>
</svg>
