<svg width="15" height="13" viewBox="0 0 15 13" fill="none" xmlns="http://www.w3.org/2000/svg">
<path d="M0 3.9494V10.4C0 11.0896 0.263392 11.7509 0.732233 12.2385C1.20107 12.7261 1.83696 13 2.5 13H12.5C13.163 13 13.7989 12.7261 14.2678 12.2385C14.7366 11.7509 15 11.0896 15 10.4V2.6C15 1.91044 14.7366 1.24912 14.2678 0.761522C13.7989 0.273928 13.163 0 12.5 0H2.5C1.83696 0 1.20107 0.273928 0.732233 0.761522C0.263392 1.24912 0 1.91044 0 2.6V3.9494ZM2.5 1.3H12.5C12.8315 1.3 13.1495 1.43696 13.3839 1.68076C13.6183 1.92456 13.75 2.25522 13.75 2.6V3.562L7.5 7.0616L1.25 3.562V2.6C1.25 2.25522 1.3817 1.92456 1.61612 1.68076C1.85054 1.43696 2.16848 1.3 2.5 1.3ZM1.25 5.0388L7.20375 8.372C7.2948 8.42297 7.39659 8.44966 7.5 8.44966C7.60341 8.44966 7.7052 8.42297 7.79625 8.372L13.75 5.0388V10.4C13.75 10.7448 13.6183 11.0754 13.3839 11.3192C13.1495 11.563 12.8315 11.7 12.5 11.7H2.5C2.16848 11.7 1.85054 11.563 1.61612 11.3192C1.3817 11.0754 1.25 10.7448 1.25 10.4V5.0388Z" fill="#373737" fill-opacity="0.8"/>
</svg>
