<svg width="10" height="9" viewBox="0 0 10 9" fill="none" xmlns="http://www.w3.org/2000/svg">
<path d="M0.625001 5.1424L8.0375 5.1424L5.76875 7.945C5.66266 8.07627 5.61163 8.24551 5.62686 8.41548C5.6421 8.58546 5.72236 8.74224 5.85 8.85135C5.97764 8.96046 6.14219 9.01295 6.30745 8.99728C6.47272 8.98161 6.62516 8.89906 6.73125 8.76779L9.85625 4.91099C9.87727 4.88031 9.89608 4.84809 9.9125 4.81457C9.9125 4.78243 9.9125 4.76315 9.95625 4.73101C9.98458 4.6573 9.99941 4.57885 10 4.4996C9.99941 4.42035 9.98458 4.34189 9.95625 4.26819C9.95625 4.23605 9.95625 4.21677 9.9125 4.18463C9.89608 4.15111 9.87727 4.11888 9.85625 4.08821L6.73125 0.231409C6.67249 0.158848 6.5989 0.100495 6.51572 0.0604985C6.43254 0.0205034 6.34182 -0.000152268 6.25 1.28151e-06C6.10397 -0.000292437 5.96244 0.0520147 5.85 0.147845C5.78671 0.201806 5.7344 0.268081 5.69605 0.342868C5.65771 0.417656 5.63409 0.499489 5.62654 0.583681C5.61899 0.667873 5.62767 0.752769 5.65207 0.833507C5.67647 0.914244 5.71612 0.989238 5.76875 1.05419L8.0375 3.8568L0.625001 3.8568C0.45924 3.8568 0.300269 3.92452 0.183058 4.04507C0.0658479 4.16562 5.45333e-07 4.32912 5.60237e-07 4.4996C5.75141e-07 4.67008 0.065848 4.83358 0.183058 4.95413C0.300269 5.07467 0.459241 5.1424 0.625001 5.1424Z" fill="#00614D"/>
</svg>
