<svg width="38" height="35" viewBox="0 0 38 35" fill="none" xmlns="http://www.w3.org/2000/svg">
<path d="M37.0041 31.122C36.7291 31.5914 36.2624 31.5285 35.7679 31.5346C35.7679 32.0886 35.7679 32.626 35.7679 33.1635C35.7679 33.7989 35.5618 34.0021 34.919 34.0042C34.2442 34.0042 33.5694 33.9928 32.8946 34.0042C32.4825 34.0135 32.2137 33.8639 32.0385 33.4884C31.7717 32.9087 31.4812 32.3393 31.1824 31.776C31.1258 31.6729 30.9826 31.5419 30.8734 31.5408C29.669 31.5264 28.4637 31.5336 27.2594 31.5408C27.2114 31.5513 27.165 31.5679 27.1213 31.5903C27.1213 32.1206 27.1213 32.6611 27.1213 33.2016C27.1213 33.7979 26.9153 34.0062 26.3136 34.0062C18.6262 34.0062 10.9391 34.0062 3.25237 34.0062C2.8578 34.0062 2.59613 33.866 2.4282 33.4977C2.16035 32.918 1.85232 32.363 1.58034 31.7801C1.55199 31.6962 1.49541 31.6247 1.42025 31.5778C1.34509 31.531 1.25602 31.5117 1.16826 31.5233C0.786047 31.5377 0.402812 31.5233 0 31.5233V30.2999H3.95292L3.99103 30.2153L3.70876 29.9822C2.61005 29.0818 1.82037 27.8597 1.45048 26.4871C1.0806 25.1146 1.14906 23.6606 1.64627 22.3291C1.80493 21.901 2.05218 21.6606 2.51165 21.6606H4.37633C4.52864 20.6696 4.89614 19.7241 5.45291 18.8907C6.00968 18.0573 6.74219 17.3563 7.59883 16.8371C7.87596 16.6679 8.14175 16.6462 8.40548 16.8371C8.87938 17.1847 9.34709 17.5396 9.85808 17.9223V17.5365C9.85808 15.4857 9.85808 13.435 9.85808 11.3843C9.85808 10.722 10.0023 10.5786 10.6637 10.4775C12.9837 10.1247 15.3028 9.76405 17.6207 9.39544C17.7134 9.38099 17.8649 9.24586 17.8587 9.17778C17.8412 8.96425 18.0215 8.68367 17.6949 8.54853C15.6829 7.71194 14.9834 6.20587 15.6345 4.10047C16.097 2.61916 16.9531 1.37511 17.9978 0.252776C18.2986 -0.0711315 18.6592 -0.0866025 18.9487 0.222864C20.154 1.51953 21.1327 2.95235 21.4923 4.72766C21.8518 6.50296 21.0276 7.94198 19.3288 8.53822C19.0785 8.6259 19.0692 8.65581 19.1557 9.16334C19.9593 9.04368 20.7639 8.92608 21.5675 8.80229C23.1375 8.5616 24.7075 8.3209 26.2776 8.08021C26.8473 7.99252 27.1213 8.21947 27.1244 8.80229C27.1306 10.0567 27.1244 11.311 27.1244 12.5654V12.9904H27.5705C29.1969 12.9904 30.8236 12.9904 32.4506 12.9904C34.8304 12.9904 36.4602 14.3201 36.9526 16.6534C36.9664 16.6995 36.9847 16.744 37.0072 16.7865V17.8727C36.9788 17.9365 36.9554 18.0024 36.9372 18.0698C36.7395 19.1859 36.1102 20.1789 35.1858 20.8333C35.1044 20.8931 35.0261 20.9561 34.9324 21.0283C35.6659 21.5079 36.2469 22.0949 36.5807 22.8851C36.7579 23.2977 36.8671 23.7443 37.0072 24.1745V25.2607C36.9258 25.5578 36.8846 25.8797 36.7538 26.1499C36.4828 26.7132 36.1624 27.2527 35.8596 27.8087C36.2562 27.8159 36.7414 27.7323 37.0072 28.2285L37.0041 31.122ZM18.4799 31.5243C18.3099 31.5243 18.1781 31.5243 18.0472 31.5243C17.4672 31.514 17.2653 31.3118 17.2632 30.7352C17.2632 30.0124 17.2632 29.2886 17.2632 28.5638C17.2632 28.0377 17.4816 27.8231 18.0132 27.8107C18.1626 27.8107 18.313 27.8107 18.5283 27.8107C17.3426 26.4573 16.9367 24.9791 17.4981 23.3307C18.0596 21.6823 19.301 20.7518 21.0008 20.4207C20.9939 20.3968 20.9846 20.3736 20.973 20.3516C20.903 20.2701 20.8278 20.1906 20.7598 20.1071C19.8604 19.0002 19.5235 17.7469 19.8449 16.3512C20.3065 14.351 21.9775 13.0275 24.0492 12.9935C24.6488 12.9832 25.2494 12.9935 25.8717 12.9935V9.39028L11.0964 11.6659V12.1218C11.0964 14.4016 11.1417 16.6823 11.0748 18.961C11.0459 19.9658 11.5641 20.7962 11.6403 21.6524H13.4267C13.9192 21.6524 14.2056 21.8814 14.3797 22.3621C14.8655 23.6861 14.9286 25.1286 14.5603 26.4902C14.1919 27.8517 13.4103 29.0651 12.3234 29.9626L12.0143 30.2204L12.0483 30.2999H16.0146V31.5295C15.6025 31.5295 15.208 31.5212 14.8134 31.5357C14.7104 31.5357 14.5538 31.579 14.5105 31.6533C14.3137 31.9927 14.1489 32.3506 13.9521 32.7446H18.4851L18.4799 31.5243ZM27.7405 24.1044H27.3181C26.053 24.1044 24.7889 24.1044 23.5238 24.1044C23.0891 24.1044 22.8274 24.3447 22.8233 24.7161C22.8192 25.0874 23.0705 25.335 23.5074 25.335C25.543 25.335 27.5787 25.3443 29.6144 25.335C30.0958 25.3236 30.5537 25.1241 30.8901 24.7792C31.2266 24.4342 31.4149 23.9712 31.4149 23.489C31.4149 23.0069 31.2266 22.5438 30.8901 22.1989C30.5537 21.854 30.0958 21.6545 29.6144 21.6431C26.9039 21.6328 24.1935 21.6235 21.484 21.6431C19.8357 21.6575 18.4964 23.048 18.4964 24.7027C18.4964 26.3573 19.7852 27.7767 21.4469 27.7901C25.2288 27.82 29.0118 27.8128 32.7937 27.7901C34.0866 27.7839 35.1889 26.9288 35.603 25.7156C35.8084 25.1184 35.8246 24.4723 35.6497 23.8655C35.4747 23.2587 35.117 22.7207 34.6254 22.3249C33.8888 21.7256 33.0409 21.5513 32.0911 21.6596C32.805 22.7737 32.908 23.8939 32.2672 25.0132C31.6264 26.1324 30.6117 26.5883 29.3363 26.5729C27.4335 26.5512 25.5245 26.5729 23.6268 26.5646C23.4105 26.5719 23.194 26.5535 22.9819 26.5099C22.0547 26.2789 21.4933 25.4361 21.6025 24.4602C21.6592 24.0249 21.8707 23.6245 22.1982 23.3326C22.5257 23.0406 22.9473 22.8766 23.3858 22.8706C24.7827 22.8531 26.1797 22.8706 27.5777 22.8706C27.6336 22.8769 27.6886 22.8897 27.7415 22.9088L27.7405 24.1044ZM33.3984 14.3459C34.7789 16.5616 33.2037 19.2746 30.5334 19.1828C28.6192 19.1168 26.702 19.1735 24.7858 19.1694C23.6382 19.1694 22.8192 18.3834 22.8223 17.3054C22.8253 16.2274 23.6289 15.4734 24.7652 15.4672C25.85 15.461 26.9349 15.4672 28.0186 15.4672H28.9541V16.705H28.5358C27.2831 16.705 26.0293 16.705 24.7766 16.705C24.3109 16.705 24.0554 16.9371 24.0554 17.324C24.0554 17.6922 24.3233 17.9346 24.758 17.9357C26.7824 17.9357 28.8067 17.945 30.8363 17.9357C31.1647 17.9429 31.4887 17.8589 31.7723 17.693C32.056 17.5271 32.2883 17.2859 32.4434 16.9959C33.1645 15.7498 32.2734 14.2499 30.7951 14.2386C28.5543 14.2221 26.3136 14.2386 24.0719 14.2386C23.8551 14.2357 23.6386 14.2558 23.426 14.2984C21.8806 14.6295 20.8164 16.0655 20.9741 17.5818C21.1409 19.1911 22.4164 20.3939 24.0204 20.4042C26.8761 20.4217 29.7319 20.4135 32.5876 20.4042C34.307 20.4042 35.5835 19.223 35.7462 17.5086C35.8781 16.082 34.7892 14.5924 33.3984 14.3459ZM8.24992 30.272C9.08624 30.2364 9.90366 30.0117 10.6409 29.6148C11.3782 29.2179 12.0162 28.6591 12.5072 27.9802C12.9982 27.3014 13.3293 26.5201 13.4759 25.6948C13.6225 24.8696 13.5807 24.0219 13.3536 23.2152C13.2866 22.9769 13.1949 22.8644 12.9147 22.8644C9.34092 22.8727 6.67783 26.2902 7.55145 29.7624C7.68744 30.2957 7.68743 30.2957 8.24992 30.272ZM6.35022 30.0451C5.92062 28.1119 6.23071 26.38 7.21868 24.7842C6.29149 23.6071 4.45772 22.7788 2.99482 22.8882C2.92804 22.905 2.86615 22.9373 2.81409 22.9825C2.76203 23.0276 2.72126 23.0843 2.69503 23.1481C2.39922 24.0599 2.36354 25.0363 2.59201 25.9673C3.09785 27.9778 4.35161 29.3116 6.34816 30.043L6.35022 30.0451ZM18.5067 30.2514H35.7493V29.0775H18.5046L18.5067 30.2514ZM8.01401 23.7732C8.65223 23.1115 9.40924 22.5761 10.2454 22.195C10.3351 22.1547 10.4082 21.9422 10.3897 21.8257C10.2874 21.1018 10.0397 20.4062 9.66172 19.7807C9.28371 19.1552 8.78313 18.6129 8.19017 18.1863C8.13335 18.1569 8.07028 18.1415 8.00628 18.1415C7.94228 18.1415 7.87922 18.1569 7.82239 18.1863C6.56657 19.124 5.81553 20.3712 5.60846 21.9319C5.60752 21.9845 5.61942 22.0365 5.64312 22.0834C5.66682 22.1303 5.70161 22.1707 5.74445 22.2011C6.59374 22.5762 7.36397 23.1098 8.01401 23.7732ZM18.4933 1.5546C18.2873 1.82899 18.108 2.04252 17.9504 2.26947C17.2952 3.21953 16.7368 4.21085 16.6513 5.3992C16.5895 6.24817 17.0747 7.02286 17.8711 7.27662V6.22754H19.1228V7.25909C19.8892 7.05278 20.4074 6.25023 20.3415 5.40229C20.2189 3.90345 19.4153 2.72954 18.4933 1.5515V1.5546ZM13.1578 31.5532H2.85574C3.04633 31.9369 3.20601 32.2866 3.39454 32.6178C3.4304 32.6605 3.47498 32.695 3.52526 32.719C3.57555 32.743 3.63039 32.756 3.6861 32.757C6.56657 32.7639 9.44669 32.7639 12.3265 32.757C12.3869 32.7535 12.4459 32.7368 12.4993 32.7081C12.5526 32.6794 12.5991 32.6394 12.6355 32.591C12.8199 32.2691 12.9714 31.9287 13.1578 31.5532ZM25.8727 31.5254C25.0115 31.5254 24.1945 31.5254 23.3775 31.5254C23.3374 31.5235 23.2973 31.5302 23.26 31.5452C23.2227 31.5601 23.189 31.5829 23.1612 31.612C22.9634 31.972 22.7852 32.3423 22.5874 32.7333H25.8727V31.5254ZM32.4599 31.5439C32.6659 31.9452 32.841 32.3073 33.0296 32.6642C33.0449 32.6888 33.0655 32.7097 33.0899 32.7252C33.1144 32.7407 33.142 32.7506 33.1707 32.7539C33.6209 32.7612 34.0711 32.7539 34.5162 32.7539V31.5439H32.4599ZM21.7972 31.5563H19.7471V32.7612C20.1973 32.7612 20.6269 32.7612 21.0565 32.7612C21.0909 32.7599 21.1246 32.7513 21.1554 32.7358C21.1861 32.7203 21.2132 32.6983 21.2347 32.6714C21.4243 32.3114 21.6004 31.9493 21.8013 31.5563H21.7972Z" fill="#00614D"/>
</svg>
