<svg width="26" height="35" viewBox="0 0 26 35" fill="none" xmlns="http://www.w3.org/2000/svg">
<g clip-path="url(#clip0_189_246)">
<path d="M13.2051 0C13.2593 0.0377458 13.3143 0.0748056 13.3679 0.113924C13.6323 0.308144 13.7491 0.563441 13.6426 0.882565C13.5362 1.20169 13.3102 1.36777 12.9791 1.36297C12.8353 1.36542 12.6948 1.31932 12.5805 1.23214C12.4662 1.14496 12.3847 1.02179 12.3491 0.882565C12.2475 0.564128 12.3629 0.308144 12.628 0.114611C12.6816 0.0754926 12.7366 0.0384328 12.7908 0.000686958L13.2051 0Z" fill="#00614D"/>
<path d="M20.4229 29.9305C20.0203 31.0608 19.6247 32.1732 19.2283 33.2857C19.095 33.6604 18.9535 34.0324 18.8299 34.4112C18.7261 34.731 18.5462 34.9603 18.1958 34.9966C17.8455 35.033 17.6312 34.8209 17.4677 34.5327C16.0512 32.0383 14.6315 29.5448 13.2086 27.0522C13.1489 26.9472 13.0829 26.8463 12.9977 26.7042C12.9146 26.8415 12.8473 26.9396 12.7917 27.0474C11.4219 29.4507 10.0531 31.8543 8.68514 34.2582C8.62331 34.3673 8.55737 34.4737 8.4976 34.5842C8.34922 34.8587 8.13146 35.0255 7.81066 34.9994C7.47543 34.9726 7.28927 34.7626 7.18074 34.4558C6.68477 33.051 6.17643 31.6503 5.69076 30.242C5.60078 29.9812 5.50392 29.9236 5.23051 29.9833C3.82916 30.2894 2.42093 30.5653 1.0182 30.8638C0.683657 30.9324 0.404072 30.894 0.193869 30.6099C-0.016335 30.3258 0.0489252 30.0608 0.207608 29.7802C1.50936 27.4948 2.80287 25.206 4.1108 22.9248C4.24269 22.6949 4.22758 22.5707 4.03318 22.384C-2.28667 16.3152 -1.00415 6.00508 6.60439 1.67666C7.54586 1.14168 8.55286 0.731053 9.60014 0.45507C10.1119 0.317812 10.4932 0.482521 10.5955 0.888117C10.7013 1.30538 10.4719 1.62382 9.96216 1.77343C5.89616 2.9662 3.14977 5.56586 1.87962 9.59711C-0.209365 16.2267 4.07783 23.1952 10.9328 24.4251C13.9248 24.965 17.0095 24.3133 19.5267 22.6096C22.0438 20.9058 23.7934 18.2854 24.401 15.3091C25.6374 9.37201 21.9664 3.38072 16.1096 1.78441C16.0546 1.77 15.9983 1.76039 15.944 1.74392C15.4996 1.60666 15.2873 1.2594 15.4027 0.864097C15.5099 0.496246 15.8836 0.296536 16.3136 0.432421C16.9861 0.644484 17.6655 0.851058 18.3057 1.13724C20.6994 2.19765 22.7147 3.95879 24.0851 6.18787C25.4555 8.41696 26.1166 11.009 25.9809 13.6215C25.803 17.0166 24.4834 19.9237 22.0399 22.3003C21.7734 22.5597 21.7652 22.7244 21.9438 23.0326C23.2125 25.2287 24.4593 27.442 25.713 29.6498C25.7467 29.7088 25.7762 29.7705 25.8112 29.8289C25.974 30.1034 25.9816 30.3724 25.7865 30.6264C25.5914 30.8803 25.3297 30.9366 25.0219 30.8714C23.5959 30.5717 22.1689 30.2743 20.7409 29.9792C20.6434 29.962 20.5438 29.9497 20.4229 29.9305ZM5.35348 23.4965L2.11043 29.2064C2.25469 29.192 2.35361 29.1906 2.44841 29.1714C3.5411 28.9463 4.63334 28.7196 5.72511 28.4913C6.27466 28.3774 6.52059 28.5153 6.71293 29.0534C7.0564 30.0059 7.39163 30.9599 7.73166 31.9131C7.8141 32.1444 7.90134 32.3743 8.01125 32.6729L11.8485 25.9314C9.44764 25.6864 7.30645 24.8904 5.35348 23.4965ZM23.9009 29.2346C22.7942 27.2862 21.7239 25.4016 20.642 23.4979C18.7327 24.8737 16.4897 25.714 14.1456 25.9314L17.9836 32.6674C18.0351 32.5404 18.0571 32.4903 18.0756 32.4388C18.4836 31.2934 18.8889 30.1466 19.3004 29.0019C19.4687 28.5325 19.7456 28.3842 20.2264 28.481L21.5969 28.7645L23.9009 29.2346Z" fill="#00614D"/>
<path d="M12.9987 23.2437C7.34179 23.2437 2.72899 18.6346 2.73242 12.983C2.73586 7.33144 7.35347 2.72644 13.0118 2.73536C18.6584 2.7436 23.2534 7.33349 23.2609 12.9782C23.2685 18.6229 18.6598 23.2423 12.9987 23.2437ZM4.10356 12.9762C4.09738 17.8756 8.09193 21.8746 12.9953 21.8766C17.8863 21.8766 21.8795 17.9051 21.8953 13.0187C21.9118 8.11792 17.9255 4.11274 13.0207 4.10176C8.11598 4.09078 4.11043 8.07606 4.10356 12.9762Z" fill="#00614D"/>
<path d="M8.69564 18.1021C8.86188 17.1015 9.00133 16.0858 9.2081 15.0824C9.31045 14.5883 9.24244 14.2493 8.84539 13.8979C8.12067 13.2589 7.45983 12.5466 6.76465 11.8726C6.52354 11.6386 6.38477 11.3833 6.50499 11.0491C6.61971 10.732 6.87937 10.6284 7.19811 10.5838C8.26905 10.4342 9.33793 10.2619 10.4089 10.1082C10.5088 10.101 10.6047 10.066 10.6859 10.0074C10.7671 9.94869 10.8303 9.86859 10.8684 9.77604C11.3397 8.80357 11.8301 7.84208 12.311 6.87235C12.4566 6.57725 12.6407 6.35283 12.9979 6.35352C13.3552 6.3542 13.5399 6.58274 13.6849 6.87716C14.1657 7.84619 14.6569 8.80837 15.1275 9.78084C15.2305 9.99359 15.3699 10.0773 15.5898 10.1089C16.6724 10.2633 17.7529 10.4314 18.8349 10.5893C19.1412 10.6332 19.3844 10.7533 19.4902 11.0566C19.6001 11.3737 19.4813 11.6276 19.2491 11.8541C18.4577 12.6262 17.6774 13.4092 16.8826 14.1772C16.7246 14.3302 16.6861 14.4689 16.7253 14.6857C16.9217 15.7838 17.0955 16.8819 17.281 17.984C17.3318 18.2812 17.257 18.5331 17.0145 18.7101C16.772 18.8872 16.5089 18.879 16.243 18.7403C15.2539 18.2242 14.2592 17.7184 13.2755 17.1934C13.0694 17.0823 12.9121 17.0926 12.7087 17.201C11.7237 17.7239 10.7331 18.2371 9.73704 18.7403C9.20947 19.01 8.67022 18.6738 8.69564 18.1021ZM10.2818 16.9251C11.0738 16.5133 11.7965 16.1565 12.5027 15.768C12.8503 15.5772 13.1559 15.58 13.5001 15.768C14.139 16.1187 14.7915 16.4433 15.4393 16.7769C15.5121 16.8146 15.5905 16.84 15.7086 16.8887C15.5712 16.0309 15.4531 15.2204 15.2964 14.4181C15.2278 14.0489 15.3294 13.7812 15.5898 13.5321C16.1249 13.0194 16.649 12.4958 17.1759 11.9749C17.2343 11.9179 17.281 11.8493 17.36 11.7532C16.4787 11.616 15.6475 11.4835 14.8135 11.3655C14.6714 11.3508 14.5358 11.2986 14.4206 11.2141C14.3054 11.1297 14.2148 11.0161 14.1582 10.8851C13.8257 10.2118 13.487 9.54133 13.1491 8.87082C13.1065 8.78641 13.0529 8.70749 12.9986 8.61621C12.9736 8.64055 12.9506 8.66695 12.9299 8.69513C12.6831 9.1824 12.4372 9.66989 12.1922 10.1576C11.5306 11.4671 11.8061 11.2605 10.323 11.4904C9.76933 11.5762 9.21565 11.664 8.69083 11.7471C9.28022 12.3647 9.85039 12.9652 10.4315 13.5589C10.6651 13.797 10.7606 14.0502 10.6974 14.3906C10.5511 15.208 10.4288 16.0281 10.2818 16.9251Z" fill="#00614D"/>
</g>
<defs>
<clipPath id="clip0_189_246">
<rect width="26" height="35" fill="white"/>
</clipPath>
</defs>
</svg>
