<svg width="47" height="34" viewBox="0 0 47 34" fill="none" xmlns="http://www.w3.org/2000/svg">
<g clip-path="url(#clip0_189_145)">
<path d="M0 25.7412C0.120254 25.2616 0.220312 24.7748 0.367188 24.3035C0.714206 23.1842 1.33579 22.1674 2.1765 21.3436C3.63179 19.8904 5.09136 18.4445 6.55522 17.0059C6.60754 16.9542 6.6718 16.9151 6.73881 16.8588L7.6834 17.797C7.56865 17.9169 7.46125 18.0349 7.34742 18.1476C5.97047 19.5099 4.58801 20.855 3.22758 22.2273C0.148711 25.3325 1.02996 30.3313 5.00477 32.0742C7.29969 33.0814 9.58451 32.8361 11.4305 31.1478C14.1523 28.6475 16.7162 25.9791 19.348 23.3798C19.3673 23.3607 19.3719 23.3262 19.3627 23.348L10.7476 14.818C10.2317 15.3548 9.66621 15.9415 9.06953 16.5609L8.1635 15.5619C9.02455 14.71 9.92875 13.8172 10.799 12.958L21.307 23.368C21.2785 23.3989 21.2014 23.487 21.1179 23.5696C18.3915 26.267 15.6789 28.9771 12.9351 31.6527C10.6145 33.9233 7.86424 34.589 4.80373 33.451C2.14988 32.4638 0.611367 30.4693 0.0945507 27.7084C0.0734374 27.5939 0.0321288 27.4822 0.00275379 27.3696L0 25.7412Z" fill="#00614D"/>
<path d="M47.0006 27.3763C46.795 28.0829 46.6674 28.8222 46.3727 29.4906C44.2908 34.2133 38.234 35.5275 34.4474 31.9846C31.4484 29.1782 28.6174 26.1956 25.7598 23.3393L31.106 18.0498L31.9083 18.9453L27.5535 23.2239C27.624 23.3259 27.7 23.4242 27.7811 23.5182C30.2358 25.9495 32.6721 28.3989 35.1533 30.803C37.7741 33.346 41.7333 33.2007 44.1265 30.5305C46.1221 28.299 46.1836 24.7543 44.1008 22.6063C41.5305 19.9534 38.8326 17.4168 36.1622 14.8011L33.3339 17.6166C32.9924 17.2715 32.6913 16.9727 32.4426 16.7156L36.298 12.9011C36.242 12.8693 36.2733 12.8793 36.2935 12.9011C39.2429 15.8265 42.2088 18.7373 45.1317 21.689C46.1414 22.7071 46.6748 23.9986 46.9098 25.4064C46.9341 25.5205 46.9648 25.6333 47.0016 25.7442L47.0006 27.3763Z" fill="#00614D"/>
<path d="M24.5557 6.96891C26.813 2.72299 30.4849 1.47147 35.0536 1.92195C35.0536 2.6349 35.06 3.38417 35.0536 4.13436C35.0086 8.45293 32.1932 11.945 27.9852 12.8532C27.2619 13.0095 26.5 12.9967 25.7546 13.0549C25.5609 13.0694 25.3653 13.0549 25.1258 13.0549V21.751H23.7488V21.2061C23.7488 18.6631 23.7396 16.1201 23.758 13.5771C23.7561 13.1666 23.6533 13.0267 23.2246 13.0458C21.2657 13.1312 19.3692 12.8451 17.6333 11.9105C14.2873 10.1113 12.3605 7.34128 12.0254 3.57036C11.9217 2.41874 12.0089 1.24986 12.0089 0.0873469C16.7722 -0.33679 21.4438 0.647717 24.1702 6.07522C24.3014 6.34496 24.4079 6.62833 24.5557 6.96891ZM13.3501 1.44876C13.127 4.64932 14.0193 7.42756 16.5418 9.56005C18.286 11.0359 20.3248 11.7298 22.6087 11.6762L22.706 11.5381L19.7125 8.59461C20.0118 8.2831 20.3027 7.97703 20.6543 7.61283L23.6836 10.6281C24.0224 6.0071 19.8658 0.735814 13.3501 1.44876ZM26.2374 11.6253C30.0929 12.2547 34.7259 6.9789 33.5949 3.23977C30.8823 3.07629 28.5645 3.8846 26.802 5.99802C25.6747 7.34763 24.911 9.63089 25.2414 10.6781L28.2138 7.72182L29.2695 8.63004L26.2374 11.6253Z" fill="#00614D"/>
<path d="M3.86914 30.2334L4.77426 29.317C5.22314 29.5685 5.66744 29.9073 6.16957 30.0844C7.74664 30.6393 9.13828 30.2661 10.3197 29.1099C11.3506 28.1009 12.3705 27.0809 13.3821 26.0801L14.3918 27.1536C14.1859 27.2876 13.9901 27.4363 13.8062 27.5986C12.8671 28.5068 11.9647 29.4532 11.0036 30.3387C10.0912 31.1842 8.89872 31.6718 7.64924 31.7102C6.39976 31.7487 5.17893 31.3354 4.21521 30.5476C4.08578 30.4459 3.97104 30.3278 3.86914 30.2334Z" fill="#00614D"/>
<path d="M43.2355 27.4326L44.5647 27.7514C44.0011 29.6841 42.8206 30.9801 40.8929 31.5078C38.9972 32.0282 37.3128 31.5577 35.8789 30.249L36.8409 29.2926C37.8718 30.1845 39.1074 30.576 40.5128 30.1881C41.9182 29.8003 42.805 28.8549 43.2355 27.4326Z" fill="#00614D"/>
<path d="M42.2344 23.8831L43.2065 22.9141C43.5177 23.3291 43.8151 23.726 44.1419 24.1638L42.9311 24.7995L42.2344 23.8831Z" fill="#00614D"/>
<path d="M43.2148 25.5221L44.5211 25.1543C44.5973 25.6656 44.668 26.1461 44.7451 26.6692H43.3636C43.3131 26.2859 43.2672 25.9299 43.2148 25.5221Z" fill="#00614D"/>
<path d="M17.5855 23.7773L16.718 24.691C16.3967 24.3722 16.0892 24.0689 15.7578 23.741L16.7318 22.8818L17.5855 23.7773Z" fill="#00614D"/>
<path d="M15.0295 26.2906C14.9827 26.2498 14.9239 26.1998 14.8707 26.1544L14.084 25.416L15.0736 24.5078L15.9778 25.3861L15.0295 26.2906Z" fill="#00614D"/>
<path d="M21.4745 6.04035L20.294 6.79145L18.8867 5.24294C19.1502 4.92415 19.4173 4.59901 19.7652 4.17578L21.4745 6.04035Z" fill="#00614D"/>
<path d="M15.1254 2.43359L16.6061 2.65883C16.4968 3.10477 16.3995 3.50711 16.2894 3.95849L15.0547 3.805C15.0758 3.36815 15.0978 2.94492 15.1254 2.43359Z" fill="#00614D"/>
<path d="M18.1946 4.77842L17.082 4.22804C17.2408 3.81934 17.3969 3.41791 17.575 2.96289L18.9216 3.62044L18.1946 4.77842Z" fill="#00614D"/>
<path d="M31.1849 4.92383L32.5417 5.09185C32.3241 6.70121 31.5989 7.98724 30.378 9.08164L29.4766 8.05717C30.3976 7.24153 31.0018 6.13329 31.1849 4.92383Z" fill="#00614D"/>
</g>
<defs>
<clipPath id="clip0_189_145">
<rect width="47" height="34" fill="white"/>
</clipPath>
</defs>
</svg>
