<svg width="42" height="42" viewBox="0 0 42 42" fill="none" xmlns="http://www.w3.org/2000/svg">
<g clip-path="url(#clip0_189_251)">
<path d="M30.02 41.9996C29.7641 41.7787 29.4918 41.5732 29.2535 41.3349C27.441 39.5309 25.6339 37.7217 23.8324 35.9074C23.7209 35.7831 23.5834 35.6848 23.4296 35.6196C23.2758 35.5545 23.1095 35.524 22.9426 35.5304C19.9628 35.5386 16.9769 35.6229 14.0033 35.4944C8.92339 35.2756 4.99219 32.9261 2.23027 28.6729C0.598608 26.1579 -0.0908421 23.3584 0.0119077 20.3719C0.0888229 18.1509 0.683437 15.9786 1.74838 14.028C2.01964 13.5226 2.46762 13.3438 2.89917 13.5554C3.33072 13.7671 3.47149 14.2612 3.19612 14.7883C2.46494 16.1515 1.98007 17.633 1.76379 19.1648C1.3754 22.0495 1.87579 24.7772 3.31223 27.3055C4.9439 30.182 7.34927 32.1484 10.477 33.2261C11.8857 33.712 13.3427 33.901 14.8294 33.899C17.6869 33.899 20.5454 33.9051 23.4029 33.8918C23.641 33.882 23.8783 33.9243 24.0984 34.0156C24.3184 34.107 24.5159 34.2453 24.677 34.4209C26.1227 35.8941 27.592 37.3447 29.0469 38.8097C29.1409 38.9273 29.2212 39.0551 29.2863 39.1908L29.423 39.0881C29.4302 38.973 29.4446 38.858 29.4446 38.7429C29.4446 37.4026 29.4446 36.0626 29.4446 34.7229C29.4446 33.9544 29.6059 33.7346 30.3632 33.5569C32.3835 33.0965 34.2585 32.1436 35.8212 30.783C38.2389 28.6739 39.7309 26.0367 40.2045 22.8529C40.671 19.7154 40.0597 16.7834 38.3684 14.104C36.4788 11.1114 33.7919 9.17277 30.3416 8.38788C29.2216 8.13207 28.041 8.13824 26.8871 8.02934C26.6981 8.01187 26.5029 8.03653 26.3148 8.00776C25.8473 7.93791 25.5678 7.6071 25.5832 7.17047C25.5828 7.06692 25.6032 6.96434 25.6434 6.86889C25.6835 6.77345 25.7426 6.6871 25.817 6.61503C25.8913 6.54297 25.9795 6.48668 26.0762 6.44955C26.1729 6.41241 26.2761 6.3952 26.3796 6.39894C27.3043 6.4051 28.2434 6.39894 29.163 6.50167C31.3722 6.7472 33.4912 7.51527 35.3445 8.74232C37.8797 10.3775 39.8404 12.7639 40.9526 15.568C41.5072 16.9362 41.8402 18.3841 41.9389 19.8572C41.9514 19.9373 41.9714 20.0161 41.9985 20.0924V21.8975C41.9718 22.0711 41.9379 22.2437 41.9184 22.4184C41.6441 24.9867 40.783 27.3301 39.2757 29.4259C37.3008 32.1723 34.6858 34.0192 31.4307 34.9664C31.1646 35.0434 31.0701 35.1554 31.0721 35.4451C31.0886 37.2759 31.0721 39.1076 31.0855 40.9394C31.0855 41.4531 30.9129 41.8095 30.4299 41.9996H30.02Z" fill="#00614D"/>
<path d="M8.71784 5.87827C9.15145 5.87827 9.58505 5.87211 10.0187 5.87827C10.9352 5.89266 11.4387 6.38373 11.4489 7.3032C11.4619 8.53602 11.4619 9.76575 11.4489 10.9924C11.4397 11.9078 10.9352 12.4112 10.0166 12.4204C8.62331 12.4334 7.22968 12.4334 5.83571 12.4204C4.92021 12.4112 4.41571 11.8924 4.42393 10.9821C4.44242 9.13907 4.40749 7.29087 4.52668 5.45295C4.63662 3.78659 5.23771 2.28564 6.60428 1.19973C7.63178 0.385047 8.83498 0.0696522 10.1132 0.00903878C10.6084 -0.0156176 10.9527 0.333681 10.9681 0.863792C10.9917 1.65485 10.9907 2.44899 10.9681 3.24107C10.9537 3.75475 10.6824 4.00439 10.1461 4.09994C9.23056 4.25815 8.71784 4.87969 8.71784 5.87827ZM6.04018 10.7808C7.27318 10.7808 8.43014 10.788 9.58916 10.7664C9.6652 10.7664 9.79466 10.5517 9.80185 10.4346C9.82035 9.57364 9.81316 8.71272 9.81007 7.85283C9.80238 7.74054 9.78866 7.62874 9.76897 7.51792C9.13912 7.51792 8.53597 7.53025 7.94003 7.51792C7.25571 7.50148 6.94644 7.15938 6.97829 6.47927C6.99062 6.206 7.00706 5.93169 7.0461 5.66253C7.22386 4.44718 7.68007 3.40237 8.83806 2.8024C9.39393 2.51474 9.43812 2.41714 9.27372 1.78635C7.82495 1.96203 6.6947 3.05512 6.31144 4.67217C5.84393 6.6683 6.16348 8.69731 6.04018 10.7767V10.7808Z" fill="#00614D"/>
<path d="M17.074 5.87919C17.5497 5.87919 17.9987 5.87097 18.4467 5.87919C19.3314 5.89871 19.8338 6.4093 19.84 7.30001C19.8475 8.53283 19.8475 9.76325 19.84 10.9913C19.84 11.881 19.3376 12.407 18.4498 12.4183C17.0284 12.4367 15.607 12.4367 14.1857 12.4183C13.3853 12.408 12.8201 11.9354 12.8242 11.1854C12.8345 9.12458 12.7831 7.05036 12.9866 5.00492C13.2537 2.32148 14.9101 0.636637 17.4541 0.130155C17.7628 0.0716081 18.0747 0.0314693 18.3881 0.00995368C18.9594 -0.0352496 19.3437 0.296583 19.355 0.869843C19.3715 1.66193 19.3694 2.45504 19.355 3.24815C19.3468 3.7043 19.0981 3.97654 18.6543 4.08133C17.5466 4.33817 17.2507 4.66486 17.074 5.87919ZM17.7049 1.7698C16.2037 1.95061 15.0477 3.06529 14.6871 4.73678C14.2627 6.7062 14.4754 8.70645 14.4734 10.6954C14.4734 10.7067 14.4878 10.718 14.5083 10.7478H18.1713V7.51575H17.6987C17.2343 7.51575 16.7688 7.52705 16.3044 7.51575C15.7074 7.49623 15.3498 7.19625 15.3652 6.65895C15.4105 5.11073 15.6735 3.36527 17.7049 2.58038V1.7698Z" fill="#00614D"/>
<path d="M20.9651 16.1961C17.7401 16.1961 14.5145 16.1961 11.2881 16.1961C11.0972 16.2004 10.9062 16.1867 10.7179 16.155C10.5392 16.1175 10.3789 16.0197 10.2638 15.878C10.1487 15.7363 10.0859 15.5593 10.0859 15.3768C10.0859 15.1942 10.1487 15.0173 10.2638 14.8755C10.3789 14.7338 10.5392 14.636 10.7179 14.5985C10.8925 14.5679 11.0697 14.5541 11.247 14.5575C17.7388 14.5575 24.2309 14.5575 30.7233 14.5575C30.9144 14.5528 31.1055 14.568 31.2935 14.6027C31.4679 14.6441 31.6231 14.7431 31.7342 14.8836C31.8453 15.0242 31.9057 15.1981 31.9057 15.3773C31.9057 15.5564 31.8453 15.7303 31.7342 15.8709C31.6231 16.0115 31.4679 16.1105 31.2935 16.1519C31.092 16.1867 30.8876 16.2015 30.6832 16.1961C27.4438 16.1981 24.2045 16.1981 20.9651 16.1961Z" fill="#00614D"/>
<path d="M20.9931 18.9355H30.7543C31.5126 18.9355 31.8989 19.2057 31.9071 19.74C31.9153 20.2742 31.5074 20.5762 30.7378 20.5762C24.2447 20.5762 17.7527 20.5762 11.2616 20.5762C11.0845 20.5803 10.9074 20.5651 10.7335 20.531C10.5442 20.4947 10.3747 20.3907 10.2565 20.2385C10.1383 20.0863 10.0796 19.8963 10.0913 19.704C10.1044 19.5113 10.1858 19.3295 10.3208 19.1913C10.4558 19.0531 10.6356 18.9676 10.828 18.9499C10.978 18.9371 11.1286 18.933 11.2791 18.9376L20.9931 18.9355Z" fill="#00614D"/>
<path d="M21.0123 24.9417H11.3354C11.2264 24.9417 11.1165 24.9417 11.0076 24.9417C10.4599 24.9253 10.1034 24.6202 10.0828 24.1538C10.0623 23.6873 10.4342 23.3319 10.9911 23.3021C11.0867 23.297 11.1823 23.3021 11.2778 23.3021C17.7565 23.3021 24.2349 23.3021 30.7129 23.3021C30.9033 23.2974 31.0937 23.3147 31.2801 23.3535C31.4612 23.3945 31.6222 23.4978 31.7349 23.6454C31.8476 23.793 31.9048 23.9755 31.8966 24.161C31.8849 24.3534 31.806 24.5355 31.6736 24.6756C31.5411 24.8157 31.3637 24.9048 31.1722 24.9274C31.0226 24.9411 30.8723 24.9455 30.7222 24.9407L21.0123 24.9417Z" fill="#00614D"/>
<path d="M25.703 29.324H20.6682C19.914 29.324 19.5267 29.0466 19.5215 28.5104C19.5164 27.9741 19.9038 27.6885 20.6518 27.6885C24.0281 27.6885 27.4041 27.6885 30.7798 27.6885H30.8209C31.5289 27.6957 31.9173 27.9967 31.907 28.5227C31.8967 29.0487 31.5196 29.3281 30.8353 29.3292C29.1245 29.3271 27.4158 29.324 25.703 29.324Z" fill="#00614D"/>
<path d="M22.8022 6.39258C23.016 6.39652 23.2201 6.48316 23.3714 6.63429C23.5228 6.78543 23.6097 6.98932 23.6139 7.20316C23.6139 7.41895 23.5281 7.62591 23.3755 7.7785C23.2229 7.93109 23.0159 8.01681 22.8001 8.01681C22.5843 8.01681 22.3773 7.93109 22.2247 7.7785C22.0721 7.62591 21.9863 7.41895 21.9863 7.20316C21.9908 6.9887 22.0784 6.78437 22.2306 6.63317C22.3827 6.48198 22.5877 6.39572 22.8022 6.39258Z" fill="#00614D"/>
<path d="M16.5223 28.5121C16.5198 28.619 16.4962 28.7243 16.4529 28.822C16.4096 28.9197 16.3475 29.008 16.2702 29.0817C16.1928 29.1555 16.1016 29.2133 16.0019 29.2518C15.9022 29.2903 15.7959 29.3088 15.689 29.3062C15.5822 29.3037 15.4768 29.2801 15.3791 29.2368C15.2813 29.1936 15.1931 29.1315 15.1193 29.0541C15.0456 28.9768 14.9878 28.8856 14.9492 28.7859C14.9107 28.6862 14.8922 28.5799 14.8948 28.4731C14.8999 28.2573 14.9906 28.0524 15.1469 27.9035C15.3032 27.7545 15.5122 27.6738 15.7281 27.6789C15.9439 27.6841 16.1488 27.7748 16.2978 27.9311C16.4467 28.0873 16.5275 28.2963 16.5223 28.5121Z" fill="#00614D"/>
</g>
<defs>
<clipPath id="clip0_189_251">
<rect width="42" height="42" fill="white"/>
</clipPath>
</defs>
</svg>
