<svg width="33" height="33" viewBox="0 0 33 33" fill="none" xmlns="http://www.w3.org/2000/svg">
<g clip-path="url(#clip0_189_242)">
<path d="M3.26394 7.75826C3.31447 7.64828 3.36234 7.53829 3.41553 7.43008C3.59354 7.06331 3.88802 6.76591 4.25291 6.5844C4.6178 6.40289 5.03252 6.34751 5.43221 6.42691C6.29562 6.6114 6.90727 7.31389 6.93297 8.18046C6.94804 8.6887 6.93297 9.19871 6.93297 9.68832C7.29819 9.65817 7.651 9.57301 7.98874 9.61293C8.91597 9.72291 9.58435 10.4999 9.59145 11.4419C9.6012 12.4601 9.59145 13.4819 9.59145 14.4709C9.96553 14.4452 10.3299 14.3609 10.6765 14.4088C11.6081 14.5365 12.2455 15.3082 12.249 16.2626C12.257 17.8698 12.249 19.477 12.2606 21.0842C12.2694 21.2746 12.3414 21.4566 12.4653 21.6013C13.1621 22.3759 13.8712 23.139 14.5928 23.8906C14.8769 24.1789 15.0993 24.522 15.2464 24.8992C15.3934 25.2763 15.4621 25.6795 15.4483 26.0841C15.4314 28.1454 15.4482 30.2077 15.4429 32.2699C15.4429 32.8349 15.2763 33.0016 14.7116 33.0016H8.72893C8.16337 33.0016 7.9976 32.8358 7.99672 32.2717C7.99672 31.6286 7.98342 30.9846 7.99672 30.3425C8.01267 29.7606 7.80347 29.2976 7.39216 28.8905C6.09912 27.6144 4.81406 26.3292 3.53697 25.0348C3.38926 24.8862 3.26277 24.7178 3.16112 24.5346C2.17538 22.7393 1.19142 20.9432 0.225185 19.1373C0.0976536 18.8959 0.0284299 18.628 0.0230714 18.355C0.00888816 15.5291 0.0727158 12.7005 -0.00706497 9.87548C-0.0487283 8.08289 1.65857 6.86153 3.26394 7.75826ZM14.3836 31.9186V31.547C14.3836 29.7172 14.3739 27.8882 14.3889 26.0593C14.3959 25.7884 14.3477 25.519 14.2473 25.2674C14.1468 25.0158 13.9963 24.7873 13.8048 24.5958C12.3448 23.048 10.899 21.486 9.44784 19.9303C8.783 19.2207 8.11817 18.5013 7.44978 17.7935C7.15282 17.4795 6.71313 17.4911 6.50216 17.8006C6.33107 18.0507 6.37097 18.9812 6.56422 19.2278L9.25282 22.6524C9.5028 22.9717 9.75102 23.2928 10.0107 23.6281L9.18014 24.2756C9.08174 24.1549 9.01082 24.0707 8.94257 23.9837C7.11647 21.6569 5.28861 19.3307 3.45897 17.005C3.29035 16.8005 3.20127 16.5418 3.2081 16.2768C3.21608 14.1143 3.21342 11.9528 3.2081 9.79121C3.21427 9.64731 3.20565 9.50317 3.18239 9.36103C3.12665 9.10425 2.97833 8.87701 2.76575 8.72272C2.55318 8.56843 2.29126 8.49791 2.03 8.52461C1.76779 8.55311 1.52568 8.67862 1.35118 8.87652C1.17669 9.07442 1.0824 9.33043 1.08682 9.59431C1.0815 12.4983 1.0815 15.4028 1.08682 18.308C1.09593 18.4604 1.14121 18.6085 1.2189 18.7399C2.15736 20.4719 3.10084 22.2021 4.04935 23.9305C4.13454 24.0846 4.24074 24.2261 4.36492 24.3509C5.55188 25.5466 6.722 26.76 7.94353 27.9193C8.74134 28.6741 9.14379 29.538 9.06401 30.637C9.03298 31.0618 9.0587 31.4911 9.0587 31.9195L14.3836 31.9186ZM5.35243 17.6835C5.48983 17.4574 5.61216 17.2738 5.71499 17.0795C5.78324 16.9509 5.86658 16.8072 5.86746 16.6697C5.87633 13.8988 5.8781 11.1276 5.87278 8.35608C5.87278 7.81414 5.53947 7.44959 5.06611 7.4558C4.59274 7.46201 4.27982 7.81857 4.27982 8.34278C4.27982 10.9245 4.27982 13.5071 4.27982 16.0905C4.27322 16.1986 4.29849 16.3063 4.35251 16.4001C4.67784 16.8347 5.01735 17.2569 5.35243 17.6835ZM6.95691 16.4994C7.62884 16.4728 8.08448 16.8542 8.53036 17.4033C8.53036 15.333 8.53036 13.3746 8.53036 11.4162C8.53178 11.2645 8.48675 11.1161 8.40133 10.9908C8.31591 10.8655 8.1942 10.7694 8.05256 10.7154C7.51537 10.4742 6.94627 10.8671 6.94361 11.4969C6.93652 13.1023 6.94361 14.7086 6.94361 16.314C6.93829 16.3708 6.94804 16.424 6.95691 16.4994ZM11.1924 20.2389C11.1924 18.8588 11.1924 17.578 11.1924 16.2919C11.1924 15.7943 10.8609 15.4448 10.4105 15.4359C9.96022 15.4271 9.60475 15.7854 9.60032 16.2972C9.59411 16.9722 9.59589 17.6472 9.60032 18.3222C9.59268 18.4189 9.61696 18.5155 9.66945 18.5971C10.1499 19.1302 10.641 19.6509 11.1924 20.2416V20.2389Z" fill="#00614D"/>
<path d="M23.4247 14.5116V11.7158C23.4247 10.1131 24.4494 9.32101 25.9954 9.72192C26.0251 9.72398 26.0549 9.72219 26.0841 9.7166C26.0841 9.26513 26.0841 8.81188 26.0841 8.35863C26.0841 7.35191 26.6718 6.61218 27.6088 6.42148C28.4819 6.24408 29.2975 6.7195 29.6902 7.63309C29.7079 7.673 29.7327 7.70937 29.7637 7.76436C30.2584 7.49827 30.7716 7.37941 31.3274 7.50714C32.2839 7.72622 32.9887 8.54402 32.9922 9.52679C33.0046 12.5307 33.0046 15.5349 32.9922 18.5394C32.9863 18.7041 32.941 18.865 32.8601 19.0086C31.8442 20.8884 30.8224 22.7649 29.7948 24.6382C29.7097 24.7804 29.6056 24.9102 29.4854 25.0241C28.1956 26.3208 26.9067 27.6185 25.6063 28.9037C25.4115 29.0837 25.2579 29.3037 25.1561 29.5487C25.0544 29.7936 25.0068 30.0578 25.0168 30.3229C25.0327 30.9872 25.0221 31.6533 25.0168 32.3177C25.0168 32.8011 24.8333 32.9927 24.3635 32.9936C22.3128 32.9936 20.263 32.9936 18.2141 32.9936C17.7629 32.9936 17.5732 32.7993 17.5723 32.3407C17.5723 30.1795 17.5723 28.0176 17.5723 25.8552C17.5675 25.1707 17.8303 24.5115 18.3045 24.0182C19.0509 23.2146 19.7956 22.4075 20.5526 21.6136C20.6256 21.541 20.6824 21.4538 20.7192 21.3576C20.756 21.2614 20.7721 21.1585 20.7662 21.0557C20.7574 19.515 20.7609 17.9744 20.7662 16.4328C20.7662 14.9125 21.8442 14.0947 23.3068 14.5018C23.3458 14.5084 23.3852 14.5117 23.4247 14.5116ZM23.9566 31.9185C23.9566 31.373 23.9681 30.8542 23.9566 30.3353C23.9335 29.4625 24.25 28.7467 24.8696 28.1356C26.1408 26.8832 27.396 25.6157 28.6548 24.3508C28.7656 24.2436 28.8611 24.1215 28.9384 23.9881C29.9076 22.2212 30.8721 20.452 31.8318 18.6804C31.8924 18.5766 31.927 18.4598 31.9329 18.3398C31.9382 15.4128 31.9417 12.4857 31.9258 9.55872C31.9095 9.32855 31.8277 9.10786 31.69 8.92276C31.5622 8.74688 31.3802 8.61785 31.172 8.55551C30.9638 8.49318 30.7409 8.50098 30.5376 8.57772C30.0864 8.73649 29.8169 9.11523 29.816 9.62258C29.816 11.8516 29.816 14.0796 29.8045 16.3077C29.7977 16.5459 29.7185 16.7764 29.5776 16.9685C28.1327 18.8312 26.67 20.6867 25.2127 22.5432C24.7632 23.1153 24.3147 23.6874 23.8484 24.2799L23.0187 23.6164C24.0825 22.2656 25.0912 20.9191 26.1718 19.625C26.3552 19.422 26.4899 19.1797 26.5656 18.9167C26.6413 18.6538 26.6561 18.377 26.6088 18.1074C26.5823 17.93 26.4386 17.6985 26.2862 17.6293C26.1337 17.5601 25.8917 17.6293 25.7002 17.6843C25.6116 17.71 25.5398 17.8298 25.4644 17.9114C23.37 20.1554 21.275 22.3992 19.1795 24.6427C19.0044 24.8197 18.8665 25.0301 18.7741 25.2613C18.6817 25.4926 18.6366 25.7401 18.6414 25.9891C18.6512 27.8624 18.6414 29.7357 18.6414 31.609V31.9132L23.9566 31.9185ZM27.6797 17.6719C28.0094 17.2524 28.3481 16.8302 28.6743 16.3982C28.7243 16.3143 28.7481 16.2173 28.7425 16.1197C28.7461 13.5262 28.7461 10.9323 28.7425 8.33823C28.7425 7.8158 28.4137 7.45924 27.9509 7.45126C27.4882 7.44327 27.1531 7.80605 27.1531 8.32405C27.1496 11.1174 27.1496 13.9108 27.1531 16.7042C27.1569 16.8106 27.1874 16.9143 27.2418 17.0058C27.3712 17.2266 27.5183 17.4324 27.6779 17.6719H27.6797ZM26.0841 16.4958C26.0841 14.7804 26.0903 13.1084 26.0841 11.44C26.0854 11.3359 26.0659 11.2325 26.0269 11.136C25.9879 11.0394 25.9301 10.9516 25.8568 10.8777C25.7836 10.8037 25.6963 10.7451 25.6002 10.7052C25.5041 10.6653 25.401 10.6449 25.2969 10.6453C24.835 10.6391 24.4911 11.0001 24.4902 11.511C24.4867 13.4032 24.4867 15.2975 24.4902 17.1938C24.4902 17.232 24.5 17.2701 24.5159 17.389C24.9343 16.8408 25.4015 16.4931 26.0823 16.4993L26.0841 16.4958ZM21.8291 20.245C22.3725 19.6614 22.8503 19.1558 23.3174 18.6387C23.3832 18.5546 23.4194 18.451 23.4203 18.3442C23.4291 17.6589 23.4291 16.9727 23.4203 16.2856C23.4141 15.7906 23.0799 15.442 22.6287 15.4385C22.1775 15.4349 21.8388 15.7862 21.8309 16.2767C21.8229 16.6634 21.8309 17.051 21.8309 17.4386L21.8291 20.245Z" fill="#00614D"/>
<path d="M16.5128 1.43916C17.1006 0.914069 17.7104 0.485658 18.4391 0.24174C21.6569 -0.834164 24.9359 1.92078 24.4484 5.28775C24.2844 6.41776 23.811 7.37924 22.9707 8.14825C20.9685 9.98134 18.9615 11.8094 16.9499 13.6324C16.6254 13.9269 16.3976 13.9269 16.0758 13.6324C14.0671 11.807 12.0451 9.99583 10.0586 8.14559C8.68368 6.86569 8.22183 5.25937 8.70584 3.44994C9.18364 1.66356 10.3777 0.530004 12.1852 0.116673C13.6372 -0.215944 14.9465 0.156587 16.0998 1.09235C16.2283 1.1979 16.3542 1.30611 16.5128 1.43916ZM16.5128 12.5956C18.4879 10.7941 20.4629 9.04765 22.3741 7.23112C23.6984 5.97161 23.7755 3.88544 22.656 2.44144C22.1392 1.76563 21.3932 1.30235 20.5586 1.13896C19.724 0.975569 18.8585 1.12336 18.1253 1.55447C17.7007 1.80548 17.3346 2.15672 16.9463 2.46716C16.6015 2.74301 16.4144 2.74567 16.0661 2.46095C15.8001 2.24187 15.5475 2.00948 15.2683 1.80371C14.3818 1.14025 13.3925 0.902536 12.3199 1.17661C10.9636 1.52342 10.0745 2.39532 9.72083 3.74885C9.3565 5.14229 9.72083 6.36632 10.7589 7.35707C11.6817 8.23606 12.639 9.07781 13.5813 9.93551C14.5538 10.8154 15.5209 11.6926 16.5146 12.5964L16.5128 12.5956Z" fill="#00614D"/>
</g>
<defs>
<clipPath id="clip0_189_242">
<rect width="33" height="33" fill="white"/>
</clipPath>
</defs>
</svg>
