<svg width="42" height="42" viewBox="0 0 42 42" fill="none" xmlns="http://www.w3.org/2000/svg">
<path d="M42 40.4296V41.0871C41.6712 41.7984 41.1091 42.0011 40.3485 42C27.4325 41.9847 14.5165 41.981 1.60042 41.989C1.45039 41.9973 1.30003 41.9973 1.15001 41.989C0.916145 41.9762 0.691151 41.8952 0.502824 41.7559C0.314497 41.6167 0.171081 41.4253 0.090291 41.2055C-0.238473 40.3781 0.367548 39.5398 1.30891 39.5365C3.04369 39.5288 4.77956 39.5365 6.51543 39.5365H6.93625C6.34776 39.1431 5.81846 38.8286 5.3297 38.4582C1.80097 35.7832 1.69686 30.9756 5.09847 28.145C6.17353 27.2508 7.40858 26.6448 8.71487 26.1725C9.40089 25.9237 10.1023 25.7166 10.8233 25.4832C10.7598 25.4284 10.7214 25.3911 10.6787 25.3593C7.39871 22.9178 6.96036 18.6855 9.66828 15.6281C10.8968 14.2418 12.4244 13.2753 14.0792 12.4917C14.7488 12.1739 15.4414 11.9022 16.1296 11.6063C15.6682 11.3159 15.2036 11.0583 14.7751 10.7449C11.5762 8.42828 11.5433 4.29906 14.7006 1.92652C15.7359 1.16119 16.9188 0.619003 18.1745 0.334237C18.7553 0.193966 19.3504 0.109586 19.9389 0H21.6605C21.792 0.0273965 21.9213 0.0646558 22.0528 0.0821896C24.0166 0.341909 25.8215 0.986275 27.3306 2.31117C29.6319 4.33304 29.8357 7.50008 27.8171 9.80248C27.7525 9.877 27.701 9.96248 27.6451 10.0414C28.193 10.2014 28.7125 10.3241 29.2122 10.5016C33.6615 12.083 35.0828 17.2598 32.0692 20.8981C30.8034 22.4268 29.1618 23.4427 27.3941 24.2821C27.141 24.4016 26.8856 24.5177 26.5558 24.6711C26.775 24.7117 26.913 24.7369 27.0467 24.7599C28.3234 24.9791 29.6122 25.1544 30.8746 25.4393C32.9382 25.9051 34.9163 26.6163 36.6225 27.9171C38.8669 29.6266 39.7666 31.8819 39.2033 34.6599C38.8384 36.4626 37.7162 37.759 36.2357 38.7727C35.8697 39.0225 35.485 39.2439 35.0127 39.5398H35.5135C37.1266 39.5398 38.7398 39.5661 40.3518 39.5277C41.1113 39.4981 41.6734 39.7184 42 40.4296ZM21.0117 26.876C17.6682 26.876 14.3455 27.0831 11.1006 27.9631C9.45677 28.4091 7.87651 29.0118 6.57023 30.1548C4.62285 31.8666 4.59765 34.4287 6.50777 36.1755C7.35707 36.9547 8.35871 37.4785 9.4261 37.8828C12.1658 38.9217 15.0359 39.2691 17.9345 39.439C20.3918 39.5838 22.8563 39.556 25.3098 39.3557C27.4654 39.1792 29.5991 38.8691 31.6659 38.2061C33.0664 37.7568 34.4056 37.1782 35.5015 36.1634C37.371 34.4407 37.3754 31.9499 35.5015 30.2283C35.1666 29.9267 34.8058 29.6553 34.4231 29.4173C33.2461 28.671 31.9453 28.2184 30.604 27.8765C27.4577 27.0798 24.2446 26.8793 21.0117 26.876ZM17.0786 24.4191C20.5416 24.1407 24.1207 23.2498 27.4522 21.4778C28.4645 20.9571 29.3677 20.2474 30.113 19.3869C32.0965 17.0428 31.2549 13.844 28.3739 12.792C27.3133 12.4177 26.1897 12.2546 25.0665 12.312C21.2854 12.4474 17.582 13.4229 14.2249 15.1678C13.151 15.7234 12.1756 16.4292 11.4052 17.3804C9.51376 19.7135 10.3094 22.7446 13.0929 23.8635C14.2797 24.3402 15.5269 24.4399 17.0786 24.4191ZM21.0128 2.45035C19.0687 2.45035 17.449 2.93581 16.2688 3.83113C15.3822 4.50509 14.7455 5.33356 14.8441 6.52914C14.9296 7.53405 15.517 8.25622 16.3038 8.79648C18.4419 10.2682 20.786 10.4677 23.2353 9.79043C24.2774 9.50331 25.2078 8.99812 25.9487 8.1828C27.0139 7.00256 27.0117 5.54397 25.9114 4.39441C25.5603 4.03196 25.1627 3.71763 24.729 3.45963C23.5984 2.80356 22.3156 2.45555 21.0085 2.45035H21.0128Z" fill="#00614D"/>
</svg>
