<svg width="32" height="32" viewBox="0 0 32 32" fill="none" xmlns="http://www.w3.org/2000/svg">
<path d="M31.9968 15.819C30.8198 14.6758 29.6597 13.514 28.456 12.399C28.0828 12.0533 27.5916 11.8335 27.2014 11.5863C27.3929 10.8252 27.6142 10.0795 27.7605 9.31926C27.8542 8.83451 27.8598 8.32633 27.8671 7.82784C27.8816 6.80744 27.8744 5.78703 27.8671 4.76582C27.8671 4.3449 27.6708 4.13726 27.2604 4.13968C25.8968 4.14696 24.5323 4.14696 23.1695 4.18735C22.2251 4.21563 21.3301 4.49921 20.4439 4.88135C20.393 4.79652 20.3518 4.71977 20.3001 4.63898C19.842 3.9983 19.4341 3.31157 18.9114 2.72825C18.1342 1.86135 17.2771 1.06555 16.4499 0.243085C16.1575 -0.0469583 15.8844 -0.0865477 15.6283 0.173603C14.5555 1.26349 13.4787 2.35499 12.4462 3.4788C12.0868 3.87064 11.8501 4.37479 11.5415 4.85227C11.1917 4.73189 10.8217 4.55253 10.4315 4.48063C9.63738 4.33439 8.83439 4.19058 8.02978 4.14776C6.9707 4.09121 5.90677 4.13322 4.84446 4.13403C4.30806 4.13403 4.12872 4.31096 4.13195 4.84581C4.13922 6.12636 4.1368 7.40772 4.16911 8.68746C4.19254 9.60041 4.42601 10.4754 4.77742 11.3172C4.80892 11.3932 4.8372 11.4699 4.86709 11.5459C4.4357 11.8157 3.97846 12.0363 3.60201 12.3498C2.9622 12.8798 2.3644 13.4615 1.76256 14.0359C1.24393 14.5328 0.741453 15.0474 0.238169 15.5596C-0.0494232 15.8521 -0.0849648 16.1252 0.177582 16.3813C1.28513 17.4663 2.38944 18.5554 3.53253 19.6025C3.90899 19.9474 4.39774 20.168 4.85093 20.4589C4.73056 20.8079 4.59485 21.1763 4.4769 21.5496C4.22082 22.3575 4.13599 23.1985 4.13195 24.0444C4.12711 25.0753 4.13195 26.1062 4.13195 27.1371C4.13195 27.7027 4.30079 27.8764 4.85174 27.8731C6.12167 27.8659 7.39239 27.8731 8.66151 27.8376C9.58487 27.815 10.4703 27.5815 11.3217 27.2252C11.3969 27.1937 11.4736 27.1662 11.5398 27.1444C11.8218 27.5904 12.0464 28.059 12.3719 28.4371C13.0004 29.1715 13.6782 29.8639 14.3503 30.5603C14.8253 31.0523 15.3246 31.5209 15.8133 32H16.1882C16.6317 31.5653 17.0857 31.1396 17.517 30.6928C18.2247 29.96 18.9421 29.2329 19.6069 28.4629C19.9414 28.0751 20.1724 27.5976 20.4592 27.1444C20.54 27.1759 20.6394 27.2082 20.7331 27.247C21.5571 27.5855 22.4118 27.8125 23.3028 27.8344C24.5953 27.8667 25.883 27.8651 27.1732 27.8731C27.6869 27.8731 27.8679 27.6914 27.8687 27.1759C27.8687 26.0941 27.8776 25.0115 27.8687 23.9289C27.8753 23.5227 27.8425 23.1169 27.771 22.717C27.6094 21.9495 27.3969 21.1924 27.2055 20.4249C27.5981 20.1761 28.0884 19.9563 28.4617 19.6105C29.6645 18.4956 30.8238 17.3338 32 16.1906L31.9968 15.819ZM26.8436 26.8471C24.782 26.759 22.7284 27.1307 20.8187 26.1466C21.3543 24.2415 21.2687 22.3744 20.4956 20.4993C22.3875 21.287 24.2512 21.3484 26.1399 20.8265C27.1239 22.7429 26.7523 24.7885 26.8436 26.8471ZM20.8195 5.86298C22.7422 4.88297 24.7981 5.25138 26.8436 5.16816C26.7507 7.23159 27.1271 9.28856 26.1383 11.188C24.227 10.6531 22.3665 10.7364 20.4923 11.5111C21.2792 9.62869 21.3462 7.76482 20.8195 5.86298ZM5.86235 20.8232C7.7737 21.3548 9.63496 21.2765 11.5116 20.5001C10.7231 22.3898 10.6561 24.2625 11.1884 26.1555C9.95567 26.7517 6.37937 27.125 5.16599 26.7792C5.25566 24.7877 4.87921 22.7412 5.86235 20.824V20.8232ZM11.5132 11.5184C9.62042 10.7315 7.75754 10.6604 5.85831 11.1904C4.8784 9.27159 5.24758 7.22028 5.16033 5.16493C7.21224 5.26027 9.26497 4.88135 11.1804 5.86621C10.6553 7.76159 10.7255 9.62546 11.5132 11.5184ZM22.3536 16.008C24.2237 15.2809 25.5946 14.0973 26.6271 12.4952C28.3615 13.2708 29.4141 14.7929 30.7737 16.0129C29.3947 17.2328 28.3502 18.7598 26.623 19.5192C25.5906 17.9091 24.2165 16.7303 22.3536 16.0064V16.008ZM5.37684 12.4952C6.41249 14.111 7.80035 15.2857 9.64627 16.0121C7.77127 16.7327 6.40359 17.9349 5.36956 19.5209C3.63593 18.7323 2.58655 17.2199 1.22938 16.0024C2.60513 14.7881 3.64321 13.2676 5.37684 12.4936V12.4952ZM16.0032 9.6602C15.2761 7.78663 14.0845 6.41236 12.4899 5.37822C13.2686 3.64524 14.7857 2.59736 16.004 1.2336C17.2214 2.60706 18.7506 3.64928 19.5132 5.38146C17.9137 6.41155 16.7278 7.78098 16.0032 9.6602ZM12.4891 26.6362C14.1047 25.5997 15.2809 24.2125 16.0056 22.3696C16.7326 24.2351 17.9145 25.6061 19.5148 26.6394C18.7369 28.3724 17.2165 29.4243 15.9983 30.7825C14.7752 29.4042 13.2613 28.3627 12.4891 26.6322V26.6362ZM25.6447 12.084C24.8369 13.4873 23.0952 14.7663 21.5142 15.2082C20.1409 15.5911 18.749 15.4829 17.3579 15.4877C17.3466 15.4877 17.3353 15.4603 17.345 15.4724C17.9258 14.8713 18.4808 14.2492 19.0851 13.6804C20.4051 12.4386 21.9933 11.8529 23.8004 11.8909C24.4047 11.9022 25.0065 12.0129 25.6447 12.084ZM6.36886 19.8796C6.83764 19.1829 7.41156 18.5632 8.07017 18.0424C10.0268 16.4661 12.3275 16.4144 14.6993 16.5477C14.6686 16.5931 14.6351 16.6365 14.5991 16.6778C14.0918 17.186 13.5861 17.6966 13.0739 18.1991C12.3398 18.9277 11.4453 19.4744 10.4622 19.7956C9.12036 20.2326 7.76965 20.2294 6.36886 19.878V19.8796ZM19.8598 25.6716C19.4946 25.3654 19.1481 25.106 18.833 24.8047C17.6213 23.6615 16.8231 22.2775 16.6268 20.614C16.5129 19.6445 16.546 18.6629 16.5121 17.6869C16.5121 17.5681 16.5121 17.4494 16.5121 17.3411C17.1438 17.947 17.778 18.5158 18.3645 19.1298C19.2798 20.0888 19.8186 21.2474 20.0359 22.553C20.2038 23.5924 20.144 24.6559 19.8606 25.6699L19.8598 25.6716ZM12.1304 6.37277C12.826 6.84314 13.4455 7.41722 13.9674 8.07506C15.5427 10.0335 15.5936 12.3344 15.4635 14.7065C15.4182 14.6754 15.3745 14.6419 15.3327 14.6063C14.8245 14.0981 14.314 13.5932 13.8115 13.0801C13.0824 12.346 12.5352 11.4515 12.2136 10.4681C11.7765 9.12617 11.7798 7.77371 12.1312 6.37116L12.1304 6.37277ZM19.8994 6.35258C19.9705 6.83733 20.0609 7.27522 20.0949 7.71473C20.2403 9.40652 19.8703 10.9803 18.8177 12.3199C18.1916 13.1181 17.4322 13.8113 16.731 14.5505C16.6621 14.6137 16.5895 14.6728 16.5137 14.7275C16.5137 14.01 16.5137 13.3467 16.5137 12.6826C16.5186 11.7293 16.6551 10.7986 17.0049 9.905C17.5817 8.43459 18.5543 7.29057 19.9002 6.34773L19.8994 6.35258ZM15.4894 17.3403C15.4894 17.9955 15.4894 18.6459 15.4894 19.2971C15.4845 20.2617 15.352 21.2046 14.9982 22.1086C14.4214 23.5782 13.4496 24.7255 12.1029 25.6635C12.0318 25.1787 11.9413 24.7408 11.9066 24.2997C11.7644 22.5958 12.1376 21.0107 13.2088 19.6663C13.8672 18.8406 14.663 18.1199 15.39 17.3532C15.4029 17.3403 15.4304 17.3459 15.4902 17.3395L15.4894 17.3403ZM14.7365 15.4675C13.8155 15.4675 12.9641 15.4788 12.1142 15.4635C11.3537 15.4426 10.603 15.2861 9.8975 15.0014C8.42724 14.4285 7.28334 13.4534 6.38421 12.1615C6.41497 12.1397 6.44802 12.1213 6.48277 12.1066C8.05644 11.7309 9.59215 11.8141 11.0923 12.4564C12.5925 13.0987 13.5635 14.3518 14.7373 15.4667L14.7365 15.4675ZM25.6673 19.9062C25.1673 19.979 24.7399 20.0622 24.3078 20.1001C22.6048 20.2504 21.0207 19.8763 19.6756 18.8075C18.8403 18.1458 18.1132 17.3459 17.3385 16.6067C17.328 16.5962 17.3321 16.5687 17.3256 16.5259C17.3749 16.5259 17.4217 16.5138 17.4686 16.5146C18.3427 16.5275 19.2192 16.4976 20.0892 16.5631C22.4586 16.7465 24.2464 17.9341 25.6682 19.9054L25.6673 19.9062Z" fill="#00614D"/>
</svg>
