<svg width="34" height="34" viewBox="0 0 34 34" fill="none" xmlns="http://www.w3.org/2000/svg">
<path d="M9.02966 0.00199203C9.31582 0.0770282 9.60995 0.130152 9.88748 0.231085C11.5646 0.839343 12.5824 2.02398 12.925 3.77571C12.9602 3.95434 13.01 4.05793 13.1906 4.13894C13.7184 4.37666 14.1002 4.78969 14.1387 5.36741C14.1879 6.09785 14.5524 6.57463 15.1094 6.99098C15.6133 7.36749 16.0721 7.80442 16.5502 8.21613C16.9147 8.53088 17.0813 8.92067 16.9565 9.39944C16.8317 9.87821 16.4918 10.1604 15.9984 10.2441C14.2224 10.5456 12.4477 10.8517 10.6709 11.1492C10.1969 11.2282 9.78789 11.0927 9.50704 10.6843C9.22619 10.276 9.23482 9.8377 9.48778 9.40541C9.93528 8.64244 10.3861 7.88145 10.8157 7.10851C10.8973 6.96109 10.9153 6.75989 10.9093 6.58525C10.9007 6.34421 10.8323 6.10515 10.807 5.86344C10.734 5.15824 11.0029 4.60642 11.5991 4.23124C11.7751 4.12101 11.8342 4.03203 11.7857 3.81622C11.4126 2.14816 9.86026 0.980118 8.20703 1.14347C6.44359 1.31745 5.12965 2.70462 5.11305 4.45701C5.09379 6.55935 5.10707 8.66169 5.10707 10.7654C5.10707 17.2167 5.10707 23.6683 5.10707 30.12V30.6048H6.0366C7.52251 30.6048 8.47726 31.2854 8.9719 32.6746C8.99433 32.7226 9.02792 32.7645 9.06984 32.7968C9.11177 32.8291 9.16082 32.851 9.21291 32.8605C10.8506 32.8711 12.4884 32.8711 14.1261 32.8605C14.17 32.8564 14.2122 32.8418 14.2493 32.818C14.2863 32.7942 14.3172 32.7619 14.3392 32.7237C14.6048 31.8359 14.8558 30.9441 15.1134 30.0423C14.8877 29.9892 14.6825 29.9514 14.4833 29.8916C13.3128 29.541 12.4955 28.5031 12.4835 27.2866C12.4643 25.3609 12.4689 23.4352 12.4835 21.5095C12.4888 20.5639 13.1966 19.8653 14.148 19.8414C14.7097 19.8275 15.2714 19.8414 15.8743 19.8414V19.4529C15.8743 17.7377 15.8743 16.0219 15.8743 14.3067C15.8743 12.5483 17.0694 11.3451 18.8295 11.3411C21.7615 11.3344 24.6937 11.3344 27.6261 11.3411C29.4088 11.3444 30.6019 12.5417 30.6059 14.3213C30.6099 16.0259 30.6059 17.7298 30.6059 19.4344V19.8394C31.0381 19.8394 31.4458 19.866 31.8488 19.8348C32.9078 19.7531 33.6455 20.1562 34 21.1841V27.6252C33.9728 27.7063 33.9416 27.7866 33.9183 27.8689C33.6209 28.9195 32.9536 29.6087 31.9059 29.9208C31.7293 29.9733 31.5454 29.9985 31.3535 30.039C31.6257 30.9906 31.892 31.9216 32.1635 32.8685C32.534 32.8685 32.8872 32.8851 33.2385 32.8638C33.5897 32.8426 33.836 32.9614 34 33.2696V34H0V33.0046C0.024566 32.9336 0.054444 32.8645 0.0730344 32.7921C0.241013 32.1374 0.55041 31.5424 1.13003 31.1984C1.60675 30.9169 1.77473 30.5968 1.71763 30.0649C1.67978 29.709 1.92677 29.4852 2.24878 29.4753C2.58076 29.4646 2.81247 29.6877 2.8377 30.0576C2.84899 30.2296 2.8377 30.4029 2.8377 30.5736H3.97239V15.7098C3.97239 11.9912 3.96176 8.27257 3.97703 4.55396C3.985 2.67673 4.86606 1.30018 6.53123 0.456193C6.9555 0.240381 7.44283 0.148744 7.90095 0L9.02966 0.00199203ZM28.3345 22.6695C28.3345 22.2665 28.3345 21.9391 28.3345 21.6071C28.3306 20.8859 28.6526 20.364 29.2774 20.0134C29.3623 19.9649 29.4593 19.8414 29.4593 19.7524C29.4686 17.8712 29.4872 15.99 29.454 14.1081C29.4374 13.1552 28.701 12.4819 27.747 12.4792C24.7371 12.4713 21.7272 12.4713 18.7173 12.4792C17.7214 12.4792 17.001 13.2097 16.997 14.2011C16.9904 16.0265 16.997 17.8533 16.9917 19.6781C16.9917 19.8494 17.0289 19.9496 17.1969 20.038C17.819 20.366 18.1264 20.8959 18.1264 21.6018C18.1264 21.9398 18.1264 22.2778 18.1264 22.6888C19.269 21.807 20.5664 22.224 21.8206 22.0799C21.7157 21.967 21.644 21.8866 21.5676 21.8103C21.2715 21.5121 20.9701 21.2173 20.6759 20.9185C20.3506 20.5904 20.3141 20.2784 20.5657 20.02C20.8174 19.7617 21.1513 19.7996 21.4647 20.1084C21.6851 20.3255 21.9029 20.546 22.1227 20.7651C22.28 20.9225 22.4387 21.0785 22.6538 21.2963C22.6538 20.4231 22.6538 19.6495 22.6538 18.8759C22.6538 18.4111 22.8729 18.1355 23.2321 18.1408C23.5913 18.1461 23.7845 18.4018 23.7865 18.8586C23.7865 19.5559 23.7865 20.2531 23.7865 20.9497C23.7865 21.0393 23.8005 21.129 23.8078 21.2153L23.9067 21.2691C23.9795 21.1581 24.0594 21.0519 24.1457 20.951C24.4544 20.6336 24.7639 20.3169 25.0865 20.0141C25.1881 19.9095 25.327 19.8494 25.4727 19.8468C25.6185 19.8442 25.7594 19.8993 25.8647 20.0001C26.0897 20.2106 26.101 20.5486 25.8846 20.8056C25.8062 20.8986 25.7159 20.9809 25.6296 21.0666L24.576 22.1084C25.299 22.1084 25.9131 22.1184 26.5266 22.1084C27.174 22.0905 27.7476 22.2844 28.3345 22.6695ZM29.0476 32.8605C28.5125 31.9249 28.0086 31.0337 27.488 30.1526C27.4435 30.0769 27.2888 30.0344 27.1813 30.0337C24.5501 30.0277 21.9195 30.0337 19.289 30.0251C19.0984 30.0251 18.9908 30.0835 18.8979 30.2515C18.4909 30.9853 18.0693 31.7124 17.653 32.4428C17.5786 32.5756 17.5063 32.7031 17.416 32.8638L29.0476 32.8605ZM16.997 28.8876V26.8291C16.997 25.1026 16.997 23.3761 16.997 21.6496C16.997 21.2087 16.8018 20.9816 16.3995 20.9769C15.6585 20.9676 14.9173 20.9676 14.1759 20.9769C13.8227 20.9816 13.6082 21.1868 13.6076 21.534C13.6016 23.471 13.5923 25.408 13.6149 27.3444C13.6242 28.1279 14.3173 28.8318 15.0988 28.8776C15.7156 28.9161 16.3331 28.8876 16.997 28.8876ZM29.4672 28.8969C30.0555 28.8969 30.586 28.9015 31.1165 28.8969C32.1297 28.8856 32.856 28.1718 32.8607 27.1624C32.8686 25.3264 32.8647 23.4896 32.8607 21.6509C32.8607 21.1735 32.6542 20.9776 32.1642 20.9749C31.5228 20.9716 30.8814 20.9749 30.2387 20.9749C29.6312 20.9749 29.4659 21.1369 29.4652 21.7339C29.4652 24.0014 29.4652 26.2693 29.4652 28.5376L29.4672 28.8969ZM18.137 28.8743H28.3067V26.6604H18.137V28.8743ZM18.1456 25.4831H28.3266C28.3266 25.2573 28.3425 25.0488 28.3266 24.8429C28.2423 23.8867 27.5484 23.2433 26.5877 23.2413C24.3445 23.236 22.1008 23.236 19.8566 23.2413C18.9716 23.2413 18.2798 23.8356 18.1543 24.6982C18.1151 24.9445 18.1456 25.2015 18.1456 25.4824V25.4831ZM15.8683 9.12054C15.1566 8.50963 14.5072 7.96313 13.8718 7.40069C13.7977 7.32825 13.7061 7.27633 13.6058 7.25002C13.5056 7.22371 13.4003 7.22391 13.3002 7.25062C12.933 7.32499 12.5572 7.36085 12.194 7.44983C12.0321 7.4902 11.8897 7.58636 11.7917 7.72142C11.4073 8.33963 11.05 8.97512 10.6842 9.60462C10.6105 9.73145 10.5395 9.86094 10.4386 10.0389L15.8683 9.12054ZM7.80999 32.8585C7.57297 32.2118 7.00728 31.7582 6.37255 31.7483C5.14469 31.7288 3.91706 31.7288 2.68964 31.7483C2.03234 31.7595 1.3903 32.2948 1.28872 32.8579L7.80999 32.8585ZM16.2892 30.0417L15.4925 32.8346C15.94 32.9575 16.1717 32.8087 16.3636 32.4289C16.7268 31.7104 17.1544 31.0231 17.5527 30.3226C17.5992 30.2402 17.6351 30.1526 17.6855 30.0417H16.2892ZM28.7535 30.0291C28.8292 30.1745 28.8757 30.2708 28.9281 30.3611C29.3265 31.0616 29.7554 31.7469 30.1159 32.4667C30.3085 32.8519 30.5521 32.9442 30.9631 32.8286C30.7082 31.9322 30.4552 31.0357 30.1889 30.1373C30.1737 30.0842 30.0528 30.0344 29.9791 30.0324C29.5934 30.0237 29.207 30.0291 28.7535 30.0291ZM13.1408 6.13105C13.0459 5.73263 13.1209 5.28308 12.6621 5.14894C12.5635 5.12956 12.462 5.13188 12.3644 5.15573C12.2668 5.17958 12.1756 5.22439 12.0971 5.28706C11.7738 5.58654 11.9809 5.95641 12.0274 6.32229L13.1408 6.13105Z" fill="#00614D"/>
</svg>
