<svg width="39" height="47" viewBox="0 0 39 47" fill="none" xmlns="http://www.w3.org/2000/svg">
<g clip-path="url(#clip0_189_285)">
<path d="M5.13834 46.9998C4.27514 46.6112 4.02689 45.9112 4.04397 45.0007C4.08041 43.1971 4.0508 41.3923 4.05877 39.5876C4.05877 39.3312 4.0098 39.1875 3.73877 39.0829C1.33821 38.1633 0.0217738 36.2792 0.0172186 33.6709C0.00127562 25.1517 -0.0146642 16.6325 0.0240545 8.11323C0.0399975 4.60599 1.65138 2.02643 4.86161 0.600999C5.68042 0.240191 6.56242 0.048288 7.45577 0.0365753C15.4409 -0.00634081 23.4257 -0.0124721 31.4101 0.0181822C35.5599 0.0342758 39.0502 3.49898 38.999 7.9293C38.9887 8.77076 38.999 9.61222 38.999 10.4583C38.999 11.7458 38.4786 12.2757 37.2134 12.278C35.9869 12.278 34.7593 12.278 33.5317 12.278H32.9737V12.8953C32.9737 19.824 32.9737 26.7526 32.9737 33.6812C32.9737 36.4275 31.3338 38.6036 28.7773 39.2324C28.2452 39.3499 27.7013 39.404 27.1568 39.3933C23.4455 39.4071 19.733 39.3933 16.0206 39.4117C15.7418 39.4183 15.4718 39.5114 15.2473 39.6784C12.43 41.8981 9.62857 44.1409 6.82033 46.3652C6.50374 46.6158 6.13136 46.7929 5.78403 47.0032L5.13834 46.9998ZM30.0618 12.2746H14.4137C14.2463 12.2746 14.0789 12.2746 13.9138 12.2619C13.0392 12.1757 12.5222 11.6055 12.5017 10.7158C12.4733 9.45129 12.5632 8.16496 12.3878 6.92231C11.995 4.03812 8.80978 2.2092 6.13136 3.24378C4.1419 4.00938 2.92454 5.80611 2.92112 8.10288C2.90822 16.6225 2.90822 25.1413 2.92112 33.6594C2.92112 35.3124 3.84582 36.3033 5.47656 36.4631C6.44794 36.5597 6.95698 37.108 6.95698 38.084C6.95698 39.399 6.95698 40.7141 6.95698 42.0292C6.95698 42.1568 6.97179 42.2855 6.98431 42.489C7.19499 42.3235 7.34872 42.2051 7.50018 42.0844C9.61718 40.4003 11.741 38.722 13.8489 37.0264C14.3081 36.6487 14.8864 36.45 15.4785 36.4666C19.3572 36.4758 23.2359 36.4758 27.1146 36.4666C27.432 36.4792 27.7497 36.4534 28.061 36.3896C29.3375 36.07 30.0504 35.0745 30.0516 33.6307C30.0516 26.6714 30.0516 19.7124 30.0516 12.7539L30.0618 12.2746ZM15.3817 9.30875H36.0735C36.0735 8.73398 36.094 8.1868 36.0735 7.64077C35.9516 4.9566 33.8961 2.95295 31.2291 2.94721C25.5351 2.93571 19.8412 2.93571 14.1473 2.94721C14.0334 2.94721 13.9275 2.96905 13.7601 2.98629C15.2348 4.86923 15.5491 7.00967 15.3817 9.30875Z" fill="#00614D"/>
<path d="M16.8996 18.9149C14.1263 18.9149 11.3534 18.9149 8.58082 18.9149C7.83491 18.9149 7.37484 18.5528 7.31335 17.9413C7.27613 17.6813 7.33758 17.4168 7.48541 17.2006C7.63323 16.9844 7.8565 16.8327 8.1105 16.7756C8.28704 16.7342 8.46791 16.7145 8.64915 16.717C14.1639 16.717 19.6794 16.717 25.1957 16.717C25.9052 16.717 26.3538 16.9871 26.4951 17.4895C26.7069 18.2344 26.2183 18.8839 25.3995 18.9149C24.8404 18.9356 24.279 18.9149 23.7187 18.9149H16.8996Z" fill="#00614D"/>
<path d="M16.9105 25.0635C14.1523 25.0635 11.3942 25.0635 8.63606 25.0635C8.18055 25.0635 7.76375 24.9842 7.48589 24.5623C7.3946 24.4262 7.33543 24.2708 7.31294 24.1081C7.29045 23.9453 7.30524 23.7795 7.35616 23.6234C7.40708 23.4673 7.49278 23.3251 7.60668 23.2077C7.72057 23.0902 7.85962 23.0007 8.01315 22.946C8.17093 22.8922 8.33626 22.8642 8.50282 22.8633C14.1087 22.8633 19.7153 22.8633 25.3227 22.8633C25.7531 22.8633 26.1255 22.9909 26.3715 23.3817C26.4609 23.5191 26.5176 23.6755 26.5372 23.8387C26.5567 24.0019 26.5386 24.1675 26.4842 24.3225C26.4299 24.4774 26.3407 24.6176 26.2238 24.732C26.1068 24.8464 25.9652 24.9319 25.8101 24.9819C25.591 25.0406 25.3648 25.0673 25.1382 25.0612C22.396 25.0658 19.6534 25.0666 16.9105 25.0635Z" fill="#00614D"/>
<path d="M16.9559 29.0114C19.714 29.0114 22.4718 29.0114 25.2292 29.0114C26.0263 29.0114 26.4944 29.3896 26.5365 30.046C26.5588 30.2917 26.4933 30.5374 26.352 30.7387C26.2106 30.94 26.0026 31.0837 25.7655 31.1438C25.56 31.1929 25.3492 31.2157 25.1381 31.2116C19.6673 31.2116 14.197 31.2116 8.72701 31.2116C8.5157 31.2151 8.30472 31.1935 8.0984 31.1473C7.8708 31.0885 7.66907 30.9549 7.525 30.7676C7.38094 30.5802 7.30273 30.3498 7.30273 30.1127C7.30273 29.8755 7.38094 29.6451 7.525 29.4578C7.66907 29.2705 7.8708 29.1369 8.0984 29.0781C8.30467 29.0317 8.51572 29.0105 8.72701 29.0149C11.47 29.0095 14.2129 29.0084 16.9559 29.0114Z" fill="#00614D"/>
</g>
<defs>
<clipPath id="clip0_189_285">
<rect width="39" height="47" fill="white"/>
</clipPath>
</defs>
</svg>
