<svg width="29" height="29" viewBox="0 0 29 29" fill="none" xmlns="http://www.w3.org/2000/svg">
<g clip-path="url(#clip0_189_414)">
<path d="M28.9983 14.5002C28.9983 17.5099 28.9983 20.5197 28.9983 23.5294C28.9983 26.2532 27.1928 28.4134 24.5105 28.8975C24.15 28.9638 23.7844 28.9979 23.4178 28.9994C17.4421 29.0051 11.4661 29.0051 5.48982 28.9994C2.35179 28.9994 0 26.6519 0 23.5199C0 17.501 0 11.4819 0 5.46243C0 2.35547 2.35784 0.00281617 5.47343 0.00195312C11.4935 0.00195312 17.5129 0.00195312 23.5318 0.00195312C26.6448 0.00195312 28.9931 2.35547 28.9966 5.47106C29.0006 8.48078 29.0012 11.4905 28.9983 14.5002ZM16.4557 19.2754C16.5411 19.138 16.6354 19.0062 16.7379 18.881C18.0399 17.5744 19.3437 16.2695 20.6492 14.9663C21.2766 14.3388 21.8065 14.3354 22.4279 14.9568C23.8318 16.3595 25.2354 17.7625 26.6387 19.1658C26.7173 19.2444 26.8018 19.3169 26.9115 19.4161C26.9192 19.3229 26.9261 19.2824 26.9261 19.2435C26.9261 14.6055 26.9365 9.96752 26.9209 5.32866C26.9149 3.5085 25.4589 2.08103 23.625 2.07844C17.5411 2.06981 11.4575 2.06981 5.37418 2.07844C3.51432 2.07844 2.0808 3.52921 2.0739 5.39252C2.0644 8.1862 2.0739 10.9799 2.0739 13.7735C2.0739 13.8495 2.09029 13.9263 2.1041 14.048L5.84713 10.3015C6.46938 9.67926 7.00015 9.68013 7.62586 10.3058C10.486 13.166 13.3453 16.0269 16.2037 18.8888C16.2848 18.9691 16.334 19.0856 16.4557 19.2754ZM21.2024 26.9281L6.66874 12.3961C5.19035 13.8762 3.67916 15.3848 2.18091 16.9038C2.09979 16.9858 2.07821 17.1549 2.07735 17.2835C2.07159 19.3324 2.07015 21.3813 2.07303 23.4301C2.07303 25.5394 3.46685 26.9281 5.58303 26.9281H21.2041H21.2024ZM17.9712 20.633C17.9779 20.6462 17.9863 20.6584 17.9962 20.6693C20.0157 22.6905 22.0376 24.71 24.0617 26.7278C24.1126 26.767 24.1712 26.795 24.2337 26.8099C24.2961 26.8248 24.3611 26.8262 24.4242 26.8141C25.0481 26.6709 25.6147 26.3434 26.0502 25.8742C26.4857 25.4049 26.7702 24.8156 26.8666 24.1827C26.9243 23.6797 26.9419 23.173 26.9192 22.6672C26.9114 22.4927 26.8431 22.3264 26.7259 22.1969C25.0763 20.5306 23.423 18.8727 21.766 17.2231C21.6943 17.1506 21.6184 17.0825 21.5683 17.035L17.9712 20.633Z" fill="#00614D"/>
<path d="M21.2198 11.3931C20.5012 11.3906 19.7995 11.1746 19.204 10.7726C18.6084 10.3705 18.1458 9.80045 17.8749 9.13488C17.604 8.46931 17.537 7.73824 17.6825 7.03453C17.828 6.33082 18.1793 5.68623 18.6919 5.18263C19.2045 4.67903 19.8552 4.33915 20.5614 4.20617C21.2676 4.07318 21.9973 4.15309 22.658 4.43575C23.3187 4.7184 23.8804 5.19105 24.2719 5.79364C24.6634 6.39624 24.8669 7.10159 24.8566 7.8201C24.8417 8.77412 24.4517 9.68389 23.771 10.3526C23.0904 11.0212 22.1739 11.395 21.2198 11.3931V11.3931ZM21.2249 9.3218C21.5314 9.32313 21.8315 9.23375 22.0873 9.06493C22.3431 8.89611 22.5433 8.65538 22.6626 8.37305C22.7819 8.09072 22.815 7.77941 22.7578 7.47829C22.7006 7.17717 22.5556 6.89971 22.341 6.68084C22.1264 6.46196 21.8519 6.31145 21.552 6.24824C21.2521 6.18504 20.9402 6.21197 20.6555 6.32564C20.3709 6.43932 20.1262 6.63465 19.9523 6.88706C19.7785 7.13948 19.6831 7.43769 19.6784 7.74416C19.6757 7.94945 19.7137 8.15324 19.7901 8.34381C19.8666 8.53437 19.9799 8.70795 20.1236 8.85457C20.2673 9.00118 20.4386 9.11794 20.6276 9.19812C20.8166 9.27831 21.0196 9.32034 21.2249 9.3218V9.3218Z" fill="#00614D"/>
</g>
<defs>
<clipPath id="clip0_189_414">
<rect width="29" height="29" fill="white"/>
</clipPath>
</defs>
</svg>
