<svg width="36" height="42" viewBox="0 0 36 42" fill="none" xmlns="http://www.w3.org/2000/svg">
<path d="M22.1572 0C22.5607 0.0933875 22.9696 0.165059 23.3666 0.283422C25.683 0.971883 27.1223 2.58553 27.9628 4.791C28.1279 5.22536 28.3458 5.43168 28.7903 5.58045C31.1326 6.36338 32.5999 8.07802 33.4695 10.3226C34.4405 12.8321 34.4513 15.3503 33.3325 17.8359C33.2822 17.9542 33.2783 18.0873 33.3217 18.2084C34.1848 20.0968 34.3607 22.0948 34.2841 24.1342C34.2744 24.4013 34.3359 24.537 34.5797 24.6652C35.2271 25.0094 35.5507 25.5904 35.5734 26.3223C35.5906 26.7566 35.5906 27.191 35.5734 27.6253C35.5097 29.2433 34.2097 30.832 32.5201 31.3413C32.4126 31.3642 32.3143 31.4186 32.2375 31.4976C32.1608 31.5767 32.1089 31.6768 32.0885 31.7854C31.494 33.8378 30.3428 35.5611 28.8971 37.0944C27.022 39.0838 24.8674 40.6496 22.2079 41.4054C21.7698 41.5292 21.3167 41.602 20.8711 41.6986H19.5764C18.5871 41.4022 17.5416 41.2284 16.6192 40.7897C12.9379 39.0392 10.1694 36.3375 8.62121 32.5021C8.33638 31.7974 8.02026 31.3652 7.32653 31.0166C5.7934 30.25 4.90762 28.9773 4.9799 27.1671C4.98745 26.9781 4.97991 26.787 4.96912 26.5981C4.96351 26.5696 4.95291 26.5424 4.93782 26.5177C4.56884 26.483 4.19014 26.4862 3.8287 26.4091C3.36211 26.3121 2.92014 26.1201 2.52996 25.8448C2.13978 25.5696 1.80962 25.2171 1.55975 24.8088C1.30987 24.4004 1.14557 23.945 1.07692 23.4705C1.00828 22.9959 1.03674 22.5123 1.16057 22.0492C1.21991 21.8212 1.22638 21.6724 1.04189 21.4791C0.0277192 20.4106 -0.264664 19.1466 0.246738 17.7632C0.751666 16.3982 1.77554 15.6413 3.21912 15.4643C3.34538 15.4495 3.4612 15.3865 3.54279 15.2884C4.78677 13.4369 6.31019 12.9722 8.39033 13.8474C8.59748 13.4131 8.98264 13.1025 9.01716 12.5367C9.3581 6.89005 13.6306 1.69401 19.0575 0.29971C19.5236 0.180261 20.0004 0.099904 20.4719 0.00108696L22.1572 0ZM9.28689 26.4786C9.28689 27.5265 9.302 28.5701 9.28689 29.6125C9.26163 30.6206 9.47348 31.6204 9.90512 32.5303C11.5062 35.8966 14.0557 38.2921 17.4208 39.8265C19.3423 40.7028 21.2563 40.6475 23.1681 39.7744C25.8945 38.5289 28.048 36.6144 29.6977 34.1168C30.6989 32.5966 31.2718 30.9547 31.1661 29.0967C31.1143 28.2041 31.1412 27.3061 31.1661 26.4102C31.193 25.093 30.769 23.9333 29.9922 22.8951C28.9403 21.49 27.5366 20.5539 25.9495 19.8742C24.7048 19.3517 23.3927 19.0095 22.0525 18.8578C21.5961 18.8013 21.389 18.545 21.4289 18.166C21.4688 17.7871 21.745 17.6014 22.1971 17.6546C24.6203 17.9337 26.8839 18.6764 28.8723 20.1261C31.1315 21.7734 32.5179 23.905 32.3755 26.8348C32.3799 26.9042 32.3896 26.9732 32.4046 27.0411C32.4422 26.9923 32.4751 26.9399 32.5028 26.8847C33.4436 24.0495 33.3368 21.2609 32.1166 18.5287C31.9817 18.2269 31.9073 17.9641 32.068 17.6459C33.3109 15.1863 33.2408 12.6974 32.1187 10.2368C31.2556 8.34407 29.8811 6.9704 27.7718 6.57079C25.5273 6.13018 23.2193 6.13018 20.9747 6.57079C19.9098 6.78797 18.8784 7.16044 17.8221 7.42757C17.5844 7.48128 17.3354 7.44453 17.123 7.32441C16.9924 7.24079 16.8932 6.90633 16.9569 6.76408C17.0709 6.54357 17.2596 6.37139 17.4887 6.27868C20.2011 5.22862 23.0138 4.87895 25.9042 5.11025C26.1912 5.13306 26.4782 5.14718 26.7814 5.16781C26.5095 4.24371 25.7294 3.10459 24.9472 2.47911C23.3289 1.17603 21.4764 0.921931 19.5527 1.44968C14.963 2.71475 12.0306 5.74768 10.5816 10.2748C10.5028 10.5191 10.4618 10.7743 10.3885 11.0903C10.7272 10.7645 11.0024 10.5104 11.2721 10.2477C12.31 9.21746 13.4772 8.32818 14.744 7.6024C14.8537 7.55096 14.9729 7.52331 15.0939 7.52126C15.2149 7.5192 15.335 7.54277 15.4464 7.59045C15.5931 7.66538 15.7215 7.98789 15.6837 8.16163C15.6406 8.36253 15.4377 8.57536 15.2522 8.69047C13.0197 10.0555 11.1113 11.8962 9.66128 14.0831C9.40774 14.4588 9.27934 14.7607 9.64186 15.131C9.80046 15.2938 9.82851 15.5371 10.1533 15.5653C10.8624 15.633 11.5334 15.9198 12.0742 16.3864C12.6151 16.8529 12.9993 17.4765 13.1742 18.1715C13.2443 18.4538 13.2735 18.7459 13.3263 19.0619L13.7956 18.8512C15.476 18.1053 17.2774 17.674 19.1114 17.5786C19.543 17.5536 19.7976 17.7621 19.8235 18.1215C19.8494 18.481 19.6304 18.7285 19.215 18.7904C19.1751 18.797 19.1341 18.7959 19.0942 18.8013C18.4533 18.886 17.7995 18.9099 17.1748 19.0684C15.3655 19.5375 13.4655 19.8449 12.2604 21.553C12.1255 21.743 12.0856 21.8787 12.1374 22.0861C12.2533 22.5373 12.2792 23.007 12.2136 23.4683C12.148 23.9296 11.9921 24.3732 11.755 24.7734C11.5179 25.1736 11.2043 25.5225 10.8323 25.8C10.4603 26.0774 10.0374 26.2778 9.58791 26.3896C9.49297 26.4091 9.40449 26.4428 9.28689 26.4786ZM3.56868 16.6827C3.07704 16.6697 2.59426 16.816 2.1915 17.1001C1.78873 17.3842 1.48731 17.791 1.33164 18.2605C1.17597 18.7301 1.17429 19.2376 1.32686 19.7081C1.47943 20.1787 1.77818 20.5875 2.17906 20.8743C2.6786 21.2457 2.71852 21.3933 2.46066 21.97C2.23212 22.4528 2.17692 23.0005 2.30446 23.5197C2.43199 24.039 2.73438 24.4977 3.16014 24.8177C3.5859 25.1378 4.10871 25.2995 4.63958 25.2752C5.17045 25.251 5.67656 25.0423 6.07176 24.6847C6.55511 24.2645 6.72557 24.2645 7.21 24.6847C7.59825 25.0308 8.09145 25.2345 8.60933 25.2626C9.12722 25.2906 9.63931 25.1415 10.0623 24.8394C10.4852 24.5373 10.7942 24.1 10.9388 23.5988C11.0834 23.0975 11.0553 22.5617 10.8589 22.0785C10.5913 21.4085 10.6075 21.3466 11.1577 20.9188C11.546 20.6253 11.8317 20.2154 11.974 19.7481C12.1162 19.2808 12.1076 18.7802 11.9493 18.3181C11.7911 17.8561 11.4913 17.4564 11.0932 17.1766C10.6951 16.8968 10.219 16.7513 9.73356 16.7609C9.08622 16.7685 9.02473 16.7294 8.78521 16.1202C8.61926 15.6869 8.32736 15.3139 7.94762 15.0501C7.56788 14.7863 7.11795 14.6438 6.65653 14.6412C6.19537 14.6323 5.7425 14.7654 5.35845 15.0225C4.97441 15.2796 4.67748 15.6485 4.50734 16.08C4.2743 16.636 4.19553 16.6892 3.57084 16.6827H3.56868ZM8.06125 26.4927C7.6448 26.306 7.26826 26.167 6.91438 25.9737C6.51842 25.763 6.20122 25.914 6.18827 26.3711C6.17533 26.8283 6.16885 27.2941 6.20014 27.7535C6.26164 28.67 7.17655 29.7656 8.06125 30.0056V26.4927ZM32.327 30.1403C33.3854 29.6071 34.1525 28.9566 34.31 27.8599C34.406 27.1931 34.5376 26.4688 34.0942 25.8325C33.7521 27.189 33.19 28.4793 32.4305 29.6516C32.3723 29.7526 32.3787 29.9003 32.3291 30.1403H32.327Z" fill="#00614D"/>
<path d="M21.6657 12.5254C23.8235 12.6003 25.9554 12.7958 27.9751 13.6113C28.6073 13.8665 29.2018 14.2259 29.7887 14.5788C29.8613 14.6172 29.9249 14.6707 29.9752 14.7358C30.0255 14.8009 30.0614 14.8762 30.0804 14.9564C30.0994 15.0367 30.1012 15.1201 30.0855 15.2011C30.0698 15.282 30.037 15.3587 29.9894 15.4258C29.7974 15.7234 29.4392 15.7994 29.1058 15.5692C27.6288 14.5473 25.9489 14.1249 24.2076 13.9458C21.1036 13.6158 17.9656 13.8818 14.9602 14.7298C14.4974 14.8712 14.0422 15.0369 13.5965 15.226C13.1736 15.3944 12.8564 15.3205 12.6924 14.9871C12.5284 14.6538 12.6643 14.3106 13.0937 14.1108C14.5513 13.431 16.1147 13.1031 17.6845 12.8924C19.004 12.7165 20.3375 12.6438 21.6657 12.5254Z" fill="#00614D"/>
<path d="M19.648 35.3634C19.0352 35.3634 17.9962 35.0083 17.0715 34.3133C16.7004 34.0342 16.6109 33.677 16.8331 33.3784C17.0554 33.0797 17.3941 33.0634 17.762 33.3154C19.3912 34.4317 20.9869 34.4328 22.6053 33.3154C22.9732 33.0624 23.3195 33.0819 23.5363 33.3686C23.7672 33.6737 23.6896 34.0201 23.3109 34.3068C22.3873 35.0072 21.3494 35.3623 19.648 35.3634Z" fill="#00614D"/>
<path d="M15.4422 25.7188C16.6495 25.7448 17.6 26.607 17.6356 27.5496C17.654 27.96 17.4749 28.2185 17.1393 28.2674C16.7768 28.3216 16.5276 28.1229 16.4326 27.7081C16.2967 27.1087 15.904 26.8655 15.2987 27.0044C14.9437 27.0859 14.5909 27.1771 14.2338 27.2401C14.1575 27.2566 14.0787 27.2577 14.0019 27.2433C13.9252 27.229 13.852 27.1994 13.7867 27.1564C13.7214 27.1134 13.6652 27.0577 13.6213 26.9927C13.5775 26.9276 13.547 26.8545 13.5315 26.7775C13.4646 26.4517 13.5994 26.1824 13.8983 26.0923C14.4636 25.9229 15.0462 25.8121 15.4422 25.7188Z" fill="#00614D"/>
<path d="M24.9409 25.7227C25.3487 25.8182 25.9119 25.9257 26.4686 26.0908C26.7923 26.1874 26.9217 26.4773 26.8322 26.8085C26.8177 26.8825 26.7885 26.9528 26.7463 27.015C26.7041 27.0773 26.6498 27.1304 26.5867 27.171C26.5236 27.2115 26.4529 27.2388 26.3791 27.2512C26.3052 27.2636 26.2296 27.2607 26.1568 27.2429C25.7727 27.1788 25.4016 27.0724 25.0164 26.9877C24.8997 26.9557 24.7776 26.9487 24.6581 26.9672C24.5386 26.9857 24.4242 27.0293 24.3225 27.0951C24.2208 27.161 24.134 27.2476 24.0676 27.3494C24.0013 27.4511 23.9569 27.5658 23.9375 27.6859C23.8479 28.1203 23.5955 28.331 23.2222 28.268C22.8715 28.2083 22.6827 27.8879 22.7366 27.4623C22.8694 26.5121 23.7918 25.727 24.9409 25.7227Z" fill="#00614D"/>
<path d="M6.51579 23.2115C5.95938 23.2085 5.41631 23.0398 4.95509 22.7265C4.49387 22.4132 4.13517 21.9695 3.9242 21.4513C3.71324 20.9331 3.65947 20.3636 3.76969 19.8147C3.87991 19.2657 4.14917 18.762 4.54352 18.3669C4.93787 17.9718 5.43964 17.7031 5.98553 17.5947C6.53142 17.4862 7.09698 17.543 7.61089 17.7577C8.12479 17.9724 8.56401 18.3354 8.87315 18.8011C9.18228 19.2667 9.34749 19.8141 9.34792 20.3741C9.34564 21.1282 9.04611 21.8505 8.5151 22.3825C7.9841 22.9145 7.26503 23.2127 6.51579 23.2115ZM6.54384 21.9899C6.86137 21.9868 7.17084 21.889 7.43302 21.7087C7.6952 21.5284 7.89829 21.2737 8.01652 20.9771C8.13474 20.6805 8.16279 20.3552 8.09711 20.0425C8.03142 19.7299 7.87496 19.4438 7.64756 19.2208C7.42017 18.9977 7.13207 18.8476 6.81981 18.7895C6.50756 18.7315 6.18521 18.768 5.89363 18.8946C5.60205 19.0212 5.35437 19.232 5.18201 19.5005C5.00965 19.7689 4.92037 20.0828 4.92548 20.4023C4.93618 20.8271 5.11139 21.2309 5.41374 21.5275C5.71609 21.8241 6.12164 21.99 6.54384 21.9899Z" fill="#00614D"/>
</svg>
