<svg width="29" height="35" viewBox="0 0 29 35" fill="none" xmlns="http://www.w3.org/2000/svg">
<path d="M1.55327 34.0155C1.00436 33.8151 0.514492 33.5465 0.22257 32.9967C-0.403689 31.8016 0.355642 30.327 1.70048 30.2297C2.64777 30.1615 3.60254 30.1989 4.55482 30.1881C4.66959 30.1881 4.78437 30.1781 4.91495 30.1723C4.55815 29.7956 4.19553 29.4704 3.90195 29.0911C2.9189 27.8211 2.45065 26.3407 2.29762 24.7664C2.10467 22.7869 2.51304 20.9173 3.47779 19.1741C4.02443 18.2089 4.72699 17.3409 5.55701 16.605C7.53975 14.8053 8.69662 12.5647 9.02347 9.9216C9.14739 8.91609 9.09832 7.88979 9.11745 6.87264C9.11233 6.8285 9.09715 6.78612 9.07307 6.74878C9.04899 6.71143 9.01666 6.68011 8.97856 6.65723C8.13607 6.2497 7.77345 5.68416 7.86743 4.90071C7.95559 4.16633 8.49369 3.67314 9.3811 3.51013C9.39025 3.51013 9.3969 3.49599 9.43266 3.46189C9.36529 2.95124 9.29294 2.4173 9.22474 1.88169C9.20062 1.69539 9.17235 1.50826 9.16653 1.32114C9.14241 0.615866 9.64225 0.0378417 10.3467 0.0195446C11.3647 -0.00651487 12.3829 -0.00651487 13.4015 0.0195446C13.566 0.0208393 13.7286 0.0562346 13.8788 0.123495C14.029 0.190756 14.1637 0.288422 14.2742 0.410331C14.3848 0.532241 14.4689 0.675749 14.5213 0.831796C14.5736 0.987844 14.593 1.15305 14.5783 1.31698C14.5334 1.97817 14.4211 2.63437 14.3396 3.29223C14.3342 3.32521 14.3317 3.35861 14.3321 3.39203C14.7214 3.59995 15.1164 3.7247 15.3967 3.97421C16.2699 4.756 15.9789 6.16404 14.8702 6.60733C14.6773 6.68551 14.6207 6.77367 14.629 6.96496C14.6407 7.3808 14.6374 7.80662 14.629 8.22662C14.6224 8.6067 14.4161 8.8429 14.1142 8.83209C13.8123 8.82128 13.6385 8.59838 13.6352 8.23078C13.6302 7.74507 13.6352 7.25937 13.6352 6.74872H10.0938C10.3151 9.98065 9.75536 13.0338 7.73103 15.6885C9.06173 16.3455 10.3766 16.556 11.7672 15.958C12.9889 15.4332 14.2448 15.4831 15.4998 15.8632C15.7318 15.933 15.9631 16.007 16.1959 16.0769C16.2134 16.0827 16.2375 16.0694 16.2591 16.0653C15.9364 15.5804 15.5938 15.1063 15.2944 14.6115C14.604 13.4624 14.1191 12.2019 13.8614 10.8864C13.7849 10.5188 13.9321 10.2485 14.2365 10.1869C14.5168 10.1295 14.7579 10.3092 14.8336 10.6709C15.1663 12.2753 15.7793 13.7615 16.7931 15.0514C17.3029 15.701 17.9383 16.2499 18.4748 16.8811C18.9064 17.3893 19.4021 17.5706 20.0732 17.6421C21.2517 17.7677 22.0427 18.5295 22.4851 19.6216C22.6232 19.9642 22.6831 20.3393 22.7862 20.7285C23.8 20.5364 24.7507 20.7144 25.5882 21.3573C26.0864 21.735 26.4502 22.2627 26.6261 22.8626C26.9446 23.9305 26.7442 25.6297 24.8546 26.6817C25.3927 27.8627 25.3686 29.0246 24.6051 30.1873C25.1258 30.1873 25.5865 30.1873 26.0464 30.1873C26.4448 30.1873 26.8448 30.1781 27.2407 30.2139C28.1789 30.2971 28.8983 30.9816 28.9873 31.8374C29.0887 32.8354 28.5789 33.6197 27.6333 33.9332C27.5735 33.9575 27.5152 33.9852 27.4586 34.0164L1.55327 34.0155ZM18.187 17.9033C17.8685 17.6754 17.6298 17.4043 17.337 17.3161C16.6642 17.1124 15.9531 17.0375 15.2802 16.8354C14.1217 16.4886 13.0014 16.4794 11.8828 16.9785C11.2349 17.2679 10.5421 17.3178 9.83769 17.3111C9.08917 17.2995 8.40553 17.0616 7.72854 16.7847C7.27444 16.6 6.86358 16.5601 6.54754 17.0342C6.47152 17.1295 6.38473 17.2158 6.28888 17.2912C5.54037 17.9765 4.86754 18.7225 4.3835 19.6199C2.98543 22.2023 2.82741 24.8595 4.10239 27.5126C4.88417 29.1419 6.13086 30.2339 8.08782 30.1989C8.62592 30.189 8.86712 30.357 8.86296 30.7054C8.8588 31.0539 8.62343 31.1936 8.07452 31.1936C6.11507 31.1936 4.15561 31.1936 2.19616 31.1936C2.04141 31.1901 1.88667 31.2004 1.73375 31.2244C1.53611 31.2592 1.3564 31.3607 1.22469 31.5121C1.09297 31.6635 1.01724 31.8555 1.01017 32.0561C0.981066 32.6524 1.39192 33.0233 2.09137 33.0233H26.9313C27.0087 33.0233 27.0869 33.0233 27.1634 33.0184C27.3866 33.0055 27.5971 32.9101 27.7539 32.7507C27.9107 32.5913 28.0026 32.3793 28.0117 32.1559C28.029 31.9268 27.9563 31.7 27.8091 31.5236C27.6619 31.3472 27.4517 31.2351 27.2233 31.2111C27.0695 31.1937 26.9147 31.1868 26.76 31.1903H11.0528C10.8981 31.1903 10.7118 31.2277 10.5962 31.1562C10.4373 31.0589 10.2635 30.8917 10.2194 30.7221C10.1612 30.4934 10.3159 30.2962 10.5638 30.2339C10.6934 30.2051 10.8261 30.1926 10.9588 30.1964C12.04 30.1964 13.1278 30.1964 14.2132 30.1964C14.3263 30.1964 14.4386 30.1856 14.5866 30.1773C13.8314 29.0279 13.8082 27.8769 14.3587 26.6742C13.661 26.3524 13.0933 25.8032 12.7486 25.1165C12.3945 24.4291 12.3194 23.6315 12.539 22.8901C12.7079 22.2873 13.0673 21.7554 13.5637 21.3739C14.4053 20.7169 15.3659 20.5339 16.4213 20.7335C16.5361 19.5176 17.0734 18.5869 18.1845 17.9016L18.187 17.9033ZM22.1674 30.1532L22.16 30.2364C22.5143 30.184 22.9151 30.2181 23.2154 30.0617C24.2325 29.5311 24.5377 28.1364 23.9223 27.0776C23.4108 26.1994 23.4233 26.1628 24.344 25.7843C25.4626 25.3253 26.0398 24.0719 25.6214 23.0098C25.1557 21.8272 23.6354 21.2808 22.5151 21.8987C22.2889 22.0235 22.0701 22.105 21.8381 21.9253C21.6061 21.7457 21.646 21.5095 21.6917 21.26C21.7347 21.0556 21.7484 20.8461 21.7325 20.6379C21.5803 19.1309 20.1622 18.1977 18.8315 18.72C17.8593 19.1009 17.2597 20.2528 17.495 21.2982C17.5491 21.5378 17.5591 21.7623 17.3412 21.9303C17.1233 22.0983 16.9137 22.0268 16.6908 21.9195C16.4854 21.8149 16.2674 21.7375 16.0421 21.6891C14.7496 21.4396 13.5137 22.3545 13.4256 23.5937C13.3541 24.6034 13.9961 25.4874 15.089 25.8841C15.6878 26.1012 15.7693 26.3333 15.4166 26.8689C15.0191 27.471 14.8785 28.1164 15.0424 28.8258C15.237 29.6658 15.8832 30.1906 16.7357 30.1906C16.9573 30.1768 17.1795 30.1768 17.401 30.1906C17.9699 30.263 18.3824 29.9869 18.7392 29.6026C18.885 29.4379 19.0062 29.253 19.0993 29.0537C19.21 28.8275 19.3489 28.6478 19.6125 28.6512C19.8761 28.6545 20.0184 28.8316 20.1115 29.067C20.172 29.209 20.2515 29.3422 20.3477 29.4629C20.806 30.0501 21.3923 30.3378 22.1649 30.1515L22.1674 30.1532ZM10.4457 3.48019H13.3125C13.4056 2.7691 13.4955 2.09211 13.5844 1.41428C13.6144 1.18557 13.5636 1.00842 13.29 1.00759C12.3519 1.00343 11.4137 1.00759 10.4748 1.00759C10.2535 1.00759 10.1421 1.12735 10.1687 1.34026C10.2535 2.05135 10.3517 2.76078 10.4457 3.48019ZM11.8903 4.51398C11.0944 4.51398 10.2984 4.50649 9.50252 4.51398C9.10664 4.51897 8.85547 4.7718 8.8588 5.12194C8.86212 5.47208 9.1083 5.7166 9.48006 5.71826C11.0827 5.72658 12.6862 5.73323 14.288 5.70578C14.4752 5.70578 14.728 5.5278 14.8303 5.3598C15.0665 4.97224 14.7471 4.52146 14.2481 4.51398C13.4597 4.504 12.6754 4.51315 11.8903 4.51398Z" fill="#00614D"/>
</svg>
