<svg width="30" height="30" viewBox="0 0 30 30" fill="none" xmlns="http://www.w3.org/2000/svg">
<circle cx="15" cy="15" r="14.5" stroke="#00614D"/>
<path d="M21.3562 11.9906C21.3668 12.1222 21.3668 12.253 21.3668 12.3838C21.3668 16.387 18.067 21 12.0364 21C10.1785 21 8.45247 20.5031 7 19.64C7.26379 19.6678 7.51781 19.6776 7.79218 19.6776C9.26826 19.6809 10.7025 19.2251 11.8638 18.3838C11.1795 18.3723 10.516 18.1639 9.9662 17.7874C9.41636 17.411 9.00756 16.8854 8.79687 16.284C8.99959 16.3119 9.20313 16.3307 9.41645 16.3307C9.71036 16.3307 10.0059 16.2931 10.2803 16.2277C9.53756 16.0892 8.86971 15.7175 8.39029 15.1757C7.91086 14.6339 7.64945 13.9555 7.65052 13.2559V13.2183C8.08773 13.4431 8.59495 13.5836 9.1323 13.6024C8.68214 13.3262 8.31302 12.9514 8.05788 12.5114C7.80274 12.0715 7.6695 11.58 7.67006 11.0809C7.67006 10.5186 7.83208 10.0029 8.11622 9.55331C8.94027 10.4893 9.96805 11.255 11.133 11.8009C12.2979 12.3468 13.574 12.6606 14.8787 12.7221C14.8282 12.4966 14.7973 12.2627 14.7973 12.0282C14.7971 11.6305 14.8817 11.2366 15.0465 10.8691C15.2112 10.5016 15.4528 10.1677 15.7573 9.8865C16.0619 9.60526 16.4235 9.38222 16.8215 9.23011C17.2195 9.07799 17.646 8.9998 18.0767 9C19.0212 9 19.8736 9.36537 20.4728 9.95627C21.207 9.82517 21.9111 9.57769 22.5538 9.22478C22.3091 9.92456 21.7965 10.5179 21.1119 10.8937C21.7631 10.8252 22.3995 10.667 23 10.4246C22.5515 11.0284 21.9957 11.5578 21.3562 11.9906Z" fill="#00614D"/>
</svg>
