<svg width="30" height="30" viewBox="0 0 30 30" fill="none" xmlns="http://www.w3.org/2000/svg">
<path d="M15 7.5C14.0729 7.5 13.1666 7.77492 12.3958 8.28999C11.6249 8.80506 11.0241 9.53714 10.6693 10.3937C10.3145 11.2502 10.2217 12.1927 10.4026 13.102C10.5834 14.0113 11.0299 14.8465 11.6854 15.5021C12.341 16.1576 13.1762 16.6041 14.0855 16.7849C14.9948 16.9658 15.9373 16.873 16.7938 16.5182C17.6504 16.1634 18.3824 15.5626 18.8975 14.7917C19.4126 14.0209 19.6875 13.1146 19.6875 12.1875C19.6875 10.9443 19.1936 9.75201 18.3146 8.87294C17.4355 7.99386 16.2432 7.5 15 7.5ZM15 15C14.4437 15 13.9 14.8351 13.4375 14.526C12.9749 14.217 12.6145 13.7777 12.4016 13.2638C12.1887 12.7499 12.133 12.1844 12.2415 11.6388C12.3501 11.0932 12.6179 10.5921 13.0113 10.1988C13.4046 9.80543 13.9057 9.53756 14.4513 9.42904C14.9969 9.32052 15.5624 9.37622 16.0763 9.58909C16.5902 9.80196 17.0295 10.1624 17.3385 10.625C17.6476 11.0875 17.8125 11.6312 17.8125 12.1875C17.8118 12.9332 17.5152 13.6481 16.9879 14.1754C16.4606 14.7027 15.7457 14.9993 15 15Z" fill="#373737"/>
<path d="M15.125 2C12.5291 2 9.99154 2.76977 7.83315 4.21196C5.67475 5.65415 3.99249 7.704 2.99909 10.1023C2.00569 12.5006 1.74577 15.1396 2.2522 17.6856C2.75863 20.2316 4.00866 22.5702 5.84423 24.4058C7.67979 26.2413 10.0184 27.4914 12.5644 27.9978C15.1104 28.5042 17.7494 28.2443 20.1477 27.2509C22.546 26.2575 24.5959 24.5753 26.038 22.4169C27.4802 20.2585 28.25 17.7209 28.25 15.125C28.246 11.6453 26.862 8.30916 24.4014 5.84861C21.9408 3.38805 18.6048 2.00397 15.125 2V2ZM9.50001 24.8534V23.5625C9.50075 22.8168 9.79731 22.1019 10.3246 21.5746C10.8519 21.0473 11.5668 20.7507 12.3125 20.75H17.9375C18.6832 20.7507 19.3981 21.0473 19.9254 21.5746C20.4527 22.1019 20.7493 22.8168 20.75 23.5625V24.8534C19.043 25.8502 17.1017 26.3755 15.125 26.3755C13.1483 26.3755 11.207 25.8502 9.50001 24.8534V24.8534ZM22.6175 23.4931C22.5988 22.2634 22.0978 21.0903 21.2224 20.2265C20.347 19.3627 19.1673 18.8773 17.9375 18.875H12.3125C11.0827 18.8773 9.90298 19.3627 9.02759 20.2265C8.1522 21.0903 7.65119 22.2634 7.63251 23.4931C5.93241 21.9751 4.7335 19.9764 4.19454 17.7619C3.65557 15.5473 3.80197 13.2213 4.61435 11.0917C5.42673 8.96223 6.86677 7.12969 8.74379 5.83678C10.6208 4.54387 12.8463 3.85159 15.1255 3.85159C17.4047 3.85159 19.6301 4.54387 21.5072 5.83678C23.3842 7.12969 24.8242 8.96223 25.6366 11.0917C26.449 13.2213 26.5954 15.5473 26.0564 17.7619C25.5174 19.9764 24.3185 21.9751 22.6184 23.4931H22.6175Z" fill="#373737"/>
</svg>
