<svg width="12" height="9" viewBox="0 0 12 9" fill="none" xmlns="http://www.w3.org/2000/svg">
<path d="M11.3625 1.25625L9 2.5875V0.75C9 0.551088 8.92098 0.360322 8.78033 0.21967C8.63968 0.0790176 8.44891 0 8.25 0H1.5C1.10218 0 0.720644 0.158035 0.43934 0.43934C0.158035 0.720644 0 1.10218 0 1.5V7.5C0 7.89782 0.158035 8.27936 0.43934 8.56066C0.720644 8.84196 1.10218 9 1.5 9H8.25C8.44891 9 8.63968 8.92098 8.78033 8.78033C8.92098 8.63968 9 8.44891 9 8.25V6.405L11.3625 7.73625C11.4231 7.77585 11.4931 7.79881 11.5654 7.8028C11.6377 7.8068 11.7097 7.79169 11.7743 7.75901C11.8389 7.72633 11.8938 7.67722 11.9334 7.61661C11.973 7.55601 11.996 7.48604 12 7.41375V1.575C11.9954 1.50303 11.972 1.43353 11.9321 1.37343C11.8922 1.31333 11.8373 1.26473 11.7728 1.23248C11.7083 1.20023 11.6365 1.18545 11.5645 1.18962C11.4925 1.19379 11.4228 1.21677 11.3625 1.25625Z" fill="#00614D"/>
</svg>
