<svg width="15" height="15" viewBox="0 0 15 15" fill="none" xmlns="http://www.w3.org/2000/svg">
<path fill-rule="evenodd" clip-rule="evenodd" d="M12.8144 2.18014C12.1226 1.48701 11.2994 0.937411 10.3925 0.563184C9.48571 0.188957 8.51329 -0.00245934 7.5316 2.38538e-05C3.41513 2.38538e-05 0.0640598 3.33436 0.0623959 7.43294C0.0623959 8.74283 0.405989 10.0213 1.05907 11.149L0 15L3.95923 13.9658C5.05439 14.5592 6.28135 14.8703 7.52827 14.8708H7.5316C11.6472 14.8708 14.9983 11.5365 15 7.43791C15.0028 6.46128 14.8111 5.49377 14.436 4.59131C14.0608 3.68885 13.5097 2.86934 12.8144 2.18014ZM7.5316 13.6164H7.5291C6.41722 13.6165 5.32581 13.3188 4.36938 12.7545L4.14309 12.6203L1.79367 13.2339L2.42013 10.9544L2.27287 10.7209C1.65123 9.73595 1.32215 8.5961 1.32362 7.43294C1.32529 4.02657 4.10981 1.25527 7.53409 1.25527C8.34961 1.25346 9.15739 1.41265 9.91067 1.72362C10.664 2.03459 11.3478 2.49117 11.9226 3.06692C12.5005 3.63993 12.9585 4.32125 13.2703 5.0715C13.582 5.82175 13.7412 6.62605 13.7387 7.43791C13.7371 10.8443 10.9526 13.6164 7.5316 13.6164ZM10.9367 8.98875C10.7496 8.89519 9.83276 8.44641 9.66138 8.38431C9.49083 8.32221 9.36687 8.29158 9.24208 8.47705C9.11729 8.66252 8.75955 9.08066 8.65056 9.20486C8.54158 9.32905 8.4326 9.34396 8.24624 9.25122C8.05988 9.15849 7.45839 8.96225 6.74541 8.32966C6.1905 7.83701 5.81613 7.22926 5.70714 7.04296C5.59816 6.85666 5.6955 6.75647 5.78951 6.66374C5.87353 6.58094 5.97586 6.4468 6.06904 6.33833C6.16222 6.22987 6.193 6.15286 6.25539 6.02866C6.31779 5.90446 6.28701 5.796 6.23959 5.70326C6.193 5.6097 5.81946 4.69559 5.66388 4.32382C5.5133 3.96364 5.35939 4.01166 5.24458 4.0067C5.12568 4.00186 5.00668 3.99965 4.88768 4.00007C4.79305 4.00247 4.69994 4.0243 4.61418 4.0642C4.52843 4.10409 4.45188 4.16119 4.38934 4.23191C4.21796 4.41821 3.73627 4.86698 3.73627 5.78109C3.73627 6.6952 4.40515 7.57867 4.49833 7.70287C4.5915 7.82707 5.81446 9.70248 7.68634 10.5073C8.13226 10.6986 8.48002 10.8128 8.7504 10.8989C9.19715 11.0405 9.60397 11.0198 9.92594 10.9726C10.2845 10.9196 11.0299 10.5239 11.1855 10.09C11.3411 9.65611 11.3411 9.28434 11.2945 9.20651C11.2479 9.12868 11.1223 9.08148 10.9367 8.98875Z" fill="#373737" fill-opacity="0.8"/>
</svg>
